<svg xmlns="http://www.w3.org/2000/svg" viewBox="0 0 167.67 168.65"><defs><style>.cls-1{opacity:0.54;}.cls-2{fill:#fff;}</style></defs><title>Asset 4</title><g id="Layer_2" data-name="Layer 2"><g id="Layer_7" data-name="Layer 7"><g class="cls-1"><polygon class="cls-2" points="86.05 45.61 84.14 41.26 82.22 45.61 77.5 45.09 80.3 48.92 77.49 52.76 82.21 52.24 84.13 56.59 86.05 52.25 90.77 52.76 87.96 48.93 90.77 45.1 86.05 45.61"/><polygon class="cls-2" points="69.42 46.76 68.09 43.74 66.76 46.76 63.48 46.4 65.43 49.06 63.48 51.73 66.76 51.37 68.09 54.4 69.42 51.37 72.7 51.73 70.76 49.07 72.71 46.41 69.42 46.76"/><polygon class="cls-2" points="98.84 51.24 100.17 54.27 101.5 51.25 104.78 51.6 102.83 48.94 104.79 46.28 101.5 46.63 100.17 43.61 98.84 46.63 95.56 46.27 97.51 48.94 95.55 51.6 98.84 51.24"/><path class="cls-2" d="M83.89,0A84.48,84.48,0,0,0,.26,73.22l-.26,2,35,0,.29-1.37a49.7,49.7,0,0,1,97.17.06l.3,1.37,34.95,0-.25-2A84.49,84.49,0,0,0,83.89,0Zm51.62,71.79a53.18,53.18,0,0,0-103.34-.06L4,71.71a80.84,80.84,0,0,1,159.72.1Z"/><path class="cls-2" d="M132.18,95.84a49.7,49.7,0,0,1-96.71-.06l-.31-1.34L.1,94.42l.28,2a84.32,84.32,0,0,0,166.89.11l.28-2-35.06,0ZM163.52,98a80.85,80.85,0,0,1-159.39-.1l28.3,0A53.17,53.17,0,0,0,135.22,98Z"/><path class="cls-2" d="M29.55,41.54a3.39,3.39,0,1,0,3.38,3.39A3.39,3.39,0,0,0,29.55,41.54Z"/><path class="cls-2" d="M138,48.38A3.39,3.39,0,1,0,134.62,45,3.39,3.39,0,0,0,138,48.38Z"/><path class="cls-2" d="M106.38,74.07a4,4,0,0,0-3.86-2.79l-37.28,0-5.45-5.45a6.37,6.37,0,0,0-4.55-1.89H48.13a1.17,1.17,0,1,0,0,2.33h7.11a4.14,4.14,0,0,1,2.9,1.2L71.3,80.63l-5.92,19.93a3.67,3.67,0,0,0,1.46,4.13,3.74,3.74,0,0,0,4.38-.12L87.09,92.36h3.57a9.59,9.59,0,0,1,2.86.44l.59.19a9.48,9.48,0,0,0-.43,2.83,9.76,9.76,0,0,0,19,3l2,.65a1.17,1.17,0,0,0,.7-2.23l-2.29-.72c0-.23,0-.47,0-.71a9.76,9.76,0,0,0-18.16-5l-.84-.26A11.61,11.61,0,0,0,90.66,90h-.55L105,78.61A4,4,0,0,0,106.38,74.07Zm-2.93,14.32a7.45,7.45,0,0,1,7.44,7.44l-.57-.18a6.89,6.89,0,0,0-6.87-6.7.73.73,0,0,0-.72.72.72.72,0,0,0,.72.72,3.4,3.4,0,0,1,.45,0,5.4,5.4,0,0,1,4.94,4.76l-.91-.28a4.58,4.58,0,0,0-7.63-2.41l-2.94-.92A7.4,7.4,0,0,1,103.45,88.39Zm-1.14,7.18-.15.44a1.16,1.16,0,0,0,.73,1.47,1.19,1.19,0,0,0,1.48-.73l.16-.48,1.88.59a3.14,3.14,0,0,1-6.11-1,3.24,3.24,0,0,1,.12-.86ZM102,93a3.12,3.12,0,0,1,4.2,1.33Zm-5.69.66,2.72.85a4.48,4.48,0,0,0-.19,1.29,4.58,4.58,0,0,0,8.92,1.46l2.73.86a7.43,7.43,0,0,1-14.18-4.46ZM67.57,73.59l35,0a1.69,1.69,0,0,1,1.57,1l-35.51,0Zm2.23,29.13a1.38,1.38,0,0,1-1.64,0,1.36,1.36,0,0,1-.55-1.55l5.57-18.71,7.62,7.63a7.56,7.56,0,0,0,3,1.83Zm33.75-26L86.3,90h-.15a5.2,5.2,0,0,1-3.7-1.54L70,76l34.09,0A1.81,1.81,0,0,1,103.55,76.75Z"/><path class="cls-2" d="M42.85,34.4l-1.07-.54-2,1.74.39,1.14-1,.88-1.89-6,1-.88,5.62,2.72Zm-3.44.14,1.37-1.19-2.14-1.09Z"/><path class="cls-2" d="M49.31,23l4.26-2.21.5,1-1.55.8,2.13,4.13-1.15.59-2.14-4.12-1.55.8Z"/><path class="cls-2" d="M61.86,23.62,60.43,22.4l-.11,0-1.12.42.57,1.54-1.21.45-2-5.38,2.33-.87a2.63,2.63,0,0,1,1.81-.12,1.81,1.81,0,0,1,1.09,1.16,2.1,2.1,0,0,1,.14,1.16,1.77,1.77,0,0,1-.49,1l1.81,1.34Zm-3-1.77,1.12-.42a1.21,1.21,0,0,0,.69-.53.93.93,0,0,0,0-.79.91.91,0,0,0-.53-.57,1.26,1.26,0,0,0-.86.07L58.14,20Z"/><path class="cls-2" d="M70.05,21.35l-.69-1-2.59.6-.19,1.19-1.3.31,1.13-6.16,1.3-.3,3.69,5ZM67,19.85l1.76-.41-1.38-2Z"/><path class="cls-2" d="M77.27,14.9a2.76,2.76,0,0,1,1.17.9A2.83,2.83,0,0,1,79,17.25a2.86,2.86,0,0,1-.23,1.52,2.64,2.64,0,0,1-1,1.12,3.33,3.33,0,0,1-1.54.53l-2.38.25L73.25,15l2.42-.26A3.36,3.36,0,0,1,77.27,14.9ZM77,19a1.54,1.54,0,0,0,.52-.68,2,2,0,0,0-.2-1.84,1.71,1.71,0,0,0-.68-.57,1.78,1.78,0,0,0-.9-.13l-1.11.12L75,19.45l1.17-.12A1.72,1.72,0,0,0,77,19Z"/><path class="cls-2" d="M82,14.31l1.29,0L83.36,20l-1.29,0Z"/><path class="cls-2" d="M86.38,14.31l4.78.32-.07,1.1-1.75-.12L89,20.24l-1.29-.09.31-4.63L86.3,15.4Z"/><path class="cls-2" d="M94.25,15l1.28.19-.85,5.68-1.28-.19Z"/><path class="cls-2" d="M103.24,17.18a2.86,2.86,0,0,1,.82,1.3,3,3,0,0,1,0,1.56,2.92,2.92,0,0,1-.77,1.37,2.85,2.85,0,0,1-1.34.76,3,3,0,0,1-1.61,0,3.19,3.19,0,0,1-1.43-.76,2.88,2.88,0,0,1-.83-2.87,2.82,2.82,0,0,1,.76-1.36,3,3,0,0,1,1.33-.76,3.29,3.29,0,0,1,1.62,0A3.2,3.2,0,0,1,103.24,17.18Zm-2.6.36a1.8,1.8,0,0,0-.79.48,1.92,1.92,0,0,0-.46.84,1.8,1.8,0,0,0,0,.95,1.84,1.84,0,0,0,.47.81,1.69,1.69,0,0,0,.79.45,1.65,1.65,0,0,0,.91,0,1.72,1.72,0,0,0,.77-.49,1.82,1.82,0,0,0,.46-.84,1.91,1.91,0,0,0,0-.95,2,2,0,0,0-.45-.8,1.69,1.69,0,0,0-.79-.45A1.79,1.79,0,0,0,100.64,17.54Z"/><path class="cls-2" d="M111.8,19.87l1.14.46-2.15,5.33-1.1-.44-1.19-4.47-1.39,3.42L106,23.71l2.16-5.32,1.09.44,1.2,4.48Z"/><path class="cls-2" d="M126.89,29.25a2.84,2.84,0,0,1-.34,3,2.9,2.9,0,0,1-1.24,1,3.06,3.06,0,0,1-1.53.18,3.35,3.35,0,0,1-2.49-1.9,3,3,0,0,1-.25-1.52,2.89,2.89,0,0,1,.6-1.45,2.78,2.78,0,0,1,1.23-.95,2.83,2.83,0,0,1,1.52-.18,3.34,3.34,0,0,1,2.5,1.9Zm-2.53-.69a1.84,1.84,0,0,0-1.66.72,1.79,1.79,0,0,0-.37.89,1.9,1.9,0,0,0,.11.92,1.73,1.73,0,0,0,.55.73,1.69,1.69,0,0,0,.85.33,1.65,1.65,0,0,0,.9-.14,1.82,1.82,0,0,0,.75-.6,1.85,1.85,0,0,0,.37-.88,1.71,1.71,0,0,0-.1-.9,1.7,1.7,0,0,0-1.4-1.07Z"/><path class="cls-2" d="M130.83,32.22l3,2.87-.75.76-2-2-1,1,1.86,1.8-.75.78-1.86-1.81-1.52,1.57-.93-.9Z"/><path class="cls-2" d="M24.25,110.51a1.23,1.23,0,0,1-.71.95,1.3,1.3,0,0,1-.84.11,1.32,1.32,0,0,1-.73-.45,1.37,1.37,0,0,1-.07,1,1.46,1.46,0,0,1-.72.71,1.39,1.39,0,0,1-1.3,0,2.67,2.67,0,0,1-1.07-1.24l-1.19-2.46,5.17-2.5L23.94,109A2.57,2.57,0,0,1,24.25,110.51Zm-4.08,1a.6.6,0,0,0,.58,0,.56.56,0,0,0,.33-.45,1.25,1.25,0,0,0-.16-.73l-.56-1.15-1.22.59.55,1.16A1.4,1.4,0,0,0,20.17,111.54Zm2.06-1.16a.61.61,0,0,0,.84-.4.89.89,0,0,0-.11-.59l-.56-1.15-1.13.54.56,1.16A.87.87,0,0,0,22.23,110.38Z"/><path class="cls-2" d="M23.36,117a1.25,1.25,0,0,0,.18,1,1.2,1.2,0,0,0,.77.59,1.33,1.33,0,0,0,1-.22l2.88-1.76.67,1.11L26,119.49a2.52,2.52,0,0,1-1.28.42,2.1,2.1,0,0,1-1.19-.3,3.21,3.21,0,0,1-1.41-2.32,2.09,2.09,0,0,1,.26-1.21,2.7,2.7,0,0,1,.95-1l2.88-1.75.68,1.1L24,116.24A1.32,1.32,0,0,0,23.36,117Z"/><path class="cls-2" d="M30.64,120.25l.76,1-4.65,3.37-.76-1Z"/><path class="cls-2" d="M33.33,123.82l.83,1-3.52,3,1.59,1.88-.87.73-2.42-2.87Z"/><path class="cls-2" d="M40.15,131.66a2.63,2.63,0,0,1,.06,1.47,2.88,2.88,0,0,1-.76,1.34,2.78,2.78,0,0,1-1.31.8,2.7,2.7,0,0,1-1.49,0,3.48,3.48,0,0,1-1.4-.84l-1.72-1.66,4-4.13,1.75,1.69A3.23,3.23,0,0,1,40.15,131.66Zm-3.31,2.45a1.52,1.52,0,0,0,.87,0,1.91,1.91,0,0,0,.79-.51,1.85,1.85,0,0,0,.48-.83,1.64,1.64,0,0,0,0-.88,1.88,1.88,0,0,0-.48-.78l-.8-.77-2.48,2.56.85.82A1.65,1.65,0,0,0,36.84,134.11Z"/><path class="cls-2" d="M43.54,134.1l1,.8L41,139.4l-1-.81Z"/><path class="cls-2" d="M50.37,139l1,.67-3.1,4.82-1-.63L47,139.2l-2,3.1-1-.67L47,136.8l1,.64.34,4.63Z"/><path class="cls-2" d="M56.35,145.3l1,.48-.95,2a4.15,4.15,0,0,1-1.23,0,4.08,4.08,0,0,1-1.2-.34,3,3,0,0,1-1.24-1,3,3,0,0,1,.75-4.16,2.92,2.92,0,0,1,1.47-.48,3.41,3.41,0,0,1,1.61.34,3.26,3.26,0,0,1,1,.74,3.14,3.14,0,0,1,.69,1l-1,.53a2.26,2.26,0,0,0-.47-.75,2.21,2.21,0,0,0-.68-.51,1.81,1.81,0,0,0-1.8.14,1.85,1.85,0,0,0-.61.74,1.93,1.93,0,0,0-.18.94,1.79,1.79,0,0,0,.31.88,1.68,1.68,0,0,0,.73.61,1.94,1.94,0,0,0,.53.16,3.18,3.18,0,0,0,.62,0Z"/><path class="cls-2" d="M67.58,152.32l-.6-1a2.43,2.43,0,0,1-1.78.21,2.14,2.14,0,0,1-.89-.45,1.68,1.68,0,0,1-.52-.75,1.55,1.55,0,0,1,0-.88,1.38,1.38,0,0,1,.52-.8,3.53,3.53,0,0,1,1-.42,2.65,2.65,0,0,1-.2-.74,1.65,1.65,0,0,1,0-.63,1.25,1.25,0,0,1,.67-.84A1.7,1.7,0,0,1,67,146a1.85,1.85,0,0,1,.76.36,1.31,1.31,0,0,1,.43.57,1.08,1.08,0,0,1,0,.69,1.22,1.22,0,0,1-.57.77,4.05,4.05,0,0,1-1.14.4c.19.38.42.79.7,1.25a3.83,3.83,0,0,0,.66-.82l.63.79a5.75,5.75,0,0,1-.79.86l.64,1Zm-1.08-1.8c-.36-.6-.65-1.12-.88-1.56a2.36,2.36,0,0,0-.55.26.72.72,0,0,0-.27.4.77.77,0,0,0,.1.65,1,1,0,0,0,.58.39A1.44,1.44,0,0,0,66.5,150.52ZM66.21,148a2.82,2.82,0,0,0,.72-.26.71.71,0,0,0,.34-.44.48.48,0,0,0-.06-.41.6.6,0,0,0-.36-.25.61.61,0,0,0-.48,0,.64.64,0,0,0-.27.38A1.6,1.6,0,0,0,66.21,148Z"/><path class="cls-2" d="M79.32,149.31a1.66,1.66,0,0,0-.78-.27,1.72,1.72,0,0,0-.9.15,1.77,1.77,0,0,0-1,1.48,1.94,1.94,0,0,0,.14.93,1.8,1.8,0,0,0,.57.71,1.64,1.64,0,0,0,.86.32,1.75,1.75,0,0,0,.8-.11,2.56,2.56,0,0,0,.75-.43l.68.89a3.41,3.41,0,0,1-1.14.66,2.92,2.92,0,0,1-1.26.16,3,3,0,0,1-1.49-.53,2.82,2.82,0,0,1-1-1.16,3,3,0,0,1-.26-1.55,2.86,2.86,0,0,1,1.74-2.41,3.2,3.2,0,0,1,1.58-.24,3.28,3.28,0,0,1,2.17,1.16l-.84.86A2.22,2.22,0,0,0,79.32,149.31Z"/><path class="cls-2" d="M87.62,148.55a2.86,2.86,0,0,1,1.13,1,2.95,2.95,0,0,1-1.06,4.09,3.36,3.36,0,0,1-3.14,0,2.83,2.83,0,0,1-1.12-1,2.89,2.89,0,0,1-.43-1.51,3,3,0,0,1,.39-1.51,2.9,2.9,0,0,1,1.1-1.07,3.13,3.13,0,0,1,1.56-.41A3.17,3.17,0,0,1,87.62,148.55Zm-2.42,1a1.69,1.69,0,0,0-.64.66,1.87,1.87,0,0,0,0,1.85,1.79,1.79,0,0,0,.65.66,1.62,1.62,0,0,0,.89.23,1.69,1.69,0,0,0,.87-.25,1.82,1.82,0,0,0,.62-.67,1.89,1.89,0,0,0,.22-.94,1.75,1.75,0,0,0-1.76-1.8A1.73,1.73,0,0,0,85.2,149.57Z"/><path class="cls-2" d="M95.73,147.48l1.22-.16.77,5.69-1.17.16-3.25-3.29.5,3.66-1.23.17L91.8,148l1.17-.16,3.26,3.3Z"/><path class="cls-2" d="M103,147.09a2.87,2.87,0,0,0-.87.06,1.09,1.09,0,0,0-.48.26.39.39,0,0,0-.1.4.52.52,0,0,0,.4.37,4,4,0,0,0,.93.1,6.65,6.65,0,0,1,1,.09,1.65,1.65,0,0,1,.77.33,1.42,1.42,0,0,1,.49.81,1.52,1.52,0,0,1,0,1,1.79,1.79,0,0,1-.62.79,3,3,0,0,1-1.06.49,3.8,3.8,0,0,1-1.39.11,3.68,3.68,0,0,1-1.3-.35l.23-1.15a3.38,3.38,0,0,0,1.13.35,2.63,2.63,0,0,0,1.06,0,1.11,1.11,0,0,0,.57-.31.47.47,0,0,0,.11-.47.5.5,0,0,0-.24-.31,1.14,1.14,0,0,0-.43-.13,6.13,6.13,0,0,0-.68,0,8.74,8.74,0,0,1-1-.07,1.76,1.76,0,0,1-.75-.32,1.4,1.4,0,0,1-.49-.79,1.53,1.53,0,0,1,0-.95,1.72,1.72,0,0,1,.6-.78,3,3,0,0,1,1.07-.5,3.83,3.83,0,0,1,1.17-.13,3.78,3.78,0,0,1,1.1.18l-.21,1.17A4.37,4.37,0,0,0,103,147.09Z"/><path class="cls-2" d="M106.15,144.92l4.46-1.78.4,1-1.63.64,1.72,4.32-1.21.48-1.71-4.32-1.62.65Z"/><path class="cls-2" d="M118.74,145.38l-1.59-1-.11.06L116,145l.8,1.43-1.14.63-2.78-5,2.18-1.21a2.68,2.68,0,0,1,1.78-.39,1.87,1.87,0,0,1,1.25,1,2.38,2.38,0,0,1,.31,1.13,1.87,1.87,0,0,1-.35,1l2,1.06Zm-3.27-1.3,1-.58a1.21,1.21,0,0,0,.61-.62.89.89,0,0,0-.1-.78.87.87,0,0,0-.6-.49,1.29,1.29,0,0,0-.85.19l-1,.58Z"/><path class="cls-2" d="M123.36,140.71a1.26,1.26,0,0,0,1-.27,1.19,1.19,0,0,0,.52-.82,1.37,1.37,0,0,0-.32-1l-2-2.7,1-.78,2,2.71a2.68,2.68,0,0,1,.54,1.23,2.12,2.12,0,0,1-.2,1.21,3.22,3.22,0,0,1-2.18,1.62,2,2,0,0,1-1.22-.15,2.6,2.6,0,0,1-1-.86l-2-2.7,1-.78,2,2.71A1.35,1.35,0,0,0,123.36,140.71Z"/><path class="cls-2" d="M129.14,131.73a1.71,1.71,0,0,0-.71.4,1.85,1.85,0,0,0-.48.79,1.82,1.82,0,0,0,.46,1.72,1.84,1.84,0,0,0,.8.5,1.76,1.76,0,0,0,.91,0,1.71,1.71,0,0,0,1.24-1.12,2.22,2.22,0,0,0,.17-.85l1.13.07a3.63,3.63,0,0,1-.26,1.3,3,3,0,0,1-.7,1.06,3.09,3.09,0,0,1-1.38.78,2.8,2.8,0,0,1-1.52,0,3,3,0,0,1-1.34-.82,2.92,2.92,0,0,1-.75-1.36,3,3,0,0,1,.07-1.53,3.13,3.13,0,0,1,.85-1.35,3.18,3.18,0,0,1,1.07-.67,3.32,3.32,0,0,1,1.23-.21l.1,1.2A2.05,2.05,0,0,0,129.14,131.73Z"/><path class="cls-2" d="M130.72,128.32l3.1-3.67.84.71-1.14,1.34,3.55,3-.84,1-3.54-3L131.56,129Z"/><path class="cls-2" d="M135.35,122.57l.76-1,4.66,3.36-.76,1.05Z"/><path class="cls-2" d="M140.38,115.43a2.86,2.86,0,0,1,1.48-.4,2.89,2.89,0,0,1,1.5.43,2.91,2.91,0,0,1,1.42,2.63,3.25,3.25,0,0,1-.47,1.55,3.22,3.22,0,0,1-1.15,1.14,2.92,2.92,0,0,1-4.4-2.66,3.16,3.16,0,0,1,.48-1.54A3.07,3.07,0,0,1,140.38,115.43ZM140,118a1.88,1.88,0,0,0,.23.9,2,2,0,0,0,1.59.95,2,2,0,0,0,.9-.21,1.76,1.76,0,0,0,.67-.63,1.69,1.69,0,0,0,.24-.88,1.74,1.74,0,0,0-.24-.88,1.85,1.85,0,0,0-.68-.68,2,2,0,0,0-.91-.28,1.84,1.84,0,0,0-.89.2A1.74,1.74,0,0,0,140,118Z"/><path class="cls-2" d="M143.87,108l.53-1.11,5.18,2.46-.51,1.07-4.52.93,3.33,1.58-.53,1.12-5.19-2.47.51-1.06,4.55-.93Z"/><path class="cls-2" d="M57.9,114.19h3.74v.92H59v1.07h2.37v.92H59v1.09h2.71v.92H57.89Z"/><path class="cls-2" d="M66.14,115.19a2.5,2.5,0,0,0-.73-.13.9.9,0,0,0-.46.1.34.34,0,0,0-.16.31.44.44,0,0,0,.24.4,4,4,0,0,0,.74.28,6.52,6.52,0,0,1,.84.3,1.45,1.45,0,0,1,.55.44,1.21,1.21,0,0,1,.23.78,1.32,1.32,0,0,1-.25.81,1.42,1.42,0,0,1-.68.51,2.57,2.57,0,0,1-1,.18A3.36,3.36,0,0,1,64.3,119a3.28,3.28,0,0,1-1-.58l.45-.9a3.08,3.08,0,0,0,.85.54,2.41,2.41,0,0,0,.89.2,1,1,0,0,0,.53-.12.43.43,0,0,0,.2-.37.42.42,0,0,0-.13-.31,1.08,1.08,0,0,0-.33-.2l-.55-.18a6.09,6.09,0,0,1-.83-.28,1.43,1.43,0,0,1-.55-.43,1.19,1.19,0,0,1-.23-.76,1.29,1.29,0,0,1,.24-.78,1.52,1.52,0,0,1,.67-.51,2.5,2.5,0,0,1,1-.18,3.41,3.41,0,0,1,1,.15,3.48,3.48,0,0,1,.87.39l-.43.92A4.48,4.48,0,0,0,66.14,115.19Z"/><path class="cls-2" d="M68.81,114.2h4.11v.94h-1.5v4h-1.1v-4h-1.5Z"/><path class="cls-2" d="M78.06,114.51a2.34,2.34,0,0,1,.92.87,2.59,2.59,0,0,1,.32,1.28,2.43,2.43,0,0,1-.33,1.27,2.3,2.3,0,0,1-.93.87,2.87,2.87,0,0,1-1.36.31H74.63V114.2h2.08A2.91,2.91,0,0,1,78.06,114.51ZM77.48,118a1.33,1.33,0,0,0,.51-.54,1.67,1.67,0,0,0,.18-.79,1.62,1.62,0,0,0-.19-.79,1.38,1.38,0,0,0-.53-.54,1.45,1.45,0,0,0-.75-.2h-1v3.05h1A1.4,1.4,0,0,0,77.48,118Z"/><path class="cls-2" d="M83.33,114.21h2.1v4.91H84.32v-4h-1Z"/><path class="cls-2" d="M88.51,118.22a2,2,0,0,0,.55.08,1.09,1.09,0,0,0,.92-.39,1.62,1.62,0,0,0,.3-1.08,1.37,1.37,0,0,1-1.22.59,1.51,1.51,0,0,1-1.14-.43,1.6,1.6,0,0,1-.42-1.16,1.73,1.73,0,0,1,.22-.89,1.48,1.48,0,0,1,.61-.58,2.13,2.13,0,0,1,.94-.2,2,2,0,0,1,1.09.29,1.84,1.84,0,0,1,.71.84,3.14,3.14,0,0,1,.25,1.28,3.41,3.41,0,0,1-.27,1.37,2,2,0,0,1-.77.91,2.12,2.12,0,0,1-1.16.32,3.34,3.34,0,0,1-.8-.11,2.7,2.7,0,0,1-.71-.29L88,118A1.72,1.72,0,0,0,88.51,118.22Zm.21-3a.75.75,0,0,0-.22.58.74.74,0,0,0,.21.55.77.77,0,0,0,.58.2.88.88,0,0,0,.63-.22.72.72,0,0,0,.22-.55.76.76,0,0,0-.21-.54.79.79,0,0,0-.61-.22A.85.85,0,0,0,88.72,115.26Z"/><path class="cls-2" d="M96,116.19a1.47,1.47,0,0,1,.66.53,1.27,1.27,0,0,1,.23.77,1.65,1.65,0,0,1-.24.89A1.61,1.61,0,0,1,96,119a2.52,2.52,0,0,1-1,.2,3.2,3.2,0,0,1-1-.16,3.65,3.65,0,0,1-.91-.43l.43-.83a2.21,2.21,0,0,0,.66.39,1.7,1.7,0,0,0,.69.14,1,1,0,0,0,.65-.19.63.63,0,0,0,.24-.52.6.6,0,0,0-.23-.5,1.22,1.22,0,0,0-.7-.17H94.1l-.64,0v-2.73h3.23v.93h-2.2V116H95A2.5,2.5,0,0,1,96,116.19Z"/><path class="cls-2" d="M102.37,114.82a3.39,3.39,0,0,1,0,3.7,2,2,0,0,1-1.59.65,2,2,0,0,1-1.6-.65,2.76,2.76,0,0,1-.55-1.85,2.71,2.71,0,0,1,.56-1.85,2.27,2.27,0,0,1,3.18,0Zm-2.36.6a2.47,2.47,0,0,0-.25,1.25,2.37,2.37,0,0,0,.25,1.25.93.93,0,0,0,1.53,0,3.38,3.38,0,0,0,0-2.5.93.93,0,0,0-1.53,0Z"/><path class="cls-2" d="M105.57,114.07a.54.54,0,0,1,.15.4.66.66,0,0,1,0,.21c0,.06-.06.14-.11.23l-.5.89h-.52l.33-.89a.46.46,0,0,1-.23-.44.53.53,0,0,1,.15-.39.53.53,0,0,1,.39-.16A.51.51,0,0,1,105.57,114.07Z"/><path class="cls-2" d="M109.41,116.2a1.74,1.74,0,0,0-.55-.1.68.68,0,0,0-.31.07.24.24,0,0,0-.12.21.25.25,0,0,0,.16.24,2.71,2.71,0,0,0,.53.19,6,6,0,0,1,.66.24,1.22,1.22,0,0,1,.45.34.93.93,0,0,1,.18.6,1,1,0,0,1-.43.87,1.82,1.82,0,0,1-1.1.32A3.25,3.25,0,0,1,108,119a2.23,2.23,0,0,1-.75-.39l.35-.73a2.54,2.54,0,0,0,.65.35,2.06,2.06,0,0,0,.67.12.78.78,0,0,0,.34-.07.25.25,0,0,0,.13-.23.28.28,0,0,0-.16-.25,3,3,0,0,0-.53-.19,5,5,0,0,1-.64-.23,1.12,1.12,0,0,1-.44-.34.92.92,0,0,1-.18-.59,1,1,0,0,1,.42-.87,1.71,1.71,0,0,1,1.06-.31,3,3,0,0,1,.78.11,2.76,2.76,0,0,1,.7.31l-.37.74A2.92,2.92,0,0,0,109.41,116.2Z"/></g></g></g></svg>