<svg xmlns="http://www.w3.org/2000/svg" viewBox="0 0 14.4 20.7"><defs><style>.cls-1{fill:#3982f7;}</style></defs><title>directions</title><g id="Layer_2" data-name="Layer 2"><g id="Layer_6" data-name="Layer 6"><path id="_7" data-name="7" class="cls-1" d="M7.2,0A7.21,7.21,0,0,0,0,7.2c0,1.89,1.17,4.72,3.49,8.42,1.71,2.72,3.45,4.94,3.46,5a.32.32,0,0,0,.25.12h0a.3.3,0,0,0,.25-.12s1.75-2.26,3.46-5c2.32-3.71,3.49-6.53,3.49-8.38A7.21,7.21,0,0,0,7.2,0Zm0,10.67A3.47,3.47,0,1,1,10.67,7.2,3.47,3.47,0,0,1,7.2,10.67Z"/></g></g></svg>