<svg xmlns="http://www.w3.org/2000/svg" viewBox="0 0 502.41 175.65"><defs><style>.cls-1{font-size:35px;font-family:Raleway-Light, Raleway;}.cls-1,.cls-7{fill:#fff;}.cls-2{letter-spacing:-0.03em;}.cls-3{letter-spacing:-0.09em;}.cls-4{letter-spacing:-0.01em;}.cls-5{letter-spacing:-0.03em;}.cls-6{fill:#aaa9a9;}.cls-8{fill:#d6d5d6;}</style></defs><title>family-business</title><g id="Layer_2" data-name="Layer 2"><g id="Layer_7" data-name="Layer 7"><text class="cls-1" transform="translate(161.85 96.21)"><tspan class="cls-2">A</tspan><tspan x="22.54" y="0"> </tspan><tspan class="cls-3" x="31.53" y="0">F</tspan><tspan x="49.35" y="0">ami</tspan><tspan class="cls-4" x="107.41" y="0">l</tspan><tspan class="cls-5" x="116.09" y="0">y</tspan><tspan x="134.05" y="0" xml:space="preserve"> Business</tspan></text><rect class="cls-6" x="110.84" width="3.84" height="175.65"/><path class="cls-6" d="M32.79,79.73h3.64v9.78a2.05,2.05,0,0,0,2,2h4.24a2.05,2.05,0,0,0,2.06-2V68.91a2.05,2.05,0,0,0-2.06-2H32.79a2.05,2.05,0,0,0-2.05,2v8.76A2.06,2.06,0,0,0,32.79,79.73Zm10.82,9.78a.89.89,0,0,1-.89.89H38.48a.89.89,0,0,1-.89-.89V79.73h6Zm-11.7-20.6a.88.88,0,0,1,.88-.88h9.93a.88.88,0,0,1,.89.88v9.65H32.79a.89.89,0,0,1-.88-.89Z"/><path class="cls-6" d="M50.84,84.28h5.32a.59.59,0,1,0,0-1.17H50.84a.59.59,0,1,0,0,1.17Z"/><path class="cls-6" d="M59.49,84.28h5.32a.59.59,0,1,0,0-1.17H59.49a.59.59,0,1,0,0,1.17Z"/><path class="cls-6" d="M50.84,86.35h5.32a.59.59,0,1,0,0-1.17H50.84a.59.59,0,1,0,0,1.17Z"/><path class="cls-6" d="M59.49,86.35h5.32a.59.59,0,1,0,0-1.17H59.49a.59.59,0,1,0,0,1.17Z"/><path class="cls-6" d="M50.84,88.42h5.32a.59.59,0,1,0,0-1.17H50.84a.59.59,0,1,0,0,1.17Z"/><path class="cls-6" d="M59.49,88.42h5.32a.59.59,0,1,0,0-1.17H59.49a.59.59,0,1,0,0,1.17Z"/><path class="cls-6" d="M50.84,90.48h5.32a.58.58,0,1,0,0-1.16H50.84a.58.58,0,1,0,0,1.16Z"/><path class="cls-6" d="M59.49,90.48h5.32a.58.58,0,1,0,0-1.16H59.49a.58.58,0,1,0,0,1.16Z"/><path class="cls-6" d="M30.56,108.82a5.32,5.32,0,0,0,3.59-1.41l.16,0H64.15l.19,0a5.31,5.31,0,0,0,8-7,5,5,0,0,0-.93-1,5.07,5.07,0,0,0-1-.67,5.19,5.19,0,0,0-5.47.34l-.09.07,0,0H33.72l0,0-.08-.07a5.28,5.28,0,0,0-5.27-.46,5.19,5.19,0,0,0-1,.61,5.57,5.57,0,0,0-1,1,5.23,5.23,0,0,0-1.13,3.24A5.32,5.32,0,0,0,30.56,108.82Zm33.91-7.6a4.26,4.26,0,0,1,.73-.83,8.39,8.39,0,0,0,.87-.58,4.06,4.06,0,0,1,1.86-.46,4.16,4.16,0,1,1-4.15,4.15A4.07,4.07,0,0,1,64.47,101.22Zm-.84-.81a6.59,6.59,0,0,0-.44.72,5.34,5.34,0,0,0-.58,2.37,5.27,5.27,0,0,0,.79,2.78H57.64a3.32,3.32,0,0,0-.58-5.88ZM58,103.5a2.17,2.17,0,1,1-2.16-2.17A2.17,2.17,0,0,1,58,103.5Zm-3.39-3.09a3.43,3.43,0,0,0-1.08.69,3.3,3.3,0,0,0,.51,5.19H44.62a3.32,3.32,0,0,0-.57-5.89ZM45,103.5a2.17,2.17,0,1,1-2.16-2.17A2.17,2.17,0,0,1,45,103.5Zm-3.39-3.09A3.32,3.32,0,0,0,41,106.3H35.09a5.28,5.28,0,0,0,.79-2.79,5.18,5.18,0,0,0-.58-2.37,5.33,5.33,0,0,0-.44-.72Zm-14.46.75a3.88,3.88,0,0,1,.84-.89,4.14,4.14,0,0,1,2.58-.92,4.07,4.07,0,0,1,1.87.46,5.35,5.35,0,0,0,.85.57,4.4,4.4,0,0,1,.75.84,4.15,4.15,0,1,1-7.62,2.28A4.08,4.08,0,0,1,27.14,101.16Z"/><path class="cls-6" d="M29.86,112.25h38.7a8.5,8.5,0,0,0,8.49-7.64h2.51v3.2a4.83,4.83,0,0,0,4.82,4.83h8.86a3.72,3.72,0,0,0,2.47-6.49A19.37,19.37,0,0,1,89.5,95L87.09,80.89a3.79,3.79,0,0,0-7.53.64v5.36H72.37V82.17a3.73,3.73,0,0,0-3.72-3.72H65.4V74.7h.85a1.07,1.07,0,1,0,0-2.14H62.41a1.07,1.07,0,1,0,0,2.14h.85v3.75H49.6a.32.32,0,0,1-.32-.32V67.66a4.91,4.91,0,0,0-4.91-4.91H31.23a4.91,4.91,0,0,0-4.9,4.91V95.52a8.57,8.57,0,0,0-5,7.78v.41A8.56,8.56,0,0,0,29.86,112.25ZM81.7,81.53A1.65,1.65,0,0,1,85,81.25l2.42,14.09a21.61,21.61,0,0,0,6.89,12.42,1.56,1.56,0,0,1-1,2.73H84.38a2.68,2.68,0,0,1-2.68-2.68ZM72.37,89h7.19v13.44h-2.5a8.59,8.59,0,0,0-4.69-6.81ZM28.47,67.66a2.77,2.77,0,0,1,2.76-2.77H44.37a2.77,2.77,0,0,1,2.76,2.77V78.13a2.47,2.47,0,0,0,2.47,2.46H68.65a1.58,1.58,0,0,1,1.58,1.58V94.92a8.68,8.68,0,0,0-1.67-.17H29.86a8.52,8.52,0,0,0-1.39.12Zm-5,35.64a6.39,6.39,0,0,1,3-5.43,6.8,6.8,0,0,1,1-.5,6.49,6.49,0,0,1,1-.3,6.14,6.14,0,0,1,1.46-.18h38.7a6.59,6.59,0,0,1,1.74.25,5.88,5.88,0,0,1,1,.36,7.48,7.48,0,0,1,1,.55A6.41,6.41,0,0,1,75,103.3v.41a6.41,6.41,0,0,1-6.4,6.4H29.86a6.41,6.41,0,0,1-6.41-6.4Z"/><polygon class="cls-7" points="104.81 140.65 5.75 140.65 5.75 35.01 104.81 35.01 104.81 29.25 0 29.25 0 146.4 104.81 146.4 104.81 140.65"/><polygon class="cls-8" points="120.91 35.01 496.65 35.01 496.65 140.65 120.91 140.65 120.91 146.4 502.41 146.4 502.41 29.25 120.91 29.25 120.91 35.01"/></g></g></svg>