<svg xmlns="http://www.w3.org/2000/svg" viewBox="0 0 502.41 175.65"><defs><style>.cls-1{fill:#fff;}.cls-2{fill:#aaa9a9;}.cls-3{fill:#d6d5d6;}</style></defs><title>family-business_1</title><g id="Layer_2" data-name="Layer 2"><g id="Layer_7" data-name="Layer 7"><path class="cls-1" d="M172.91,71.36h1.54L185,96.21h-1.89L179.59,88H167.73l-3.47,8.19h-1.92Zm6.19,15.19-5.42-13-5.53,13Z"/><path class="cls-1" d="M196.64,96.21V71.36h16.17V73H198.42v9.87h12.22v1.54H198.42V96.21Z"/><path class="cls-1" d="M218.41,96.56a6.26,6.26,0,0,1-2.35-.44,6.35,6.35,0,0,1-1.91-1.19,5.44,5.44,0,0,1-1.73-4,4.36,4.36,0,0,1,.56-2.17,5.34,5.34,0,0,1,1.56-1.7,7.84,7.84,0,0,1,2.4-1.12,11.43,11.43,0,0,1,3.08-.4,17.38,17.38,0,0,1,2.95.26,15.07,15.07,0,0,1,2.68.72V84.73a5.69,5.69,0,0,0-1.47-4.12,5.3,5.3,0,0,0-4-1.52,8.12,8.12,0,0,0-2.82.56,14.58,14.58,0,0,0-3,1.61l-.67-1.19a12,12,0,0,1,6.65-2.38,7,7,0,0,1,5.18,1.91,7.16,7.16,0,0,1,1.89,5.27v8.89c0,.58.26.87.77.87v1.58l-.37.05-.33,0a1.41,1.41,0,0,1-1.12-.48,2,2,0,0,1-.49-1.13V93.16a8.1,8.1,0,0,1-3.22,2.52A10.18,10.18,0,0,1,218.41,96.56Zm.35-1.4a8.94,8.94,0,0,0,3.72-.77,6.4,6.4,0,0,0,2.61-2,2.37,2.37,0,0,0,.56-1.4V87.74A14.31,14.31,0,0,0,223,87a16.41,16.41,0,0,0-2.84-.24,10,10,0,0,0-2.48.29,6.69,6.69,0,0,0-1.93.83,3.75,3.75,0,0,0-1.24,1.27,3.31,3.31,0,0,0-.44,1.67,4.29,4.29,0,0,0,.35,1.71,3.9,3.9,0,0,0,1,1.38,4.59,4.59,0,0,0,1.49.91A4.86,4.86,0,0,0,218.76,95.16Z"/><path class="cls-1" d="M259.46,96.21h-1.75V86.06A9.58,9.58,0,0,0,256.64,81a3.62,3.62,0,0,0-3.27-1.65,5.47,5.47,0,0,0-2.13.42,6.48,6.48,0,0,0-1.86,1.17,7.74,7.74,0,0,0-1.45,1.79A9.21,9.21,0,0,0,247,85V96.21h-1.75V86.06a9.68,9.68,0,0,0-1.05-5.13,3.6,3.6,0,0,0-3.26-1.63,5.79,5.79,0,0,0-2.12.4A6.36,6.36,0,0,0,237,80.86a8.38,8.38,0,0,0-1.49,1.78,8.66,8.66,0,0,0-1,2.3V96.21h-1.75V78h1.65v4.34a8.71,8.71,0,0,1,2.94-3.43,7,7,0,0,1,4-1.23,5.23,5.23,0,0,1,3.75,1.37,5.8,5.8,0,0,1,1.71,3.57q2.6-4.93,7.14-4.94a4.58,4.58,0,0,1,4.25,2.12,11.53,11.53,0,0,1,1.28,5.93Z"/><path class="cls-1" d="M264.75,73.88V70.66h1.75v3.22Zm0,22.33V78h1.75v18.2Z"/><path class="cls-1" d="M272.13,70.66h1.78V92.6a2.22,2.22,0,0,0,.58,1.61,2.13,2.13,0,0,0,1.6.6,5.77,5.77,0,0,0,.92-.09,5.61,5.61,0,0,0,1-.26l.35,1.4a8.07,8.07,0,0,1-1.47.4,9.15,9.15,0,0,1-1.5.16,3.2,3.2,0,0,1-2.37-.9,3.24,3.24,0,0,1-.89-2.39Z"/><path class="cls-1" d="M281.9,102.37a3.27,3.27,0,0,0,.52,0c.23,0,.45,0,.65,0a1.77,1.77,0,0,0,.58-.18,1.32,1.32,0,0,0,.38-.3,4,4,0,0,0,.49-.78c.21-.4.48-1,.81-1.75s.77-1.82,1.33-3.15L278.54,78h1.82l7.24,16.48L294.36,78h1.71L286.1,102a3.13,3.13,0,0,1-1.25,1.52,4.31,4.31,0,0,1-2.32.54h-.3a1.84,1.84,0,0,1-.33,0Z"/><path class="cls-1" d="M326.45,89.77a6.26,6.26,0,0,1-.52,2.53,6.34,6.34,0,0,1-1.44,2,6.54,6.54,0,0,1-2.14,1.37,7,7,0,0,1-2.58.49H308.14V71.36h11.59a4.88,4.88,0,0,1,2.35.56,5.82,5.82,0,0,1,1.78,1.45,6.62,6.62,0,0,1,1.14,2,6.78,6.78,0,0,1,.4,2.29,6.63,6.63,0,0,1-.95,3.47,5.56,5.56,0,0,1-2.62,2.31,6.17,6.17,0,0,1,3.38,2.36A6.57,6.57,0,0,1,326.45,89.77ZM309.93,73v9.94H319a4.1,4.1,0,0,0,1.86-.42,4.79,4.79,0,0,0,1.45-1.11,4.9,4.9,0,0,0,1-1.59,5.15,5.15,0,0,0,.35-1.85,5.44,5.44,0,0,0-.33-1.91,5.35,5.35,0,0,0-.91-1.58A4.45,4.45,0,0,0,321,73.37a3.88,3.88,0,0,0-1.78-.4Zm14.73,16.55a5.25,5.25,0,0,0-.35-1.91,5.15,5.15,0,0,0-1-1.64,4.7,4.7,0,0,0-1.48-1.14,4.14,4.14,0,0,0-1.84-.42H309.93V94.6h9.84a4.51,4.51,0,0,0,1.94-.42A4.83,4.83,0,0,0,323.25,93a5.85,5.85,0,0,0,1-1.63A4.69,4.69,0,0,0,324.66,89.52Z"/><path class="cls-1" d="M336.42,96.56q-5.81,0-5.81-8V78h1.75V88.26Q332.36,95,337,95a6.34,6.34,0,0,0,2.24-.4,7.92,7.92,0,0,0,2-1.12,8,8,0,0,0,1.66-1.73A8.92,8.92,0,0,0,344,89.49V78h1.75V93.76c0,.58.24.87.73.87v1.58l-.31,0H346a1.87,1.87,0,0,1-1.24-.44,1.41,1.41,0,0,1-.55-1.17V91.9a8.58,8.58,0,0,1-3.27,3.43A8.7,8.7,0,0,1,336.42,96.56Z"/><path class="cls-1" d="M357.11,96.56a11.9,11.9,0,0,1-4-.7,9.46,9.46,0,0,1-3.36-2.1l.88-1.19a10.34,10.34,0,0,0,3,2,9.28,9.28,0,0,0,3.47.63,6.67,6.67,0,0,0,3.83-1,3.18,3.18,0,0,0,1.45-2.78A2.63,2.63,0,0,0,362,90a3,3,0,0,0-1.11-1,8.84,8.84,0,0,0-1.82-.72q-1.08-.32-2.52-.66c-1-.24-1.92-.47-2.67-.7a7.7,7.7,0,0,1-1.88-.84,3.36,3.36,0,0,1-1.1-1.19,3.9,3.9,0,0,1-.37-1.79,5.12,5.12,0,0,1,.53-2.38A4.78,4.78,0,0,1,352.54,79a6.92,6.92,0,0,1,2.14-1,9.68,9.68,0,0,1,2.57-.33,9.37,9.37,0,0,1,3.78.72,6.52,6.52,0,0,1,2.55,1.84l-1,.94a5.48,5.48,0,0,0-2.36-1.57,9.05,9.05,0,0,0-3.1-.53,8.26,8.26,0,0,0-1.9.21,4.42,4.42,0,0,0-1.56.67,3.29,3.29,0,0,0-1.05,1.17,3.5,3.5,0,0,0-.39,1.7,2.66,2.66,0,0,0,.27,1.29,2.12,2.12,0,0,0,.84.84,5.74,5.74,0,0,0,1.48.61c.61.18,1.33.37,2.17.58,1.15.28,2.16.55,3.05.81a8.52,8.52,0,0,1,2.22.94,4.26,4.26,0,0,1,1.37,1.33,3.77,3.77,0,0,1,.47,2,4.64,4.64,0,0,1-1.91,3.9A8.18,8.18,0,0,1,357.11,96.56Z"/><path class="cls-1" d="M368.17,73.88V70.66h1.75v3.22Zm0,22.33V78h1.75v18.2Z"/><path class="cls-1" d="M390.29,96.21h-1.75V86.06a10.09,10.09,0,0,0-1-5.15,3.45,3.45,0,0,0-3.17-1.61,6.57,6.57,0,0,0-2.29.42A7.94,7.94,0,0,0,380,80.91a9.13,9.13,0,0,0-1.71,1.8,7.58,7.58,0,0,0-1.09,2.23V96.21h-1.75V78h1.65v4.34a8.38,8.38,0,0,1,1.38-1.91A8.86,8.86,0,0,1,380.3,79a9.42,9.42,0,0,1,2.18-1,8.66,8.66,0,0,1,2.38-.33,4.47,4.47,0,0,1,4.2,2.08,11.87,11.87,0,0,1,1.23,6Z"/><path class="cls-1" d="M403.31,96.56a8.32,8.32,0,0,1-3.57-.76,8.76,8.76,0,0,1-2.85-2.06,9.56,9.56,0,0,1-1.89-3,9.74,9.74,0,0,1-.69-3.67,9.57,9.57,0,0,1,.69-3.63,9.3,9.3,0,0,1,1.87-3,8.71,8.71,0,0,1,2.81-2,8.81,8.81,0,0,1,7.09,0,9.09,9.09,0,0,1,2.84,2,9.41,9.41,0,0,1,1.85,3,9.62,9.62,0,0,1,.67,3.59v.43a.81.81,0,0,1,0,.34h-16a8.11,8.11,0,0,0,.74,2.92,8.42,8.42,0,0,0,1.59,2.33,7.31,7.31,0,0,0,2.22,1.54,6.63,6.63,0,0,0,2.7.56,6.42,6.42,0,0,0,1.85-.27,7.34,7.34,0,0,0,1.7-.71,6.28,6.28,0,0,0,1.4-1.11,5,5,0,0,0,1-1.41l1.54.42a5.73,5.73,0,0,1-1.13,1.8A8.06,8.06,0,0,1,408,95.3a9.29,9.29,0,0,1-2.19.92A8.78,8.78,0,0,1,403.31,96.56Zm7.14-10.15a8.15,8.15,0,0,0-.72-2.94,8,8,0,0,0-1.57-2.3,7.18,7.18,0,0,0-2.23-1.5,7,7,0,0,0-5.39,0,7,7,0,0,0-2.22,1.5,7.42,7.42,0,0,0-1.54,2.31,9,9,0,0,0-.68,2.93Z"/><path class="cls-1" d="M421.75,96.56a11.8,11.8,0,0,1-4-.7,9.28,9.28,0,0,1-3.36-2.1l.87-1.19a10.38,10.38,0,0,0,3.05,2,9.22,9.22,0,0,0,3.46.63,6.65,6.65,0,0,0,3.83-1A3.19,3.19,0,0,0,427,91.38a2.63,2.63,0,0,0-.37-1.42,2.87,2.87,0,0,0-1.1-1,9.07,9.07,0,0,0-1.82-.72q-1.1-.32-2.52-.66c-1-.24-1.92-.47-2.68-.7a7.62,7.62,0,0,1-1.87-.84,3.27,3.27,0,0,1-1.1-1.19,3.77,3.77,0,0,1-.37-1.79,5.12,5.12,0,0,1,.52-2.38A4.88,4.88,0,0,1,417.18,79a7,7,0,0,1,2.14-1,9.68,9.68,0,0,1,2.57-.33,9.3,9.3,0,0,1,3.78.72,6.63,6.63,0,0,1,2.56,1.84l-1,.94a5.61,5.61,0,0,0-2.36-1.57,9.09,9.09,0,0,0-3.1-.53,8.28,8.28,0,0,0-1.91.21,4.58,4.58,0,0,0-1.56.67,3.29,3.29,0,0,0-1.05,1.17,3.61,3.61,0,0,0-.38,1.7,2.67,2.67,0,0,0,.26,1.29A2.18,2.18,0,0,0,418,85a5.67,5.67,0,0,0,1.49.61c.6.18,1.33.37,2.17.58,1.14.28,2.16.55,3,.81a8.52,8.52,0,0,1,2.22.94,4.26,4.26,0,0,1,1.37,1.33,3.67,3.67,0,0,1,.47,2,4.63,4.63,0,0,1-1.9,3.9A8.21,8.21,0,0,1,421.75,96.56Z"/><path class="cls-1" d="M438.59,96.56a11.9,11.9,0,0,1-4-.7,9.46,9.46,0,0,1-3.36-2.1l.88-1.19a10.34,10.34,0,0,0,3,2,9.28,9.28,0,0,0,3.47.63,6.7,6.7,0,0,0,3.83-1,3.18,3.18,0,0,0,1.45-2.78A2.54,2.54,0,0,0,443.5,90a2.87,2.87,0,0,0-1.1-1,8.84,8.84,0,0,0-1.82-.72q-1.08-.32-2.52-.66c-1-.24-1.92-.47-2.68-.7a7.79,7.79,0,0,1-1.87-.84,3.27,3.27,0,0,1-1.1-1.19,3.77,3.77,0,0,1-.37-1.79,5.12,5.12,0,0,1,.53-2.38A4.78,4.78,0,0,1,434,79a7,7,0,0,1,2.13-1,9.81,9.81,0,0,1,2.58-.33,9.37,9.37,0,0,1,3.78.72,6.67,6.67,0,0,1,2.55,1.84l-1,.94a5.54,5.54,0,0,0-2.36-1.57,9.05,9.05,0,0,0-3.1-.53,8.34,8.34,0,0,0-1.91.21,4.45,4.45,0,0,0-1.55.67,3.11,3.11,0,0,0-1.05,1.17,3.5,3.5,0,0,0-.39,1.7,2.79,2.79,0,0,0,.26,1.29,2.25,2.25,0,0,0,.84.84,5.82,5.82,0,0,0,1.49.61c.61.18,1.33.37,2.17.58,1.14.28,2.16.55,3,.81a8.82,8.82,0,0,1,2.22.94,4.22,4.22,0,0,1,1.36,1.33,3.67,3.67,0,0,1,.48,2,4.64,4.64,0,0,1-1.91,3.9A8.18,8.18,0,0,1,438.59,96.56Z"/><rect class="cls-2" x="110.84" width="3.84" height="175.65"/><path class="cls-2" d="M32.79,79.73h3.64v9.78a2.05,2.05,0,0,0,2,2h4.24a2.05,2.05,0,0,0,2.06-2V68.91a2.05,2.05,0,0,0-2.06-2H32.79a2.05,2.05,0,0,0-2.05,2v8.76A2.06,2.06,0,0,0,32.79,79.73Zm10.82,9.78a.89.89,0,0,1-.89.89H38.48a.89.89,0,0,1-.89-.89V79.73h6Zm-11.7-20.6a.88.88,0,0,1,.88-.88h9.93a.88.88,0,0,1,.89.88v9.65H32.79a.89.89,0,0,1-.88-.89Z"/><path class="cls-2" d="M50.84,84.28h5.32a.59.59,0,1,0,0-1.17H50.84a.59.59,0,1,0,0,1.17Z"/><path class="cls-2" d="M59.49,84.28h5.32a.59.59,0,1,0,0-1.17H59.49a.59.59,0,1,0,0,1.17Z"/><path class="cls-2" d="M50.84,86.35h5.32a.59.59,0,1,0,0-1.17H50.84a.59.59,0,1,0,0,1.17Z"/><path class="cls-2" d="M59.49,86.35h5.32a.59.59,0,1,0,0-1.17H59.49a.59.59,0,1,0,0,1.17Z"/><path class="cls-2" d="M50.84,88.42h5.32a.59.59,0,1,0,0-1.17H50.84a.59.59,0,1,0,0,1.17Z"/><path class="cls-2" d="M59.49,88.42h5.32a.59.59,0,1,0,0-1.17H59.49a.59.59,0,1,0,0,1.17Z"/><path class="cls-2" d="M50.84,90.48h5.32a.58.58,0,1,0,0-1.16H50.84a.58.58,0,1,0,0,1.16Z"/><path class="cls-2" d="M59.49,90.48h5.32a.58.58,0,1,0,0-1.16H59.49a.58.58,0,1,0,0,1.16Z"/><path class="cls-2" d="M30.56,108.82a5.32,5.32,0,0,0,3.59-1.41l.16,0H64.15l.19,0a5.31,5.31,0,0,0,8-7,5,5,0,0,0-.93-1,5.07,5.07,0,0,0-1-.67,5.19,5.19,0,0,0-5.47.34l-.09.07,0,0H33.72l0,0-.08-.07a5.28,5.28,0,0,0-5.27-.46,5.19,5.19,0,0,0-1,.61,5.57,5.57,0,0,0-1,1,5.23,5.23,0,0,0-1.13,3.24A5.32,5.32,0,0,0,30.56,108.82Zm33.91-7.6a4.26,4.26,0,0,1,.73-.83,8.39,8.39,0,0,0,.87-.58,4.06,4.06,0,0,1,1.86-.46,4.16,4.16,0,1,1-4.15,4.15A4.07,4.07,0,0,1,64.47,101.22Zm-.84-.81a6.59,6.59,0,0,0-.44.72,5.34,5.34,0,0,0-.58,2.37,5.27,5.27,0,0,0,.79,2.78H57.64a3.32,3.32,0,0,0-.58-5.88ZM58,103.5a2.17,2.17,0,1,1-2.16-2.17A2.17,2.17,0,0,1,58,103.5Zm-3.39-3.09a3.43,3.43,0,0,0-1.08.69,3.3,3.3,0,0,0,.51,5.19H44.62a3.32,3.32,0,0,0-.57-5.89ZM45,103.5a2.17,2.17,0,1,1-2.16-2.17A2.17,2.17,0,0,1,45,103.5Zm-3.39-3.09A3.32,3.32,0,0,0,41,106.3H35.09a5.28,5.28,0,0,0,.79-2.79,5.18,5.18,0,0,0-.58-2.37,5.33,5.33,0,0,0-.44-.72Zm-14.46.75a3.88,3.88,0,0,1,.84-.89,4.14,4.14,0,0,1,2.58-.92,4.07,4.07,0,0,1,1.87.46,5.35,5.35,0,0,0,.85.57,4.4,4.4,0,0,1,.75.84,4.15,4.15,0,1,1-7.62,2.28A4.08,4.08,0,0,1,27.14,101.16Z"/><path class="cls-2" d="M29.86,112.25h38.7a8.5,8.5,0,0,0,8.49-7.64h2.51v3.2a4.83,4.83,0,0,0,4.82,4.83h8.86a3.72,3.72,0,0,0,2.47-6.49A19.37,19.37,0,0,1,89.5,95L87.09,80.89a3.79,3.79,0,0,0-7.53.64v5.36H72.37V82.17a3.73,3.73,0,0,0-3.72-3.72H65.4V74.7h.85a1.07,1.07,0,1,0,0-2.14H62.41a1.07,1.07,0,1,0,0,2.14h.85v3.75H49.6a.32.32,0,0,1-.32-.32V67.66a4.91,4.91,0,0,0-4.91-4.91H31.23a4.91,4.91,0,0,0-4.9,4.91V95.52a8.57,8.57,0,0,0-5,7.78v.41A8.56,8.56,0,0,0,29.86,112.25ZM81.7,81.53A1.65,1.65,0,0,1,85,81.25l2.42,14.09a21.61,21.61,0,0,0,6.89,12.42,1.56,1.56,0,0,1-1,2.73H84.38a2.68,2.68,0,0,1-2.68-2.68ZM72.37,89h7.19v13.44h-2.5a8.59,8.59,0,0,0-4.69-6.81ZM28.47,67.66a2.77,2.77,0,0,1,2.76-2.77H44.37a2.77,2.77,0,0,1,2.76,2.77V78.13a2.47,2.47,0,0,0,2.47,2.46H68.65a1.58,1.58,0,0,1,1.58,1.58V94.92a8.68,8.68,0,0,0-1.67-.17H29.86a8.52,8.52,0,0,0-1.39.12Zm-5,35.64a6.39,6.39,0,0,1,3-5.43,6.8,6.8,0,0,1,1-.5,6.49,6.49,0,0,1,1-.3,6.14,6.14,0,0,1,1.46-.18h38.7a6.59,6.59,0,0,1,1.74.25,5.88,5.88,0,0,1,1,.36,7.48,7.48,0,0,1,1,.55A6.41,6.41,0,0,1,75,103.3v.41a6.41,6.41,0,0,1-6.4,6.4H29.86a6.41,6.41,0,0,1-6.41-6.4Z"/><polygon class="cls-1" points="104.81 140.65 5.75 140.65 5.75 35.01 104.81 35.01 104.81 29.25 0 29.25 0 146.4 104.81 146.4 104.81 140.65"/><polygon class="cls-3" points="120.91 35.01 496.65 35.01 496.65 140.65 120.91 140.65 120.91 146.4 502.41 146.4 502.41 29.25 120.91 29.25 120.91 35.01"/></g></g></svg>