<?xml version="1.0" encoding="utf-8"?>
<!-- Generator: Adobe Illustrator 22.1.0, SVG Export Plug-In . SVG Version: 6.00 Build 0)  -->
<svg version="1.1" id="Layer_1" xmlns="http://www.w3.org/2000/svg" xmlns:xlink="http://www.w3.org/1999/xlink" x="0px" y="0px"
	 viewBox="0 0 36 31.6" enable-background="new 0 0 36 31.6" xml:space="preserve">
<title>icon-gov</title>
<g id="Layer_2_1_">
	<g id="Layer_7">
		<path fill="#FFFFFF" d="M15.3,31.6c-1.1,0-2.2-0.2-3.3-0.6C9.2,29.9,2.3,25.5,0.1,9L0,8.4C0,8,0.1,7.7,0.5,7.6L23.3,0
			c0.3-0.1,0.6,0,0.7,0.2c0.2,0.2,0.2,0.5,0.1,0.7l-0.6,1.6c-0.4,0.9-0.5,1.8-0.5,2.8c0,4.5,4,8.6,5.2,9.8c1.8-0.8,4-1.7,6.1,0.1
			c1.9,1.6,1.7,4.3,1.7,5.3c0,0.1,0,0.2,0,0.3v0.5c0,0.3-0.1,0.5-0.4,0.6l-15.9,8.3l-0.1,0.1c-0.1,0.1-0.2,0.2-0.4,0.2
			C18.1,31.2,16.7,31.7,15.3,31.6z M1.4,8.8L1.4,8.8c2.2,15.9,8.5,20,11.1,21c2,0.9,4.4,0.7,6.2-0.6l0.1-0.1h0.1
			c1-1,1.7-2.2,1.9-3.6c0-0.7-0.2-1.4-0.6-2c-0.9-1.3-2.6-1.8-4-1c-1.4,0.8-1.9,1.9-1.4,2.9c0.3,0.8,1.2,1.2,2.1,1
			c0.2-0.1,0.3-0.2,0.4-0.4c-0.1-0.4,0.1-0.7,0.5-0.8c0.3-0.1,0.7,0.1,0.8,0.4c0.1,0.3,0.1,0.6,0,1c-0.2,0.5-0.6,0.9-1.1,1.1
			c-1.5,0.5-3.2-0.2-3.9-1.6c-0.6-1.3-0.5-3.3,2-4.7c2-1.1,4.6-0.5,5.8,1.4c0.6,0.8,0.8,1.8,0.8,2.8c0,0.8-0.3,1.5-0.6,2.2l13-6.8
			v-0.1c0-0.1,0-0.3,0-0.4c0.1-0.9,0.2-2.9-1.2-4.2s-3-0.6-4.8,0.1l-0.3,0.1c-0.2,0.1-0.5,0.1-0.7-0.1c-1-0.9-6-5.6-6-11.1
			c0-1.1,0.2-2.3,0.6-3.3l0.1-0.2L1.4,8.8z"/>
		<path fill="#FFFFFF" d="M15.8,22.5c-0.4,0-0.7-0.3-0.7-0.7c0-0.3,0.1-0.5,0.4-0.6l11.8-5.8c0.3-0.2,0.7,0,0.9,0.3
			c0.2,0.3,0,0.7-0.3,0.9l-11.8,5.8C16,22.5,15.9,22.5,15.8,22.5z"/>
		<path fill="#FFFFFF" d="M21.8,16.8c-0.1,0-0.2,0-0.3,0L5.9,9.9C5.5,9.8,5.4,9.4,5.5,9c0,0,0,0,0,0c0.1-0.3,0.6-0.5,0.9-0.4
			c0,0,0,0,0,0l15.7,6.8c0.3,0.2,0.5,0.6,0.3,0.9C22.3,16.6,22.1,16.7,21.8,16.8L21.8,16.8z"/>
		<path fill="#FFFFFF" d="M7.1,17.7c-0.1,0-0.2,0-0.3-0.1c-0.3-0.2-0.5-0.6-0.3-0.9l2.9-6c0.2-0.3,0.6-0.5,0.9-0.3
			c0.3,0.2,0.5,0.6,0.3,0.9c0,0,0,0,0,0l-2.9,6C7.6,17.6,7.3,17.7,7.1,17.7z"/>
		<path fill="#FFFFFF" d="M16.5,13.5c-0.1,0-0.2,0-0.3-0.1c-0.3-0.1-0.5-0.6-0.4-0.9c0,0,0,0,0,0l2.5-5.6c0.2-0.3,0.6-0.5,0.9-0.3
			c0.3,0.2,0.5,0.6,0.4,0.9l0,0l-2.5,5.6C17,13.4,16.7,13.5,16.5,13.5z"/>
		<path fill="#FFFFFF" d="M16.1,18.9c-0.1,0-0.2,0-0.3-0.1l-7.7-3.4c-0.3-0.1-0.5-0.6-0.4-0.9c0,0,0,0,0,0C8,14.1,8.4,14,8.8,14.1
			l7.7,3.4c0.3,0.2,0.5,0.6,0.3,0.9C16.7,18.7,16.4,18.9,16.1,18.9z"/>
	</g>
</g>
</svg>
