<svg xmlns="http://www.w3.org/2000/svg" viewBox="0 0 22.1 22.1"><defs><style>.cls-1{fill:#efefef;}.cls-2{fill:#9bc947;}</style></defs><title>icon-twitter</title><g id="Layer_2" data-name="Layer 2"><g id="Layer_5" data-name="Layer 5"><circle class="cls-1" cx="11.05" cy="11.05" r="11.05"/><path class="cls-2" d="M17.16,7.35a5.06,5.06,0,0,1-1.41.38,2.42,2.42,0,0,0,1.08-1.35A4.93,4.93,0,0,1,15.28,7,2.46,2.46,0,0,0,11,8.65a2.6,2.6,0,0,0,.07.56A7,7,0,0,1,6,6.65a2.43,2.43,0,0,0-.33,1.23,2.47,2.47,0,0,0,1.09,2,2.34,2.34,0,0,1-1.11-.31v0a2.47,2.47,0,0,0,2,2.41,2.75,2.75,0,0,1-.65.08,2.38,2.38,0,0,1-.46,0,2.46,2.46,0,0,0,2.29,1.7,4.89,4.89,0,0,1-3,1.05,5.68,5.68,0,0,1-.59,0A7,7,0,0,0,9,15.91a6.94,6.94,0,0,0,7-7c0-.1,0-.21,0-.31A5.08,5.08,0,0,0,17.16,7.35Z"/></g></g></svg>