<svg version="1.1" id="Layer_1" xmlns="http://www.w3.org/2000/svg" xmlns:xlink="http://www.w3.org/1999/xlink" x="0px" y="0px"
	 viewBox="0 0 32.2 26.8" enable-background="new 0 0 32.2 26.8" xml:space="preserve">
<title>icon-highway</title>
<g id="Layer_2_1_">
	<g id="Layer_7">
		<path fill="#FFFFFF" d="M29.7,26.8H2.5c-1.4,0-2.5-1.1-2.5-2.5c0,0,0,0,0,0v-2.5c0-1.4,1.1-2.5,2.5-2.5c0,0,0,0,0,0h27.1
			c1.4,0,2.5,1.1,2.5,2.5v0v2.5C32.2,25.7,31.1,26.8,29.7,26.8L29.7,26.8z M2.5,20.6c-0.7,0-1.2,0.5-1.2,1.2l0,0v2.5
			c0,0.6,0.5,1.2,1.2,1.2c0,0,0,0,0,0h27.1c0.6,0,1.2-0.5,1.2-1.2l0,0v-2.5c0-0.6-0.5-1.2-1.2-1.2c0,0,0,0,0,0H2.5z"/>
		<path fill="#FFFFFF" d="M2.8,20.3c-0.4,0-0.7-0.3-0.7-0.7c0-0.3,0.1-0.5,0.4-0.6l13.2-7.2c0.3-0.2,0.7-0.1,0.9,0.3
			c0.2,0.3,0.1,0.7-0.3,0.9l0,0L3.1,20.2C3,20.3,2.9,20.3,2.8,20.3z"/>
		<path fill="#FFFFFF" d="M29.6,20.3c-0.1,0-0.2,0-0.3-0.1l-13.2-7.2c-0.3-0.2-0.5-0.6-0.3-0.9c0.2-0.3,0.6-0.5,0.9-0.3L30,19
			c0.3,0.2,0.5,0.6,0.3,0.9l0,0C30.2,20.2,29.9,20.3,29.6,20.3z"/>
		<path fill="#FFFFFF" d="M16.2,12.9c-1.5,0-2.8-1.2-2.8-2.8c0-1.3,0.9-2.5,2.2-2.8h0.1c0-0.6,0-1.7,0-1.7c0-0.4,0.3-0.7,0.7-0.7
			c0,0,0,0,0,0l0,0c0.4,0,0.7,0.3,0.7,0.7c0,0,0,1.2,0,1.8c0,0.7-0.5,1.2-1.2,1.2c0,0-0.1,0-0.1,0c-0.6,0.2-1.1,0.7-1.1,1.4
			c0.1,0.8,0.8,1.4,1.6,1.3c0.7-0.1,1.3-0.6,1.3-1.3c0-0.4,0.3-0.7,0.7-0.7S19,9.7,19,10.1C19,11.6,17.8,12.9,16.2,12.9z"/>
		<path fill="#FFFFFF" d="M16.3,6C13.4,6,11,3.6,11,0.7c0,0,0,0,0,0C11,0.3,11.3,0,11.7,0h9.2c0.4,0,0.7,0.3,0.7,0.7
			C21.6,3.6,19.2,6,16.3,6C16.3,6,16.3,6,16.3,6z M12.4,1.4c0.3,1.9,2,3.2,3.9,3.3c1.9,0,3.5-1.4,3.9-3.3L12.4,1.4z"/>
	</g>
</g>
</svg>
