<svg xmlns="http://www.w3.org/2000/svg" viewBox="0 0 12.25 18.1"><defs><style>.cls-1{fill:#232c68;}</style></defs><title>icon-phone-blue</title><g id="Layer_2" data-name="Layer 2"><g id="Layer_4" data-name="Layer 4"><path id="_8" data-name="8" class="cls-1" d="M12.13,16l-1.34-2.68a1.26,1.26,0,0,0-1.12-.66,1.34,1.34,0,0,0-.35.05l-1.6.39c-.23-.18-1-.92-2.29-3.53S4,6,4,5.69L5.33,4.8a1.1,1.1,0,0,0,.44-1.43L4.42.69A1.3,1.3,0,0,0,3.26,0a1.41,1.41,0,0,0-.7.19l-.8.48A3.28,3.28,0,0,0,.26,2.53a6,6,0,0,0-.21,2.6,17.93,17.93,0,0,0,1.94,6,20.84,20.84,0,0,0,3.18,4.73C6.6,17.33,8,18.1,9.35,18.1a3.41,3.41,0,0,0,1.09-.18l.91-.26a1.26,1.26,0,0,0,.79-.65A1.11,1.11,0,0,0,12.13,16Z"/></g></g></svg>