<svg xmlns="http://www.w3.org/2000/svg" viewBox="0 0 13.18 18.94"><defs><style>.cls-1{fill:#232c68;}</style></defs><title>icon-map-blue</title><g id="Layer_2" data-name="Layer 2"><g id="Layer_4" data-name="Layer 4"><path id="_7" data-name="7" class="cls-1" d="M6.59,0A6.6,6.6,0,0,0,0,6.59c0,1.73,1.07,4.32,3.19,7.7,1.57,2.49,3.16,4.52,3.17,4.54a.3.3,0,0,0,.23.11h0a.3.3,0,0,0,.23-.11s1.6-2.07,3.16-4.58c2.12-3.39,3.2-6,3.2-7.66A6.6,6.6,0,0,0,6.59,0Zm0,9.77A3.18,3.18,0,1,1,9.77,6.59,3.19,3.19,0,0,1,6.59,9.77Z"/></g></g></svg>