<?xml version="1.0" encoding="utf-8"?>
<!-- Generator: Adobe Illustrator 22.1.0, SVG Export Plug-In . SVG Version: 6.00 Build 0)  -->
<svg version="1.1" id="Layer_1" xmlns="http://www.w3.org/2000/svg" xmlns:xlink="http://www.w3.org/1999/xlink" x="0px" y="0px"
	 viewBox="0 0 29.8 36.6" enable-background="new 0 0 29.8 36.6" xml:space="preserve">
<title>icon-utility</title>
<g id="Layer_2_1_">
	<g id="Layer_7">
		<path fill="#FFFFFF" d="M9,36.6c-0.1,0-0.2,0-0.3-0.1l0,0c-0.2-0.1-0.4-0.4-0.4-0.6v-5.6c0-0.2-0.1-0.4-0.3-0.4h-3
			c-0.2,0-0.3,0.2-0.3,0.4v5.6c0,0.2-0.1,0.5-0.3,0.6c-0.2,0.1-0.5,0.1-0.7,0c-1.5-0.7-2.6-2-3.2-3.5C0.2,32.1,0,31.2,0,30.2
			C0,28,1,26,2.7,24.6c0-0.9,0-3.5,0-6.1s0-5.2,0-6.1C1.1,11,0.1,8.9,0,6.8V6.7C0,5.8,0.1,5,0.4,4.2c0.4-1,0.9-1.9,1.7-2.7
			c0.5-0.5,1.1-0.9,1.7-1.2l0.5-0.3C4.6,0,4.8,0,5,0.1c0.2,0.1,0.3,0.3,0.3,0.6L5.2,6.4c0,0,0,0,0,0.1h2.6V6.4L7.7,0.7
			C7.7,0.3,8,0,8.4,0c0.1,0,0.2,0,0.3,0.1l0.5,0.3c0.6,0.3,1.2,0.7,1.7,1.3c0.7,0.7,1.3,1.6,1.6,2.6c0.3,0.8,0.4,1.6,0.4,2.4v0.1
			c-0.1,2.2-1,4.2-2.7,5.5c0,0.9,0,3.5,0,6.1s0,5.2,0,6.1c1.7,1.4,2.7,3.4,2.7,5.6c0,1-0.2,1.9-0.6,2.8c-0.6,1.6-1.8,2.8-3.3,3.6
			C9.2,36.6,9.1,36.6,9,36.6z M5.1,28.5H8c1,0,1.7,0.8,1.7,1.8c0,0,0,0,0,0v4.4c0.7-0.6,1.3-1.4,1.6-2.2c0.3-0.7,0.5-1.5,0.4-2.2
			c0-1.9-0.9-3.6-2.4-4.8C9.1,25.3,9,25.1,9,24.9c0-0.1,0-3.3,0-6.5s0-6.3,0-6.5c0-0.2,0.1-0.4,0.3-0.6c1.5-1.1,2.4-2.8,2.4-4.7V6.7
			c0-0.7-0.1-1.4-0.3-2c-0.3-0.8-0.8-1.5-1.4-2.1C9.7,2.3,9.4,2,9.1,1.8l0.1,4.6C9.2,7.1,8.7,7.8,8,7.9c0,0,0,0,0,0H5.1
			C4.4,7.8,3.8,7.2,3.9,6.5c0,0,0,0,0,0l0.1-4.6C3.6,2,3.3,2.3,3,2.5C2.4,3.1,2,3.9,1.7,4.7C1.5,5.3,1.4,6,1.4,6.7v0.1
			c0.1,1.8,0.9,3.6,2.4,4.7C4,11.6,4.1,11.8,4.1,12c0,0.1,0,3.3,0,6.5s0,6.3,0,6.5c0,0.2-0.1,0.4-0.3,0.5c-1.5,1.1-2.4,2.9-2.5,4.8
			c0,0.8,0.1,1.5,0.4,2.2c0.3,0.9,0.9,1.6,1.6,2.2v-4.4C3.3,29.3,4.1,28.5,5.1,28.5C5,28.5,5,28.5,5.1,28.5L5.1,28.5z"/>
		<path fill="#FFFFFF" d="M18.5,36.6c-0.4,0-0.7-0.3-0.7-0.7c0,0,0,0,0,0V21.6c0-0.1,0.1-0.3,0.1-0.4l3.3-4.4V7.9l-1.7-2.8
			c-0.1-0.2-0.1-0.4,0-0.6l1.6-4.1C21.3,0.2,21.5,0,21.8,0h4c0.3,0,0.5,0.2,0.6,0.4l1.6,4.1c0.1,0.2,0.1,0.4,0,0.6l-1.7,2.7l0.1,8.9
			l3.3,4.4c0.1,0.1,0.1,0.3,0.1,0.4v14.3c0,0.4-0.3,0.7-0.7,0.7c0,0,0,0,0,0L18.5,36.6z M19.2,21.8v13.4h9.2V21.8l-3.3-4.4
			C25,17.3,25,17.2,25,17l-0.1-9.3c0-0.1,0-0.2,0.1-0.3l1.6-2.6l-1.3-3.4h-3.1l-1.3,3.4l1.6,2.6c0.1,0.1,0.1,0.2,0.1,0.4V17
			c0,0.1,0,0.3-0.1,0.4L19.2,21.8z"/>
		<path fill="#FFFFFF" d="M21.9,36.6c-0.4,0-0.7-0.3-0.7-0.7c0,0,0,0,0,0V23.8c0-0.4,0.3-0.7,0.7-0.7s0.7,0.3,0.7,0.7v12.2
			C22.6,36.3,22.3,36.6,21.9,36.6C21.9,36.6,21.9,36.6,21.9,36.6z"/>
		<path fill="#FFFFFF" d="M25.7,36.6c-0.4,0-0.7-0.3-0.7-0.7c0,0,0,0,0,0V23.8c0-0.4,0.3-0.7,0.7-0.7s0.7,0.3,0.7,0.7v12.2
			C26.4,36.3,26.1,36.6,25.7,36.6z"/>
	</g>
</g>
</svg>
