<?xml version="1.0" encoding="utf-8"?>
<!-- Generator: Adobe Illustrator 22.1.0, SVG Export Plug-In . SVG Version: 6.00 Build 0)  -->
<svg version="1.1" id="Layer_1" xmlns="http://www.w3.org/2000/svg" xmlns:xlink="http://www.w3.org/1999/xlink" x="0px" y="0px"
	 viewBox="0 0 47.5 34" enable-background="new 0 0 47.5 34" xml:space="preserve">
<title>icon-landscaping</title>
<g id="Layer_2_1_">
	<g id="Layer_7">
		<path fill="#FFFFFF" d="M41,13.4c-0.2,0-0.4-0.1-0.6-0.2l-8.5-7.8c-0.3-0.2-0.6-0.2-0.9,0l-8.5,7.8c-0.4,0.3-0.9,0.3-1.2-0.1
			c-0.3-0.4-0.3-0.9,0.1-1.2l0,0l8.5-7.8c0.9-0.8,2.3-0.8,3.2,0l8.5,7.8c0.4,0.3,0.4,0.9,0.1,1.2C41.5,13.3,41.2,13.4,41,13.4z"/>
		<path fill="#FFFFFF" d="M40.6,27.5h-4.4c-0.5,0-0.9-0.4-0.9-0.9c0-0.5,0.4-0.9,0.9-0.9c0,0,0,0,0,0h4.4c0.3,0,0.8,0,1.4-1.4
			c0.5-1.2,3.3-8.6,3.8-9.9c0-0.5-0.4-0.8-0.8-0.8H18.4c-0.4,0-0.8-0.3-0.9-0.7l-1.8-7.7l0,0c0,0,0,0,0-0.1c0-0.2-0.2-0.4-0.4-0.5
			l-13-2.9c-0.1,0-0.2,0-0.3,0C1.9,1.9,1.8,2.1,1.8,2.2C1.7,2.5,1.8,2.8,2.2,2.9L14,5.4c0.3,0.1,0.6,0.3,0.7,0.7l4.1,18.5
			c0.4,1.2,0.8,1.2,1,1.2h4.4c0.5,0,0.9,0.4,0.9,0.9c0,0.5-0.4,0.9-0.9,0.9c0,0,0,0,0,0h-4.4c-0.9,0-2.1-0.4-2.7-2.5c0,0,0,0,0,0
			L13,7L1.8,4.6c-1.2-0.3-2-1.5-1.7-2.8c0.1-0.6,0.5-1.2,1-1.5C1.5,0,2.1-0.1,2.7,0.1l13,2.9c0.9,0.2,1.6,0.9,1.7,1.8l0,0l1.7,7.1
			h25.8c1.5,0,2.6,1.2,2.6,2.7c0,0.1,0,0.2-0.1,0.3c-0.1,0.4-3.3,8.7-3.8,10.1C43.4,25.6,42.6,27.5,40.6,27.5z"/>
		<path fill="#FFFFFF" d="M30.3,34c-3.7,0-6.7-3-6.7-6.7s3-6.7,6.7-6.7c3.7,0,6.7,3,6.7,6.6C37,31,34,34,30.3,34
			C30.4,34,30.3,34,30.3,34z M30.3,22.4c-2.7,0-4.9,2.2-4.9,4.9s2.2,4.9,4.9,4.9s4.9-2.2,4.9-4.9C35.3,24.6,33.1,22.4,30.3,22.4
			C30.4,22.3,30.3,22.3,30.3,22.4L30.3,22.4z"/>
		<path fill="#FFFFFF" d="M32.1,27.3c0,1-0.8,1.8-1.8,1.8s-1.8-0.8-1.8-1.8s0.8-1.8,1.8-1.8l0,0C31.3,25.5,32.1,26.3,32.1,27.3z"/>
	</g>
</g>
</svg>
