<svg xmlns="http://www.w3.org/2000/svg" viewBox="0 0 123.2 123.2"><defs><style>.cls-1{fill:#3982f7;}.cls-2{fill:#cbd2d8;}.cls-3{fill:#d93d03;}.cls-4{fill:#fff;}</style></defs><title>icon-shield-diamond</title><g id="Layer_2" data-name="Layer 2"><g id="Layer_3" data-name="Layer 3"><path class="cls-1" d="M61.73,112.49l-51-51L61.47,10.71l51,51Z"/><path class="cls-2" d="M61.72,123.2,0,61.47,61.47,0,123.2,61.72ZM1.12,61.42l60.66,60.66,60.3-60.3L61.42,1.12Z"/><path class="cls-3" d="M61.94,118.72,4.48,61.26,61.26,4.48l57.46,57.46ZM5.6,61.2,62,117.6,117.6,62,61.2,5.6Z"/><path class="cls-4" d="M83,42.59C66,45.54,61.6,35.47,61.6,35.47s-4.39,10.07-21.43,7.12c0,0-6.28,34.33,21.43,44.63C89.3,76.92,83,42.59,83,42.59ZM72.22,64.45H64.71V72H58.49V64.45H51V58.23h7.51V50.72h6.22v7.51h7.51Z"/></g></g></svg>