<svg xmlns="http://www.w3.org/2000/svg" viewBox="0 0 274.95 274.95"><defs><style>.cls-1{fill:#1e242d;}.cls-2{fill:#cbd2d8;}.cls-3{fill:#d93d03;}.cls-4{fill:#fff;}</style></defs><title>mini-diamond</title><g id="Layer_2" data-name="Layer 2"><g id="Layer_6" data-name="Layer 6"><path class="cls-1" d="M137.76,251.05,23.89,137.19l113.3-113.3L251.05,137.76Z"/><path class="cls-2" d="M137.75,275,0,137.19,137.19,0,275,137.75ZM2.5,137.07,137.87,272.44,272.44,137.87,137.07,2.5Z"/><path class="cls-3" d="M138.23,265,10,136.71,136.71,10,265,138.23ZM12.49,136.59,138.35,262.45l124.11-124.1L136.59,12.49Z"/><path class="cls-4" d="M82.81,119.14V108.38h2v10.68c0,4.46,2.1,6.5,5.75,6.5s5.77-2,5.77-6.5V108.38h1.93v10.76c0,5.4-2.9,8.19-7.7,8.19S82.81,124.54,82.81,119.14Z"/><path class="cls-4" d="M116.52,127.17l-4.29-6a14.3,14.3,0,0,1-1.5.08h-5v6h-2V108.38h7c4.77,0,7.67,2.42,7.67,6.44a5.82,5.82,0,0,1-4.29,5.91l4.59,6.44Zm-.1-12.35c0-3-2-4.72-5.75-4.72h-5v9.42h5C114.43,119.52,116.42,117.78,116.42,114.82Z"/><path class="cls-4" d="M135.8,117.78h1.9v7.16a10.32,10.32,0,0,1-6.89,2.39c-5.72,0-9.91-4-9.91-9.55s4.19-9.56,9.93-9.56a9.24,9.24,0,0,1,7,2.71l-1.23,1.26a7.94,7.94,0,1,0-5.69,13.37,8.13,8.13,0,0,0,4.91-1.45Z"/><path class="cls-4" d="M156.07,125.45v1.72H142.78V108.38h12.88v1.72H144.77v6.68h9.71v1.69h-9.71v7Z"/><path class="cls-4" d="M175.9,108.38v18.79h-1.63l-12.08-15.25v15.25h-2V108.38h1.64l12.1,15.25V108.38Z"/><path class="cls-4" d="M185.14,110.1h-6.6v-1.72h15.19v1.72h-6.6v17.07h-2Z"/><path class="cls-4" d="M101.36,146.71c0-5.5,4.19-9.55,9.85-9.55a9.07,9.07,0,0,1,6.87,2.74l-1.26,1.26a7.44,7.44,0,0,0-5.56-2.23,7.79,7.79,0,1,0,0,15.57,7.36,7.36,0,0,0,5.56-2.26l1.26,1.26a9.11,9.11,0,0,1-6.9,2.77A9.43,9.43,0,0,1,101.36,146.71Z"/><path class="cls-4" d="M133.09,151.09H122.62l-2.26,5H118.3l8.59-18.79h2l8.58,18.79h-2.09Zm-.73-1.61-4.51-10.09-4.51,10.09Z"/><path class="cls-4" d="M152.84,156.11l-4.29-6a14.3,14.3,0,0,1-1.5.08H142v6h-2V137.32h7c4.77,0,7.67,2.42,7.67,6.44a5.83,5.83,0,0,1-4.29,5.91l4.59,6.44Zm-.1-12.35c0-3-2-4.72-5.75-4.72h-5v9.42h5C150.75,148.46,152.74,146.71,152.74,143.76Z"/><path class="cls-4" d="M172.17,154.39v1.72H158.89V137.32h12.88V139h-10.9v6.68h9.72v1.69h-9.72v7Z"/><rect class="cls-4" x="54.88" y="143.89" width="37.05" height="0.93"/><rect class="cls-4" x="183.02" y="143.89" width="37.05" height="0.93"/></g></g></svg>