<svg xmlns="http://www.w3.org/2000/svg" viewBox="0 0 13.39 19.79"><defs><style>.cls-1{fill:#3982f7;}</style></defs><title>phone</title><g id="Layer_2" data-name="Layer 2"><g id="Layer_6" data-name="Layer 6"><path id="_8" data-name="8" class="cls-1" d="M13.26,17.51l-1.47-2.92a1.37,1.37,0,0,0-1.22-.73,1.58,1.58,0,0,0-.38.05l-1.75.43c-.26-.2-1.06-1-2.5-3.86s-1.59-4-1.59-4.26l1.48-1A1.2,1.2,0,0,0,6.3,3.68L4.83.75A1.41,1.41,0,0,0,3.56,0,1.45,1.45,0,0,0,2.8.21L1.92.74a3.63,3.63,0,0,0-1.64,2A7,7,0,0,0,.05,5.61a20,20,0,0,0,2.12,6.5,22.82,22.82,0,0,0,3.48,5.17c1.56,1.66,3.1,2.51,4.57,2.51a3.76,3.76,0,0,0,1.19-.2l1-.28a1.41,1.41,0,0,0,.86-.72A1.21,1.21,0,0,0,13.26,17.51Z"/></g></g></svg>