<svg xmlns="http://www.w3.org/2000/svg" viewBox="0 0 38.25 39.04"><title>svg-and</title><g id="ae082b81-0ba0-42ae-a00e-9a647cb8ad07" data-name="Layer 2"><g id="b2708bc5-463c-4678-a0dc-fb1688453941" data-name="Layer 7"><path d="M14.17,38s3.24.65,8-3.45c3.31-2.66,10.29-8.85,16-7.12.07.36.14.5-.29.5a14.52,14.52,0,0,0-5.46,1.8c-1.8,1.22-7.91,5.46-9.93,7S15.18,40,14.17,38Z" fill="#e03c0a"/><path d="M22.12,19.68c.25-3.45.53-6.42-.4-9.31a3.65,3.65,0,0,1,.52-3.08c.53-1,1.31-.76,2.19-.49s1.06.54,1,1.5c-.19,6.65-.83,13.31.3,20a2.28,2.28,0,0,1-2.14,2.83c-1.43.06-2.16-.79-2.14-2.31,0-2.77-1.14-5.08-3.14-7.85a27.8,27.8,0,0,0-.1,10.55c.18,1.29.37,2.35-.61,3.33-.65.65-1.22.45-1.94,0C14.18,34,15,32.71,15,31.6c0-5.68.77-11.37-.4-17-.31-1.52,0-3.35,2-3.67s2,1.35,2.32,2.79C19.4,15.71,19.88,17.87,22.12,19.68Z" fill="#fff"/><path d="M13.11,33.65c-2.59-4.8-3.33-10.08-3.42-15.45,0-2.4-1.32-3.59-3.31-3a3.89,3.89,0,0,0-2.93,3.67C3.29,24.69,2.83,30.49.61,36c-.52,1.27.28,1.71,1,2.37s1.73,1,2.53.16,3-1.6,1.67-3.36c-.29-1.8-.48-3.59,1.59-3.58s1.09,2,1.13,3.05a2.87,2.87,0,0,0,1.73,2.88,1.47,1.47,0,0,0,2.15-.64C12.91,35.85,13.92,35.16,13.11,33.65ZM5.39,29c.36-.58,1-8,1-8L8,27.88Z" fill="#fff"/><path d="M37.55,5.41C38,3.17,37.12,2,35.55.93c-2.44-1.7-4,.45-5.9,1.32C28.07,3,27,4.77,27.46,6.13c1.31,3.6.48,7.22.65,10.81a37.27,37.27,0,0,1-.1,6.52,2.36,2.36,0,0,0,1.19,2.62c1.05.85,1.74.36,2.36-.57a2.84,2.84,0,0,1,1.87-.94c3.33-.86,4.51-3.12,4.15-6.47C37.12,13.88,36.68,9.6,37.55,5.41ZM34.1,18.84c0,1.17-.09,2.77-1.71,2.68s-1.27-1.77-1.32-2.88c-.09-1.8,0-3.61,0-5.42h.05l0-6.87A1.78,1.78,0,0,1,32.85,4.4c1.36,0,1.3,1.22,1.31,2.14C34.18,10.64,34.18,14.74,34.1,18.84Z" fill="#fff"/><path d="M0,13.85A13.78,13.78,0,0,0,7.12,10.4C10.2,7.64,17.91-.68,27.69,0c.43.22.07.72-.58.72A42,42,0,0,0,15.89,5.94C12.08,8.67,3.45,16.44,0,13.85Z" fill="#e03c0a"/></g></g></svg>