<svg xmlns="http://www.w3.org/2000/svg" xmlns:xlink="http://www.w3.org/1999/xlink" viewBox="0 0 304.6 490.23"><defs><style>.cls-1{fill:url(#linear-gradient);}.cls-2{fill:url(#linear-gradient-2);}.cls-3{fill:#ccc;}</style><linearGradient id="linear-gradient" x1="-148.15" y1="89.56" x2="86.86" y2="496.61" gradientTransform="translate(412.54 54.17) rotate(47.27)" gradientUnits="userSpaceOnUse"><stop offset="0" stop-color="#eec13c" stop-opacity="0.42"/><stop offset="0.41" stop-color="#ecb71e" stop-opacity="0.8"/><stop offset="0.56" stop-color="#f1c954" stop-opacity="0.91"/><stop offset="0.67" stop-color="#f4d67e"/><stop offset="0.9" stop-color="#fdf7e7" stop-opacity="0.19"/><stop offset="0.95" stop-color="#fff" stop-opacity="0"/></linearGradient><linearGradient id="linear-gradient-2" x1="-30.56" y1="422.91" x2="234.18" y2="422.91" gradientTransform="translate(412.54 54.17) rotate(47.27)" gradientUnits="userSpaceOnUse"><stop offset="0.01" stop-color="#ecb71e"/><stop offset="0.4" stop-color="#f1ca58"/><stop offset="0.65" stop-color="#f4d67e"/><stop offset="0.93" stop-color="#fdf7e7" stop-opacity="0.19"/><stop offset="1" stop-color="#fff" stop-opacity="0"/></linearGradient></defs><title>swish</title><g id="Layer_2" data-name="Layer 2"><g id="Layer_8" data-name="Layer 8"><path class="cls-1" d="M256.54,468.84l-13.69-81.46a135,135,0,0,1,25-268.8L304.6,24.27c-29.3-6.55-58.36-7-88.86-1.91A235.32,235.32,0,0,0,118.2,446.1c4.17,3,8.43,5.79,12.74,8.47a233.1,233.1,0,0,0,125.77,35.21Z"/><path class="cls-2" d="M280,439.21a185.71,185.71,0,0,1-130.17-31c-2.37-1.63-4.72-3.31-7-5.07a185,185,0,0,1-54.59-66.1L42,354.87a234.1,234.1,0,0,0,71,87.58q8.7,6.6,17.86,12.29a233.07,233.07,0,0,0,129.25,35.43A239.66,239.66,0,0,0,287.27,488l.9-.13Z"/><path class="cls-3" d="M55.35,113.07A247.08,247.08,0,0,1,292.65,12.25c.11-3.21.17-6.43.16-9.65A256.16,256.16,0,0,0,.26,267c3.18-.58,6.36-1.2,9.52-1.91A244.58,244.58,0,0,1,55.35,113.07Z"/></g></g></svg>