<svg xmlns="http://www.w3.org/2000/svg" viewBox="0 0 73.23 51.64"><defs><style>.cls-1{fill:#3982f7;}</style></defs><title>urgent-care</title><g id="Layer_2" data-name="Layer 2"><g id="Layer_6" data-name="Layer 6"><path class="cls-1" d="M72.16,27.93h-8a34.18,34.18,0,0,0,2-11.72A16.21,16.21,0,0,0,36.62,7,16.22,16.22,0,0,0,7,16.21,30.55,30.55,0,0,0,9.39,27.93H1.07a1.07,1.07,0,0,0,0,2.14h9.3C17.32,44,33,51.64,36.61,51.64c3.34,0,19.91-6.4,26.69-21.57h8.86a1.07,1.07,0,1,0,0-2.14Zm-63-11.72A14.06,14.06,0,0,1,35.67,9.6a1.11,1.11,0,0,0,1.89,0A14.06,14.06,0,0,1,64,16.21,32,32,0,0,1,61.9,27.93H59.61l-4-14.66a1.08,1.08,0,0,0-1.06-.78,1.06,1.06,0,0,0-1,.84L49.33,32.59l-1.67-4a1.08,1.08,0,0,0-1-.66h-7L38.5,23.46a1.07,1.07,0,0,0-.89-.78,1,1,0,0,0-1.06.52l-1.74,2.92L31.47,10.77a1.07,1.07,0,0,0-2.1.08L26.22,33.47l-2.49-13.2a1.05,1.05,0,0,0-.95-.86,1,1,0,0,0-1.09.66l-3.15,7.86H11.72A28.39,28.39,0,0,1,9.19,16.21ZM36.61,49.5c-2.23,0-16.91-6.68-23.83-19.43h6.49a1.05,1.05,0,0,0,1-.67l2-5.12,3,16a1.05,1.05,0,0,0,1.05.87h0a1.06,1.06,0,0,0,1-.92L30.66,17.1l2.63,12.13a1.08,1.08,0,0,0,.88.83,1.06,1.06,0,0,0,1.09-.51l1.83-3.09.77,2.82a1.06,1.06,0,0,0,1,.79H46l2.71,6.49a1.08,1.08,0,0,0,2-.19L54.65,18l3.11,11.25a1.07,1.07,0,0,0,1,.78H61C54.48,43.72,39.65,49.5,36.61,49.5Z"/></g></g></svg>