<svg xmlns="http://www.w3.org/2000/svg" viewBox="0 0 165.19 48.05"><defs><style>.cls-1{fill:#fff;}</style></defs><title>urgent-care-terse</title><g id="Layer_2" data-name="Layer 2"><g id="Layer_6" data-name="Layer 6"><path class="cls-1" d="M27.93,10.92V.16h2V10.84c0,4.46,2.09,6.5,5.74,6.5s5.77-2,5.77-6.5V.16h1.93V10.92c0,5.4-2.9,8.19-7.7,8.19S27.93,16.32,27.93,10.92Z"/><path class="cls-1" d="M61.64,19l-4.29-6a14.3,14.3,0,0,1-1.5.08H50.8v6h-2V.16h7c4.77,0,7.67,2.42,7.67,6.44a5.82,5.82,0,0,1-4.29,5.91L63.82,19ZM61.54,6.6c0-3-2-4.72-5.75-4.72h-5V11.3h5C59.55,11.3,61.54,9.56,61.54,6.6Z"/><path class="cls-1" d="M80.92,9.56h1.9v7.16a10.32,10.32,0,0,1-6.89,2.39c-5.72,0-9.91-4-9.91-9.55S70.21,0,76,0a9.24,9.24,0,0,1,7,2.71L81.7,4A8.16,8.16,0,0,0,68,9.56a7.7,7.7,0,0,0,8,7.78,8.11,8.11,0,0,0,4.91-1.45Z"/><path class="cls-1" d="M101.19,17.23V19H87.9V.16h12.88V1.88H89.89V8.56H99.6v1.69H89.89v7Z"/><path class="cls-1" d="M121,.16V19h-1.63L107.31,3.7V19h-2V.16H107l12.1,15.25V.16Z"/><path class="cls-1" d="M130.26,1.88h-6.6V.16h15.19V1.88h-6.6V19h-2Z"/><path class="cls-1" d="M46.48,38.49c0-5.5,4.19-9.55,9.85-9.55a9.07,9.07,0,0,1,6.87,2.74l-1.26,1.26a7.44,7.44,0,0,0-5.56-2.23,7.79,7.79,0,1,0,0,15.57A7.36,7.36,0,0,0,61.94,44l1.26,1.26a9.11,9.11,0,0,1-6.9,2.77A9.43,9.43,0,0,1,46.48,38.49Z"/><path class="cls-1" d="M78.21,42.87H67.74l-2.25,5H63.42L72,29.1h2l8.59,18.79h-2.1Zm-.73-1.61L73,31.17,68.46,41.26Z"/><path class="cls-1" d="M98,47.89l-4.29-6a14.3,14.3,0,0,1-1.5.08h-5v6h-2V29.1h7c4.78,0,7.67,2.42,7.67,6.44a5.83,5.83,0,0,1-4.29,5.91l4.59,6.44Zm-.1-12.35c0-3-2-4.72-5.75-4.72h-5v9.42h5C95.87,40.24,97.86,38.49,97.86,35.54Z"/><path class="cls-1" d="M117.29,46.17v1.72H104V29.1h12.88v1.72H106V37.5h9.72v1.69H106v7Z"/><rect class="cls-1" y="35.67" width="37.05" height="0.93"/><rect class="cls-1" x="128.14" y="35.67" width="37.05" height="0.93"/></g></g></svg>