<svg xmlns="http://www.w3.org/2000/svg" xmlns:xlink="http://www.w3.org/1999/xlink" viewBox="0 0 123.2 143.7"><defs><style>.cls-1{fill:none;}.cls-2{font-size:10px;font-family:Raleway-SemiBold, Raleway;font-weight:700;letter-spacing:0.1em;}.cls-12,.cls-15,.cls-2{fill:#fff;}.cls-3{letter-spacing:0.07em;}.cls-4,.cls-5,.cls-6,.cls-7{fill:#3982f7;}.cls-4{letter-spacing:0.1em;}.cls-5{letter-spacing:0.08em;}.cls-6{letter-spacing:0.1em;}.cls-7{letter-spacing:0.07em;}.cls-8{clip-path:url(#clip-path);}.cls-9{fill:#1e242d;}.cls-10{fill:#cbd2d8;}.cls-11{fill:#d93d03;}.cls-12{font-size:12.03px;font-family:Montserrat-Regular, Montserrat;letter-spacing:-0.02em;}.cls-13{letter-spacing:-0.04em;}.cls-14{letter-spacing:-0.02em;}</style><clipPath id="clip-path" transform="translate(-2.14 -3.91)"><rect class="cls-1" width="127.47" height="130.51"/></clipPath></defs><title>urgent-care-diamond</title><g id="Layer_2" data-name="Layer 2"><g id="Layer_3" data-name="Layer 3"><text class="cls-2" transform="translate(3.73 141.43)">IN<tspan class="cls-3" x="12.39" y="0"> </tspan><tspan x="15.58" y="0">THE </tspan><tspan class="cls-4" x="41.67" y="0">SOUTHW</tspan><tspan class="cls-5" x="92.92" y="0">E</tspan><tspan class="cls-6" x="99.8" y="0">S</tspan><tspan class="cls-7" x="106.86" y="0">T</tspan></text><g class="cls-8"><path class="cls-9" d="M63.86,116.4l-51-51L63.61,14.62l51,51Z" transform="translate(-2.14 -3.91)"/><path class="cls-10" d="M63.86,127.11,2.14,65.38,63.61,3.91l61.73,61.73ZM3.26,65.33,63.92,126l60.29-60.3L63.56,5Z" transform="translate(-2.14 -3.91)"/><path class="cls-11" d="M64.08,122.63,6.61,65.17,63.4,8.39l57.46,57.46ZM7.73,65.11l56.4,56.4L119.74,65.9,63.34,9.51Z" transform="translate(-2.14 -3.91)"/></g><text class="cls-12" transform="translate(35.81 56.98)">URGENT<tspan class="cls-13"><tspan x="8.99" y="12.97">C</tspan><tspan class="cls-14" x="17.18" y="12.97">ARE</tspan></tspan></text><rect class="cls-15" x="24.59" y="64.48" width="16.6" height="0.42"/><rect class="cls-15" x="82.01" y="64.48" width="16.6" height="0.42"/></g></g></svg>