<svg xmlns="http://www.w3.org/2000/svg" viewBox="0 0 22.32 22.32"><title>icon-2</title><g id="ae706b35-6dce-467a-88ce-9e636f08feb6" data-name="Layer 2"><g id="e2cda580-d172-44fd-9e7c-6e3e1c5653fe" data-name="Layer 8"><polygon points="6.05 21.9 6.01 21.25 1.19 21.59 9.6 13.18 9.14 12.72 0.73 21.13 1.06 16.31 0.42 16.27 0 22.32 6.05 21.9" fill="#fff"/><polygon points="21.25 16.31 21.59 21.13 13.18 12.72 12.72 13.18 21.13 21.59 16.31 21.25 16.27 21.9 22.32 22.32 21.9 16.27 21.25 16.31" fill="#fff"/><polygon points="16.31 1.06 21.13 0.73 12.72 9.14 13.18 9.6 21.59 1.18 21.25 6.01 21.9 6.05 22.32 0 16.27 0.42 16.31 1.06" fill="#fff"/><polygon points="0.42 6.05 1.06 6.01 0.73 1.18 9.14 9.6 9.6 9.14 1.19 0.73 6.01 1.06 6.05 0.42 0 0 0.42 6.05" fill="#fff"/></g></g></svg>