<svg xmlns="http://www.w3.org/2000/svg" viewBox="0 0 25.47 25.47"><title>icon-1</title><g id="fd1d3190-c55a-4d5b-863e-a1f2a5a178b3" data-name="Layer 2"><g id="aeae1bc4-ca5c-4fd3-a2fd-eb892238db86" data-name="Layer 8"><path d="M5.5,19.7h-4A1.5,1.5,0,0,1,0,18.21V7.31a1.5,1.5,0,0,1,1.5-1.5H5.55a.29.29,0,0,1,0,.57h-4a.93.93,0,0,0-.93.93v10.9a.93.93,0,0,0,.93.92h4a.29.29,0,0,1,.29.29A.28.28,0,0,1,5.5,19.7Z" fill="#fff"/><path d="M24,19.7H20.05a.27.27,0,0,1-.28-.28.28.28,0,0,1,.28-.29H24a.93.93,0,0,0,.93-.92V7.31A.93.93,0,0,0,24,6.38H20.05a.29.29,0,0,1,0-.57H24a1.5,1.5,0,0,1,1.49,1.5v10.9A1.49,1.49,0,0,1,24,19.7Z" fill="#fff"/><path d="M19.07,9.66H6.53A1.26,1.26,0,0,1,5.27,8.39V1.27A1.26,1.26,0,0,1,6.53,0H19.07a1.26,1.26,0,0,1,1.26,1.27V8.39A1.26,1.26,0,0,1,19.07,9.66ZM6.53.57a.7.7,0,0,0-.7.7V8.39a.7.7,0,0,0,.7.7H19.07a.7.7,0,0,0,.7-.7V1.27a.7.7,0,0,0-.7-.7Z" fill="#fff"/><path d="M19.07,25.47H6.53a1.25,1.25,0,0,1-1.26-1.26V17.08a1.25,1.25,0,0,1,1.26-1.26H19.07a1.25,1.25,0,0,1,1.26,1.26v7.13A1.25,1.25,0,0,1,19.07,25.47ZM6.53,16.38a.71.71,0,0,0-.7.7v7.13a.71.71,0,0,0,.7.7H19.07a.71.71,0,0,0,.7-.7V17.08a.71.71,0,0,0-.7-.7Z" fill="#fff"/><path d="M18.05,23.3H7.45A.28.28,0,0,1,7.17,23a.27.27,0,0,1,.28-.28h10.6a.28.28,0,0,1,.29.28A.29.29,0,0,1,18.05,23.3Z" fill="#fff"/><path d="M18.05,21.05H7.45a.29.29,0,0,1,0-.57h10.6a.29.29,0,1,1,0,.57Z" fill="#fff"/><path d="M18.05,18.75H7.45a.28.28,0,0,1-.28-.29.27.27,0,0,1,.28-.28h10.6a.28.28,0,0,1,.29.28A.29.29,0,0,1,18.05,18.75Z" fill="#fff"/></g></g></svg>