<svg xmlns="http://www.w3.org/2000/svg" viewBox="0 0 26.54 26.54"><title>icon-3</title><g id="ba22c672-238d-4cdd-bab9-5dfb6d028ab3" data-name="Layer 2"><g id="b850c8ad-c04e-477a-8a58-f092e6c664e6" data-name="Layer 8"><path d="M13.27,6a7.31,7.31,0,1,0,7.31,7.3A7.32,7.32,0,0,0,13.27,6Zm0,13.84a6.54,6.54,0,1,1,6.54-6.54A6.54,6.54,0,0,1,13.27,19.81Z" fill="#fff"/><path d="M22.5,8.48l1.59-3.16L21.22,2.45,18.06,4l-1.65-.68L15.3,0H11.24L10.13,3.36,8.48,4,5.32,2.45,2.45,5.32,4,8.48l-.68,1.65L0,11.24V15.3l3.36,1.11L4,18.06,2.45,21.22l2.87,2.87L8.48,22.5l1.65.68,1.11,3.36H15.3l1.11-3.36,1.65-.68,3.16,1.59,2.87-2.87L22.5,18.06l.68-1.65,3.36-1.11V11.24l-3.36-1.11Zm3.28,6.27-3.17,1-.95,2.3,1.5,3-2.09,2.09-3-1.5-2.3.95-1,3.17H11.8l-1.05-3.17-2.3-.95-3,1.5L3.39,21.07l1.5-3-.95-2.3-3.17-1V11.8l3.17-1.05.95-2.3-1.5-3L5.47,3.39l3,1.5,2.3-.95L11.8.77h2.95l1,3.17,2.3.95,3-1.5,2.09,2.08-1.5,3,.95,2.3,3.17,1.05Z" fill="#fff"/></g></g></svg>