<svg xmlns="http://www.w3.org/2000/svg" viewBox="0 0 23.32 23.28"><title>icon-5</title><g id="b7e12264-e083-432a-b62c-e3baef48510a" data-name="Layer 2"><g id="b19ca69c-4cd6-4525-83b9-30a2abed612e" data-name="Layer 8"><g id="b33a5670-7685-41ae-8be7-0a347975c4f1" data-name="message"><path d="M23.31.6A.86.86,0,0,0,22.55,0a1.17,1.17,0,0,0-.66.1L.52,10.6c-.07,0-.15.07-.16.1a1.06,1.06,0,0,0-.19.16.91.91,0,0,0-.13.25,1,1,0,0,0,0,.18.73.73,0,0,0,0,.22.61.61,0,0,0,.11.23,1,1,0,0,0,.18.17A.47.47,0,0,0,.46,12L6.05,14.5a.34.34,0,0,0,.35,0l10.34-7-6.56,8.41a.36.36,0,0,0,.14.55l8.27,3.72.19.06a1.18,1.18,0,0,0,.53,0l.19-.06a1.08,1.08,0,0,0,.34-.21.7.7,0,0,0,.23-.45L23.32.81a.74.74,0,0,0,0-.21C23.24.25,23.32.67,23.31.6ZM19.36,19.38h0l-.07.06-.06,0-.08,0H19l-.07,0L11,16l7.7-9.86a.36.36,0,0,0-.49-.52L6.16,13.76.76,11.3l.08-.05L22.22.76a.38.38,0,0,1,.18,0h.06a.29.29,0,0,1,.13.05l-3.23,18.6Z" fill="#fff"/><path d="M13.71,18.59l-1.59,2.25c-.39.53-1.28,1.7-1.28,1.7l0-.75V16.15a.36.36,0,0,0-.72,0v5.64c0,1.84.92,1.59,1.26,1.24s.65-.8,1-1.19c.7-1,1.39-2,2.08-2.94l-.67-.31Z" fill="#fff"/></g></g></g></svg>