<svg xmlns="http://www.w3.org/2000/svg" xmlns:xlink="http://www.w3.org/1999/xlink" viewBox="0 0 141.39 86.48"><defs><linearGradient id="a3f870d2-e2c1-4e5f-a8ab-af854673bd4c" x1="363.73" y1="3350.88" x2="364.71" y2="3350.88" gradientTransform="translate(22542.6 -2409.09) rotate(90) scale(6.7)" gradientUnits="userSpaceOnUse"><stop offset="0" stop-color="#333"/><stop offset="1" stop-color="#0d0d0d"/></linearGradient><linearGradient id="b23df801-f994-40e1-926d-f8f5084f0011" x1="363.75" y1="3350.86" x2="364.73" y2="3350.86" gradientTransform="translate(22536.65 -2409.38) rotate(90) scale(6.7)" xlink:href="#a3f870d2-e2c1-4e5f-a8ab-af854673bd4c"/><clipPath id="ba01deb7-9096-49a8-be2b-43e9e214b6cb"><rect x="76.04" y="13.16" width="5.86" height="0.81" fill="none"/></clipPath><clipPath id="a7ec5225-af5c-4f52-99a7-2af30b2637c9"><path d="M76,29.18a5.4,5.4,0,0,1-5.24,5.41h6.45A4.63,4.63,0,0,0,80.69,33L76,28.37Z" fill="none"/></clipPath><mask id="e9fd4e7f-accc-47ac-bbff-72182d32d18b" x="67.69" y="23.43" width="16.11" height="16.11" maskUnits="userSpaceOnUse"><rect x="70.05" y="25.78" width="11.39" height="11.39" transform="translate(-0.07 62.78) rotate(-45)" fill="url(#a3f870d2-e2c1-4e5f-a8ab-af854673bd4c)"/></mask><linearGradient id="b1f9a56f-a86a-4028-8ed4-2b70d19a8570" x1="363.73" y1="3350.88" x2="364.71" y2="3350.88" gradientTransform="translate(22542.61 -2409.11) rotate(90) scale(6.7)" gradientUnits="userSpaceOnUse"><stop offset="0" stop-color="#23408a"/><stop offset="1" stop-color="#2186c7"/></linearGradient><clipPath id="af5155fd-8f55-4592-8460-3cfdadf305b7"><rect x="70.18" y="17.45" width="5.86" height="0.81" fill="none"/></clipPath><clipPath id="f4ab602e-5897-485d-906d-ab7560501ba6"><path d="M70.17,29.18a5.39,5.39,0,0,1-5.23,5.41h6.44A4.64,4.64,0,0,0,74.83,33l-4.66-4.65Z" fill="none"/></clipPath><mask id="b36c02e7-0deb-4cc2-b1c1-52e96200e2a7" x="61.83" y="23.43" width="16.11" height="16.11" maskUnits="userSpaceOnUse"><rect x="64.19" y="25.79" width="11.39" height="11.39" transform="translate(-1.79 58.64) rotate(-45)" fill="url(#b23df801-f994-40e1-926d-f8f5084f0011)"/></mask><linearGradient id="b8e6cbf7-de0d-4e19-ac52-e011d79d4418" x1="363.75" y1="3350.86" x2="364.73" y2="3350.86" gradientTransform="translate(22536.66 -2409.4) rotate(90) scale(6.7)" xlink:href="#b1f9a56f-a86a-4028-8ed4-2b70d19a8570"/><clipPath id="e1cec8ab-96f3-4c1c-90de-819ef3913ed0"><rect x="64.31" y="21.79" width="5.86" height="0.81" fill="none"/></clipPath></defs><title>adwords-display</title><g id="bc2eb3d4-4f04-4660-bbf9-a3523563dedd" data-name="Layer 2"><g id="fcc6d8ee-7bba-4039-8b43-a190f83c953d" data-name="Layer 10"><path d="M8.52,72.38v2.36H14a4.79,4.79,0,0,1-1.26,2.89,5.62,5.62,0,0,1-4.24,1.69,6.12,6.12,0,0,1,0-12.23,5.82,5.82,0,0,1,4.14,1.64L14.3,67.1a8,8,0,0,0-5.76-2.31,8.42,8.42,0,1,0,0,16.83,7.74,7.74,0,0,0,5.87-2.36,7.65,7.65,0,0,0,2-5.38,7.48,7.48,0,0,0-.13-1.5Z" fill="#fff"/><path d="M23.24,70.78a5.42,5.42,0,1,0,5.44,5.42,5.34,5.34,0,0,0-5.44-5.42m0,8.7A3.29,3.29,0,1,1,26.3,76.2a3.13,3.13,0,0,1-3.06,3.28" fill="#fff"/><path d="M35.55,70.78A5.42,5.42,0,1,0,41,76.2a5.35,5.35,0,0,0-5.44-5.42m0,8.7a3.29,3.29,0,1,1,3.06-3.28,3.13,3.13,0,0,1-3.06,3.28" fill="#fff"/><path d="M50.5,72h-.08a3.76,3.76,0,0,0-2.86-1.21,5.43,5.43,0,0,0,0,10.84,3.7,3.7,0,0,0,2.86-1.24h.08v.78c0,2.08-1.11,3.18-2.9,3.18a3,3,0,0,1-2.73-1.93l-2.07.87a5.18,5.18,0,0,0,4.8,3.2c2.8,0,5.16-1.64,5.16-5.65V71.11H50.5Zm-2.73,7.49a3.11,3.11,0,0,1-3-3.26,3.14,3.14,0,0,1,3-3.31,3.06,3.06,0,0,1,2.89,3.31,3,3,0,0,1-2.89,3.26" fill="#fff"/><rect x="55.06" y="65.36" width="2.38" height="15.92" fill="#fff"/><path d="M68.84,74.23a5,5,0,0,0-4.64-3.45,5.15,5.15,0,0,0-5.11,5.42,5.3,5.3,0,0,0,5.38,5.42A5.36,5.36,0,0,0,69,79.21L67.14,78a3.09,3.09,0,0,1-2.67,1.5,2.76,2.76,0,0,1-2.63-1.64l7.25-3ZM61.45,76a3,3,0,0,1,2.83-3.16,2.08,2.08,0,0,1,2,1.15Z" fill="#fff"/><path d="M84.88,79.88a1.28,1.28,0,0,1,.08.31.21.21,0,0,1-.07.18.35.35,0,0,1-.23.08l-.44,0h-.43a1.09,1.09,0,0,1-.25,0,.18.18,0,0,1-.12-.08.57.57,0,0,1-.08-.13l-1-2.78H77.63l-.93,2.74a.47.47,0,0,1-.08.14.31.31,0,0,1-.12.1,1.11,1.11,0,0,1-.24,0l-.4,0-.42,0a.51.51,0,0,1-.23-.08.29.29,0,0,1-.06-.19,1.28,1.28,0,0,1,.07-.31l3.83-10.58a.42.42,0,0,1,.09-.16A.35.35,0,0,1,79.3,69a1.08,1.08,0,0,1,.29-.05L80,69l.47,0a1.17,1.17,0,0,1,.3.05.32.32,0,0,1,.17.1.34.34,0,0,1,.1.16ZM80,70.54h0l-2,5.68h4Z" fill="#edb81e"/><path d="M93.4,80.2a.24.24,0,0,1,0,.12.16.16,0,0,1-.1.08.53.53,0,0,1-.2,0l-.3,0-.31,0a.53.53,0,0,1-.2,0,.25.25,0,0,1-.12-.08.24.24,0,0,1,0-.12v-1a5.66,5.66,0,0,1-1.3,1.06,3,3,0,0,1-1.47.38,3.12,3.12,0,0,1-1.49-.34,2.85,2.85,0,0,1-1-.92A4,4,0,0,1,86.29,78a7.17,7.17,0,0,1-.18-1.64,7.43,7.43,0,0,1,.22-1.84,4,4,0,0,1,.66-1.4,2.87,2.87,0,0,1,1.06-.9,3.32,3.32,0,0,1,1.48-.31,2.7,2.7,0,0,1,1.27.3,4.37,4.37,0,0,1,1.14.9V68.47a.27.27,0,0,1,0-.12.23.23,0,0,1,.12-.08.94.94,0,0,1,.23-.06l.34,0,.36,0a.75.75,0,0,1,.22.06.23.23,0,0,1,.12.08.19.19,0,0,1,0,.12Zm-1.46-5.57a5.66,5.66,0,0,0-1.14-1.12,2,2,0,0,0-1.15-.38,1.67,1.67,0,0,0-.94.26,2,2,0,0,0-.63.7,3.25,3.25,0,0,0-.35,1,5.8,5.8,0,0,0-.11,1.11,7.68,7.68,0,0,0,.09,1.17,3.33,3.33,0,0,0,.32,1,2.06,2.06,0,0,0,.61.72,1.66,1.66,0,0,0,1,.26,2.1,2.1,0,0,0,.56-.07A2.53,2.53,0,0,0,90.7,79a3.89,3.89,0,0,0,.59-.48,7.07,7.07,0,0,0,.65-.73Z" fill="#edb81e"/><path d="M107.16,80.08a.47.47,0,0,1-.1.2.56.56,0,0,1-.2.12l-.3,0-.45,0-.46,0-.31,0a.52.52,0,0,1-.19-.12.46.46,0,0,1-.09-.2l-2.39-8.6h0l-2.2,8.6a.37.37,0,0,1-.08.2.47.47,0,0,1-.18.12,1.72,1.72,0,0,1-.29,0l-.47,0-.48,0a2,2,0,0,1-.32,0,.52.52,0,0,1-.19-.12.46.46,0,0,1-.09-.2l-3-10.52a1.8,1.8,0,0,1-.06-.31.21.21,0,0,1,.07-.18A.46.46,0,0,1,95.6,69L96,69l.44,0a.72.72,0,0,1,.24.05.2.2,0,0,1,.11.09.6.6,0,0,1,0,.16l2.56,9.54h0l2.43-9.52a.48.48,0,0,1,.07-.16.22.22,0,0,1,.12-.11,1.22,1.22,0,0,1,.25-.05l.43,0,.39,0a1.11,1.11,0,0,1,.24.05.22.22,0,0,1,.12.11.48.48,0,0,1,.07.16l2.61,9.52h0l2.51-9.53.05-.15a.23.23,0,0,1,.11-.11,1.11,1.11,0,0,1,.24-.05l.41,0a2.26,2.26,0,0,1,.42,0,.38.38,0,0,1,.22.08.21.21,0,0,1,.07.18,1.6,1.6,0,0,1,0,.31Z" fill="#edb81e"/><path d="M118.76,76.15a5.93,5.93,0,0,1-.26,1.78,4,4,0,0,1-.76,1.41,3.5,3.5,0,0,1-1.27.92,4.39,4.39,0,0,1-1.76.33,4.47,4.47,0,0,1-1.71-.3,3.07,3.07,0,0,1-1.21-.84,3.64,3.64,0,0,1-.72-1.35,6.15,6.15,0,0,1-.24-1.79,6.35,6.35,0,0,1,.25-1.79,3.87,3.87,0,0,1,.76-1.4,3.55,3.55,0,0,1,1.26-.92,4.62,4.62,0,0,1,1.77-.32,4.67,4.67,0,0,1,1.71.29,3.25,3.25,0,0,1,1.21.84,3.64,3.64,0,0,1,.72,1.35A6.19,6.19,0,0,1,118.76,76.15Zm-1.51.1a5.94,5.94,0,0,0-.12-1.22,3,3,0,0,0-.39-1,2.07,2.07,0,0,0-.75-.69,2.85,2.85,0,0,0-2.29,0,2.11,2.11,0,0,0-.77.65,2.8,2.8,0,0,0-.44,1,4.92,4.92,0,0,0-.15,1.25,5.94,5.94,0,0,0,.12,1.22,2.8,2.8,0,0,0,.4,1,1.9,1.9,0,0,0,.75.68,2.83,2.83,0,0,0,2.28,0,1.92,1.92,0,0,0,.77-.64,2.73,2.73,0,0,0,.45-1A5.44,5.44,0,0,0,117.25,76.25Z" fill="#edb81e"/><path d="M125.52,72.79v.33a.87.87,0,0,1,0,.21.23.23,0,0,1-.07.11.12.12,0,0,1-.11,0,.45.45,0,0,1-.17,0l-.23-.08-.28-.07a1.29,1.29,0,0,0-.35,0,1.11,1.11,0,0,0-.43.09,1.75,1.75,0,0,0-.44.29,3.33,3.33,0,0,0-.49.54,8.77,8.77,0,0,0-.56.82V80.2a.19.19,0,0,1,0,.12.24.24,0,0,1-.11.08,1,1,0,0,1-.22,0l-.36,0-.36,0a1,1,0,0,1-.22,0,.2.2,0,0,1-.11-.08.19.19,0,0,1,0-.12V72.28a.21.21,0,0,1,0-.12.17.17,0,0,1,.11-.09.39.39,0,0,1,.2,0l.32,0,.33,0a.33.33,0,0,1,.19,0,.24.24,0,0,1,.11.09.21.21,0,0,1,0,.12v1.15a5.59,5.59,0,0,1,.61-.78,3.61,3.61,0,0,1,.54-.47,1.71,1.71,0,0,1,.5-.23,1.79,1.79,0,0,1,.51-.07h.26l.3,0a1.71,1.71,0,0,1,.29.08.49.49,0,0,1,.18.09.23.23,0,0,1,.07.08l0,.1a.74.74,0,0,1,0,.18Z" fill="#edb81e"/><path d="M133.73,80.2a.24.24,0,0,1,0,.12.16.16,0,0,1-.1.08.53.53,0,0,1-.2,0l-.3,0-.31,0a.53.53,0,0,1-.2,0,.25.25,0,0,1-.12-.08.24.24,0,0,1,0-.12v-1a5.66,5.66,0,0,1-1.3,1.06,3,3,0,0,1-1.47.38,3.1,3.1,0,0,1-1.49-.34,2.85,2.85,0,0,1-1-.92,4,4,0,0,1-.56-1.36,7.17,7.17,0,0,1-.18-1.64,7.43,7.43,0,0,1,.22-1.84,4,4,0,0,1,.66-1.4,2.83,2.83,0,0,1,1.07-.9,3.25,3.25,0,0,1,1.47-.31,2.7,2.7,0,0,1,1.27.3,4.37,4.37,0,0,1,1.14.9V68.47a.27.27,0,0,1,0-.12.23.23,0,0,1,.12-.08.94.94,0,0,1,.23-.06l.34,0,.36,0a.75.75,0,0,1,.22.06.23.23,0,0,1,.12.08.19.19,0,0,1,0,.12Zm-1.46-5.57a5.66,5.66,0,0,0-1.14-1.12,2,2,0,0,0-1.15-.38,1.67,1.67,0,0,0-.94.26,2,2,0,0,0-.63.7,3.25,3.25,0,0,0-.35,1,5.8,5.8,0,0,0-.11,1.11,7.68,7.68,0,0,0,.09,1.17,3.33,3.33,0,0,0,.32,1,2.06,2.06,0,0,0,.61.72,1.66,1.66,0,0,0,.95.26,2.1,2.1,0,0,0,.56-.07A2.53,2.53,0,0,0,131,79a3.89,3.89,0,0,0,.59-.48,7.07,7.07,0,0,0,.65-.73Z" fill="#edb81e"/><path d="M141.39,78a2.45,2.45,0,0,1-.22,1.08,2.3,2.3,0,0,1-.64.81,3.06,3.06,0,0,1-1,.49,4.52,4.52,0,0,1-1.26.17,5.07,5.07,0,0,1-.8-.07,3.87,3.87,0,0,1-.69-.17,4.42,4.42,0,0,1-.51-.21,1.28,1.28,0,0,1-.31-.2.48.48,0,0,1-.14-.24,1.63,1.63,0,0,1-.05-.43,2.19,2.19,0,0,1,0-.29.78.78,0,0,1,0-.18.15.15,0,0,1,.07-.1.2.2,0,0,1,.11,0,.76.76,0,0,1,.29.11,4.45,4.45,0,0,0,.46.26,4.13,4.13,0,0,0,.66.26,2.86,2.86,0,0,0,.87.12,2.32,2.32,0,0,0,.67-.08,1.64,1.64,0,0,0,.52-.23,1,1,0,0,0,.34-.39,1.25,1.25,0,0,0,.12-.56.9.9,0,0,0-.18-.57,1.61,1.61,0,0,0-.45-.4,4.63,4.63,0,0,0-.63-.32l-.73-.28a6.89,6.89,0,0,1-.73-.34,3,3,0,0,1-.64-.46,2,2,0,0,1-.45-.65,2.14,2.14,0,0,1-.17-.91,2.25,2.25,0,0,1,.18-.89,2,2,0,0,1,.54-.75,2.63,2.63,0,0,1,.9-.52,3.71,3.71,0,0,1,1.26-.19,4.48,4.48,0,0,1,.64.05c.21,0,.4.08.57.13a2.67,2.67,0,0,1,.44.18,1.47,1.47,0,0,1,.27.16.66.66,0,0,1,.12.12.61.61,0,0,1,0,.12,1.15,1.15,0,0,0,0,.16,1.66,1.66,0,0,1,0,.24,1.84,1.84,0,0,1,0,.26.8.8,0,0,1,0,.18.21.21,0,0,1-.08.1.16.16,0,0,1-.09,0,.48.48,0,0,1-.23-.09,2.29,2.29,0,0,0-.39-.21,5.64,5.64,0,0,0-.56-.21,2.7,2.7,0,0,0-.73-.09,2.1,2.1,0,0,0-.65.08,1.23,1.23,0,0,0-.47.24,1,1,0,0,0-.27.36,1.18,1.18,0,0,0-.09.46,1,1,0,0,0,.17.58,1.85,1.85,0,0,0,.46.41,4.24,4.24,0,0,0,.64.31l.74.29c.25.1.5.22.74.34a2.69,2.69,0,0,1,.65.45,2,2,0,0,1,.45.63A2.16,2.16,0,0,1,141.39,78Z" fill="#edb81e"/><path d="M95.46,24.31A24.3,24.3,0,1,1,71.16,0a24.3,24.3,0,0,1,24.3,24.31" fill="#ebb71f"/><path d="M92.16,24.31a21,21,0,1,1-21-21,21,21,0,0,1,21,21" fill="#fff"/><path d="M77.07,34.63H60.42V28.77H76V13.92a.76.76,0,0,1,.76-.77h4.34a.79.79,0,0,1,.76.77V29.76a4.82,4.82,0,0,1-4.83,4.87" fill="#2b67b0"/><g clip-path="url(#ba01deb7-9096-49a8-be2b-43e9e214b6cb)"><path d="M81.14,13.15H76.8a.79.79,0,0,0-.76.76V14a.79.79,0,0,1,.76-.76h4.34a.79.79,0,0,1,.76.76v-.05a.79.79,0,0,0-.76-.76" fill="#2b67b0"/></g><g clip-path="url(#a7ec5225-af5c-4f52-99a7-2af30b2637c9)"><g mask="url(#e9fd4e7f-accc-47ac-bbff-72182d32d18b)"><rect x="70.05" y="25.78" width="11.39" height="11.39" transform="translate(-0.07 62.78) rotate(-45)" fill="url(#b1f9a56f-a86a-4028-8ed4-2b70d19a8570)"/></g></g><path d="M71.2,34.63H60.42V28.77h9.75V18.21a.76.76,0,0,1,.77-.76h4.34a.79.79,0,0,1,.76.76V29.76a4.82,4.82,0,0,1-4.84,4.87" fill="#579fd7"/><g clip-path="url(#af5155fd-8f55-4592-8460-3cfdadf305b7)"><path d="M75.28,17.45H70.94a.79.79,0,0,0-.77.76v.05a.78.78,0,0,1,.77-.76h4.34a.78.78,0,0,1,.76.76v-.05a.79.79,0,0,0-.76-.76" fill="#579fd7"/></g><g clip-path="url(#f4ab602e-5897-485d-906d-ab7560501ba6)"><g mask="url(#b36c02e7-0deb-4cc2-b1c1-52e96200e2a7)"><rect x="64.19" y="25.79" width="11.39" height="11.39" transform="translate(-1.79 58.64) rotate(-45)" fill="url(#b8e6cbf7-de0d-4e19-ac52-e011d79d4418)"/></g></g><path d="M64.76,34.63H60.42V28.77h2.82a1.08,1.08,0,0,0,1.07-1.07V22.55a.76.76,0,0,1,.76-.76h4.3a.75.75,0,0,1,.76.76v6.63a5.34,5.34,0,0,1-5.37,5.45" fill="#94c7ec"/><g clip-path="url(#e1cec8ab-96f3-4c1c-90de-819ef3913ed0)"><path d="M69.41,21.79H65.07a.79.79,0,0,0-.76.76v.05a.79.79,0,0,1,.76-.76h4.34a.78.78,0,0,1,.76.76v-.05a.73.73,0,0,0-.76-.76" fill="#94c7ec"/></g></g></g></svg>