<svg xmlns="http://www.w3.org/2000/svg" viewBox="0 0 141.39 86.38"><title>adwords-shopping</title><g id="e5c0e597-fadc-4343-8b01-71c1ba65a0b5" data-name="Layer 2"><g id="a85d9381-5e51-4a46-b105-d9b316043e8c" data-name="Layer 10"><path d="M8.52,72.28v2.36H14a4.82,4.82,0,0,1-1.26,2.9,5.62,5.62,0,0,1-4.24,1.68A6.12,6.12,0,0,1,8.54,67a5.86,5.86,0,0,1,4.14,1.64L14.3,67a8,8,0,0,0-5.76-2.32,8.42,8.42,0,1,0,0,16.83,7.45,7.45,0,0,0,7.86-7.74,7.55,7.55,0,0,0-.13-1.5Z" fill="#fff"/><path d="M23.24,70.68a5.42,5.42,0,1,0,5.44,5.42,5.34,5.34,0,0,0-5.44-5.42m0,8.7A3.29,3.29,0,1,1,26.3,76.1a3.13,3.13,0,0,1-3.06,3.28" fill="#fff"/><path d="M35.55,70.68A5.42,5.42,0,1,0,41,76.1a5.35,5.35,0,0,0-5.44-5.42m0,8.7a3.29,3.29,0,1,1,3.06-3.28,3.13,3.13,0,0,1-3.06,3.28" fill="#fff"/><path d="M50.5,71.89h-.08a3.79,3.79,0,0,0-2.86-1.21,5.43,5.43,0,0,0,0,10.84,3.73,3.73,0,0,0,2.86-1.23h.08v.78c0,2.07-1.11,3.18-2.9,3.18a3,3,0,0,1-2.72-1.93l-2.08.86a5.17,5.17,0,0,0,4.8,3.2c2.8,0,5.16-1.64,5.16-5.64V71H50.5Zm-2.73,7.49a3.29,3.29,0,0,1,0-6.56,3.31,3.31,0,0,1,0,6.56" fill="#fff"/><rect x="55.06" y="65.27" width="2.38" height="15.92" fill="#fff"/><path d="M68.84,74.13a5,5,0,0,0-4.64-3.45,5.15,5.15,0,0,0-5.11,5.42,5.3,5.3,0,0,0,5.38,5.42A5.38,5.38,0,0,0,69,79.12l-1.84-1.23a3.11,3.11,0,0,1-2.67,1.5,2.77,2.77,0,0,1-2.63-1.65l7.25-3Zm-7.39,1.81a3,3,0,0,1,2.83-3.16,2.08,2.08,0,0,1,2,1.15Z" fill="#fff"/><path d="M84.88,79.79a.88.88,0,0,1,.08.31.21.21,0,0,1-.07.18.46.46,0,0,1-.23.08h-.87a1.18,1.18,0,0,1-.25,0,.23.23,0,0,1-.12-.09.74.74,0,0,1-.08-.13l-1-2.77H77.63l-.93,2.74a.4.4,0,0,1-.07.13.45.45,0,0,1-.13.1,1,1,0,0,1-.24.06h-.4a2.56,2.56,0,0,1-.42,0,.41.41,0,0,1-.23-.08.24.24,0,0,1-.06-.18,1.18,1.18,0,0,1,.08-.31L79.05,69.2a.35.35,0,0,1,.09-.16.35.35,0,0,1,.17-.1,1.43,1.43,0,0,1,.28,0h.9l.3,0A.39.39,0,0,1,81,69a.51.51,0,0,1,.09.16ZM80,70.44h0l-2,5.68h4Z" fill="#edb81e"/><path d="M93.4,80.1a.28.28,0,0,1,0,.13.21.21,0,0,1-.1.08l-.2,0h-.61l-.2,0a.24.24,0,0,1-.11-.08.2.2,0,0,1,0-.13v-1a5.18,5.18,0,0,1-1.3,1.06,3.22,3.22,0,0,1-3,0,2.92,2.92,0,0,1-1-.91,4.28,4.28,0,0,1-.56-1.36,7.3,7.3,0,0,1-.17-1.64,7.06,7.06,0,0,1,.22-1.85A3.94,3.94,0,0,1,87,73a2.71,2.71,0,0,1,1.07-.89,3.25,3.25,0,0,1,1.47-.32,2.6,2.6,0,0,1,1.27.31,4.32,4.32,0,0,1,1.14.89v-4.6a.27.27,0,0,1,0-.12.19.19,0,0,1,.12-.09l.23,0a1.58,1.58,0,0,1,.34,0,1.9,1.9,0,0,1,.37,0,1,1,0,0,1,.22,0,.2.2,0,0,1,.11.09.19.19,0,0,1,0,.12Zm-1.46-5.57a5.33,5.33,0,0,0-1.14-1.11A1.94,1.94,0,0,0,89.65,73a1.6,1.6,0,0,0-.94.27,1.91,1.91,0,0,0-.63.69,3.35,3.35,0,0,0-.35,1,5.8,5.8,0,0,0-.11,1.11,7.49,7.49,0,0,0,.09,1.17,3.49,3.49,0,0,0,.32,1,2.11,2.11,0,0,0,.61.71,1.59,1.59,0,0,0,1,.27,2,2,0,0,0,.56-.08,1.86,1.86,0,0,0,.55-.27,3.46,3.46,0,0,0,.59-.48,6,6,0,0,0,.65-.72Z" fill="#edb81e"/><path d="M107.16,80a.42.42,0,0,1-.1.2.48.48,0,0,1-.2.11,1.76,1.76,0,0,1-.3.06h-.91a1.9,1.9,0,0,1-.31-.06.4.4,0,0,1-.18-.11.54.54,0,0,1-.1-.2l-2.39-8.6h0l-2.2,8.6a.53.53,0,0,1-.09.2.4.4,0,0,1-.18.11,1.45,1.45,0,0,1-.29.06H99a2,2,0,0,1-.32-.06.5.5,0,0,1-.19-.11.53.53,0,0,1-.09-.2l-3-10.52c0-.14,0-.24-.06-.32a.23.23,0,0,1,.07-.18.5.5,0,0,1,.25-.07,2.83,2.83,0,0,1,.45,0h.43a1.11,1.11,0,0,1,.24,0,.22.22,0,0,1,.11.1.5.5,0,0,1,0,.16l2.56,9.54h0l2.43-9.53a.59.59,0,0,1,.07-.16.23.23,0,0,1,.13-.1.68.68,0,0,1,.25,0,2.49,2.49,0,0,1,.42,0,2.07,2.07,0,0,1,.39,0,.72.72,0,0,1,.24,0,.27.27,0,0,1,.13.1,1.38,1.38,0,0,1,.06.16l2.62,9.53h0l2.51-9.54.06-.15a.16.16,0,0,1,.11-.1.61.61,0,0,1,.23,0,2.43,2.43,0,0,1,.41,0l.42,0a.56.56,0,0,1,.23.08.26.26,0,0,1,.06.18,1.68,1.68,0,0,1,0,.32Z" fill="#edb81e"/><path d="M118.76,76.05a5.89,5.89,0,0,1-.26,1.78,3.83,3.83,0,0,1-.76,1.41,3.5,3.5,0,0,1-1.27.92,4.39,4.39,0,0,1-1.76.33A4.71,4.71,0,0,1,113,80.2a3.16,3.16,0,0,1-1.21-.85,3.68,3.68,0,0,1-.72-1.34,6.66,6.66,0,0,1,0-3.58,4,4,0,0,1,.76-1.41,3.47,3.47,0,0,1,1.27-.91,4.35,4.35,0,0,1,1.76-.33,4.67,4.67,0,0,1,1.71.29,3.2,3.2,0,0,1,1.21.85,3.64,3.64,0,0,1,.72,1.35A5.76,5.76,0,0,1,118.76,76.05Zm-1.51.1a6,6,0,0,0-.12-1.22,3.07,3.07,0,0,0-.39-1,2,2,0,0,0-.75-.68,2.85,2.85,0,0,0-2.29,0,2.07,2.07,0,0,0-.77.64,2.8,2.8,0,0,0-.44,1,5,5,0,0,0-.15,1.25,6,6,0,0,0,.12,1.23,2.88,2.88,0,0,0,.4,1,2,2,0,0,0,.75.67,2.41,2.41,0,0,0,1.17.26,2.53,2.53,0,0,0,1.11-.23,2.14,2.14,0,0,0,.78-.65,2.84,2.84,0,0,0,.44-1A5.46,5.46,0,0,0,117.25,76.15Z" fill="#edb81e"/><path d="M125.53,72.7c0,.13,0,.24,0,.32a.87.87,0,0,1,0,.21.34.34,0,0,1-.06.12.21.21,0,0,1-.11,0,.59.59,0,0,1-.17,0l-.23-.08-.29-.08a1.87,1.87,0,0,0-.34,0,1.26,1.26,0,0,0-.43.08,1.79,1.79,0,0,0-.45.29,4.53,4.53,0,0,0-.49.54c-.17.23-.36.5-.56.82V80.1a.16.16,0,0,1,0,.12.24.24,0,0,1-.11.08.85.85,0,0,1-.22.06h-.71a.94.94,0,0,1-.23-.06.24.24,0,0,1-.11-.08.21.21,0,0,1,0-.12V72.18a.37.37,0,0,1,0-.12A.35.35,0,0,1,121,72l.2,0h.65l.2,0a.45.45,0,0,1,.1.09.21.21,0,0,1,0,.12v1.15a7.14,7.14,0,0,1,.61-.77,3.11,3.11,0,0,1,.54-.47,1.47,1.47,0,0,1,.51-.24,2.08,2.08,0,0,1,.5-.07l.26,0,.31,0,.28.08a.49.49,0,0,1,.18.09.18.18,0,0,1,.07.09.15.15,0,0,1,0,.1.74.74,0,0,1,0,.18A2.82,2.82,0,0,1,125.53,72.7Z" fill="#edb81e"/><path d="M133.73,80.1a.28.28,0,0,1,0,.13.21.21,0,0,1-.1.08l-.2,0h-.61l-.2,0a.24.24,0,0,1-.11-.08.2.2,0,0,1,0-.13v-1a5.18,5.18,0,0,1-1.3,1.06,3.22,3.22,0,0,1-3,0,2.92,2.92,0,0,1-1-.91,4.28,4.28,0,0,1-.56-1.36,7.3,7.3,0,0,1-.17-1.64,7.06,7.06,0,0,1,.22-1.85,3.94,3.94,0,0,1,.65-1.4,2.71,2.71,0,0,1,1.07-.89,3.25,3.25,0,0,1,1.47-.32,2.6,2.6,0,0,1,1.27.31,4.32,4.32,0,0,1,1.14.89v-4.6a.27.27,0,0,1,0-.12.19.19,0,0,1,.12-.09l.23,0a1.62,1.62,0,0,1,.35,0,1.86,1.86,0,0,1,.36,0,1,1,0,0,1,.22,0,.2.2,0,0,1,.11.09.19.19,0,0,1,0,.12Zm-1.46-5.57a5.33,5.33,0,0,0-1.14-1.11A1.94,1.94,0,0,0,130,73a1.6,1.6,0,0,0-.94.27,1.91,1.91,0,0,0-.63.69,3.35,3.35,0,0,0-.35,1,5.8,5.8,0,0,0-.11,1.11,7.49,7.49,0,0,0,.09,1.17,3.49,3.49,0,0,0,.32,1A2.11,2.11,0,0,0,129,79a1.59,1.59,0,0,0,.95.27,2,2,0,0,0,.56-.08,1.86,1.86,0,0,0,.55-.27,3.46,3.46,0,0,0,.59-.48,6,6,0,0,0,.65-.72Z" fill="#edb81e"/><path d="M141.39,77.94a2.53,2.53,0,0,1-.22,1.09,2.16,2.16,0,0,1-.64.8,2.87,2.87,0,0,1-1,.49,4.5,4.5,0,0,1-1.25.17,4.21,4.21,0,0,1-.81-.07,5.43,5.43,0,0,1-.69-.16,3.11,3.11,0,0,1-.51-.22,1.74,1.74,0,0,1-.31-.19.55.55,0,0,1-.14-.25,1.63,1.63,0,0,1-.05-.43,2,2,0,0,1,0-.28.74.74,0,0,1,0-.19.18.18,0,0,1,.07-.1.2.2,0,0,1,.11,0,.63.63,0,0,1,.29.12c.12.08.28.16.46.26a5.35,5.35,0,0,0,.66.26,2.86,2.86,0,0,0,.87.12,2.73,2.73,0,0,0,.67-.08,1.66,1.66,0,0,0,.52-.24,1,1,0,0,0,.34-.39,1.22,1.22,0,0,0,.12-.56.93.93,0,0,0-.17-.56,1.67,1.67,0,0,0-.46-.41,3.69,3.69,0,0,0-.63-.31l-.73-.29a6.89,6.89,0,0,1-.73-.34,2.67,2.67,0,0,1-.64-.46,2.16,2.16,0,0,1-.45-.65,2.24,2.24,0,0,1-.17-.91,2.28,2.28,0,0,1,.18-.89,2.08,2.08,0,0,1,.54-.75,2.79,2.79,0,0,1,.9-.51,3.72,3.72,0,0,1,1.27-.2,3.36,3.36,0,0,1,.63.06,4,4,0,0,1,.57.13,2.7,2.7,0,0,1,.44.17,2.4,2.4,0,0,1,.27.16.46.46,0,0,1,.12.13.37.37,0,0,1,0,.11.79.79,0,0,1,0,.17,1.44,1.44,0,0,1,0,.24,1.81,1.81,0,0,1,0,.25.49.49,0,0,1,0,.19.43.43,0,0,1-.07.1.19.19,0,0,1-.1,0,.58.58,0,0,1-.23-.1l-.39-.21a4,4,0,0,0-.56-.2,2.34,2.34,0,0,0-.73-.1,2.46,2.46,0,0,0-.65.08,1.24,1.24,0,0,0-.46.24.91.91,0,0,0-.28.37,1.13,1.13,0,0,0-.09.45.91.91,0,0,0,.18.58A1.62,1.62,0,0,0,138,75a3.94,3.94,0,0,0,.65.32l.73.29c.25.1.5.21.74.33a3.41,3.41,0,0,1,.65.45,2,2,0,0,1,.45.63A2.19,2.19,0,0,1,141.39,77.94Z" fill="#edb81e"/><path d="M95.37,24.32A24.33,24.33,0,1,1,71.05,0,24.32,24.32,0,0,1,95.37,24.32" fill="#ebb71f"/><path d="M92.06,24.32a21,21,0,1,1-21-21,21,21,0,0,1,21,21" fill="#fff"/><path d="M76,35.81H61.93a.24.24,0,0,1-.24-.24q0-11,0-22.08L76.25,35.57a.24.24,0,0,1-.24.24" fill="#e2e0e0"/><path d="M64.41,25.69l-2.72-2.92V13.66A1,1,0,0,1,62,13a1,1,0,0,1,.78-.28h8.69l13.5,13.43a.92.92,0,0,1,.39.68,1,1,0,0,1-.39.81l-4.27,4H70.07Z" fill="#537abd"/><path d="M80,30.87,76,27a1,1,0,0,0-.56-.19.91.91,0,0,0-.58.19L70,31.58h10.6Z" fill="#b8ddea"/><path d="M65.83,15.44A1.43,1.43,0,1,1,64.41,14a1.43,1.43,0,0,1,1.42,1.43" fill="#9b9b9b"/><path d="M74.33,35.81l-1.74-1.68c-.87-.84-1.71-1.68-2.52-2.51l.07,0h6s.1,0,.1,0v4.15a.07.07,0,0,1,0,0Z" fill="#d3d3d3"/><path d="M66,15.44A1.43,1.43,0,1,1,64.54,14,1.43,1.43,0,0,1,66,15.44" fill="#fff"/></g></g></svg>