<svg xmlns="http://www.w3.org/2000/svg" xmlns:xlink="http://www.w3.org/1999/xlink" viewBox="0 0 141.39 86.38"><defs><clipPath id="b4136012-3c55-41ec-8a7a-aa4806daa24c"><path d="M66.63,12.16a1.72,1.72,0,0,0-1.71,1.71V35.29A1.72,1.72,0,0,0,66.63,37H76a1.72,1.72,0,0,0,1.71-1.71V13.87A1.72,1.72,0,0,0,76,12.16Z" fill="none"/></clipPath><linearGradient id="e65d66a4-0456-4842-b458-655668e9c6a9" x1="167.87" y1="3235.57" x2="168.85" y2="3235.57" gradientTransform="translate(19729.28 -1007.54) rotate(90) scale(6.08)" gradientUnits="userSpaceOnUse"><stop offset="0" stop-color="#4e5a56"/><stop offset="0.04" stop-color="#46504c"/><stop offset="0.11" stop-color="#3b413f"/><stop offset="0.19" stop-color="#333634"/><stop offset="0.28" stop-color="#2b2d2c"/><stop offset="0.39" stop-color="#272726"/><stop offset="0.56" stop-color="#232323"/><stop offset="1" stop-color="#212222"/></linearGradient></defs><title>adwords-mobile</title><g id="aae56fb4-2513-4b26-960b-c92b721e9930" data-name="Layer 2"><g id="a60b70fd-3566-4c28-8a98-11eaf513f1be" data-name="Layer 10"><path d="M95.37,24.32A24.33,24.33,0,1,1,71.05,0,24.32,24.32,0,0,1,95.37,24.32" fill="#ebb71f"/><path d="M92.06,24.32a21,21,0,1,1-21-21,21,21,0,0,1,21,21" fill="#fff"/><g clip-path="url(#b4136012-3c55-41ec-8a7a-aa4806daa24c)"><rect x="57.47" y="12.23" width="27.71" height="24.7" transform="translate(10.46 69.15) rotate(-55.22)" fill="url(#e65d66a4-0456-4842-b458-655668e9c6a9)"/></g><path d="M76,37h-9.4a1.72,1.72,0,0,1-1.71-1.71V13.87a1.72,1.72,0,0,1,1.71-1.71H76a1.72,1.72,0,0,1,1.71,1.71V35.29A1.72,1.72,0,0,1,76,37Z" fill="none" stroke="#212222" stroke-miterlimit="10" stroke-width="0.14"/><path d="M77,35.17H65.66a.18.18,0,0,1-.18-.18V14.62a.18.18,0,0,1,.18-.18H77a.18.18,0,0,1,.18.18V35a.17.17,0,0,1-.17.18" fill="#fff"/><path d="M73.09,13.17h-3.7a.18.18,0,0,1-.18-.18.17.17,0,0,1,.18-.17h3.69a.17.17,0,0,1,.18.17.17.17,0,0,1-.17.18" fill="#4e5a56"/><path d="M74.07,12.82a.14.14,0,0,1,0,.28.14.14,0,1,1,0-.28" fill="#4e5a56"/><path d="M75.21,12.81a.18.18,0,0,1,.18.18A.18.18,0,1,1,75,13a.18.18,0,0,1,.17-.18" fill="#4e5a56"/><path d="M68.62,13.17h-.47A.18.18,0,0,1,68,13a.18.18,0,0,1,.18-.17h.47a.17.17,0,0,1,.17.17.17.17,0,0,1-.17.18" fill="#4e5a56"/><path d="M67.44,12.81a.18.18,0,0,1,.18.18.18.18,0,1,1-.36,0,.18.18,0,0,1,.18-.18" fill="#4e5a56"/><path d="M73.09,36.35h-3.7a.18.18,0,1,1,0-.36h3.69a.18.18,0,0,1,.18.18.17.17,0,0,1-.17.18" fill="#4e5a56"/><path d="M72.86,27.86h1.72L72.24,20.8v6.78a.82.82,0,0,0,.62.28" fill="#0a9c59"/><path d="M71.05,24.32l1,3a.67.67,0,0,0,.19.3V20.8h0Z" fill="#0e6e3c"/><path d="M69.87,20.79h0l-2.36,7.05h1.73a.83.83,0,0,0,.63-.27.87.87,0,0,0,.2-.31l2.15-6.47Z" fill="#557cbe"/><path d="M8.52,72.28v2.36H14a4.82,4.82,0,0,1-1.26,2.9,5.6,5.6,0,0,1-4.24,1.68A6.12,6.12,0,0,1,8.54,67a5.86,5.86,0,0,1,4.14,1.64L14.3,67a8,8,0,0,0-5.76-2.32,8.42,8.42,0,1,0,0,16.83,7.45,7.45,0,0,0,7.86-7.74,7.55,7.55,0,0,0-.13-1.5Z" fill="#fff"/><path d="M23.24,70.68a5.42,5.42,0,1,0,5.44,5.42,5.34,5.34,0,0,0-5.44-5.42m0,8.7A3.29,3.29,0,1,1,26.3,76.1a3.13,3.13,0,0,1-3.06,3.28" fill="#fff"/><path d="M35.55,70.68A5.42,5.42,0,1,0,41,76.1a5.35,5.35,0,0,0-5.44-5.42m0,8.7a3.29,3.29,0,1,1,3.06-3.28,3.13,3.13,0,0,1-3.06,3.28" fill="#fff"/><path d="M50.5,71.89h-.08a3.79,3.79,0,0,0-2.86-1.21,5.43,5.43,0,0,0,0,10.84,3.73,3.73,0,0,0,2.86-1.23h.08v.78c0,2.07-1.11,3.18-2.9,3.18a3,3,0,0,1-2.72-1.93l-2.08.86a5.17,5.17,0,0,0,4.8,3.2c2.8,0,5.16-1.64,5.16-5.64V71H50.5Zm-2.73,7.49a3.29,3.29,0,0,1,0-6.56,3.31,3.31,0,0,1,0,6.56" fill="#fff"/><rect x="55.06" y="65.27" width="2.38" height="15.92" fill="#fff"/><path d="M68.84,74.13a5,5,0,0,0-4.64-3.45,5.15,5.15,0,0,0-5.11,5.42,5.3,5.3,0,0,0,5.38,5.42A5.38,5.38,0,0,0,69,79.12l-1.84-1.23a3.11,3.11,0,0,1-2.67,1.5,2.77,2.77,0,0,1-2.63-1.65l7.25-3Zm-7.39,1.81a3,3,0,0,1,2.84-3.16,2.1,2.1,0,0,1,2,1.15Z" fill="#fff"/><path d="M84.88,79.79a.88.88,0,0,1,.08.31.21.21,0,0,1-.07.18.46.46,0,0,1-.23.08h-.87a1.18,1.18,0,0,1-.25,0,.23.23,0,0,1-.12-.09.74.74,0,0,1-.08-.13l-1-2.77H77.63l-.93,2.74a.4.4,0,0,1-.07.13.34.34,0,0,1-.13.1,1,1,0,0,1-.24.06h-.4a2.56,2.56,0,0,1-.42,0,.41.41,0,0,1-.23-.08.24.24,0,0,1-.06-.18.88.88,0,0,1,.08-.31L79.05,69.2a.35.35,0,0,1,.09-.16.35.35,0,0,1,.17-.1,1.43,1.43,0,0,1,.28,0h.9l.3,0A.39.39,0,0,1,81,69a.51.51,0,0,1,.09.16ZM80,70.44h0l-2,5.68h4Z" fill="#edb81e"/><path d="M93.41,80.1a.28.28,0,0,1,0,.13.21.21,0,0,1-.1.08l-.2,0h-.61l-.2,0a.24.24,0,0,1-.11-.08.2.2,0,0,1,0-.13v-1a5.18,5.18,0,0,1-1.3,1.06,3.22,3.22,0,0,1-3,0,2.92,2.92,0,0,1-1-.91,4.28,4.28,0,0,1-.56-1.36,7.93,7.93,0,0,1-.17-1.64,7.06,7.06,0,0,1,.22-1.85A3.94,3.94,0,0,1,87,73a2.78,2.78,0,0,1,1.07-.89,3.25,3.25,0,0,1,1.47-.32,2.57,2.57,0,0,1,1.27.31,4.32,4.32,0,0,1,1.14.89v-4.6a.19.19,0,0,1,0-.12.17.17,0,0,1,.11-.09l.23,0a1.69,1.69,0,0,1,.35,0,1.86,1.86,0,0,1,.36,0,1,1,0,0,1,.22,0,.27.27,0,0,1,.12.09.28.28,0,0,1,0,.12Zm-1.47-5.57a5.33,5.33,0,0,0-1.14-1.11A1.94,1.94,0,0,0,89.66,73a1.64,1.64,0,0,0-1,.27,2,2,0,0,0-.63.69,3.67,3.67,0,0,0-.35,1,5.8,5.8,0,0,0-.11,1.11,7.49,7.49,0,0,0,.09,1.17,3.49,3.49,0,0,0,.33,1,2,2,0,0,0,.6.71,1.59,1.59,0,0,0,1,.27,2,2,0,0,0,.56-.08,1.75,1.75,0,0,0,.55-.27,3.46,3.46,0,0,0,.59-.48,6,6,0,0,0,.65-.72Z" fill="#edb81e"/><path d="M107.16,80a.42.42,0,0,1-.1.2.48.48,0,0,1-.2.11,1.76,1.76,0,0,1-.3.06h-.91a1.9,1.9,0,0,1-.31-.06.4.4,0,0,1-.18-.11.54.54,0,0,1-.1-.2l-2.39-8.6h0l-2.2,8.6a.53.53,0,0,1-.09.2.4.4,0,0,1-.18.11,1.45,1.45,0,0,1-.29.06H99a2,2,0,0,1-.32-.06.5.5,0,0,1-.19-.11.53.53,0,0,1-.09-.2l-3-10.52c0-.14,0-.24-.06-.32a.27.27,0,0,1,.07-.18.5.5,0,0,1,.25-.07,2.83,2.83,0,0,1,.45,0h.43a1.11,1.11,0,0,1,.24,0,.18.18,0,0,1,.11.1.5.5,0,0,1,0,.16l2.56,9.54h0l2.43-9.53a.59.59,0,0,1,.07-.16.23.23,0,0,1,.13-.1.68.68,0,0,1,.25,0,2.56,2.56,0,0,1,.42,0,2.24,2.24,0,0,1,.4,0,.71.71,0,0,1,.23,0,.27.27,0,0,1,.13.1,1.38,1.38,0,0,1,.06.16l2.62,9.53h0l2.51-9.54.06-.15a.16.16,0,0,1,.11-.1.61.61,0,0,1,.23,0,2.43,2.43,0,0,1,.41,0l.42,0a.56.56,0,0,1,.23.08.22.22,0,0,1,.06.18,1.68,1.68,0,0,1,0,.32Z" fill="#edb81e"/><path d="M118.76,76.05a5.89,5.89,0,0,1-.26,1.78,3.83,3.83,0,0,1-.76,1.41,3.5,3.5,0,0,1-1.27.92,4.35,4.35,0,0,1-1.76.33,4.62,4.62,0,0,1-1.7-.29,3.13,3.13,0,0,1-1.22-.85,3.68,3.68,0,0,1-.72-1.34,6.23,6.23,0,0,1-.24-1.8,5.93,5.93,0,0,1,.26-1.78,4,4,0,0,1,.75-1.41,3.47,3.47,0,0,1,1.27-.91,4.37,4.37,0,0,1,1.77-.33,4.62,4.62,0,0,1,1.7.29,3.2,3.2,0,0,1,1.21.85,3.81,3.81,0,0,1,.73,1.35A6.08,6.08,0,0,1,118.76,76.05Zm-1.51.1a6,6,0,0,0-.12-1.22,3.07,3.07,0,0,0-.39-1,2,2,0,0,0-.75-.68,2.85,2.85,0,0,0-2.29,0,2,2,0,0,0-.76.64,2.64,2.64,0,0,0-.45,1,5,5,0,0,0-.15,1.25,6,6,0,0,0,.12,1.23,2.88,2.88,0,0,0,.4,1,2,2,0,0,0,.75.67,2.44,2.44,0,0,0,1.17.26,2.53,2.53,0,0,0,1.11-.23,2.14,2.14,0,0,0,.78-.65,2.67,2.67,0,0,0,.44-1A5.46,5.46,0,0,0,117.25,76.15Z" fill="#edb81e"/><path d="M125.53,72.7c0,.13,0,.24,0,.32a.87.87,0,0,1,0,.21.34.34,0,0,1-.06.12.21.21,0,0,1-.11,0,.59.59,0,0,1-.17,0l-.23-.08-.29-.08a1.87,1.87,0,0,0-.34,0,1.26,1.26,0,0,0-.43.08,2,2,0,0,0-.45.29,4.53,4.53,0,0,0-.49.54c-.17.23-.36.5-.56.82V80.1a.16.16,0,0,1,0,.12.24.24,0,0,1-.11.08.85.85,0,0,1-.22.06h-.71a.94.94,0,0,1-.23-.06.24.24,0,0,1-.11-.08.21.21,0,0,1,0-.12V72.18a.37.37,0,0,1,0-.12A.35.35,0,0,1,121,72l.2,0h.65l.2,0a.45.45,0,0,1,.1.09.21.21,0,0,1,0,.12v1.15a7.14,7.14,0,0,1,.61-.77,3.11,3.11,0,0,1,.54-.47,1.47,1.47,0,0,1,.51-.24,2.15,2.15,0,0,1,.5-.07l.26,0,.31,0,.28.08a.49.49,0,0,1,.18.09.18.18,0,0,1,.07.09.15.15,0,0,1,0,.1.74.74,0,0,1,0,.18A2.82,2.82,0,0,1,125.53,72.7Z" fill="#edb81e"/><path d="M133.73,80.1a.28.28,0,0,1,0,.13.21.21,0,0,1-.1.08l-.2,0h-.61l-.2,0a.24.24,0,0,1-.11-.08.2.2,0,0,1,0-.13v-1a5.18,5.18,0,0,1-1.3,1.06,3.22,3.22,0,0,1-3,0,2.92,2.92,0,0,1-1-.91,4.28,4.28,0,0,1-.56-1.36,7.3,7.3,0,0,1-.17-1.64,7.06,7.06,0,0,1,.22-1.85,3.94,3.94,0,0,1,.65-1.4,2.78,2.78,0,0,1,1.07-.89,3.25,3.25,0,0,1,1.47-.32,2.6,2.6,0,0,1,1.27.31,4.32,4.32,0,0,1,1.14.89v-4.6a.27.27,0,0,1,0-.12.23.23,0,0,1,.12-.09l.23,0a1.62,1.62,0,0,1,.35,0,1.86,1.86,0,0,1,.36,0,1,1,0,0,1,.22,0,.27.27,0,0,1,.12.09.27.27,0,0,1,0,.12Zm-1.46-5.57a5.33,5.33,0,0,0-1.14-1.11A1.94,1.94,0,0,0,130,73a1.62,1.62,0,0,0-.94.27,1.91,1.91,0,0,0-.63.69,3.35,3.35,0,0,0-.35,1,5.8,5.8,0,0,0-.11,1.11,7.49,7.49,0,0,0,.09,1.17,3.81,3.81,0,0,0,.32,1A2.11,2.11,0,0,0,129,79a1.59,1.59,0,0,0,.95.27,2,2,0,0,0,.56-.08,1.86,1.86,0,0,0,.55-.27,3.46,3.46,0,0,0,.59-.48,6,6,0,0,0,.65-.72Z" fill="#edb81e"/><path d="M141.39,77.94a2.53,2.53,0,0,1-.22,1.09,2.16,2.16,0,0,1-.64.8,2.78,2.78,0,0,1-1,.49,4.5,4.5,0,0,1-1.25.17,4.21,4.21,0,0,1-.81-.07,5.86,5.86,0,0,1-.69-.16,3.11,3.11,0,0,1-.51-.22,2.21,2.21,0,0,1-.31-.19.55.55,0,0,1-.14-.25,1.69,1.69,0,0,1,0-.43,2.27,2.27,0,0,1,0-.28,1.67,1.67,0,0,1,0-.19.18.18,0,0,1,.07-.1.2.2,0,0,1,.11,0,.63.63,0,0,1,.29.12c.12.08.28.16.47.26a4.62,4.62,0,0,0,.65.26,2.86,2.86,0,0,0,.87.12,2.73,2.73,0,0,0,.67-.08,1.66,1.66,0,0,0,.52-.24,1,1,0,0,0,.34-.39,1.22,1.22,0,0,0,.12-.56.93.93,0,0,0-.17-.56,1.67,1.67,0,0,0-.46-.41,3.36,3.36,0,0,0-.63-.31l-.73-.29a6.89,6.89,0,0,1-.73-.34,2.89,2.89,0,0,1-.64-.46,2.35,2.35,0,0,1-.45-.65,2.24,2.24,0,0,1-.17-.91,2.28,2.28,0,0,1,.18-.89,2.08,2.08,0,0,1,.54-.75,2.79,2.79,0,0,1,.9-.51,3.76,3.76,0,0,1,1.27-.2,3.36,3.36,0,0,1,.63.06,4,4,0,0,1,.57.13,2.7,2.7,0,0,1,.44.17,2.4,2.4,0,0,1,.27.16.79.79,0,0,1,.13.13.36.36,0,0,1,0,.11s0,.1,0,.17,0,.14,0,.24,0,.18,0,.25a.74.74,0,0,1,0,.19.26.26,0,0,1-.07.1.17.17,0,0,1-.1,0,.58.58,0,0,1-.23-.1l-.39-.21a4,4,0,0,0-.56-.2,2.34,2.34,0,0,0-.73-.1,2.51,2.51,0,0,0-.65.08,1.33,1.33,0,0,0-.46.24,1,1,0,0,0-.28.37,1.13,1.13,0,0,0-.09.45.91.91,0,0,0,.18.58A1.62,1.62,0,0,0,138,75a4.37,4.37,0,0,0,.65.32l.73.29c.25.1.5.21.74.33a3.41,3.41,0,0,1,.65.45,2,2,0,0,1,.62,1.51Z" fill="#edb81e"/></g></g></svg>