<svg xmlns="http://www.w3.org/2000/svg" viewBox="0 0 139.74 86.38"><title>adwords-website</title><g id="e698a285-4410-4e59-8c9b-4c8eb6833640" data-name="Layer 2"><g id="bd5b5165-f0c1-483e-b8c0-c69cd025421c" data-name="Layer 10"><path d="M94.56,24.32A24.32,24.32,0,1,1,70.24,0,24.32,24.32,0,0,1,94.56,24.32" fill="#ebb71f"/><path d="M91.25,24.32a21,21,0,1,1-21-21,21,21,0,0,1,21,21" fill="#fff"/><path d="M70.24,26.57,80.73,16.12v-.6A1.69,1.69,0,0,0,79,13.84H61.44a1.69,1.69,0,0,0-1.69,1.68V27.84l5.83-5.79,4.66,4.52" fill="#f99b20"/><path d="M65.58,26.77l-5.83,5.81v.54a1.69,1.69,0,0,0,1.69,1.69H79a1.69,1.69,0,0,0,1.69-1.69V20.93L70.24,31.37l-4.66-4.6" fill="#f15a2a"/><polygon points="59.75 27.84 65.57 22.05 70.23 26.57 80.72 16.12 80.72 20.93 70.23 31.37 65.57 26.77 59.75 32.58 59.75 27.84" fill="#f3f3f3"/><polygon points="67.91 29.07 67.91 24.31 65.58 26.77 67.91 29.07" fill="#f79a20"/><path d="M8.52,72.28v2.36H14a4.82,4.82,0,0,1-1.26,2.9,5.62,5.62,0,0,1-4.24,1.68A6.12,6.12,0,0,1,8.54,67a5.86,5.86,0,0,1,4.14,1.64L14.3,67a8,8,0,0,0-5.76-2.32,8.42,8.42,0,1,0,0,16.83,7.45,7.45,0,0,0,7.86-7.74,7.55,7.55,0,0,0-.13-1.5Z" fill="#fff"/><path d="M23.24,70.68a5.42,5.42,0,1,0,5.44,5.42,5.34,5.34,0,0,0-5.44-5.42m0,8.7A3.29,3.29,0,1,1,26.3,76.1a3.13,3.13,0,0,1-3.06,3.28" fill="#fff"/><path d="M35.55,70.68A5.42,5.42,0,1,0,41,76.1a5.34,5.34,0,0,0-5.44-5.42m0,8.7a3.29,3.29,0,1,1,3.06-3.28,3.13,3.13,0,0,1-3.06,3.28" fill="#fff"/><path d="M50.5,71.89h-.09a3.75,3.75,0,0,0-2.85-1.21,5.43,5.43,0,0,0,0,10.84,3.69,3.69,0,0,0,2.85-1.23h.09v.78c0,2.07-1.11,3.18-2.9,3.18a3,3,0,0,1-2.73-1.93l-2.07.86a5.17,5.17,0,0,0,4.8,3.2c2.8,0,5.16-1.64,5.16-5.64V71H50.5Zm-2.73,7.49a3.29,3.29,0,0,1,0-6.56,3.31,3.31,0,0,1,0,6.56" fill="#fff"/><rect x="55.06" y="65.27" width="2.38" height="15.92" fill="#fff"/><path d="M68.84,74.13a5,5,0,0,0-4.64-3.45,5.15,5.15,0,0,0-5.11,5.42,5.3,5.3,0,0,0,5.38,5.42A5.38,5.38,0,0,0,69,79.12l-1.84-1.23a3.11,3.11,0,0,1-2.67,1.5,2.77,2.77,0,0,1-2.63-1.65l7.25-3Zm-7.39,1.81a3,3,0,0,1,2.83-3.16,2.08,2.08,0,0,1,2,1.15Z" fill="#fff"/><path d="M84.88,79.78a1.24,1.24,0,0,1,.07.32.21.21,0,0,1-.06.18.56.56,0,0,1-.24.08h-.87a1,1,0,0,1-.24,0,.25.25,0,0,1-.13-.09.76.76,0,0,1-.07-.13l-1-2.77H77.62l-.93,2.74a.54.54,0,0,1-.07.13.34.34,0,0,1-.13.1.83.83,0,0,1-.23.06h-.4a2.49,2.49,0,0,1-.42,0,.38.38,0,0,1-.23-.08.18.18,0,0,1-.06-.18.84.84,0,0,1,.07-.31L79,69.19a1,1,0,0,1,.09-.15.4.4,0,0,1,.17-.1l.28,0h.91a1.55,1.55,0,0,1,.29,0A.39.39,0,0,1,81,69a.62.62,0,0,1,.1.16ZM80,70.44h0l-2,5.68h4ZM93.44,80.1a.21.21,0,0,1,0,.12.36.36,0,0,1-.12.08.75.75,0,0,1-.22.06h-.71a.75.75,0,0,1-.22-.06.36.36,0,0,1-.12-.08.21.21,0,0,1,0-.12V75.46a4.57,4.57,0,0,0-.11-1.09,2.3,2.3,0,0,0-.3-.71,1.39,1.39,0,0,0-.53-.46,1.58,1.58,0,0,0-.74-.16,1.84,1.84,0,0,0-1.09.39,6,6,0,0,0-1.15,1.13V80.1a.21.21,0,0,1,0,.12.36.36,0,0,1-.12.08.75.75,0,0,1-.22.06H87a.94.94,0,0,1-.23-.06.24.24,0,0,1-.11-.08.21.21,0,0,1,0-.12V72.18a.21.21,0,0,1,0-.12.22.22,0,0,1,.1-.09l.2,0h.65a.72.72,0,0,1,.2,0,.3.3,0,0,1,.1.09.21.21,0,0,1,0,.12v1a4.93,4.93,0,0,1,1.33-1.1,2.92,2.92,0,0,1,1.35-.35,3,3,0,0,1,1.33.27,2.49,2.49,0,0,1,.88.72,3,3,0,0,1,.48,1,6.72,6.72,0,0,1,.14,1.45Zm8.61,0a.19.19,0,0,1-.07.16.68.68,0,0,1-.19.08,1.73,1.73,0,0,1-.36,0,1.89,1.89,0,0,1-.37,0,.55.55,0,0,1-.2-.08.21.21,0,0,1-.06-.16v-.79a3.69,3.69,0,0,1-1.16.86,3,3,0,0,1-1.35.31,4,4,0,0,1-1.13-.16,2.4,2.4,0,0,1-.86-.48,2.11,2.11,0,0,1-.56-.75,2.54,2.54,0,0,1-.19-1,2.41,2.41,0,0,1,.27-1.17,2.24,2.24,0,0,1,.78-.81,3.84,3.84,0,0,1,1.25-.49,7.73,7.73,0,0,1,1.67-.17h1.09v-.61a2.8,2.8,0,0,0-.1-.81,1.27,1.27,0,0,0-.87-.94A2.57,2.57,0,0,0,98.8,73a3.25,3.25,0,0,0-1,.13,5.37,5.37,0,0,0-.75.28c-.21.1-.39.2-.53.28a.7.7,0,0,1-.33.13l-.12,0a.53.53,0,0,1-.09-.11.48.48,0,0,1-.06-.18,1.66,1.66,0,0,1,0-.24,1.56,1.56,0,0,1,0-.35.61.61,0,0,1,.15-.24,1.8,1.8,0,0,1,.41-.27,4.66,4.66,0,0,1,.67-.28,5,5,0,0,1,.83-.21,4.6,4.6,0,0,1,.91-.09,4.7,4.7,0,0,1,1.45.2,2.37,2.37,0,0,1,1,.56,2.25,2.25,0,0,1,.53.93,4.23,4.23,0,0,1,.17,1.3Zm-1.44-3.62H99.37a5.16,5.16,0,0,0-1,.1,2.14,2.14,0,0,0-.73.3,1.16,1.16,0,0,0-.43.48A1.44,1.44,0,0,0,97,78a1.3,1.3,0,0,0,.4,1,1.54,1.54,0,0,0,1.09.36,2,2,0,0,0,1.06-.29,4.43,4.43,0,0,0,1-.89Zm5.56,3.61a.21.21,0,0,1,0,.12.28.28,0,0,1-.12.08.75.75,0,0,1-.22.06h-.71a1.09,1.09,0,0,1-.23-.06.24.24,0,0,1-.11-.08.21.21,0,0,1,0-.12V68.34a.21.21,0,0,1,0-.12.2.2,0,0,1,.11-.09l.23,0a1.78,1.78,0,0,1,.35,0,1.84,1.84,0,0,1,.36,0,.8.8,0,0,1,.22,0,.23.23,0,0,1,.12.09.21.21,0,0,1,0,.12Zm6.29.22-1.06,2.92a.38.38,0,0,1-.27.21,2.06,2.06,0,0,1-.65.08,1.77,1.77,0,0,1-.37,0,.52.52,0,0,1-.22-.07.17.17,0,0,1-.08-.14.43.43,0,0,1,0-.21l1.09-2.76a.48.48,0,0,1-.15-.11.47.47,0,0,1-.09-.17l-2.83-7.57a.79.79,0,0,1-.07-.29.21.21,0,0,1,.07-.17.41.41,0,0,1,.23-.08,2.56,2.56,0,0,1,.42,0h.42a.61.61,0,0,1,.23,0,.19.19,0,0,1,.13.1.74.74,0,0,1,.09.18l2.26,6.35h0l2.19-6.39A.34.34,0,0,1,114,72a.57.57,0,0,1,.23-.07,4.42,4.42,0,0,1,.84,0,.44.44,0,0,1,.23.08.21.21,0,0,1,.07.17.69.69,0,0,1,0,.26ZM124,72a.46.46,0,0,1,.36.12.56.56,0,0,1,.1.35V80.1a.21.21,0,0,1,0,.12.23.23,0,0,1-.12.08.85.85,0,0,1-.22.06h-.71a.85.85,0,0,1-.22-.06.23.23,0,0,1-.12-.08.21.21,0,0,1,0-.12V73.16h-4.1v4.41a2.54,2.54,0,0,0,.24,1.24.93.93,0,0,0,.87.42,1.28,1.28,0,0,0,.36,0l.28-.08.21-.09a.62.62,0,0,1,.16,0,.16.16,0,0,1,.09,0,.18.18,0,0,1,.06.08,1.46,1.46,0,0,1,0,.17,1.72,1.72,0,0,1,0,.26,2,2,0,0,1,0,.4.42.42,0,0,1-.11.22.51.51,0,0,1-.21.14,2,2,0,0,1-.32.1,2.32,2.32,0,0,1-.38.06,2.83,2.83,0,0,1-.41,0,3,3,0,0,1-1-.16,1.62,1.62,0,0,1-.72-.49,2,2,0,0,1-.41-.84,4.71,4.71,0,0,1-.13-1.19V73.16h-1.11a.24.24,0,0,1-.21-.14,1.05,1.05,0,0,1-.08-.46,2,2,0,0,1,0-.28,1.45,1.45,0,0,1,.06-.19.2.2,0,0,1,.09-.11.28.28,0,0,1,.13,0h1.1V70.07a.27.27,0,0,1,0-.12.35.35,0,0,1,.11-.09.7.7,0,0,1,.23-.06l.35,0,.36,0a.53.53,0,0,1,.22.06l.12.09a.27.27,0,0,1,0,.12V72Zm.62-2.45a1,1,0,0,1-.19.7,1.06,1.06,0,0,1-.71.18,1,1,0,0,1-.7-.18.92.92,0,0,1-.19-.68,1,1,0,0,1,.19-.7,1.06,1.06,0,0,1,.71-.18,1,1,0,0,1,.7.18A.92.92,0,0,1,124.61,69.5Zm8.22,9.4a2.09,2.09,0,0,1,0,.26.48.48,0,0,1,0,.18.5.5,0,0,1,0,.13.8.8,0,0,1-.14.17,2.55,2.55,0,0,1-.37.27,3.34,3.34,0,0,1-.6.29,3.79,3.79,0,0,1-.72.21,4.09,4.09,0,0,1-.8.08,4,4,0,0,1-1.51-.28,3,3,0,0,1-1.11-.83,3.7,3.7,0,0,1-.67-1.33,6.2,6.2,0,0,1-.24-1.81,6.27,6.27,0,0,1,.29-2,3.83,3.83,0,0,1,.78-1.38,3,3,0,0,1,1.17-.8,4.11,4.11,0,0,1,1.46-.26,3.64,3.64,0,0,1,.74.07,4.11,4.11,0,0,1,.65.19,2.38,2.38,0,0,1,.53.26,1.94,1.94,0,0,1,.34.26l.15.16a.52.52,0,0,1,.06.15.9.9,0,0,1,0,.19,2,2,0,0,1,0,.26,1.06,1.06,0,0,1-.08.48.23.23,0,0,1-.19.14.52.52,0,0,1-.31-.15l-.43-.32a3.47,3.47,0,0,0-.64-.32,2.41,2.41,0,0,0-.89-.14,1.81,1.81,0,0,0-1.6.8,4,4,0,0,0-.56,2.34,5.87,5.87,0,0,0,.14,1.34,2.74,2.74,0,0,0,.43,1,1.82,1.82,0,0,0,.69.58,2.16,2.16,0,0,0,.94.19,2.19,2.19,0,0,0,.88-.16,3.05,3.05,0,0,0,.65-.35c.19-.12.34-.24.47-.34a.58.58,0,0,1,.3-.15.17.17,0,0,1,.1,0,.28.28,0,0,1,.08.12,1.12,1.12,0,0,1,0,.21A2.91,2.91,0,0,1,132.83,78.9Zm6.91-1a2.53,2.53,0,0,1-.23,1.09,2.25,2.25,0,0,1-.64.8,2.74,2.74,0,0,1-1,.49,4.52,4.52,0,0,1-1.26.17,4.28,4.28,0,0,1-.81-.07,5.25,5.25,0,0,1-.68-.16,3.25,3.25,0,0,1-.52-.22,1.58,1.58,0,0,1-.3-.19.48.48,0,0,1-.15-.25,1.69,1.69,0,0,1,0-.43,2,2,0,0,1,0-.28.78.78,0,0,1,0-.19.16.16,0,0,1,.08-.1.2.2,0,0,1,.11,0,.6.6,0,0,1,.28.12l.47.26a4.33,4.33,0,0,0,.66.26,2.86,2.86,0,0,0,.87.12,2.8,2.8,0,0,0,.67-.08,1.66,1.66,0,0,0,.52-.24,1,1,0,0,0,.33-.39,1.22,1.22,0,0,0,.12-.56.87.87,0,0,0-.17-.56,1.49,1.49,0,0,0-.45-.41,3.46,3.46,0,0,0-.64-.31l-.72-.29a6.07,6.07,0,0,1-.73-.34,2.67,2.67,0,0,1-.64-.46,2,2,0,0,1-.45-.65,2.08,2.08,0,0,1-.18-.91,2.25,2.25,0,0,1,.18-.89,2.11,2.11,0,0,1,.55-.75A2.79,2.79,0,0,1,136,72a3.7,3.7,0,0,1,1.26-.2,3.55,3.55,0,0,1,.64.06,3,3,0,0,1,.57.13,2.57,2.57,0,0,1,.43.17l.28.16a.46.46,0,0,1,.12.13.36.36,0,0,1,0,.11s0,.1,0,.17a1.55,1.55,0,0,1,0,.23,2,2,0,0,1,0,.26.6.6,0,0,1,0,.18.35.35,0,0,1-.08.11.17.17,0,0,1-.1,0,.58.58,0,0,1-.23-.1,3.79,3.79,0,0,0-.38-.21,4.48,4.48,0,0,0-.56-.2,2.41,2.41,0,0,0-.74-.1,2.57,2.57,0,0,0-.65.08,1.33,1.33,0,0,0-.46.24,1,1,0,0,0-.27.37,1.14,1.14,0,0,0-.1.45.93.93,0,0,0,.18.58,1.67,1.67,0,0,0,.46.41,4.24,4.24,0,0,0,.64.32l.74.29c.25.1.49.21.74.33a2.64,2.64,0,0,1,.64.45,2.22,2.22,0,0,1,.46.63A2.16,2.16,0,0,1,139.74,77.94Z" fill="#edb81e"/></g></g></svg>