<svg xmlns="http://www.w3.org/2000/svg" viewBox="0 0 84.38 13.54"><title>Asset 1</title><g id="d9b1eb67-7fd6-4747-a4fb-d013ce3ab1ff" data-name="Layer 2"><g id="4e30d760-7700-40a9-9a13-5ef89e60a73c" data-name="Layer 8"><path d="M9.09,6.56,6.56.72,6.5.57H4.32l-.08.2L2.85,4,.42,9.62l-.42,1H2.39l.92-2.16H7.56l.92,2.16h2.35l-.14-.34Zm-5-.08,1.29-3,1.27,3Z" fill="#eeb81c"/><path d="M21.14.58v10h2.18V.58Z" fill="#eeb81c"/><path d="M17,5.51V6.9h.69V8.15a.27.27,0,0,1-.21.23,10.31,10.31,0,0,1-1.22.31A2.83,2.83,0,0,1,14,8.11a3.09,3.09,0,0,1-1.13-2.63,3.18,3.18,0,0,1,.54-1.82,3.16,3.16,0,0,1,4.25-.81c.26.17.51.35.77.54l1.13-1.63-.06-.07-.12-.1A5.46,5.46,0,0,0,14.63.47a5,5,0,0,0-3.54,2.8,5.11,5.11,0,0,0-.45,3,4.88,4.88,0,0,0,3.08,4.09,5.69,5.69,0,0,0,3,.34,4.94,4.94,0,0,0,3.12-1.46.55.55,0,0,0,.12-.2V5.51Z" fill="#eeb81c"/><path d="M24.52.55l2.9,7.7L30.31.55h2.26v10H30.83V7.29L31,2.86,28,10.6H26.78L24.52,4.7Z" fill="#fff"/><path d="M38.93,10.6a2.58,2.58,0,0,1-.19-.7,2.82,2.82,0,0,1-3.8.19,2.06,2.06,0,0,1-.71-1.59,2.12,2.12,0,0,1,.89-1.83A4.3,4.3,0,0,1,37.65,6h1V5.55a1.31,1.31,0,0,0-.32-.93,1.29,1.29,0,0,0-1-.35,1.48,1.48,0,0,0-.94.29.89.89,0,0,0-.37.73H34.39a1.86,1.86,0,0,1,.41-1.15A2.71,2.71,0,0,1,35.9,3.3,3.89,3.89,0,0,1,37.47,3a3.13,3.13,0,0,1,2.09.66,2.35,2.35,0,0,1,.8,1.85V8.88a3.81,3.81,0,0,0,.28,1.61v.12ZM37.09,9.39A1.91,1.91,0,0,0,38,9.15a1.62,1.62,0,0,0,.66-.65V7.1h-.9a2.47,2.47,0,0,0-1.4.32,1.05,1.05,0,0,0-.47.92,1,1,0,0,0,.32.77A1.24,1.24,0,0,0,37.09,9.39Z" fill="#fff"/><path d="M46,4.67a4.2,4.2,0,0,0-.68-.05,1.54,1.54,0,0,0-1.55.88V10.6H42.11V3.13h1.6l0,.84a1.89,1.89,0,0,1,1.68-1,1.57,1.57,0,0,1,.59.1Z" fill="#fff"/><path d="M49.51,7.4l-.75.77V10.6H47.09V0h1.68V6.12l.52-.66,2.06-2.33h2L50.6,6.25l3.07,4.35H51.73Z" fill="#fff"/><path d="M57.62,10.74a3.47,3.47,0,0,1-2.58-1,3.64,3.64,0,0,1-1-2.67V6.85a4.48,4.48,0,0,1,.43-2,3.28,3.28,0,0,1,1.21-1.37A3.2,3.2,0,0,1,57.42,3a2.93,2.93,0,0,1,2.36,1,4.12,4.12,0,0,1,.83,2.75V7.4H55.73a2.24,2.24,0,0,0,.62,1.46,1.85,1.85,0,0,0,1.36.54,2.27,2.27,0,0,0,1.88-.93l.9.86a3,3,0,0,1-1.2,1A3.75,3.75,0,0,1,57.62,10.74Zm-.2-6.4a1.41,1.41,0,0,0-1.11.48,2.51,2.51,0,0,0-.54,1.35H59V6a2,2,0,0,0-.45-1.27A1.4,1.4,0,0,0,57.41,4.34Z" fill="#fff"/><path d="M64,1.32V3.13h1.32V4.38H64V8.54a.92.92,0,0,0,.17.62.78.78,0,0,0,.6.19,2.56,2.56,0,0,0,.59-.07v1.3a4.12,4.12,0,0,1-1.1.16q-1.93,0-1.93-2.13V4.38H61.11V3.13h1.23V1.32Z" fill="#fff"/><path d="M66.62,1.19a.89.89,0,0,1,.24-.64.92.92,0,0,1,.7-.26.94.94,0,0,1,.7.26.88.88,0,0,1,.25.64.86.86,0,0,1-.25.63.94.94,0,0,1-.7.25.93.93,0,0,1-.7-.25A.87.87,0,0,1,66.62,1.19ZM68.4,10.6H66.72V3.13H68.4Z" fill="#fff"/><path d="M71.78,3.13l0,.86A2.69,2.69,0,0,1,74,3q2.33,0,2.37,2.67V10.6H74.7V5.76a1.54,1.54,0,0,0-.31-1.05,1.29,1.29,0,0,0-1-.34,1.62,1.62,0,0,0-1.51.92V10.6H70.2V3.13Z" fill="#fff"/><path d="M77.79,6.81A4.37,4.37,0,0,1,78.61,4a2.62,2.62,0,0,1,2.17-1,2.46,2.46,0,0,1,2,.89l.08-.75h1.51v7.24a3,3,0,0,1-.91,2.32,3.48,3.48,0,0,1-2.47.85,4,4,0,0,1-1.6-.34,2.85,2.85,0,0,1-1.19-.89l.79-1a2.4,2.4,0,0,0,1.91.92,1.85,1.85,0,0,0,1.32-.45,1.73,1.73,0,0,0,.48-1.33v-.5a2.47,2.47,0,0,1-1.93.81,2.62,2.62,0,0,1-2.14-1A4.51,4.51,0,0,1,77.79,6.81ZM79.46,7a3,3,0,0,0,.46,1.77,1.48,1.48,0,0,0,1.27.65,1.61,1.61,0,0,0,1.5-.87V5.22a1.59,1.59,0,0,0-1.49-.85A1.48,1.48,0,0,0,79.92,5,3.37,3.37,0,0,0,79.46,7Z" fill="#fff"/></g></g></svg>