<svg xmlns="http://www.w3.org/2000/svg" viewBox="0 0 44.12 45.04"><title>and</title><g id="edd66b04-e82c-4dd0-9308-9a3e22982ec1" data-name="Layer 2"><g id="b2daf2f3-fe82-41b8-b754-6d734ef33638" data-name="Layer 4"><path d="M16.35,43.86s3.73.75,9.29-4c3.82-3.07,11.87-10.21,18.42-8.21.09.41.17.58-.33.58a16.69,16.69,0,0,0-6.31,2.07c-2.07,1.41-9.12,6.31-11.45,8S17.51,46.19,16.35,43.86Z" fill="#e03c0a"/><path d="M25.52,22.71c.29-4,.61-7.42-.46-10.75a4.25,4.25,0,0,1,.6-3.55c.61-1.17,1.51-.88,2.52-.57s1.23.63,1.19,1.74c-.22,7.67-.95,15.35.35,23a2.64,2.64,0,0,1-2.47,3.26c-1.65.07-2.49-.91-2.47-2.66,0-3.21-1.32-5.87-3.62-9.06a32,32,0,0,0-.11,12.17c.2,1.49.42,2.71-.71,3.85-.75.74-1.41.51-2.23,0-1.75-1-.8-2.48-.81-3.76,0-6.56.89-13.12-.45-19.68-.36-1.75,0-3.86,2.29-4.23s2.28,1.55,2.68,3.23C22.38,18.12,22.94,20.62,25.52,22.71Z" fill="#33373f"/><path d="M15.13,38.83c-3-5.54-3.84-11.64-4-17.83,0-2.77-1.52-4.15-3.82-3.47A4.5,4.5,0,0,0,4,21.77C3.8,28.49,3.26,35.18.7,41.5c-.59,1.46.32,2,1.13,2.73s2,1.18,2.93.18c1.08-1.15,3.49-1.83,1.92-3.87-.33-2.08-.55-4.14,1.83-4.13s1.26,2.29,1.31,3.52a3.3,3.3,0,0,0,2,3.32,1.68,1.68,0,0,0,2.47-.74C14.89,41.37,16.06,40.56,15.13,38.83ZM6.22,33.41c.42-.67,1.17-9.21,1.17-9.21l1.82,8Z" fill="#33373f"/><path d="M43.32,6.24c.54-2.58-.5-3.91-2.31-5.17-2.81-2-4.67.53-6.8,1.52-1.82.86-3.1,2.91-2.53,4.48,1.52,4.15.55,8.34.75,12.47,0,2.52.32,5.09-.11,7.53-.3,1.66.41,2.25,1.37,3,1.2,1,2,.41,2.73-.66a3.24,3.24,0,0,1,2.15-1.08c3.85-1,5.2-3.6,4.78-7.47C42.83,16,42.32,11.07,43.32,6.24Zm-4,15.5c0,1.35-.1,3.19-2,3.09s-1.46-2-1.52-3.32c-.1-2.08,0-4.17,0-6.26h0l0-7.92a2.06,2.06,0,0,1,2-2.25c1.57,0,1.5,1.4,1.51,2.47C39.43,12.28,39.43,17,39.34,21.74Z" fill="#33373f"/><path d="M0,16a15.88,15.88,0,0,0,8.22-4C11.77,8.82,20.66-.78,32,.05c.5.25.08.83-.67.83a48.25,48.25,0,0,0-12.94,6C13.94,10,4,19,0,16Z" fill="#e03c0a"/></g></g></svg>