<svg xmlns="http://www.w3.org/2000/svg" viewBox="0 0 361.5 92.82"><title>Asset 3</title><g id="a7cdf60a-479b-40a4-9be1-4da90d8e9547" data-name="Layer 2"><g id="a88fdc1d-a705-4ded-9bca-b07af94a8599" data-name="Layer 8"><path d="M126.32,89.59v9.13H124.5V89.59Z" transform="translate(0 -5.99)" fill="#fff"/><path d="M138,98.72h-1.82l-4.08-6.21v6.21H130.3V89.59h1.83l4.08,6.26V89.59H138Z" transform="translate(0 -5.99)" fill="#fff"/><path d="M149,91v2.37h3.23V94.8H149v2.46h3.62v1.46h-5.44V89.59h5.44V91Z" transform="translate(0 -5.99)" fill="#fff"/><path d="M158.09,97.32h3.07v1.4h-4.89V89.59h1.82Z" transform="translate(0 -5.99)" fill="#fff"/><path d="M171.54,95.33v3.39h-1.83V89.59H173a3.41,3.41,0,0,1,2.43.78,2.76,2.76,0,0,1,.82,2.11,2.7,2.7,0,0,1-.84,2.08,3.49,3.49,0,0,1-2.41.77Zm2.9-2.85a1.39,1.39,0,0,0-.37-1,1.74,1.74,0,0,0-1.23-.36h-1.3v2.8h1.3C173.91,93.87,174.44,93.41,174.44,92.48Z" transform="translate(0 -5.99)" fill="#fff"/><path d="M185.37,96.88h-3.66l-.65,1.84h-1.92l3.36-9h2.08l3.35,9H186Zm-.49-1.38-1.35-3.85-1.34,3.85Z" transform="translate(0 -5.99)" fill="#fff"/><path d="M197.15,97.51a2.42,2.42,0,0,1-1,.94,3.55,3.55,0,0,1-1.67.36,4.34,4.34,0,0,1-1.73-.33,3,3,0,0,1-1.22-1,2.68,2.68,0,0,1-.52-1.45h1.94a1.51,1.51,0,0,0,.44.93,1.43,1.43,0,0,0,1,.37,1.2,1.2,0,0,0,.87-.31,1.17,1.17,0,0,0,.06-1.49,1.88,1.88,0,0,0-.62-.44c-.25-.11-.6-.24-1-.39a10.72,10.72,0,0,1-1.39-.56,2.66,2.66,0,0,1-.93-.81A2.32,2.32,0,0,1,191,92a2.25,2.25,0,0,1,.85-1.86,3.48,3.48,0,0,1,2.24-.68,3.61,3.61,0,0,1,2.31.7,2.63,2.63,0,0,1,1,1.86h-2a1.33,1.33,0,0,0-.42-.8,1.23,1.23,0,0,0-.91-.32,1.26,1.26,0,0,0-.82.26,1,1,0,0,0-.31.77,1,1,0,0,0,.24.67,1.72,1.72,0,0,0,.61.43,10.47,10.47,0,0,0,1,.38,12.25,12.25,0,0,1,1.43.58,2.5,2.5,0,0,1,.94.81,2.46,2.46,0,0,1,.38,1.42A2.41,2.41,0,0,1,197.15,97.51Z" transform="translate(0 -5.99)" fill="#fff"/><path d="M207.77,90.06a4.29,4.29,0,0,1,1.64,1.66,4.72,4.72,0,0,1,.61,2.41,4.78,4.78,0,0,1-.61,2.42,4.32,4.32,0,0,1-1.64,1.67,4.63,4.63,0,0,1-2.32.59,4.68,4.68,0,0,1-2.32-.59,4.39,4.39,0,0,1-1.64-1.67,4.88,4.88,0,0,1-.6-2.42,4.81,4.81,0,0,1,.6-2.41,4.36,4.36,0,0,1,1.64-1.66,4.58,4.58,0,0,1,2.32-.6A4.53,4.53,0,0,1,207.77,90.06ZM204,91.51a2.46,2.46,0,0,0-.95,1,3.84,3.84,0,0,0,0,3.16,2.46,2.46,0,0,0,.95,1,2.65,2.65,0,0,0,1.41.37,2.6,2.6,0,0,0,1.41-.37,2.4,2.4,0,0,0,.95-1,3.84,3.84,0,0,0,0-3.16,2.4,2.4,0,0,0-.95-1,2.69,2.69,0,0,0-1.41-.37A2.74,2.74,0,0,0,204,91.51Z" transform="translate(0 -5.99)" fill="#fff"/><path d="M225.06,89.59V91h-2.52v7.68h-1.82V91h-2.51V89.59Z" transform="translate(0 -5.99)" fill="#fff"/><path d="M233.76,98.72,231.7,95.6l-1.82,3.12H227.8l2.87-4.67-2.95-4.46h2.16l2,3,1.8-3h2.08l-2.86,4.59,3,4.54Z" transform="translate(0 -5.99)" fill="#fff"/><path d="M31.38,8.57a13.66,13.66,0,0,1,4.92,7.12H33.19a10.42,10.42,0,0,0-3.91-5.08,11.58,11.58,0,0,0-6.76-1.89A10.35,10.35,0,0,0,13,14.56a14.3,14.3,0,0,0-1.42,6.55A14.18,14.18,0,0,0,13,27.64a10.38,10.38,0,0,0,9.5,5.82,11.58,11.58,0,0,0,6.76-1.89,10.42,10.42,0,0,0,3.91-5.08H36.3a13.66,13.66,0,0,1-4.92,7.12,14.41,14.41,0,0,1-8.82,2.58,13.74,13.74,0,0,1-7.27-1.93,13.17,13.17,0,0,1-5-5.36,16.83,16.83,0,0,1-1.76-7.79,17.1,17.1,0,0,1,1.76-7.86,13,13,0,0,1,5-5.35A13.82,13.82,0,0,1,22.56,6,14.41,14.41,0,0,1,31.38,8.57Z" transform="translate(0 -5.99)" fill="#fff"/><path d="M57.72,28.67H44.24L41.55,35.9H38.4L49.32,7h3.32l10.92,29H60.37Zm-.88-2.35L51,10.36l-5.92,16Z" transform="translate(0 -5.99)" fill="#fff"/><path d="M82.51,35.9,74.4,23.55H69.61V35.9h-3V6.28H75.7c3.34,0,5.82.78,7.46,2.35A8.38,8.38,0,0,1,85.62,15a8.17,8.17,0,0,1-2.08,5.88,9.42,9.42,0,0,1-6,2.6L85.87,35.9ZM69.61,21.32h5.88q7.16,0,7.15-6.18t-7.15-6.3H69.61Z" transform="translate(0 -5.99)" fill="#fff"/><path d="M121.66,6.24V35.9h-6V23H103V35.9H97.09V6.24H103v12H115.7v-12Z" transform="translate(0 -5.99)" fill="#fff"/><path d="M144.06,29.93H132.17l-2.1,6h-6.26L134.73,6.57h6.76L152.37,35.9h-6.26Zm-1.6-4.49-4.37-12.52-4.37,12.52Z" transform="translate(0 -5.99)" fill="#fff"/><path d="M160.44,6.24V35.9h-5.92V6.24Z" transform="translate(0 -5.99)" fill="#fff"/><path d="M170.69,31.36h10V35.9H164.77V6.24h5.92Z" transform="translate(0 -5.99)" fill="#fff"/><path d="M214.47,29a12.2,12.2,0,0,1-5.32,5.12,18.48,18.48,0,0,1-8.46,1.79h-8.95V6.28h8.95q7.47,0,11.53,3.93t4.05,10.86A16.48,16.48,0,0,1,214.47,29ZM210,30q3.28-3.21,3.28-9t-3.28-9q-3.27-3.21-9.53-3.21h-5.76V33.25h5.76Q206.74,33.25,210,30Z" transform="translate(0 -5.99)" fill="#fff"/><path d="M237.7,28.67H224.21l-2.69,7.23h-3.15L229.29,7h3.32l10.93,29h-3.2Zm-.89-2.35-5.83-16-5.93,16Z" transform="translate(0 -5.99)" fill="#fff"/><path d="M275.3,6.91v29h-2.94V11.62l-10,24.28h-2.65L249.59,11.7V35.9h-3v-29h3.49L261,32.24,271.85,6.91Z" transform="translate(0 -5.99)" fill="#fff"/><path d="M297.77,28.67H284.29L281.6,35.9h-3.15L289.37,7h3.32l10.92,29h-3.19Zm-.88-2.35-5.84-16-5.92,16Z" transform="translate(0 -5.99)" fill="#fff"/><path d="M328.57,8.55a12.73,12.73,0,0,1,4.79,6.85h-3.07a10.1,10.1,0,0,0-3.84-4.83A11.06,11.06,0,0,0,320,8.72a11.21,11.21,0,0,0-5.78,1.51,10.54,10.54,0,0,0-4.05,4.33,13.94,13.94,0,0,0-1.47,6.55,13.93,13.93,0,0,0,1.49,6.64,10.63,10.63,0,0,0,4.12,4.33,11.83,11.83,0,0,0,6,1.51,11.31,11.31,0,0,0,5.46-1.33,10.35,10.35,0,0,0,4-3.84,13.11,13.11,0,0,0,1.78-5.92H319.28V20.27h14.87v2.61a15.15,15.15,0,0,1-2.12,6.8,13.22,13.22,0,0,1-4.91,4.77,14.11,14.11,0,0,1-7,1.74,14.53,14.53,0,0,1-7.48-1.91,13.07,13.07,0,0,1-5.08-5.36,16.48,16.48,0,0,1-1.81-7.81,16.48,16.48,0,0,1,1.81-7.81,13.09,13.09,0,0,1,5.06-5.36A14.5,14.5,0,0,1,320,6,14.19,14.19,0,0,1,328.57,8.55Z" transform="translate(0 -5.99)" fill="#fff"/><path d="M341.46,8.68V19.85H353v2.31H341.46v11.3h12.82V35.9h-15.8V6.28h15.8v2.4Z" transform="translate(0 -5.99)" fill="#fff"/><path d="M107.33,70.6l-4-6.38h-1.83V70.6H98.94v-16h5.63A5.82,5.82,0,0,1,108.72,56a4.59,4.59,0,0,1,1.42,3.52,4.45,4.45,0,0,1-1.06,3.08,5,5,0,0,1-3,1.54l4.19,6.49Zm-5.81-8.21h2.85q3.12,0,3.12-2.76a2.72,2.72,0,0,0-.76-2.05,3.27,3.27,0,0,0-2.36-.73h-2.85Z" transform="translate(0 -5.99)" fill="#fff"/><path d="M133.77,56.71v4.84h5.89v2h-5.89v5h6.56v2.1H131.2v-16h9.13v2.08Z" transform="translate(0 -5.99)" fill="#fff"/><path d="M164.15,64.4v6.2h-2.58v-16H167a5.85,5.85,0,0,1,4.15,1.31,4.72,4.72,0,0,1,1.39,3.6,4.56,4.56,0,0,1-1.42,3.56A5.89,5.89,0,0,1,167,64.4Zm5.77-4.86a2.7,2.7,0,0,0-.76-2.07,3.48,3.48,0,0,0-2.43-.71h-2.58V62.3h2.58C168.86,62.3,169.92,61.38,169.92,59.54Z" transform="translate(0 -5.99)" fill="#fff"/><path d="M203.06,67.14h-6.74L195.1,70.6h-2.76l5.88-15.72h3L207,70.6h-2.76Zm-.72-2-2.65-7.46L197,65.15Z" transform="translate(0 -5.99)" fill="#fff"/><path d="M230.27,54.63v16h-2.58v-16Z" transform="translate(0 -5.99)" fill="#fff"/><path d="M260.51,70.6l-4-6.38H254.7V70.6h-2.58v-16h5.63A5.82,5.82,0,0,1,261.9,56a4.59,4.59,0,0,1,1.42,3.52,4.49,4.49,0,0,1-1.05,3.08,5,5,0,0,1-3,1.54l4.19,6.49Zm-5.81-8.21h2.85q3.12,0,3.12-2.76a2.72,2.72,0,0,0-.76-2.05,3.27,3.27,0,0,0-2.36-.73H254.7Z" transform="translate(0 -5.99)" fill="#fff"/><rect y="56.12" width="79.17" height="1.62" fill="#fff"/><rect x="282.33" y="56.12" width="79.17" height="1.62" fill="#fff"/></g></g></svg>