<svg xmlns="http://www.w3.org/2000/svg" viewBox="0 0 104.86 10.13"><title>find-us-on</title><g id="aca2aab4-2f4c-4d6c-8a34-8427f987798a" data-name="Layer 2"><g id="adad9bae-de31-4cdd-816d-efa351ef842b" data-name="Layer 8"><path d="M0,.15H6.79l0,1.65H1.88V4.45H6.34V6.1H1.88V10H0Z" fill="#cbcbcb"/><path d="M10.86.15h1.88V10H10.86Z" fill="#cbcbcb"/><path d="M24.69.15h1.82V10H24.73L19.67,3.22V10H17.83V.15h1.78l5.08,6.79Z" fill="#cbcbcb"/><path d="M38.33.78a4.6,4.6,0,0,1,1.83,1.75,4.93,4.93,0,0,1,.66,2.54,4.82,4.82,0,0,1-.67,2.54A4.66,4.66,0,0,1,38.3,9.36a5.58,5.58,0,0,1-2.68.63h-4V.15h4.09A5.48,5.48,0,0,1,38.33.78Zm-1,7.14a3,3,0,0,0,1.14-1.15,3.48,3.48,0,0,0,.4-1.68,3.43,3.43,0,0,0-.42-1.7,2.88,2.88,0,0,0-1.16-1.16,3.27,3.27,0,0,0-1.65-.42H33.48V8.33h2.25A3.25,3.25,0,0,0,37.35,7.92Z" fill="#cbcbcb"/><path d="M53.61,7.77a2.39,2.39,0,0,0,1.77.66,2.33,2.33,0,0,0,1.75-.66,2.54,2.54,0,0,0,.63-1.83V.15h1.89V5.94a4.62,4.62,0,0,1-.52,2.23,3.56,3.56,0,0,1-1.49,1.46,4.86,4.86,0,0,1-2.26.5,5,5,0,0,1-2.3-.5,3.58,3.58,0,0,1-1.5-1.46,4.62,4.62,0,0,1-.52-2.23V.15H53V5.94A2.47,2.47,0,0,0,53.61,7.77Z" fill="#cbcbcb"/><path d="M69.17,2a4.71,4.71,0,0,0-1.4-.26A2,2,0,0,0,66.7,2a.79.79,0,0,0-.39.7.93.93,0,0,0,.27.68,2.17,2.17,0,0,0,.69.45,10.13,10.13,0,0,0,1.13.39A11.08,11.08,0,0,1,70,4.78a2.85,2.85,0,0,1,1.09.87,2.39,2.39,0,0,1,.45,1.52,2.59,2.59,0,0,1-.49,1.56,3,3,0,0,1-1.33,1,5,5,0,0,1-2,.35,6,6,0,0,1-2.25-.43,6.18,6.18,0,0,1-1.91-1.14l.79-1.6A5.57,5.57,0,0,0,66.11,8a4.47,4.47,0,0,0,1.73.39,2.23,2.23,0,0,0,1.24-.3,1,1,0,0,0,.44-.82,1,1,0,0,0-.27-.7,2,2,0,0,0-.7-.44c-.28-.11-.66-.24-1.15-.38a16.31,16.31,0,0,1-1.63-.57,2.89,2.89,0,0,1-1.08-.86,2.3,2.3,0,0,1-.45-1.49,2.49,2.49,0,0,1,.46-1.5A3,3,0,0,1,66,.35,5,5,0,0,1,67.92,0a6.71,6.71,0,0,1,3.56,1l-.76,1.64A7.17,7.17,0,0,0,69.17,2Z" fill="#cbcbcb"/><path d="M89.27.69a4.9,4.9,0,0,1,2.58,4.37,4.89,4.89,0,0,1-.69,2.56,5,5,0,0,1-1.89,1.84,5.62,5.62,0,0,1-5.32,0,5,5,0,0,1-1.89-1.84,4.89,4.89,0,0,1-.69-2.56A4.9,4.9,0,0,1,84,.69a5.69,5.69,0,0,1,5.32,0ZM85,2.16a3.09,3.09,0,0,0-1.22,1.21,3.18,3.18,0,0,0-.46,1.69,3.33,3.33,0,0,0,.46,1.7A3.48,3.48,0,0,0,85,8a3.27,3.27,0,0,0,1.67.45A3.14,3.14,0,0,0,88.28,8a3.27,3.27,0,0,0,1.2-1.22,3.33,3.33,0,0,0,.45-1.7,3.26,3.26,0,0,0-.45-1.69,3.1,3.1,0,0,0-1.2-1.21,3.14,3.14,0,0,0-1.64-.45A3.24,3.24,0,0,0,85,2.16Z" fill="#cbcbcb"/><path d="M103,.15h1.82V10h-1.78L98,3.22V10H96.18V.15H98L103,6.94Z" fill="#cbcbcb"/></g></g></svg>