<svg xmlns="http://www.w3.org/2000/svg" viewBox="0 0 77.45 25.28"><title>Asset 2</title><g id="eda63b39-2332-4596-8274-da2f84f6fb3e" data-name="Layer 2"><g id="b2565128-f8f5-42c6-86ad-0da44b866930" data-name="Layer 8"><path d="M9.54,0h.69a9.36,9.36,0,0,1,6.43,2.72C16,3.35,15.4,4,14.79,4.6a6.93,6.93,0,0,0-3.34-1.75A7,7,0,0,0,3,8.84a7.25,7.25,0,0,0,1.57,5.58,7,7,0,0,0,5.07,2.5,6.72,6.72,0,0,0,5-1.73,5.53,5.53,0,0,0,1.68-3.59c-2.16,0-4.32,0-6.47,0V8.93H19a9.21,9.21,0,0,1-2.39,8.16,8.93,8.93,0,0,1-5.52,2.48,10.1,10.1,0,0,1-5.81-1.14A10,10,0,0,1,.6,13.14,9.64,9.64,0,0,1,.53,6.65,10,10,0,0,1,4.11,1.91,10.18,10.18,0,0,1,9.54,0Z" fill="#5780c0"/><path d="M61.65.68h2.78V19.23c-.92,0-1.86,0-2.78,0q0-9.25,0-18.54Z" fill="#3aa655"/><path d="M25.15,7.11a6.54,6.54,0,0,1,5,1.06,6.11,6.11,0,0,1,2.45,3.9,6.41,6.41,0,0,1-1.26,5.21,6.42,6.42,0,0,1-10.07-.2,6.53,6.53,0,0,1-.86-5.9,6.17,6.17,0,0,1,4.75-4.07m.39,2.47a3.42,3.42,0,0,0-1.82,1.15,4.13,4.13,0,0,0,.2,5.37,3.46,3.46,0,0,0,5.51-.82,4.09,4.09,0,0,0-.7-4.88,3.48,3.48,0,0,0-3.19-.82Z" fill="#e7453c"/><path d="M38.92,7.11A6.49,6.49,0,0,1,44.5,8.65a6.45,6.45,0,0,1,.61,8.63,6.36,6.36,0,0,1-5.21,2.33A6.27,6.27,0,0,1,35,17.08a6.55,6.55,0,0,1-.82-6,6.15,6.15,0,0,1,4.7-3.94m.39,2.47a3.54,3.54,0,0,0-1.82,1.14A4.14,4.14,0,0,0,37.63,16a3.49,3.49,0,0,0,3.18,1,3.54,3.54,0,0,0,2.41-1.78,4.13,4.13,0,0,0-.72-4.9,3.48,3.48,0,0,0-3.19-.8Z" fill="#f7b92a"/><path d="M50.6,7.86a5.36,5.36,0,0,1,5.1-.39,4.68,4.68,0,0,1,1.32,1c0-.35,0-.72,0-1.08h2.62V18.84A6.82,6.82,0,0,1,58,23.66a6.22,6.22,0,0,1-5.34,1.54,6,6,0,0,1-4.55-3.63c.78-.37,1.6-.67,2.4-1A3.6,3.6,0,0,0,53,22.73a3.38,3.38,0,0,0,3.25-1A5.23,5.23,0,0,0,57,18.14a4.48,4.48,0,0,1-2.11,1.3,5.71,5.71,0,0,1-5.19-1.34,6.39,6.39,0,0,1-2.16-5,6.46,6.46,0,0,1,3-5.27m2.69,1.67a3.44,3.44,0,0,0-2,1.18,4.14,4.14,0,0,0,0,5.21,3.39,3.39,0,0,0,2.92,1.19,3.26,3.26,0,0,0,2.48-1.65,4.37,4.37,0,0,0-.44-4.91,3.18,3.18,0,0,0-2.94-1Z" fill="#5780c0"/><path d="M67.77,8.52a5.9,5.9,0,0,1,6-1.18,6.73,6.73,0,0,1,3.71,4.38L69,15.22a3.36,3.36,0,0,0,1.79,1.69,3.63,3.63,0,0,0,3.43-.5,5.15,5.15,0,0,0,1-1l2.15,1.43a6.37,6.37,0,0,1-10,.63,6.66,6.66,0,0,1,.48-8.93m1.39,2.41a3.76,3.76,0,0,0-.61,2.18l5.65-2.35a2.33,2.33,0,0,0-1.83-1.29A3.34,3.34,0,0,0,69.16,10.93Z" fill="#e7453c"/></g></g></svg>