<svg xmlns="http://www.w3.org/2000/svg" xmlns:xlink="http://www.w3.org/1999/xlink" viewBox="0 0 311.46 311.28"><defs><linearGradient id="f715489d-cc12-4f7e-acf4-93b7eb3a107d" x1="48.57" y1="155.64" x2="262.89" y2="155.64" gradientUnits="userSpaceOnUse"><stop offset="0.01" stop-color="#ecb71e"/><stop offset="0.49" stop-color="#f1ca58"/><stop offset="0.79" stop-color="#f4d67e"/><stop offset="1" stop-color="#fbefcc"/><stop offset="1" stop-color="#fff"/></linearGradient></defs><title>Asset 4</title><g id="b16171a9-417c-465b-8875-984ac31a70e1" data-name="Layer 2"><g id="a8a1bdda-5bee-4595-8d2c-adccdcfcd1c9" data-name="Layer 10"><g opacity="0.53"><path d="M155.73,17.3A138.34,138.34,0,1,0,294.08,155.64,138.34,138.34,0,0,0,155.73,17.3Zm0,230a91.63,91.63,0,1,1,91.64-91.63A91.62,91.62,0,0,1,155.73,247.27Z"/></g><g opacity="0.37"><path d="M148.2,48.75a106.93,106.93,0,0,0-33.26,7.79,7.76,7.76,0,0,0-4,10.56h0a7.73,7.73,0,0,0,9.85,3.81,91.31,91.31,0,0,1,30.47-6.82c49.08-2.44,91.65,34.84,95.81,83.81A91.66,91.66,0,1,1,65.7,138.43a7.67,7.67,0,0,0-5.51-8.78l-.15,0a7.67,7.67,0,0,0-9.59,6,107.15,107.15,0,0,0-1.06,33.24c6.89,55.74,56.31,97,112.38,93.78A107.28,107.28,0,0,0,262.36,145C256.62,87.56,205.76,44.67,148.2,48.75Z" fill="url(#f715489d-cc12-4f7e-acf4-93b7eb3a107d)"/></g><path d="M240.67,286.21a155.31,155.31,0,0,0,38.46-35.49,8.68,8.68,0,0,0-1.94-12.4h0a8.71,8.71,0,0,0-11.9,1.86,138.09,138.09,0,0,1-36.69,33.08c-61.66,38.27-143.2,21.91-185.41-37.12C-2,172.86,13.88,84.76,77.87,41.21,139.29-.6,223.61,13.92,267.44,73.91a137.72,137.72,0,0,1,26.33,72.36,141.27,141.27,0,0,1,.15,15.67,8.7,8.7,0,0,0,7.67,9.09h0a8.69,8.69,0,0,0,9.69-8.18A155,155,0,0,0,307,118.43a155,155,0,0,0-23.49-51.92C234.2-4.26,135.65-21.31,65.37,28.71c-68.91,49.05-86.19,144.84-38.14,215C74.85,313.18,170.05,332.17,240.67,286.21Z" fill="#e6e6e6" opacity="0.89"/><path d="M285.75,144.34a130.07,130.07,0,0,0-11.86-44.15,8.27,8.27,0,0,0-11.39-3.82h0A8.27,8.27,0,0,0,259,107.22a114.09,114.09,0,0,1-92.88,162c-59,5.43-112.79-35.87-122.77-94.25A113.93,113.93,0,0,1,192.86,47.83a8.24,8.24,0,0,0,10.29-4.48h0a8.26,8.26,0,0,0-4.91-11.09A131.45,131.45,0,0,0,185,28.46a130.12,130.12,0,0,0-50.6-1.59C66.35,38.09,18.48,101.18,26,169.77c8.08,73.85,76.25,126.16,149.67,114.85C243.3,274.2,291.74,212.52,285.75,144.34Z" fill="#2193fa"/></g></g></svg>