<svg xmlns="http://www.w3.org/2000/svg" viewBox="0 0 180.38 87.38"><title>hello</title><g id="a8b821c1-ebcf-4ead-a419-2e90a6c0736f" data-name="Layer 2"><g id="a1990be3-2e0b-4c92-b8f0-d20a1d443bb5" data-name="Layer 11"><path d="M40.51,76.54l-2.66-2.42c.23-1.05.52-2.4.86-4,1.36-6.46,3.63-17.29,6.94-30.62a291.69,291.69,0,0,1,8.83-28.56L55.24,9l3.86,1.5-.76,1.93a285.29,285.29,0,0,0-8.66,28.06c-3.3,13.25-5.56,24-6.92,30.48,0,.2-.08.41-.12.6,24.63-7.18,69.66-12.93,115-9.29l2.06.17-.33,4.13-2.07-.17C110.36,62.63,63.86,69,40.51,76.54Z" fill="#fff"/><path d="M166.38,40.31l-3.95-1.25.63-2c5.73-18,12.64-35,12.71-35.16L176.55,0l3.83,1.57-.78,1.91c-.07.17-6.91,17-12.59,34.86Z" fill="#fff"/><path d="M160.8,52.35a1.9,1.9,0,0,1-.41,0,3,3,0,0,1-2.51-3.16,2.85,2.85,0,0,1,1-2,2.69,2.69,0,0,1,2.1-.57,3,3,0,0,1,2.51,3.17,2.87,2.87,0,0,1-1,2A2.69,2.69,0,0,1,160.8,52.35Zm0-3a.24.24,0,0,0-.14,0,.16.16,0,0,0-.08.11,1.86,1.86,0,0,0,.2-.1.13.13,0,0,0,.05-.06Zm.08,0h0Zm-1.5-.15,1.47.09h0Z" fill="#fff"/><path d="M140.56,52.55a8.82,8.82,0,0,1-8.21-4.62c-2.12-4-1.51-9.91,1.41-13.85L135,32.42l3.32,2.47-1.23,1.67c-2,2.64-2.45,6.86-1.08,9.41.93,1.74,2.62,2.54,5,2.42,4-.22,7.66-4.91,9.54-10.25a9,9,0,0,1-8.06-2.88,11.8,11.8,0,0,1-1.59-13.88,6.89,6.89,0,0,1,5.54-3.58,8.44,8.44,0,0,1,7,3.53c2.92,3.77,2.87,8.23,2.42,12.08a23.77,23.77,0,0,1-.46,2.72l0,0,0,0c-1.79,8-7.24,15.95-14.18,16.33Zm6.33-30.62h-.16a2.83,2.83,0,0,0-2.23,1.58,7.67,7.67,0,0,0,1.06,8.91,4.88,4.88,0,0,0,6.18,1c0-.17,0-.34.07-.51.36-3.18.42-6.48-1.59-9.08A4.52,4.52,0,0,0,146.89,21.93Z" fill="#fff"/><path d="M9.64,87.38a9.47,9.47,0,0,1-6.71-2.77c-3.74-3.77-4.71-11.29,2-18.89A47.47,47.47,0,0,1,25.79,52.06C28.47,40.74,30.49,32.84,33,23c.57-2.22,1.16-4.54,1.79-7-3.35,1-7.17.57-10.9.11-3.54-.43-7.2-.87-10.59-.14A7.39,7.39,0,0,0,7.68,20.7a8.8,8.8,0,0,0,.91,8,7.55,7.55,0,0,0,6.2,3.06h0a7.36,7.36,0,0,0,5.85-2.53l1.22-1.67L25.22,30,24,31.7a11.41,11.41,0,0,1-9.18,4.22h0a11.67,11.67,0,0,1-9.54-4.77A12.89,12.89,0,0,1,3.81,19.23a11.5,11.5,0,0,1,8.62-7.31c4.08-.89,8.27-.38,12,.07,5.86.71,9.58,1,12.12-1.88L40.09,12,37,24c-2.33,9.11-4.23,16.56-6.63,26.6,4.83-1.34,9.77-2.25,14.65-3.16,3.85-.71,7.61-1.41,11.22-2.3,0-.15,0-.3,0-.45.88-8,3.82-15,7.88-18.92a10.09,10.09,0,0,1,7.61-3.15,7.75,7.75,0,0,1,5.57,3.07A9.94,9.94,0,0,1,79.17,34,15.86,15.86,0,0,1,71,44.15a52.67,52.67,0,0,1-10.57,4.19A6.36,6.36,0,0,0,62.75,53c1.78,1.3,4.4,1.33,7.19.08,4.6-2.06,9.79-6.82,12.91-9.86.22-12.36,9.58-30.18,9.71-30.42,3.27-6,6.56-9.43,9.77-10.22a5.79,5.79,0,0,1,4.72.84c6.84,4.54.41,14.31-2.34,18.48l-1.27,1.95C100,29.07,94.9,37,87.31,44.58l-.28.29a6.54,6.54,0,0,0,1.68,4.56c.94.84,2.39,1.7,5.2.76,4.73-1.59,10-6,13.36-9,.91-12.32,11.28-29.55,11.42-29.78,3.6-5.77,7.07-9,10.32-9.61A5.82,5.82,0,0,1,133.69,3c6.56,5-.41,14.3-3.39,18.3-.42.56-.87,1.19-1.37,1.87-3.7,5.05-9.28,12.69-17.28,19.75l-.29.26c0,2,.44,3.67,1.42,4.66a3.84,3.84,0,0,0,3,.88c2.71-.18,8.65-2.32,17.94-14.6L135,32.42l3.31,2.5-1.25,1.65c-7.85,10.37-14.9,15.83-21,16.23a7.85,7.85,0,0,1-6.27-2.09,8.88,8.88,0,0,1-2.25-4.3c-3.46,2.89-8,6.24-12.36,7.71-3.62,1.21-6.74.67-9.28-1.61a8.68,8.68,0,0,1-2.5-4.18c-3.31,3.06-7.62,6.61-11.81,8.49s-8.3,1.68-11.32-.52a10.2,10.2,0,0,1-3.94-6.9c-3.5.83-7.06,1.49-10.58,2.15a143.12,143.12,0,0,0-16.51,3.74l0,.1C26.6,67,23.47,78.84,17.14,84.32A11.43,11.43,0,0,1,9.64,87.38Zm15-30.45A42.72,42.72,0,0,0,8,68.45c-4.93,5.61-4.57,10.8-2.15,13.24,1.83,1.85,5.19,2.41,8.56-.51C19.39,76.89,22.34,66.72,24.65,56.93ZM71.22,26.77a6.34,6.34,0,0,0-4.18,2c-3.68,3.52-5.72,9.94-6.47,15.18A46.37,46.37,0,0,0,69,40.51c3.17-1.72,5.51-4.56,6.11-7.41a5.79,5.79,0,0,0-1-4.84,3.62,3.62,0,0,0-2.6-1.48ZM103.78,6.49a1.88,1.88,0,0,0-.46.06c-1.92.47-4.58,3.53-7.13,8.19a90.93,90.93,0,0,0-8.6,23.54A125.84,125.84,0,0,0,100,21.56l1.29-2c4.78-7.26,5.86-11.19,3.51-12.75A1.77,1.77,0,0,0,103.78,6.49Zm26.35-.63a1.61,1.61,0,0,0-.37,0c-1.94.36-4.76,3.25-7.56,7.73a90.29,90.29,0,0,0-9.92,23,124.33,124.33,0,0,0,13.3-15.93l1.4-1.91c5.18-6.95,6.48-10.81,4.21-12.52A1.74,1.74,0,0,0,130.13,5.86Z" fill="#fff"/></g></g></svg>