<svg xmlns="http://www.w3.org/2000/svg" viewBox="0 0 71.2 53.33"><title>icon-people</title><g id="a9cf4f2e-f1aa-4db2-965b-6c77f0b77016" data-name="Layer 2"><g id="ea8c436c-e1e8-4d54-b569-4a11eee1ec02" data-name="Layer 8"><path d="M41.22,9.17,30.66,9.12a5.25,5.25,0,0,0-5.34,4.35V29a1.74,1.74,0,0,0,3.48,0V16.27h1.49V28.49a2.63,2.63,0,0,0,0,.49V50.79a2.42,2.42,0,1,0,4.84,0V31.54h1.2V50.79a2.43,2.43,0,1,0,4.85,0V16.27h1.31V29a1.87,1.87,0,0,0,3.73,0V13.27C46.26,11.93,44.52,9.17,41.22,9.17Z" fill="#fff"/><path d="M35.79,8.36a4.18,4.18,0,1,0-4.18-4.17A4.18,4.18,0,0,0,35.79,8.36Z" fill="#fff"/><path d="M66.14,9.17,55.59,9.12a5.25,5.25,0,0,0-5.34,4.35V29a1.74,1.74,0,1,0,3.48,0V16.27h1.48V28.49a3.87,3.87,0,0,0,0,.49V50.79a2.42,2.42,0,1,0,4.84,0V31.54h1.2V50.79a2.42,2.42,0,1,0,4.84,0V16.27h1.33V29a1.87,1.87,0,0,0,3.73,0V13.27C71.2,11.93,69.44,9.17,66.14,9.17Z" fill="#fff"/><path d="M60.72,8.36a4.18,4.18,0,1,0-4.18-4.17A4.17,4.17,0,0,0,60.72,8.36Z" fill="#fff"/><path d="M15.91,9.17,5.34,9.12A5.25,5.25,0,0,0,0,13.47V29a1.74,1.74,0,1,0,3.48,0V16.27H5V28.49A3.91,3.91,0,0,0,5,29V50.79a2.48,2.48,0,0,0,2.43,2.54,2.47,2.47,0,0,0,2.42-2.54V31.54h1.2V50.79a2.43,2.43,0,1,0,4.86,0V16.27H17.2V29a1.87,1.87,0,0,0,3.74,0V13.27C20.94,11.93,19.2,9.17,15.91,9.17Z" fill="#eeb81c"/><path d="M10.47,8.36A4.18,4.18,0,1,0,6.29,4.19,4.18,4.18,0,0,0,10.47,8.36Z" fill="#eeb81c"/></g></g></svg>