<svg xmlns="http://www.w3.org/2000/svg" viewBox="0 0 73.09 73.09"><title>icon-90</title><g id="a2ce1195-2936-4c15-a1be-918905494be6" data-name="Layer 2"><g id="ba3b2f08-fa21-4591-a704-e8c6179f09e7" data-name="Layer 8"><path d="M36.55,0A36.55,36.55,0,1,0,73.09,36.55,36.54,36.54,0,0,0,36.55,0Zm0,67.16A30.62,30.62,0,1,1,67.16,36.55,30.61,30.61,0,0,1,36.55,67.16Z" fill="#fff"/><path d="M36.67,3.15v.06a3,3,0,0,0,2.69,2.85A30.63,30.63,0,1,1,11.9,18.39a2,2,0,0,0-1.64-3.24H8.8a3.51,3.51,0,0,0-3,1.59A36.54,36.54,0,1,0,39.9.16,2.94,2.94,0,0,0,36.67,3.15Z" fill="#eeb81c"/><path d="M23.38,37.26l.42-.58c.14-.18.26-.36.38-.54a4,4,0,0,1-1.29.7,4.81,4.81,0,0,1-1.53.24,4.53,4.53,0,0,1-1.6-.28,3.83,3.83,0,0,1-2.24-2.18,4.56,4.56,0,0,1-.34-1.83,4.66,4.66,0,0,1,1.39-3.33,5,5,0,0,1,1.56-1,5.39,5.39,0,0,1,2-.36,5.33,5.33,0,0,1,1.95.35,4.56,4.56,0,0,1,1.5,1,4.47,4.47,0,0,1,1,1.53,5.34,5.34,0,0,1,.34,2,5.94,5.94,0,0,1-.12,1.22,6.49,6.49,0,0,1-.34,1.14,8.16,8.16,0,0,1-.55,1.11c-.22.36-.46.73-.73,1.12L21.5,42.77a.89.89,0,0,1-.39.32,1.26,1.26,0,0,1-.57.12H18.83ZM19,32.66a3.78,3.78,0,0,0,.2,1.26,2.67,2.67,0,0,0,.58.95,2.62,2.62,0,0,0,.93.58,3.69,3.69,0,0,0,1.23.2,3.47,3.47,0,0,0,1.33-.24,3,3,0,0,0,1-.66,2.68,2.68,0,0,0,.61-.94,3,3,0,0,0,.21-1.1,3.42,3.42,0,0,0-.23-1.27,2.65,2.65,0,0,0-.62-1,2.59,2.59,0,0,0-.94-.61,3.18,3.18,0,0,0-1.21-.22,3.39,3.39,0,0,0-1.25.23,2.88,2.88,0,0,0-1,.62,2.57,2.57,0,0,0-.62.95A3.18,3.18,0,0,0,19,32.66Z" fill="#fff"/><path d="M39.66,35.74a12.2,12.2,0,0,1-.42,3.4,6.9,6.9,0,0,1-1.16,2.37,4.6,4.6,0,0,1-1.72,1.4,5,5,0,0,1-2.13.46,5,5,0,0,1-2.14-.46,4.57,4.57,0,0,1-1.71-1.4,6.89,6.89,0,0,1-1.15-2.37,12.2,12.2,0,0,1-.42-3.4,12.25,12.25,0,0,1,.42-3.4A7,7,0,0,1,30.38,30a4.47,4.47,0,0,1,1.71-1.4,5,5,0,0,1,2.14-.46,5,5,0,0,1,2.13.46A4.5,4.5,0,0,1,38.08,30a7,7,0,0,1,1.16,2.38A12.25,12.25,0,0,1,39.66,35.74Zm-1.93,0a12.26,12.26,0,0,0-.29-2.87A5.72,5.72,0,0,0,36.67,31a3,3,0,0,0-1.12-1,3,3,0,0,0-2.65,0,3,3,0,0,0-1.12,1A5.73,5.73,0,0,0,31,32.87a12.26,12.26,0,0,0-.29,2.87A12.2,12.2,0,0,0,31,38.61a5.82,5.82,0,0,0,.76,1.87,3,3,0,0,0,1.12,1,3.08,3.08,0,0,0,2.65,0,3,3,0,0,0,1.12-1,5.82,5.82,0,0,0,.77-1.87A12.2,12.2,0,0,0,37.73,35.74Z" fill="#fff"/><path d="M47.82,31.87a4.07,4.07,0,0,1-.28,1.57,3.41,3.41,0,0,1-.72,1.17,3.06,3.06,0,0,1-1,.73,3.42,3.42,0,0,1-1.27.25,3.46,3.46,0,0,1-1.3-.25,2.88,2.88,0,0,1-1.05-.73,3.23,3.23,0,0,1-.7-1.17,4.74,4.74,0,0,1-.25-1.57,4.87,4.87,0,0,1,.25-1.59,3.36,3.36,0,0,1,.7-1.18,2.88,2.88,0,0,1,1.05-.73,3.27,3.27,0,0,1,1.3-.25,3.32,3.32,0,0,1,1.31.25,3,3,0,0,1,1.06.73,3.36,3.36,0,0,1,.7,1.18A4.87,4.87,0,0,1,47.82,31.87Zm5.28-3.29a1.31,1.31,0,0,1,.25-.22.69.69,0,0,1,.38-.09h1.35L44.14,42.91a.73.73,0,0,1-.24.22.63.63,0,0,1-.35.08H42.18Zm-6.72,3.29a3.89,3.89,0,0,0-.15-1.16,2.25,2.25,0,0,0-.4-.79,1.42,1.42,0,0,0-.6-.44,1.79,1.79,0,0,0-.73-.14,1.71,1.71,0,0,0-.72.14,1.36,1.36,0,0,0-.58.44,2.25,2.25,0,0,0-.4.79,4.56,4.56,0,0,0,0,2.32,2.24,2.24,0,0,0,.4.77,1.42,1.42,0,0,0,.58.43,2.09,2.09,0,0,0,.72.13,2.2,2.2,0,0,0,.73-.13,1.48,1.48,0,0,0,.6-.43,2.24,2.24,0,0,0,.4-.77A3.89,3.89,0,0,0,46.38,31.87Zm9.71,7.82a4.25,4.25,0,0,1-.27,1.56,3.48,3.48,0,0,1-.73,1.16,3.06,3.06,0,0,1-1.05.73,3.2,3.2,0,0,1-1.27.25,3.32,3.32,0,0,1-1.31-.25,2.93,2.93,0,0,1-1-.73,3.12,3.12,0,0,1-.69-1.16,4.48,4.48,0,0,1-.26-1.56,4.67,4.67,0,0,1,.26-1.6,3.25,3.25,0,0,1,.69-1.19,2.93,2.93,0,0,1,1-.73,3.32,3.32,0,0,1,1.31-.25,3.36,3.36,0,0,1,1.31.25,2.88,2.88,0,0,1,1.05.73,3.41,3.41,0,0,1,.7,1.19A4.67,4.67,0,0,1,56.09,39.69Zm-1.44,0a4.08,4.08,0,0,0-.15-1.18,2.2,2.2,0,0,0-.4-.78,1.42,1.42,0,0,0-.6-.44,2,2,0,0,0-.73-.14,1.89,1.89,0,0,0-.72.14,1.33,1.33,0,0,0-.59.44,2,2,0,0,0-.39.78,4.08,4.08,0,0,0-.15,1.18,3.75,3.75,0,0,0,.15,1.14,2,2,0,0,0,.39.77,1.39,1.39,0,0,0,.59.43,1.88,1.88,0,0,0,.72.13A2,2,0,0,0,53.5,42a1.48,1.48,0,0,0,.6-.43,2.15,2.15,0,0,0,.4-.77A3.75,3.75,0,0,0,54.65,39.69Z" fill="#fff"/></g></g></svg>