<svg xmlns="http://www.w3.org/2000/svg" viewBox="0 0 81.38 67.23"><title>icon-bars</title><g id="a5185b24-c763-470d-8265-102e36585951" data-name="Layer 2"><g id="b1b4f179-d04e-4cbf-a6fc-f041738f1fb2" data-name="Layer 8"><path d="M1.11,9.92A1.11,1.11,0,1,0,2.23,11,1.11,1.11,0,0,0,1.11,9.92Z" fill="#fff"/><path d="M1.11,13.22a1.12,1.12,0,1,0,1.12,1.12A1.12,1.12,0,0,0,1.11,13.22Z" fill="#fff"/><path d="M1.11,16.53a1.11,1.11,0,1,0,1.12,1.11A1.11,1.11,0,0,0,1.11,16.53Z" fill="#fff"/><path d="M1.11,19.83A1.12,1.12,0,1,0,2.23,21,1.12,1.12,0,0,0,1.11,19.83Z" fill="#fff"/><path d="M1.11,23.14a1.12,1.12,0,1,0,1.12,1.11A1.11,1.11,0,0,0,1.11,23.14Z" fill="#fff"/><path d="M1.11,26.44a1.12,1.12,0,1,0,1.12,1.12A1.12,1.12,0,0,0,1.11,26.44Z" fill="#fff"/><path d="M1.11,29.75a1.12,1.12,0,1,0,1.12,1.11A1.11,1.11,0,0,0,1.11,29.75Z" fill="#fff"/><path d="M1.11,33.05a1.12,1.12,0,1,0,1.12,1.12A1.12,1.12,0,0,0,1.11,33.05Z" fill="#fff"/><path d="M1.11,36.36a1.12,1.12,0,1,0,1.12,1.12A1.12,1.12,0,0,0,1.11,36.36Z" fill="#fff"/><path d="M1.11,39.67a1.12,1.12,0,1,0,1.12,1.11A1.11,1.11,0,0,0,1.11,39.67Z" fill="#fff"/><path d="M1.11,43a1.12,1.12,0,1,0,1.12,1.12A1.12,1.12,0,0,0,1.11,43Z" fill="#fff"/><path d="M1.11,46.28a1.12,1.12,0,1,0,1.12,1.11A1.11,1.11,0,0,0,1.11,46.28Z" fill="#fff"/><path d="M1.11,49.58A1.12,1.12,0,1,0,2.23,50.7,1.12,1.12,0,0,0,1.11,49.58Z" fill="#fff"/><path d="M1.11,52.89A1.12,1.12,0,1,0,2.23,54,1.11,1.11,0,0,0,1.11,52.89Z" fill="#fff"/><path d="M1.11,56.2a1.11,1.11,0,1,0,1.12,1.11A1.11,1.11,0,0,0,1.11,56.2Z" fill="#fff"/><path d="M1.11,59.5a1.12,1.12,0,1,0,1.12,1.11A1.11,1.11,0,0,0,1.11,59.5Z" fill="#fff"/><path d="M1.11,62.81a1.11,1.11,0,1,0,1.12,1.11A1.11,1.11,0,0,0,1.11,62.81Z" fill="#fff"/><path d="M1.11,66.11A1.12,1.12,0,0,0,0,67.23H2.23A1.12,1.12,0,0,0,1.11,66.11Z" fill="#fff"/><path d="M7.19,0A1.12,1.12,0,1,0,8.31,1.11,1.11,1.11,0,0,0,7.19,0Z" fill="#fff"/><path d="M7.19,3.3A1.12,1.12,0,1,0,8.31,4.42,1.12,1.12,0,0,0,7.19,3.3Z" fill="#fff"/><path d="M7.19,6.61A1.12,1.12,0,1,0,8.31,7.72,1.11,1.11,0,0,0,7.19,6.61Z" fill="#fff"/><path d="M7.19,9.92A1.11,1.11,0,1,0,8.31,11,1.11,1.11,0,0,0,7.19,9.92Z" fill="#fff"/><path d="M7.19,13.22a1.12,1.12,0,1,0,1.12,1.12A1.12,1.12,0,0,0,7.19,13.22Z" fill="#fff"/><path d="M7.19,16.53a1.11,1.11,0,1,0,1.12,1.11A1.11,1.11,0,0,0,7.19,16.53Z" fill="#fff"/><path d="M7.19,19.83A1.12,1.12,0,1,0,8.31,21,1.12,1.12,0,0,0,7.19,19.83Z" fill="#fff"/><path d="M7.19,23.14a1.12,1.12,0,1,0,1.12,1.11A1.11,1.11,0,0,0,7.19,23.14Z" fill="#fff"/><path d="M7.19,26.44a1.12,1.12,0,1,0,1.12,1.12A1.12,1.12,0,0,0,7.19,26.44Z" fill="#fff"/><path d="M7.19,29.75a1.12,1.12,0,1,0,1.12,1.11A1.11,1.11,0,0,0,7.19,29.75Z" fill="#fff"/><path d="M7.19,33.05a1.12,1.12,0,1,0,1.12,1.12A1.12,1.12,0,0,0,7.19,33.05Z" fill="#fff"/><path d="M7.19,36.36a1.12,1.12,0,1,0,1.12,1.12A1.12,1.12,0,0,0,7.19,36.36Z" fill="#fff"/><path d="M7.19,39.67a1.12,1.12,0,1,0,1.12,1.11A1.11,1.11,0,0,0,7.19,39.67Z" fill="#fff"/><circle cx="7.19" cy="44.09" r="1.11" transform="translate(-36.91 51.21) rotate(-89.91)" fill="#fff"/><path d="M7.19,46.28a1.12,1.12,0,1,0,1.12,1.11A1.11,1.11,0,0,0,7.19,46.28Z" fill="#fff"/><path d="M7.19,49.58A1.12,1.12,0,1,0,8.31,50.7,1.12,1.12,0,0,0,7.19,49.58Z" fill="#fff"/><path d="M7.19,52.89A1.12,1.12,0,1,0,8.31,54,1.11,1.11,0,0,0,7.19,52.89Z" fill="#fff"/><path d="M7.19,56.2a1.11,1.11,0,1,0,1.12,1.11A1.11,1.11,0,0,0,7.19,56.2Z" fill="#fff"/><path d="M7.19,59.5a1.12,1.12,0,1,0,1.12,1.11A1.11,1.11,0,0,0,7.19,59.5Z" fill="#fff"/><path d="M7.19,62.81a1.11,1.11,0,1,0,1.12,1.11A1.11,1.11,0,0,0,7.19,62.81Z" fill="#fff"/><path d="M7.19,66.11a1.12,1.12,0,0,0-1.11,1.12H8.31A1.12,1.12,0,0,0,7.19,66.11Z" fill="#fff"/><path d="M15.73,16.53a1.11,1.11,0,1,0,1.11,1.11A1.12,1.12,0,0,0,15.73,16.53Z" fill="#fff"/><path d="M15.73,19.83A1.12,1.12,0,1,0,16.84,21,1.12,1.12,0,0,0,15.73,19.83Z" fill="#fff"/><path d="M15.73,23.14a1.12,1.12,0,1,0,1.11,1.11A1.12,1.12,0,0,0,15.73,23.14Z" fill="#fff"/><path d="M15.73,26.44a1.12,1.12,0,1,0,1.11,1.12A1.12,1.12,0,0,0,15.73,26.44Z" fill="#fff"/><path d="M15.73,29.75a1.12,1.12,0,1,0,1.11,1.11A1.12,1.12,0,0,0,15.73,29.75Z" fill="#fff"/><path d="M15.73,33.05a1.12,1.12,0,1,0,1.11,1.12A1.12,1.12,0,0,0,15.73,33.05Z" fill="#fff"/><path d="M15.73,36.36a1.12,1.12,0,1,0,1.11,1.12A1.12,1.12,0,0,0,15.73,36.36Z" fill="#fff"/><path d="M15.73,39.67a1.12,1.12,0,1,0,1.11,1.11A1.12,1.12,0,0,0,15.73,39.67Z" fill="#fff"/><path d="M15.73,43a1.12,1.12,0,1,0,1.11,1.12A1.12,1.12,0,0,0,15.73,43Z" fill="#fff"/><path d="M15.73,46.28a1.12,1.12,0,1,0,1.11,1.11A1.12,1.12,0,0,0,15.73,46.28Z" fill="#fff"/><path d="M15.73,49.58a1.12,1.12,0,1,0,1.11,1.12A1.12,1.12,0,0,0,15.73,49.58Z" fill="#fff"/><path d="M15.73,52.89A1.12,1.12,0,1,0,16.84,54,1.12,1.12,0,0,0,15.73,52.89Z" fill="#fff"/><path d="M15.73,56.2a1.11,1.11,0,1,0,1.11,1.11A1.12,1.12,0,0,0,15.73,56.2Z" fill="#fff"/><path d="M15.73,59.5a1.12,1.12,0,1,0,1.11,1.11A1.12,1.12,0,0,0,15.73,59.5Z" fill="#fff"/><path d="M15.73,62.81a1.11,1.11,0,1,0,1.11,1.11A1.12,1.12,0,0,0,15.73,62.81Z" fill="#fff"/><path d="M15.73,66.11a1.12,1.12,0,0,0-1.12,1.12h2.23A1.12,1.12,0,0,0,15.73,66.11Z" fill="#fff"/><path d="M21.81,29.75a1.12,1.12,0,1,0,1.11,1.11A1.12,1.12,0,0,0,21.81,29.75Z" fill="#fff"/><path d="M21.81,33.05a1.12,1.12,0,1,0,1.11,1.12A1.12,1.12,0,0,0,21.81,33.05Z" fill="#fff"/><path d="M21.81,36.36a1.12,1.12,0,1,0,1.11,1.12A1.12,1.12,0,0,0,21.81,36.36Z" fill="#fff"/><path d="M21.81,39.67a1.12,1.12,0,1,0,1.11,1.11A1.12,1.12,0,0,0,21.81,39.67Z" fill="#fff"/><path d="M21.81,43a1.12,1.12,0,1,0,1.11,1.12A1.12,1.12,0,0,0,21.81,43Z" fill="#fff"/><path d="M21.81,46.28a1.12,1.12,0,1,0,1.11,1.11A1.12,1.12,0,0,0,21.81,46.28Z" fill="#fff"/><path d="M21.81,49.58a1.12,1.12,0,1,0,1.11,1.12A1.12,1.12,0,0,0,21.81,49.58Z" fill="#fff"/><path d="M21.81,52.89A1.12,1.12,0,1,0,22.92,54,1.12,1.12,0,0,0,21.81,52.89Z" fill="#fff"/><path d="M21.81,56.2a1.11,1.11,0,1,0,1.11,1.11A1.12,1.12,0,0,0,21.81,56.2Z" fill="#fff"/><path d="M21.81,59.5a1.12,1.12,0,1,0,1.11,1.11A1.12,1.12,0,0,0,21.81,59.5Z" fill="#fff"/><path d="M21.81,62.81a1.11,1.11,0,1,0,1.11,1.11A1.12,1.12,0,0,0,21.81,62.81Z" fill="#fff"/><path d="M21.81,66.11a1.12,1.12,0,0,0-1.12,1.12h2.23A1.12,1.12,0,0,0,21.81,66.11Z" fill="#fff"/><path d="M30.34,13.22a1.12,1.12,0,1,0,1.12,1.12A1.12,1.12,0,0,0,30.34,13.22Z" fill="#fff"/><path d="M30.34,16.53a1.11,1.11,0,1,0,1.12,1.11A1.11,1.11,0,0,0,30.34,16.53Z" fill="#fff"/><path d="M30.34,19.83A1.12,1.12,0,1,0,31.46,21,1.12,1.12,0,0,0,30.34,19.83Z" fill="#fff"/><path d="M30.34,23.14a1.12,1.12,0,1,0,1.12,1.11A1.11,1.11,0,0,0,30.34,23.14Z" fill="#fff"/><path d="M30.34,26.44a1.12,1.12,0,1,0,1.12,1.12A1.12,1.12,0,0,0,30.34,26.44Z" fill="#fff"/><path d="M30.34,29.75a1.12,1.12,0,1,0,1.12,1.11A1.11,1.11,0,0,0,30.34,29.75Z" fill="#fff"/><path d="M30.34,33.05a1.12,1.12,0,1,0,1.12,1.12A1.12,1.12,0,0,0,30.34,33.05Z" fill="#fff"/><path d="M30.34,36.36a1.12,1.12,0,1,0,1.12,1.12A1.12,1.12,0,0,0,30.34,36.36Z" fill="#fff"/><path d="M30.34,39.67a1.12,1.12,0,1,0,1.12,1.11A1.11,1.11,0,0,0,30.34,39.67Z" fill="#fff"/><path d="M30.34,43a1.12,1.12,0,1,0,1.12,1.12A1.12,1.12,0,0,0,30.34,43Z" fill="#fff"/><path d="M30.34,46.28a1.12,1.12,0,1,0,1.12,1.11A1.11,1.11,0,0,0,30.34,46.28Z" fill="#fff"/><path d="M30.34,49.58a1.12,1.12,0,1,0,1.12,1.12A1.12,1.12,0,0,0,30.34,49.58Z" fill="#fff"/><path d="M30.34,52.89A1.12,1.12,0,1,0,31.46,54,1.11,1.11,0,0,0,30.34,52.89Z" fill="#fff"/><path d="M30.34,56.2a1.11,1.11,0,1,0,1.12,1.11A1.11,1.11,0,0,0,30.34,56.2Z" fill="#fff"/><path d="M30.34,59.5a1.12,1.12,0,1,0,1.12,1.11A1.11,1.11,0,0,0,30.34,59.5Z" fill="#fff"/><path d="M30.34,62.81a1.11,1.11,0,1,0,1.12,1.11A1.11,1.11,0,0,0,30.34,62.81Z" fill="#fff"/><path d="M30.34,66.11a1.12,1.12,0,0,0-1.11,1.12h2.23A1.12,1.12,0,0,0,30.34,66.11Z" fill="#fff"/><path d="M36.42,36.36a1.12,1.12,0,1,0,1.12,1.12A1.11,1.11,0,0,0,36.42,36.36Z" fill="#fff"/><path d="M36.42,39.67a1.12,1.12,0,1,0,1.12,1.11A1.11,1.11,0,0,0,36.42,39.67Z" fill="#fff"/><path d="M36.42,43a1.12,1.12,0,1,0,1.12,1.12A1.11,1.11,0,0,0,36.42,43Z" fill="#fff"/><path d="M36.42,46.28a1.12,1.12,0,1,0,1.12,1.11A1.11,1.11,0,0,0,36.42,46.28Z" fill="#fff"/><path d="M36.42,49.58a1.12,1.12,0,1,0,1.12,1.12A1.11,1.11,0,0,0,36.42,49.58Z" fill="#fff"/><path d="M36.42,52.89A1.12,1.12,0,1,0,37.54,54,1.11,1.11,0,0,0,36.42,52.89Z" fill="#fff"/><path d="M36.42,56.2a1.11,1.11,0,1,0,1.12,1.11A1.11,1.11,0,0,0,36.42,56.2Z" fill="#fff"/><path d="M36.42,59.5a1.12,1.12,0,1,0,1.12,1.11A1.11,1.11,0,0,0,36.42,59.5Z" fill="#fff"/><path d="M36.42,62.81a1.11,1.11,0,1,0,1.12,1.11A1.11,1.11,0,0,0,36.42,62.81Z" fill="#fff"/><path d="M36.42,66.11a1.11,1.11,0,0,0-1.11,1.12h2.23A1.12,1.12,0,0,0,36.42,66.11Z" fill="#fff"/><path d="M45,3.3a1.12,1.12,0,1,0,1.11,1.12A1.12,1.12,0,0,0,45,3.3Z" fill="#fff"/><path d="M45,6.61a1.12,1.12,0,1,0,1.11,1.11A1.12,1.12,0,0,0,45,6.61Z" fill="#fff"/><path d="M45,9.92A1.11,1.11,0,1,0,46.07,11,1.11,1.11,0,0,0,45,9.92Z" fill="#fff"/><path d="M45,13.22a1.12,1.12,0,1,0,1.11,1.12A1.12,1.12,0,0,0,45,13.22Z" fill="#fff"/><path d="M45,16.53a1.11,1.11,0,1,0,1.11,1.11A1.12,1.12,0,0,0,45,16.53Z" fill="#fff"/><path d="M45,19.83A1.12,1.12,0,1,0,46.07,21,1.12,1.12,0,0,0,45,19.83Z" fill="#fff"/><path d="M45,23.14a1.12,1.12,0,1,0,1.11,1.11A1.12,1.12,0,0,0,45,23.14Z" fill="#fff"/><path d="M45,26.44a1.12,1.12,0,1,0,1.11,1.12A1.12,1.12,0,0,0,45,26.44Z" fill="#fff"/><path d="M45,29.75a1.12,1.12,0,1,0,1.11,1.11A1.12,1.12,0,0,0,45,29.75Z" fill="#fff"/><path d="M45,33.05a1.12,1.12,0,1,0,1.11,1.12A1.12,1.12,0,0,0,45,33.05Z" fill="#fff"/><path d="M45,36.36a1.12,1.12,0,1,0,1.11,1.12A1.12,1.12,0,0,0,45,36.36Z" fill="#fff"/><path d="M45,39.67a1.12,1.12,0,1,0,1.11,1.11A1.12,1.12,0,0,0,45,39.67Z" fill="#fff"/><path d="M45,43a1.12,1.12,0,1,0,1.11,1.12A1.12,1.12,0,0,0,45,43Z" fill="#fff"/><path d="M45,46.28a1.12,1.12,0,1,0,1.11,1.11A1.12,1.12,0,0,0,45,46.28Z" fill="#fff"/><path d="M45,49.58a1.12,1.12,0,1,0,1.11,1.12A1.12,1.12,0,0,0,45,49.58Z" fill="#fff"/><path d="M45,52.89A1.12,1.12,0,1,0,46.07,54,1.12,1.12,0,0,0,45,52.89Z" fill="#fff"/><path d="M45,56.2a1.11,1.11,0,1,0,1.11,1.11A1.12,1.12,0,0,0,45,56.2Z" fill="#fff"/><path d="M45,59.5a1.12,1.12,0,1,0,1.11,1.11A1.12,1.12,0,0,0,45,59.5Z" fill="#fff"/><path d="M45,62.81a1.11,1.11,0,1,0,1.11,1.11A1.12,1.12,0,0,0,45,62.81Z" fill="#fff"/><path d="M45,66.11a1.12,1.12,0,0,0-1.12,1.12h2.23A1.12,1.12,0,0,0,45,66.11Z" fill="#fff"/><path d="M51,19.83A1.12,1.12,0,1,0,52.15,21,1.12,1.12,0,0,0,51,19.83Z" fill="#fff"/><path d="M51,23.14a1.12,1.12,0,1,0,1.11,1.11A1.12,1.12,0,0,0,51,23.14Z" fill="#fff"/><path d="M51,26.44a1.12,1.12,0,1,0,1.11,1.12A1.12,1.12,0,0,0,51,26.44Z" fill="#fff"/><path d="M51,29.75a1.12,1.12,0,1,0,1.11,1.11A1.12,1.12,0,0,0,51,29.75Z" fill="#fff"/><path d="M51,33.05a1.12,1.12,0,1,0,1.11,1.12A1.12,1.12,0,0,0,51,33.05Z" fill="#fff"/><path d="M51,36.36a1.12,1.12,0,1,0,1.11,1.12A1.12,1.12,0,0,0,51,36.36Z" fill="#fff"/><path d="M51,39.67a1.12,1.12,0,1,0,1.11,1.11A1.12,1.12,0,0,0,51,39.67Z" fill="#fff"/><path d="M51,43a1.12,1.12,0,1,0,1.11,1.12A1.12,1.12,0,0,0,51,43Z" fill="#fff"/><path d="M51,46.28a1.12,1.12,0,1,0,1.11,1.11A1.12,1.12,0,0,0,51,46.28Z" fill="#fff"/><path d="M51,49.58a1.12,1.12,0,1,0,1.11,1.12A1.12,1.12,0,0,0,51,49.58Z" fill="#fff"/><path d="M51,52.89A1.12,1.12,0,1,0,52.15,54,1.12,1.12,0,0,0,51,52.89Z" fill="#fff"/><path d="M51,56.2a1.11,1.11,0,1,0,1.11,1.11A1.12,1.12,0,0,0,51,56.2Z" fill="#fff"/><path d="M51,59.5a1.12,1.12,0,1,0,1.11,1.11A1.12,1.12,0,0,0,51,59.5Z" fill="#fff"/><path d="M51,62.81a1.11,1.11,0,1,0,1.11,1.11A1.12,1.12,0,0,0,51,62.81Z" fill="#fff"/><path d="M51,66.11a1.12,1.12,0,0,0-1.12,1.12h2.23A1.12,1.12,0,0,0,51,66.11Z" fill="#fff"/><path d="M59.57,43a1.12,1.12,0,1,0,1.11,1.12A1.12,1.12,0,0,0,59.57,43Z" fill="#fff"/><path d="M59.57,46.28a1.12,1.12,0,1,0,1.11,1.11A1.11,1.11,0,0,0,59.57,46.28Z" fill="#fff"/><path d="M59.57,49.58a1.12,1.12,0,1,0,1.11,1.12A1.12,1.12,0,0,0,59.57,49.58Z" fill="#fff"/><path d="M59.57,52.89A1.12,1.12,0,1,0,60.68,54,1.11,1.11,0,0,0,59.57,52.89Z" fill="#fff"/><path d="M59.57,56.2a1.11,1.11,0,1,0,1.11,1.11A1.11,1.11,0,0,0,59.57,56.2Z" fill="#fff"/><path d="M59.57,59.5a1.12,1.12,0,1,0,1.11,1.11A1.11,1.11,0,0,0,59.57,59.5Z" fill="#fff"/><path d="M59.57,62.81a1.11,1.11,0,1,0,0,2.22,1.11,1.11,0,1,0,0-2.22Z" fill="#fff"/><path d="M59.57,66.11a1.12,1.12,0,0,0-1.11,1.12h2.22A1.11,1.11,0,0,0,59.57,66.11Z" fill="#fff"/><path d="M65.65,26.44a1.12,1.12,0,1,0,1.11,1.12A1.11,1.11,0,0,0,65.65,26.44Z" fill="#fff"/><path d="M65.65,29.75a1.12,1.12,0,1,0,1.11,1.11A1.11,1.11,0,0,0,65.65,29.75Z" fill="#fff"/><path d="M65.65,33.05a1.12,1.12,0,1,0,1.11,1.12A1.11,1.11,0,0,0,65.65,33.05Z" fill="#fff"/><path d="M65.65,36.36a1.12,1.12,0,1,0,1.11,1.12A1.11,1.11,0,0,0,65.65,36.36Z" fill="#fff"/><path d="M65.65,39.67a1.12,1.12,0,1,0,1.11,1.11A1.11,1.11,0,0,0,65.65,39.67Z" fill="#fff"/><circle cx="65.65" cy="44.09" r="1.11" transform="translate(21.45 109.66) rotate(-89.9)" fill="#fff"/><path d="M65.65,46.28a1.12,1.12,0,1,0,1.11,1.11A1.11,1.11,0,0,0,65.65,46.28Z" fill="#fff"/><path d="M65.65,49.58a1.12,1.12,0,1,0,1.11,1.12A1.11,1.11,0,0,0,65.65,49.58Z" fill="#fff"/><path d="M65.65,52.89A1.12,1.12,0,1,0,66.76,54,1.11,1.11,0,0,0,65.65,52.89Z" fill="#fff"/><path d="M65.65,56.2a1.11,1.11,0,1,0,1.11,1.11A1.11,1.11,0,0,0,65.65,56.2Z" fill="#fff"/><path d="M65.65,59.5a1.12,1.12,0,1,0,1.11,1.11A1.11,1.11,0,0,0,65.65,59.5Z" fill="#fff"/><path d="M65.65,62.81a1.11,1.11,0,1,0,1.11,1.11A1.11,1.11,0,0,0,65.65,62.81Z" fill="#fff"/><path d="M65.65,66.11a1.11,1.11,0,0,0-1.11,1.12h2.22A1.12,1.12,0,0,0,65.65,66.11Z" fill="#fff"/><path d="M74.18,19.83A1.12,1.12,0,1,0,75.3,21,1.12,1.12,0,0,0,74.18,19.83Z" fill="#fff"/><path d="M74.18,23.14a1.12,1.12,0,1,0,1.12,1.11A1.11,1.11,0,0,0,74.18,23.14Z" fill="#fff"/><path d="M74.18,26.44a1.12,1.12,0,1,0,1.12,1.12A1.12,1.12,0,0,0,74.18,26.44Z" fill="#fff"/><path d="M74.18,29.75a1.12,1.12,0,1,0,1.12,1.11A1.11,1.11,0,0,0,74.18,29.75Z" fill="#fff"/><path d="M74.18,33.05a1.12,1.12,0,1,0,1.12,1.12A1.12,1.12,0,0,0,74.18,33.05Z" fill="#fff"/><path d="M74.18,36.36a1.12,1.12,0,1,0,1.12,1.12A1.12,1.12,0,0,0,74.18,36.36Z" fill="#fff"/><path d="M74.18,39.67a1.12,1.12,0,1,0,1.12,1.11A1.11,1.11,0,0,0,74.18,39.67Z" fill="#fff"/><path d="M74.18,43a1.12,1.12,0,1,0,1.12,1.12A1.12,1.12,0,0,0,74.18,43Z" fill="#fff"/><path d="M74.18,46.28a1.12,1.12,0,1,0,1.12,1.11A1.11,1.11,0,0,0,74.18,46.28Z" fill="#fff"/><path d="M74.18,49.58A1.12,1.12,0,1,0,75.3,50.7,1.12,1.12,0,0,0,74.18,49.58Z" fill="#fff"/><path d="M74.18,52.89A1.12,1.12,0,1,0,75.3,54,1.11,1.11,0,0,0,74.18,52.89Z" fill="#fff"/><path d="M74.18,56.2a1.11,1.11,0,1,0,1.12,1.11A1.11,1.11,0,0,0,74.18,56.2Z" fill="#fff"/><path d="M74.18,59.5a1.12,1.12,0,1,0,1.12,1.11A1.11,1.11,0,0,0,74.18,59.5Z" fill="#fff"/><path d="M74.18,62.81a1.11,1.11,0,1,0,1.12,1.11A1.11,1.11,0,0,0,74.18,62.81Z" fill="#fff"/><path d="M74.18,66.11a1.12,1.12,0,0,0-1.11,1.12H75.3A1.12,1.12,0,0,0,74.18,66.11Z" fill="#fff"/><path d="M80.26,49.58a1.12,1.12,0,1,0,1.12,1.12A1.12,1.12,0,0,0,80.26,49.58Z" fill="#fff"/><path d="M80.26,52.89A1.12,1.12,0,1,0,81.38,54,1.11,1.11,0,0,0,80.26,52.89Z" fill="#fff"/><path d="M80.26,56.2a1.11,1.11,0,1,0,1.12,1.11A1.11,1.11,0,0,0,80.26,56.2Z" fill="#fff"/><path d="M80.26,59.5a1.12,1.12,0,1,0,1.12,1.11A1.11,1.11,0,0,0,80.26,59.5Z" fill="#fff"/><path d="M80.26,62.81a1.11,1.11,0,1,0,1.12,1.11A1.11,1.11,0,0,0,80.26,62.81Z" fill="#fff"/><path d="M80.26,66.11a1.12,1.12,0,0,0-1.11,1.12h2.23A1.12,1.12,0,0,0,80.26,66.11Z" fill="#fff"/></g></g></svg>