<svg xmlns="http://www.w3.org/2000/svg" viewBox="0 0 68.97 34.32"><title>icon-map</title><g id="b84f9234-3ad3-400a-808a-e92fcba69ec3" data-name="Layer 2"><g id="e56db653-6080-4054-9d71-5c8d50b0272e" data-name="Layer 10"><path d="M41.72,24.53s0,.17,0,.2a2.58,2.58,0,0,1-.48.45c-.19.12-.44.1-.44.43,0,.11.1.28.1.35s-.13.31-.13.31a.44.44,0,0,0-.14.13c0,.11,0,.22.08.28a1.31,1.31,0,0,1,0,.17.38.38,0,0,0,.32.37c.41,0,.47-.46.59-.76a3.13,3.13,0,0,0,.31-1.22l.11,0v-.1c-.06-.18,0-.62-.27-.64" fill="#edb81e"/><path d="M47.65,20.78a.19.19,0,0,0,.17.19c.13,0,.21-.16.21-.28s-.19-.3-.29-.46c0,.2-.09.35-.09.55" fill="#edb81e"/><path d="M52.68,23.14c0-.07,0-.16,0-.19v-.29c0-.07-.09-.09-.13-.13s-.16-.12-.16-.26-.13,0-.13-.11l0-.07s0-.06-.06-.06H52.2s0,0,0,0-.12-.14-.22-.17a.85.85,0,0,1-.39-.28c-.07-.07-.12-.15-.22-.18s-.06,0-.07,0-.11-.21-.25-.25h-.23c-.05,0-.07-.07-.13-.07h0v.06c0,.07.12.26.18.27s.13,0,.15.06a1.86,1.86,0,0,1,.1.2c0,.1.21.07.26.23a.85.85,0,0,0,.09.24l.11,0s0,.06,0,.06.1.14.12.17a1.06,1.06,0,0,0,.26.41c.12.13.24.18.37.31s.13.18.16.18.19,0,.19-.09" fill="#edb81e"/><path d="M53.31,21.94a.83.83,0,0,0,.1.29s.07,0,.09,0a.1.1,0,0,1,0,0c.09.14,0,.38.23.38.06,0,.09,0,.14,0s0,.1,0,.1,0,0,0,0,.12-.08.17-.08.19.09.3.11a.09.09,0,0,0,.09.1c.09,0,.1-.08.21-.11s.08-.18.08-.23,0-.05,0-.1a.2.2,0,0,1,.16-.15c0-.12.05-.16.08-.31l0-.07h.06c.08,0,.13,0,.15-.07s-.3-.34-.3-.44,0,0,0,0l0-.07a1.59,1.59,0,0,0,.2-.09,0,0,0,0,1,0,0c0-.07.15,0,.15-.09s-.29-.05-.29-.19,0-.17-.1-.17-.26.26-.31.36-.18,0-.24.09,0,0,0,0,0,0-.06.05-.08.05,0,.08-.06.12-.16.14a.31.31,0,0,0-.19.06c-.09.1-.06.31-.27.31s-.24-.05-.24.06" fill="#edb81e"/><path d="M55.69,22c.12,0,.17,0,.26,0s.15.05.24.05.18-.12.2-.22,0,0,0-.06h0a1.83,1.83,0,0,0-.22.16h-.06l-.47-.08c-.18,0-.26.22-.26.39s-.05.07-.06.1-.12.21-.12.36.09.09.14.09v.33a.11.11,0,0,0,.1.09c.08,0,.1-.24.1-.28s-.06-.13-.06-.22.06-.08.11-.08,0,0,0,0l0,.14c0,.09.11.12.11.21s0,0,0,.06h.09c0-.07.15-.06.15-.14s-.1-.08-.1-.12,0,0,0,0a1.1,1.1,0,0,1-.17-.29c.19,0,.2-.15.36-.19V22.2a2.2,2.2,0,0,0-.41.12l0,0s0,.07-.08.07-.14-.13-.14-.24.11-.1.22-.1" fill="#edb81e"/><path d="M54.39,23.74c.09,0,.08.05.15.05a.19.19,0,0,0,.07-.08s0,0-.11-.06-.11,0-.16,0,0-.06-.06-.06a.37.37,0,0,1-.28-.09s.25,0,.25,0h0l-.21,0c-.12,0-.17-.12-.3-.12s-.1.1-.2.1-.32-.22-.52-.22c0,0-.07,0-.11,0l0,0s-.16.12-.17.14.15.08.22.15.17,0,.27,0a1.28,1.28,0,0,0,.38.05c.06,0,.08.09.17.09a1.83,1.83,0,0,1,.71.1s0-.07,0-.07" fill="#edb81e"/><path d="M55.82,23.83c.08,0,.15,0,.19-.14a.33.33,0,0,1-.19.07c-.11,0-.15-.05-.27-.05s-.13,0-.13.05.1.07.15.07Z" fill="#edb81e"/><path d="M55.08,23.72v.06a.25.25,0,0,0-.13,0c-.06,0-.12,0-.12.07s.09,0,.14,0,.1,0,.16-.06l.06,0h.06s0,0,0-.1Z" fill="#edb81e"/><path d="M55.47,23.91H55.4s-.12,0-.12,0,.1.08.17.08,0,.08,0,.08h0s0,0,0,0-.1-.06-.1-.16" fill="#edb81e"/><path d="M54.74,23.71h-.06v.07a.06.06,0,0,0,0,0s.06,0,.07-.07,0-.05-.06-.05" fill="#edb81e"/><path d="M56.41,23.92c.11,0,.34-.05.4-.15a.57.57,0,0,0-.42.05s0,.06,0,.06-.23,0-.23.19,0,.06.05.06a.36.36,0,0,0,.22-.12s0-.09,0-.09" fill="#edb81e"/><path d="M58.29,23.24s0,0,0-.07,0,.07,0,.12-.07,0-.07.11,0,.06,0,.06,0-.08,0-.15.06,0,.06-.07" fill="#edb81e"/><path d="M56.61,22.73a.16.16,0,0,0,.12.13s.07-.07.07-.09-.19-.12-.19,0" fill="#edb81e"/><path d="M57,22.73l.13,0h.15c.1,0,.14.07.24.07s0,0,0,0-.08-.07-.08-.12h0s-.09,0-.1,0H57s0,0,0,.06" fill="#edb81e"/><path d="M56.94,21.65a.13.13,0,0,0-.07.14c0,.09.06.11.06.19v.09s0,.13.09.13-.05-.08-.08-.12v0h.16c0-.06-.06-.07-.06-.1s.07-.05.07-.09-.16-.08-.17-.18" fill="#edb81e"/><path d="M61,23.17c0,.09.14.07.2.14l0,0a.19.19,0,0,0,.1.05c.15,0,.21-.07.33-.1s.14-.1.14-.24,0-.1-.06-.1,0,.15-.15.2-.16,0-.26,0-.07,0-.08,0Z" fill="#edb81e"/><path d="M60.63,23.23c-.16-.08-.16-.26-.37-.33,0,0-.09,0-.09-.07s-.12-.09-.2-.09a1,1,0,0,1-.47-.14h0l0,0h0a.26.26,0,0,1-.12,0h-.19s-.09-.1-.17-.13-.08,0-.08,0-.16.13-.23.15-.11,0-.16.09-.07.11-.12.11a.26.26,0,0,1-.14-.13c-.06,0-.1,0-.1-.06v-.25c-.12,0-.21-.13-.32-.13s-.17.11-.25.11-.1,0-.1.06.16.06.21.15,0,.06,0,.06l.1,0a.62.62,0,0,0,.19,0h.05c-.05.08-.25.06-.34.11s.08,0,.12.08,0,.09,0,.15.05,0,.07,0,.08-.06.1-.12v.06c.11,0,.15.15.25.15a1.36,1.36,0,0,1,.37.06c.07,0,.26.11.28.19s0,.2.09.29-.17.06-.17.14.06.05.11.05h.14s.08,0,.1,0c.18,0,.23.21.4.21h.26s.06-.07,0-.16.09-.17.26-.17.34.19.48.33.06,0,.06.05.16.15.26.17h.18a.57.57,0,0,0,.13.08h0c0-.05,0-.08.09-.11s-.13,0-.14,0a.17.17,0,0,0-.07-.08s-.07,0-.08,0,0-.07,0-.07a.24.24,0,0,1-.15-.07c-.05-.08,0-.13-.11-.2s-.13-.13-.13-.16.13,0,.13-.11-.14-.07-.21-.11" fill="#edb81e"/><path d="M61.76,22.79a.69.69,0,0,0-.26-.2c0,.06.07.05.12.09s.07.13.16.17,0,.11.07.13h0v-.05c0-.1-.07-.08-.13-.14" fill="#edb81e"/><path d="M62.2,23.15a.12.12,0,0,0,.1.15v.05a0,0,0,0,0,0,0,.06.06,0,0,0,0,0,1.14,1.14,0,0,0-.19-.2" fill="#edb81e"/><path d="M63.51,24.06s0,.14.11.14,0,0,0,0,0-.07-.11-.1" fill="#edb81e"/><path d="M63.21,24c0,.08.11.11.19.11h0a.25.25,0,0,0-.23-.1" fill="#edb81e"/><path d="M63.25,23.69s.13.21.19.21a.36.36,0,0,0-.19-.21" fill="#edb81e"/><path d="M62.85,23.54h0c0,.08.16.13.21.13h.06c0-.06-.18-.1-.24-.14Z" fill="#edb81e"/><path d="M62.53,23.35l0,0h0l.1.07h.06c0-.06-.09,0-.16-.1" fill="#edb81e"/><path d="M60.57,30.51s-.37-.11-.37,0,.22.64.42.64.32-.36.32-.51,0-.12-.07-.2a1.18,1.18,0,0,1-.3.07" fill="#edb81e"/><path d="M60.91,30.37a.75.75,0,0,0,0-.11h-.09a.1.1,0,0,0,.07.11" fill="#edb81e"/><path d="M58.64,29.37a.19.19,0,0,0,.24,0,.21.21,0,0,0-.24,0" fill="#edb81e"/><path d="M57.57,24.4h.07v-.1a.93.93,0,0,0-.27,0,.43.43,0,0,0,.2.06" fill="#edb81e"/><path d="M61.76,27c-.13-.13-.38-.24-.38-.51-.09,0-.2,0-.23-.09a.69.69,0,0,0-.12-.31c-.12-.11-.41-.17-.46-.34s-.11-.25-.17-.44,0-.32-.12-.38l-.22-.07c-.08,0,0-.18-.07-.27a1.88,1.88,0,0,1-.15-.44c-.11.07-.08.15-.19.23V25c0,.15-.07.55-.28.55s-.16-.15-.26-.18l-.45-.17s0-.11-.07-.14-.14,0-.14-.06l.08-.34c.06,0,.16-.05.16-.14s-.09-.12-.13-.12-.11,0-.19,0a1.36,1.36,0,0,1-.61-.19c0,.08.08.1.12.16a.33.33,0,0,1-.12.05c-.12,0-.39.06-.39.15s-.1.15-.1.24,0,.11,0,.17-.07-.05-.1-.05a.17.17,0,0,0-.15.07c0-.12-.09-.26-.21-.26s-.17.14-.36.14c0,.15-.15.18-.15.37-.05,0-.08,0-.14-.05s0,.17-.07.22-.07-.07-.1-.14a.19.19,0,0,0-.09.17v.12c0,.23-.56.42-.8.46a1.11,1.11,0,0,0-.46.11c-.07.08-.23.25-.36.26v-.07s-.08,0-.08.09v.39c0,.17.08.25.08.35s0,.06,0,.09a.35.35,0,0,1-.06-.09.79.79,0,0,1,0,.09c0,.1.1.14.14.24.09.26.11.36.19.65a1.46,1.46,0,0,1,.13.43c0,.16-.15.21-.15.31s.32.23.44.23c.3,0,.41-.22.64-.22s.08-.05.19,0a2.7,2.7,0,0,0,.41-.05c.05-.34.48-.22.83-.34.14,0,.19-.15.44-.15a1.26,1.26,0,0,1,.73.2c.05.08.2.41.25.41s0,.12.05.12.32-.35.44-.47c0,.1,0,.45-.2.48a.07.07,0,0,0,.07.07c.1,0,.11-.12.17-.15s0,0,0-.07a.17.17,0,0,1,.07.14.3.3,0,0,1,0,.15H59a.34.34,0,0,0,.14-.05v0c0,.08.1.17.1.27,0,.27.43.45.7.45s.11-.13.27-.15a1.15,1.15,0,0,0,.34.21c0-.33.61-.19.68-.5h0a2.08,2.08,0,0,1,.2-.61c.07-.21.19-.28.31-.47s0-.08,0-.14v-.19a.79.79,0,0,0,.1-.42,1.62,1.62,0,0,0-.17-.71Z" fill="#edb81e"/><path d="M65.8,30.54s-.06.06-.11.06,0-.05,0-.09a.07.07,0,0,1-.05-.07s-.16.12-.16.22v0a.14.14,0,0,0-.13.08v.06a1.29,1.29,0,0,1-.13.17c-.12,0-.22.22-.38.22s-.08,0-.11.09-.27.2-.27.37a0,0,0,0,0,0,0,.88.88,0,0,0,.31.13s.12,0,.15,0,.19-.1.25-.16.19-.4.21-.48l.26,0c0-.08,0-.11,0-.21s.24-.25.26-.34a.11.11,0,0,1,0-.1.05.05,0,0,1,0,0" fill="#edb81e"/><path d="M66.67,29.75c-.11,0-.1.06-.23.06a.24.24,0,0,1-.25-.27h0a.05.05,0,0,0-.06.06h0a.57.57,0,0,1-.12-.21s0,0,0-.05,0-.07-.08-.11-.19-.07-.26-.19c0,.16.13.39.29.42a.14.14,0,0,0,0,.06c0,.06,0,.08.08.13h0a.51.51,0,0,1,0,.13.33.33,0,0,1-.08.26s-.09.05-.09.11.25.07.25.21-.08.11-.08.19,0,.09.1.09.18-.13.25-.24.09-.08.09-.13,0-.05,0-.07.06-.07.13-.09,0,0,0,0l0,0c.07-.11,0-.25.13-.34a.07.07,0,0,0,0,0" fill="#edb81e"/><path d="M66.69,25.62v-.08a.09.09,0,0,1-.08-.06c-.06,0-.16,0-.16.13s.09,0,.15,0,.05,0,.09,0" fill="#edb81e"/><path d="M56.5,20.19s0,.1,0,.14-.14,0-.14.09a.08.08,0,0,0-.05.08h0s0-.1-.11-.1-.08.13-.21.13a.42.42,0,0,0,0,.15s0,0,0,.06,0,.14,0,.14.06-.2.12-.26a.33.33,0,0,0,.06.06l0,0a.09.09,0,0,0,.06,0v-.05h.09a.14.14,0,0,1,0,.06s0,0,0,.07.07.21.16.21h.06s0,.05,0,.05a.07.07,0,0,0,.07-.08c0-.06-.07-.08-.07-.13s0,0,0-.08l0,.05v0a.34.34,0,0,0,.07.15c0-.11.08-.14.08-.2a1.41,1.41,0,0,0-.15-.45.11.11,0,0,0-.09-.06" fill="#edb81e"/><path d="M55.05,20.43h0a.43.43,0,0,0,.23-.26s.09,0,.1-.06,0,0,.06,0,0,0,0-.09,0,.05,0,.07-.29.2-.35.38" fill="#edb81e"/><path d="M55.39,19.18s.11.11.14.11,0,0,0,0h0v.06s0,0,0,.06a.12.12,0,0,0,.09.09s.06,0,.1,0,.09.13.18.14,0-.08,0-.12.19.11.22.18,0,.05,0,.05a0,0,0,0,0,0,0v-.05a.07.07,0,0,1-.08-.07s0,0,0,0,0,0,0-.07h0s0,0-.06,0-.05-.14-.12-.14-.07,0-.07,0,0,0,0,0a.4.4,0,0,1-.15-.27c0-.12.12-.13.12-.26s-.08-.19-.07-.26,0,0,0-.05v0s0,.05-.08.05,0-.11-.11-.11-.06.06-.06.12a1.23,1.23,0,0,1,0,.19.39.39,0,0,1,0,.18c-.06,0,0,.11,0,.2" fill="#edb81e"/><path d="M56.43,19.71l-.14,0,0,0c0,.05.15.09.14.17s0,0,0,0h-.08v0s0,.08.09.08v0s0,.08,0,.08h.06v0S56.4,20,56.39,20h.1s0,0,0-.08l0-.05a.77.77,0,0,0,0-.1h0v-.06" fill="#edb81e"/><path d="M55.9,19.83l0,0s0,0,0,0a1.61,1.61,0,0,1,0,.26c.06,0,.2-.08.21-.18s-.11-.07-.16-.09" fill="#edb81e"/><path d="M56.08,20s-.06.15-.06.17-.06,0-.06,0a.29.29,0,0,0,.14.15s0,0,0,0,0,0,0-.07.06-.12.07-.19a.07.07,0,0,0-.1-.07" fill="#edb81e"/><path d="M56.14,20.23h0c0-.09.09-.11.09-.22H56.2a.58.58,0,0,1-.06.22" fill="#edb81e"/><path d="M56.33,20.16s0,0-.07,0-.06.05-.06.08a0,0,0,0,0,0,0c.06,0,.1-.05.1-.11" fill="#edb81e"/><path d="M56.2,19.83c0-.07-.07-.09-.09-.15h-.06v.09h.09s.06.09.06.06" fill="#edb81e"/><path d="M55.71,19.72s.06-.07,0-.11-.09-.07-.16-.11h-.06s.13.22.17.22" fill="#edb81e"/><path d="M55.78,19.54s0,0,.06,0h-.06" fill="#edb81e"/><path d="M55.55,17.68c.16,0,.31-.6.14-.6s-.24.27-.24.41,0,.19.1.19" fill="#edb81e"/><path d="M53.69,18.24s0-.11-.08-.11-.32.17-.38.17,0,.07,0,.11.05.13.15.13a.47.47,0,0,0,.31-.3" fill="#edb81e"/><path d="M52.77,22.63s0,0,.09,0h0a.17.17,0,0,1,0-.07c-.09,0-.13-.13-.17-.23s-.14.06-.14.09.11,0,.14.07a.23.23,0,0,0,0,.1" fill="#edb81e"/><path d="M53.13,22.71s.07,0,.08-.08,0,0-.07,0h-.06s0,0,0,0,0,.09.05.09" fill="#edb81e"/><path d="M51.41,22.3h0v0a.27.27,0,0,0,.12.17.24.24,0,0,0-.07-.16Z" fill="#edb81e"/><path d="M51.15,21.88l0,0h0a.24.24,0,0,0,.12.14c.06,0-.05-.13-.09-.16" fill="#edb81e"/><path d="M57.3,15.44a.08.08,0,0,0,.07.07s.05,0,.08,0,0,0,0-.06,0,.08,0,.09l0,.1a.52.52,0,0,0-.07.11s0,.1.09.1v0s0,.06,0,.06.15-.21.18-.33,0,0,.06,0,0,0,0-.07l-.06,0s0-.05,0-.07-.12-.05-.18-.05-.21.13-.21.17" fill="#edb81e"/><path d="M57.93,15.49c.08,0,.1-.11.16-.17s0,0,.1,0,.15-.24,0-.24-.12.12-.23.08l-.13.11s0,0,.06.07,0,.1,0,.1" fill="#edb81e"/><path d="M58.66,14.66c-.06,0-.1.21-.22.21H58c-.18,0-.24.17-.38.27l-.09,0s.05,0,.1,0a.85.85,0,0,0,.35-.09s.1,0,.15,0,0-.06.07-.06.12,0,.2.06,0,.08,0,.12,0,0,0,0,0,.06.09.07.12-.17.17-.17h.07a.23.23,0,0,1-.07-.11s0-.06,0-.06,0,.12.19.12A.2.2,0,0,0,59,15h.07a0,0,0,0,0,0,0c0-.09.09-.1.18-.16s0,0,0,.11.08-.1.16-.14a.35.35,0,0,1,0-.13c0-.08.07-.12.07-.19s0-.28.05-.3,0,0,.06,0v0c0-.09.09-.11.09-.22s-.09-.14-.09-.23a.33.33,0,0,0,0-.14s0,0-.08,0,0,.06,0,.06h0c-.08.06-.08,0-.09,0s-.16.16-.16.25,0,0,0,.08a.73.73,0,0,1-.37.55c-.08,0-.09.09-.2.09a0,0,0,0,1,0,0,.11.11,0,0,1,0-.08,1.2,1.2,0,0,0-.11.17" fill="#edb81e"/><path d="M59.42,13.15s-.12.1-.12.17,0,0,0,.07v.16h0c.06-.06.11,0,.17-.11s-.13,0-.13-.09.12,0,.2,0a.06.06,0,0,1,0-.05l.29.15c.06-.08.1-.23.25-.23a.28.28,0,0,0,.21-.07s-.09,0-.09-.08,0,0,0-.09-.08,0-.14,0c-.26,0-.34-.22-.53-.34a.15.15,0,0,0,0,.09s0,0,0,.07,0,.35-.16.35h-.06l0,0Z" fill="#edb81e"/><polygon points="60.54 12.84 60.55 12.85 60.56 12.85 60.54 12.84" fill="#edb81e"/><path d="M60.4,13s0,.06,0,.06.14-.1.17-.14l0,0a.24.24,0,0,0-.15.1" fill="#edb81e"/><path d="M60.92,12.6c-.09,0-.15.15-.15.15s0,0,0,0,.09-.14.25-.14v0h-.1" fill="#edb81e"/><path d="M61.23,12.54c.06,0,.11-.1.12-.14s-.1,0-.11,0,0,.05,0,.05,0,0,0,0" fill="#edb81e"/><path d="M60,10.64a.76.76,0,0,1-.09-.31h0v.14s0,0,0,.09-.14.21-.14.35.1.14.1.24v.4c0,.08,0,.11,0,.21s0,.1,0,.19,0,.18,0,.31,0,.19,0,.19.08-.15.16-.15H60s0,.08.07.07h0c-.06-.12-.2-.19-.2-.35s0-.39.2-.39a.22.22,0,0,1,.15.08c0-.16-.13-.29-.19-.46s-.06-.12,0-.19V10.9c0-.09,0-.16,0-.26" fill="#edb81e"/><path d="M42.32,5.17h.2c.12,0,.06.15.1.24s.13,0,.17,0,0,0,.05,0h.53l0,0C43.2,5.29,43,5.23,43,5a1.23,1.23,0,0,1,.81-1c.12,0,.16-.18.33-.18s.1-.14.14-.16c.23-.11.4-.05.64-.17s.69-.12.69-.35c0-.07-.19-.17-.27-.17-.34,0-.66.39-1,.39-.08,0-.12-.08-.21-.08s-.12.08-.21.08c-.25,0-.44.32-.61.32s-.17,0-.27,0a.07.07,0,0,0-.07.07s0,.06,0,.12-.36.29-.36.41.1.06.11.15-.33.07-.33.19v.1c0,.12-.2.1-.2.27s.12.13.12.13" fill="#edb81e"/><path d="M43.34,5.42h0Z" fill="#edb81e"/><path d="M43.3,5.38l0,0a.08.08,0,0,0,0,0" fill="#edb81e"/><path d="M67.55,6.22a4.13,4.13,0,0,0-2-.64c-.22,0-.37,0-.34.13.21.66-.31,0-.44,0l-1.56,0c-.09-.35-.32-.47-.78-.47-.25,0-.63.09-.78,0s-.14-.28-.34-.34a4.49,4.49,0,0,0-1.39-.23c-.53,0-.6.27-.64.54H58.16C58,5.14,58,5,57.72,5c0,.09-.06.3-.17.3-.28,0-.4-.35-.4-.54s.54-.39-.85-.51c-.18,0-.27.06-.27.27h-.75c-.22-.06-1.4-.19-1.55-.44-.89.73-.69.27-.69.27.22-.26,2.26-.81.58-1.22h-.71a.53.53,0,0,0-.51-.37c-.35,0-.5.27-.68.41s-1,.45-.93.13a4,4,0,0,0-1.68.58c-.1.09-.13.37-.29.37s-1.06-.08-1.06.31c0,.08.07.16.1.27-.15.09-.21,0-.68,0-.4.54-.36-.08-.46-.2a.57.57,0,0,1-.35.4c.05.19.34.39.13.61s.28.66.06.66-.36-1-.36-1.23.38-.33-.21-.44c-.29-.06-.84.42-.84.67a.91.91,0,0,0,.3.68c.38.59-.52-.07-.86-.15-.93-.24-.63.07-.63.12,0,.52-.25.1-.37.1s-.64.29-1,.13c-.16-.39-1.17.51-1.42.51-.09,0-.2-.06-.17-.13.1-.28,0-.87-.34,0,0,.06.1.08.1.21s-.35.07-.54.13-.1.71-.89.37v.28c-.38,0-.33-.45-.47-.65a2.24,2.24,0,0,1,.73.07c.38.09,1.14-.38,0-.75a10.48,10.48,0,0,0-1.29-.47s0,0-.18,0l-.22,0s0,0-.12-.1c.16-.05.21,0,.27-.16a1.17,1.17,0,0,0-.23-.11c-.06,0-.08,0-.11.1s-.06-.06-.06-.15a.79.79,0,0,0-.26.19.79.79,0,0,0,0-.13c-.12.07-.16.22-.3.21,0-.1.15-.12.15-.22s-.26.08-.36.08a.22.22,0,0,1-.15-.1s-.14.07-.14.1,0,.06.1.09c-.12.06-.23,0-.32.18V5.58c-.14,0-.16.16-.25.18V5.68c-.1,0-.23,0-.29.08l.05.06a.33.33,0,0,1-.14,0,.19.19,0,0,0-.15.11.2.2,0,0,1,.11,0s-.09.17-.13.17-.11-.07-.22-.07a.09.09,0,0,0,0-.12.35.35,0,0,0-.06.09l-.05,0c-.06,0-.09,0-.11.11l.11,0a.37.37,0,0,0-.14.09c.16,0,.23-.08.4-.12a.74.74,0,0,1-.37.43.66.66,0,0,0-.32.28L34.73,7c-.06,0,0,.21-.12.27s-.32.4-.62.47l.16,0c-.24,0-.27.14-.39.17a.5.5,0,0,0-.31.24c0,.06-.15.05-.15.15a.78.78,0,0,0,.12.49s-.11.12-.11.17a.34.34,0,0,1,.18,0v.1s-.12,0-.12.1a1,1,0,0,0,.31.19c.28,0,.5-.26.64-.46,0,.06.06.12.14.16a.18.18,0,0,0,0,.1c0,.12.1.15.14.25s0,.24.15.36,0,.05,0,.07.1.31.15.31.21-.21.33-.21h.18c0-.13.18-.15.2-.33a.1.1,0,0,1-.1-.11c0-.14.06-.34.19-.34s.27-.17.27-.27-.18-.25-.3-.27a.16.16,0,0,0-.06-.13V8.34c.11-.05,0-.18.09-.27s.19-.15.31-.22.45-.22.45-.37,0-.08,0-.16.19-.27.41-.27.39,0,.39.2-.16.15-.26.21-.32.47-.61.47c0,.05,0,.09,0,.14s.07.23.13.25-.09.09-.09.15a.27.27,0,0,0,.29.24c0,.08.06.09.15.09a1.67,1.67,0,0,0,.4-.1c.13,0,.45,0,.51-.14.06.08.13.11.17.24a1.07,1.07,0,0,1-.37.15c-.12,0-.19,0-.34,0s-.49.14-.39.24c.35.32.17.44.09.44s-.16-.17-.27-.17-.28.31-.28.47-.21.23-.23.47l-.24,0a.16.16,0,0,1,0-.08.75.75,0,0,0-.23,0c-.09,0-.19.11-.26.13s-.18,0-.3.08,0,.06-.11.06l-.12-.09s0,0,0-.07c-.15,0-.28.13-.47.13,0,0,0-.05,0-.08s-.09,0-.17,0,0,0,0-.07a.12.12,0,0,1-.07-.12.31.31,0,0,1,.15-.25s.08,0,.08-.07V9.82c-.06,0-.13,0-.13-.07a.39.39,0,0,1,0-.18V9.49c-.17.12-.43.14-.43.43s.1.21.13.4a.91.91,0,0,1,0,.17s-.11.11-.15.11-.12,0-.17,0,0,.07,0,.05,0,0-.1,0a.47.47,0,0,0-.34.2s-.07.05-.07.07,0,.17,0,.22a1.66,1.66,0,0,1-.33.15h-.1c0,.17-.09.32-.3.32a.13.13,0,0,1-.11.1.33.33,0,0,1-.21-.09H32v0s0,.13,0,.14v.05a1.57,1.57,0,0,1-.16,0c-.05,0-.16,0-.18-.07s-.26.06-.26.12,0,0,0,0,.3.16.41.19,0,0,.08.05,0,.23.17.23,0,0,0,.1a.3.3,0,0,1,0,.1h0s0,.16,0,.19-.09.17-.09.3a1.46,1.46,0,0,1-.17,0c-.07,0-.11,0-.19,0h-.32s-.09,0-.12,0H31s-.07,0-.1,0-.27.15-.27.19.08.15.08.25-.06.36-.06.53-.08.06-.08.15a.11.11,0,0,0,.11.1v.27a0,0,0,0,0,.05,0c.1,0,.18,0,.29,0s.17.26.27.26.24-.14.4-.14a.69.69,0,0,1,.21,0h0c.14,0,.15-.13.23-.17a.66.66,0,0,0,.27-.28s-.07,0-.07-.09a.66.66,0,0,1,.32-.46c.15,0,.29-.08.34-.21l-.05-.15c0-.1.11-.17.21-.17s.23.07.38.07.24-.12.37-.18.07-.12.19-.12.3.28.42.44.12.07.16.12a.56.56,0,0,0,.38.22s.1.07.12.07a.73.73,0,0,0,.19.2c0,.07.07.09.07.19s0,.19-.11.19,0,0,.07,0,.08-.14.14-.2.09,0,.09,0-.12-.11-.12-.2.07-.11.15-.11.15.09.22.1-.15-.19-.28-.26-.21,0-.18-.14,0,0,0,0a.66.66,0,0,1-.28,0,.42.42,0,0,1-.12-.23c0-.07-.08-.18-.18-.21s-.14-.07-.14-.17a.69.69,0,0,1,0-.13,0,0,0,0,1,0,0c0-.07.15-.07.22-.12s0,.19.09.19h.2c0,.15.17.38.32.38h.1c0,.1.11.1.2.15s.25.19.25.29v.17c0,.14.1.2.19.29a.52.52,0,0,1,.14.21s0,.08,0,.08h.11s-.08.05-.08.1a.22.22,0,0,0,.2.22h.09c-.06,0,0-.11,0-.15a.21.21,0,0,0,0-.12v-.05a.39.39,0,0,0,.18.1h0s.08,0,.12,0a.09.09,0,0,1,0-.06.67.67,0,0,1-.24-.19s0,0,0-.08l-.13-.15a.09.09,0,0,1,.08-.08c.06,0,.07.1.17.1a.19.19,0,0,0,0-.15c.09,0,.12-.08.23-.08s.18.13.28.13.11-.08.2-.13.11,0,.17,0a.15.15,0,0,0,.09,0c-.05-.07-.23-.16-.23-.29a.54.54,0,0,1,.19-.3V12.9s0,0,0-.09.08-.11.14-.12v-.1c.15,0,.16-.22.31-.22s.43.51.53.51a1.12,1.12,0,0,0,.47-.21l-.19,0s-.11,0-.11-.1a2.65,2.65,0,0,1,.68-.3s-.09.1-.13.11.19.23-.2.33c.17.4.95.33.95.86h0l.06,0c-.15,0-.24.17-.4.17h-.38c-.08,0-.34,0-.34-.13-.16,0-.15-.1-.33-.1a.87.87,0,0,0-.4.06.75.75,0,0,1-.27.13h-.21s-.17,0-.17,0,0,0,.06.08-.61,0-.61.23c0,0,.06,0,.11,0s0,0,0,.08-.07.12-.14.19c.09,0,.17,0,.23.13s.13.17.17.21l-.05,0h.07c.13-.06.2.12.33.12s.09-.16.23-.16.2.17.34.17.23-.09.34-.17a.18.18,0,0,0,.14.06s.07,0,.12-.06v.06s0,0,0,.07,0,.18,0,.29-.13.19-.17.33-.07.21-.11.36-.06,0-.06.07l0,.09s0,0,0-.05-.09.06-.19.06-.23-.09-.36-.09-.27.1-.49.1a2.48,2.48,0,0,1-.76-.18c-.11,0-.26,0-.33-.07s-.1-.06-.1-.16h-.16c-.22.07-.38.07-.38.28v.14A.16.16,0,0,1,36,16c-.5,0-.65-.54-1.09-.54h-.19a.35.35,0,0,1-.31-.32c0-.1.09-.15.09-.26s-.09-.08-.09-.15.1-.07.1-.17-.06,0-.1,0-.07-.12-.2-.12-.14.1-.27.1-.12,0-.21,0-.2.1-.28.1a1.65,1.65,0,0,0-.24-.06,3.13,3.13,0,0,0-1.07.31c-.08,0-.11.13-.25.13a1,1,0,0,1-.58-.17.83.83,0,0,0-.13.18h0c-.17.21-.4.42-.57.64s0,.28-.12.53a.74.74,0,0,1-.3.31c-.13.07-.3,0-.4.18a3.63,3.63,0,0,0-.45.85c0,.11-.19.19-.19.32s.13.46.13.76a.88.88,0,0,1-.28.61c.05.1.1.13.1.23a2,2,0,0,1,0,.21h0l.09.1a5.37,5.37,0,0,0,.41.38c.17.13.21.3.34.49a3.1,3.1,0,0,0,.72.59.44.44,0,0,0,.21.06c.26,0,.38-.14.64-.14s.31.1.41.1.13-.09.23-.12a2.65,2.65,0,0,1,.85-.24c.28,0,.33.4.53.4h.29a.44.44,0,0,1,.42.28c-.06.06-.06.26-.06.34s0,0,0,.1a.53.53,0,0,0-.16.27c0,.32.39.56.56.78s.06.27.12.41a2.08,2.08,0,0,1,.17.56,2.24,2.24,0,0,1,.08.39c0,.36-.42.47-.42.95a1.78,1.78,0,0,0,.39,1c.06.1.14.13.14.23v.18a2.66,2.66,0,0,0,.55,1.41c0,.06.23.26.23.37a.28.28,0,0,1-.09.19.57.57,0,0,1,.12.34.14.14,0,0,1,.07,0,.23.23,0,0,0,.22.14c.25,0,.42-.21.71-.21.07,0,.11.07.19.07s.11,0,.2,0,.19-.06.31-.12c.27-.13.35-.32.52-.54a2.38,2.38,0,0,1,.27-.44c.08-.08.27-.23.27-.42a.16.16,0,0,0-.1-.14.6.6,0,0,1,.34-.32s.16,0,.2-.05a1.1,1.1,0,0,0,.06-.39c0-.21-.2-.31-.2-.46a.27.27,0,0,1,.21-.2c.07-.45,1-.39,1-.91a.18.18,0,0,0-.06-.14c0-.19,0-.32,0-.43V24.3a.19.19,0,0,0,.05-.1c0-.13-.25-.24-.25-.47s-.05-.3-.05-.51.17-.24.22-.41c.17-.6.65-.71,1.1-1.06a3.24,3.24,0,0,0,.54-.71,2.33,2.33,0,0,0,.47-1.12.25.25,0,0,0,0-.11,6.41,6.41,0,0,1-.75.21c-.1,0-.17,0-.27,0s-.09.11-.21.11-.2-.21-.29-.28c.07-.08,0-.1,0-.22-.22,0-.28-.28-.39-.36s-.2-.09-.31-.2,0-.3-.17-.46-.23-.14-.3-.32v-.36c-.1-.08-.3-.38-.27-.52l-.65-1.14v-.12c.12.12.23.42.38.45s.09-.24.12-.34c0,.08,0,.17,0,.21s.1.13.12.17l.22.34a.49.49,0,0,1,.1.16s0,.14,0,.18.11,0,.13,0a.38.38,0,0,0,.09.09c0,.13.12.16.12.32s.05.4.29.45a1,1,0,0,0,.27.48c.08.07.19.13.16.29s-.07.18,0,.19a.64.64,0,0,0,.12.35c0,.07,0,.07,0,.07l.21.09,0,0c.15,0,.17-.06.28-.14h.21c.09,0,.36-.23.44-.25a3.56,3.56,0,0,0,.53-.16.11.11,0,0,1,0-.06c0-.15.42-.23.6-.26,0-.08.13-.19.19-.19s.09-.2.2-.2.07-.12.1-.2.09-.11.19-.11c0-.16.2-.21.2-.37s-.09,0-.13-.11h0s0-.14-.13-.16a.57.57,0,0,1-.42-.3v-.25c-.24.19-.28.47-.73.47-.1,0-.28-.05-.28-.15s.05-.13.05-.21a.22.22,0,0,0,0-.08c-.06,0,0,.1-.13.12S42,17,42,16.91s-.34-.33-.39-.49a.81.81,0,0,1,0-.16c0-.09,0-.21.14-.21s.34.21.41.35,0,.09,0,.13.19,0,.27.11.12.16.23.19H43s.07-.1.14-.1.14.2.21.27a1.2,1.2,0,0,0,.24.06c.18,0,.48.08.61.08h0l.24,0,.06-.05.18.05c.06,0,.08-.05.17-.05a.67.67,0,0,1,.2,0c.08,0,.12.19.18.27a.56.56,0,0,0,.39.24h.16s0,.09-.09.11-.11,0-.17,0c.1.11.19.32.4.32s.18-.23.27-.32h.05s0,.07,0,.09.07.17.07.28,0,.1,0,.19h0s0,.07,0,.09a1.64,1.64,0,0,0,.12.4c0,.15.17.37.2.47a1,1,0,0,0,.08.22c.06.08,0,.17.08.28s.12.12.15.21.12.28.17.44,0,.07.06.07a.08.08,0,0,0,.1.07c.06,0,.07-.08.09-.14s0,0,.13-.08,0-.2.13-.23.07,0,.07,0h0l0-.18c0-.13.08-.23.08-.4s0-.18,0-.3.15-.16.27-.2a.81.81,0,0,0,.17-.16c.13-.12.25-.26.39-.39s.31-.15.43-.27S49,18,49,17.93s.16-.07.21-.17.05.07.16.07.37,0,.37-.25a.3.3,0,0,1,.24.16c0,.08,0,.19.07.27a.92.92,0,0,0,.22.22,1.77,1.77,0,0,1,.2.36s0,.05,0,.09,0,.11,0,.2,0,.17.11.17.24-.2.36-.31c0,0,0,.07.06.11s.07,0,.08,0,0,.3,0,.3c0,.22.17.4.17.7,0,.07,0,.23,0,.25h0a1.27,1.27,0,0,0,0,.26s0,0,0,0,0,0,.09,0,.16.25.21.34.08.3.15.5a.79.79,0,0,0,.47.49s0,.06.11.06,0,0,0,0h.09c0-.08,0-.11-.06-.2s-.13-.12-.13-.24,0-.06,0-.13c0-.34-.4-.38-.59-.56s-.05-.17-.08-.22h0c0-.2-.23-.12-.23-.33s.19-.23.19-.44c0-.05,0-.07,0-.13s0-.07,0-.07.15,0,.17.09,0,.09,0,.09a.51.51,0,0,1,.29.13c.09.08,0,.18.16.18s.14.14.24.14a.15.15,0,0,0,0,.1s0,0,0,.1,0,.13.05.13.16-.1.16-.17v-.07s0,.06,0,.06.06-.11.14-.15.2-.16.42-.22c0-.12.08-.18.08-.34a.86.86,0,0,0-.27-.63c-.17-.1-.24-.28-.4-.44a.12.12,0,0,1-.06-.1c0-.29.34-.34.47-.55.12.06.2,0,.33.08s0,.17,0,.17,0-.09.09-.15a1.7,1.7,0,0,1,.24-.09c.13-.06.25,0,.34-.12s.06-.13.08-.13.1.06.17.06c.31,0,.38-.19.57-.3s.09-.05.1-.12c.17,0,.21-.25.27-.38s.23-.35.33-.37.1-.22.1-.42a.86.86,0,0,0-.19-.58s0-.12-.08-.15h0s0-.1,0-.13-.18-.07-.18-.16.11-.09.14-.17.35-.19.49-.32c-.06-.08-.16,0-.26-.06s-.07-.09-.14-.09-.06.15-.1.15a.37.37,0,0,1-.18,0c-.08,0-.05-.12-.13-.18s-.14-.05-.14-.12.19-.09.29-.16a1.37,1.37,0,0,0,.29-.25s0-.09.11-.09.13.09.13.13-.13.16-.13.28c.19,0,.34-.21.56-.21s.11.08.22.08,0,.07,0,.15-.08.06-.08.14,0,.11.07.11,0,0,.09,0,.19.06.19.14-.06.09-.11.09v.06a.1.1,0,0,0,.07.05s0,.07,0,.12-.06.1-.06.15,0,.06,0,.07,0,0,0,.09h.11s0,0,.13-.06.17-.07.21-.09.14-.1.14-.25a.73.73,0,0,0-.25-.57.28.28,0,0,1-.12-.24.3.3,0,0,0,.2-.1c.05-.05.17-.12.2-.17a1,1,0,0,1,.31-.42,2.18,2.18,0,0,0,.47.07c.39,0,.75-.82,1-1.09a1.23,1.23,0,0,0,.3-.51c0-.19,0-.32.08-.51a.94.94,0,0,0,.12-.37c0-.18-.3-.54-.44-.44a.37.37,0,0,1-.61-.2c0-.19.37-.4.51-.54s.49-.57.78-.65a8.54,8.54,0,0,1,1.29-.13c.28,0,.41.13.58.13h.37c.11-.44.31-.71.78-.71a1.8,1.8,0,0,1,.41,0c-.12.09-.17.68.57-.24.08,0,.43.14-.1.48-.18.12-.35.06-.47.24a1.94,1.94,0,0,1-.48.57.65.65,0,0,0-.4.54c0,.25.08,1.08.27,1.22.13-.2.23-.57.5-.64,0-.19.28-.23.28-.37s.23-.29.23-.41-.06-.16,0-.3c.55-1.18,1.05-.55,1.26-.55.6,0,1-.77,1.56-.78,1,0,.2-.4.2-.5,0-.3.39-.25.47-.41s0-.24.11-.24c.42,0,.77.58,1.08.58.14,0,.16-.25.24-.34S68.79,7,69,7c-.24-.33-1-.51-1.42-.74M36.19,10.34h0M39,16.17h0M44.35,15c-.06,0-.1-.06-.17-.06s0,0,0,0a.28.28,0,0,1,0-.14.69.69,0,0,0,0,.13c.08-.09.14,0,.2,0m-.22-.22a.13.13,0,0,1,0-.06.13.13,0,0,0,0,.06m-1.44-.11a1.37,1.37,0,0,1-.31,0c-.09,0-.26,0-.32,0S42,14.51,42,14.5s-.17,0-.2-.05,0-.13,0-.21-.09-.05-.09-.12h.09c.08-.1.08-.27.19-.32a1.18,1.18,0,0,1-.46-.74c0-.07-.15-.17-.15-.27a1.48,1.48,0,0,1,.17-.33s.23-.09.25-.1a1.19,1.19,0,0,1,.51-.11c.37,0,.43.17.56.38-.1.08-.23,0-.35,0a1.73,1.73,0,0,0-.48.17c0,.14.12.13.16.21s.31.31.31.57a1.15,1.15,0,0,1,.23-.1c0,.1.11.16.11.26h-.2c-.06,0-.12.07-.13.17a.28.28,0,0,1,.23.28c0,.08-.05.1-.05.16s.07.13.07.14Z" fill="#edb81e"/><path d="M64.91,5.73A.08.08,0,0,0,65,5.66s0,0,0-.08H64.7a.24.24,0,0,0,.21.15" fill="#edb81e"/><path d="M58.45,3.58s.06-.05.07-.09h0l-.06-.06s-.05.06-.05.11,0,.05.05.05" fill="#edb81e"/><path d="M54.1,4.1l0,0h0l0,0" fill="#edb81e"/><path d="M54,3.92c-.06,0-.15,0-.15.1s.08.08.15.08a.29.29,0,0,0,.14,0,.05.05,0,0,0,0,0c0-.08-.06-.1-.16-.1" fill="#edb81e"/><path d="M51.45,2.51c0,.07,0,.1.1.1l.36-.1.24,0c.12,0,.47,0,.47-.16S52.35,2,52.25,2s-.07.06-.12.07,0-.05,0-.15h-.09c-.27,0-.33.25-.49.41s-.12,0-.12.15" fill="#edb81e"/><path d="M49.81,1.7a.25.25,0,0,0,.14.17c.08,0,.3,0,.32-.14s-.24-.1-.28-.1-.18,0-.18.07" fill="#edb81e"/><path d="M50.74,1.68c-.22.06-.28.14-.51.21.1.06.28.25.36.25.24,0,.46.12.76.12.06,0,.14,0,.14-.1s-.06-.07-.11-.09.14,0,.14-.08,0-.08,0-.14-.08-.13-.22-.13h-.14c-.08,0-.12-.07-.2-.07s-.07,0-.14,0,.13-.08.13-.12V1.39s0,0,.08,0c-.11-.08-.22-.26-.41-.26s-.43.32-.71.4a1,1,0,0,0,.5.14l.28,0" fill="#edb81e"/><path d="M50.73,3.05c.08,0,.12,0,.13-.13h-.1l-.1.06s0,.07.07.07" fill="#edb81e"/><path d="M49.91,1.21l0-.06h-.25c0,.09.17.07.27.06" fill="#edb81e"/><path d="M53,2.56a.1.1,0,0,0,.08-.1c-.06,0-.08,0-.22,0a.13.13,0,0,0,.14.08" fill="#edb81e"/><path d="M41.25,1.39c.06,0,.09,0,.15.06a.33.33,0,0,1-.1.06.33.33,0,0,0,.12,0l-.14.05c0,.06.09.08.19.08h0a.18.18,0,0,0,.08.07c.06,0,.07-.11.14-.15s.15,0,.23,0v0a.09.09,0,0,0,.07,0c.08-.06.17,0,.18-.12a.66.66,0,0,0-.2-.07c-.1,0-.15.09-.25.09s-.23-.09-.39-.09-.47,0-.53.13l.15,0c.1,0,.23-.09.31-.09" fill="#edb81e"/><path d="M42,1.53l-.05,0v0Z" fill="#edb81e"/><path d="M44.47,1.36a1.58,1.58,0,0,0,.36-.09l-.1-.22c-.1,0-.38.11-.38.2s0,.11.12.11" fill="#edb81e"/><path d="M44.1,1.53l0-.08c.06,0,.13,0,.17,0a.32.32,0,0,0,0-.1.74.74,0,0,1-.21,0,.09.09,0,0,0,.06-.05h-.22a.19.19,0,0,0,0,.08.19.19,0,0,0-.14.19,1,1,0,0,0,.38,0" fill="#edb81e"/><path d="M43.05,1.65a.06.06,0,0,0,.06.05c.06,0,.09,0,.1-.07s.1.07.14.07.09-.11.22-.11a.24.24,0,0,0-.19-.08c-.06,0-.33,0-.33.14" fill="#edb81e"/><path d="M43.35,1.38c.08,0,.15,0,.2,0a1,1,0,0,0-.38-.1,2.13,2.13,0,0,1,.31-.18A.13.13,0,0,1,43.54,1s0-.08,0-.08a.12.12,0,0,0-.11.12c-.2,0-.21.13-.41.13v.09c.07,0,0,0,.11,0h-.28l-.09.08a2.2,2.2,0,0,0,.34.13c.08,0,.19-.08.27-.08" fill="#edb81e"/><path d="M34.5,2.12s0,0,.06,0,.07.16.19.22l-.06,0a.23.23,0,0,0,.22.1c.14,0,.14-.14.2-.18h.06l.1.06h.18a1.62,1.62,0,0,1-.35.17s-.19,0-.19.07.18.09.26.09a1.45,1.45,0,0,1,.3,0c-.08,0-.15,0-.22.06a1.43,1.43,0,0,0-.25,0c0,.23.37.32.53.43.09-.1.08-.29.19-.38s.09,0,.11-.05.14-.47.37-.47a.25.25,0,0,0,.16.1h-.09c0,.05.09.18.13.19s-.08.07-.1.19h.31a.13.13,0,0,0,0,.12c.17-.05.24-.16.42-.22-.06-.09-.25,0-.25-.25h-.22a.12.12,0,0,0,0-.1.24.24,0,0,1-.12,0h.07A1.37,1.37,0,0,0,36,2.07h-.07c0-.05,0-.16-.08-.16s-.07.06-.12.09,0-.09,0-.14-.18-.13-.27-.13-.14,0-.14.1a.62.62,0,0,0,.09.3c-.17-.07-.13-.3-.31-.3a.11.11,0,0,0-.11.11A.11.11,0,0,0,35,2c0-.05-.11-.05-.18-.1a.7.7,0,0,1,.08-.1,2.25,2.25,0,0,0-.34,0c-.07,0-.21.13-.23.16s.12.16.16.16" fill="#edb81e"/><path d="M36.08,1.83l.32,0a.79.79,0,0,0-.17,0H36.1c0,.06,0,.09.09.11h.38a.25.25,0,0,0,.24.12,1.82,1.82,0,0,0,.7-.34.39.39,0,0,0-.31-.19H37c-.1,0-.14.07-.2.07s0-.08,0-.17h-.09s-.08.16-.17.16a1,1,0,0,1-.27-.14h-.19l0,.07H36v0a.13.13,0,0,1-.13,0h-.1a.21.21,0,0,0,.1.17c0,.15.12.07.23.07" fill="#edb81e"/><path d="M34.36,2.2h0l0,0Z" fill="#edb81e"/><path d="M34.56,2.5c0-.15-.13-.18-.22-.29-.1.07.09.25.22.29" fill="#edb81e"/><path d="M34.33,2.2h0Z" fill="#edb81e"/><path d="M30.4,11a.17.17,0,0,0,.17.15.3.3,0,0,0,.13,0c.05,0,.13-.15.24-.15a.23.23,0,0,0,.17,0c.06-.05,0-.13,0-.19v-.23s.12,0,.12-.1-.07-.28-.23-.28H30.9c-.07,0-.2.08-.2.13a.16.16,0,0,0,0,.09.34.34,0,0,1-.19.07s-.07,0-.07.08.06.11.12.14-.19.18-.19.35" fill="#edb81e"/><path d="M31,9.46a.15.15,0,0,0,.13-.16c-.06,0-.17,0-.17.08s0,.08,0,.08" fill="#edb81e"/><path d="M31.22,9.65v.06s0,0,0,.09.07,0,.11,0v.06s0,0,0,.05v.11h.05s0-.05,0-.1a.25.25,0,0,0,.12,0c0,.05,0,.07,0,.13s-.07.09-.07.14,0,.06.11.06.09,0,.16,0h.06s-.05,0-.05.09.1.08.16.08v.1a.37.37,0,0,1-.3.13c0,.07.05.11.05.19s-.19.11-.19.22a0,0,0,0,0,0,0s0,0,.06,0,.1.08.19.08a.17.17,0,0,0,.13-.07.43.43,0,0,1,0,.05c0,.09-.14.06-.23.08a2,2,0,0,0-.24.26v0h.05s.05-.06.09-.06h.1a.11.11,0,0,1,.11-.11s.07,0,.12,0,.28-.06.35-.06h.27a.27.27,0,0,0,.19-.11v0l-.13,0c0-.09.21-.15.21-.27a.13.13,0,0,0-.14-.13c-.05,0,0,0-.09,0l0,0-.08.05v-.05a.05.05,0,0,0,0,0c0-.05-.07-.09-.07-.14s-.18-.21-.29-.32S32,10,31.88,10s-.09,0-.15,0a0,0,0,0,1,.05-.05c0-.15.21-.23.18-.42h-.4s0,0,0,0,.17-.08.17-.18,0-.06-.07-.06h-.19s-.11,0-.11.09,0,.06,0,.11a.08.08,0,0,0-.09.09l0,0s0,0,0,0a.06.06,0,0,1,0-.06h-.1c0,.08.05.1.15.12" fill="#edb81e"/><path d="M31.45,10.42a.07.07,0,0,0,0,.08h.07s0-.06,0-.08Z" fill="#edb81e"/><path d="M29.7,7.32v0c0-.19-.25-.14-.25-.34,0,0,0,0,0-.06s-.1,0-.16,0-.12,0-.12-.09,0,0-.08,0a.25.25,0,0,0,0,.1c-.07-.06-.15,0-.23,0l-.22,0s0,0,0,.07a.19.19,0,0,0-.1,0l-.16,0s-.06,0-.09-.06,0,0,0,.09-.07,0-.12,0-.11-.09-.1-.14,0-.06,0-.1H28c-.05,0-.06.08-.12.08V7a.14.14,0,0,0-.13,0c0,.07.26.15.34.15a.05.05,0,0,0,0,0,1.28,1.28,0,0,1-.35.06c.06.07.18,0,.29,0a.59.59,0,0,0,0,.2s0,0-.06,0c.15,0,.21.09.3.12a1.79,1.79,0,0,0,.61.12,1.45,1.45,0,0,0,.52-.17.79.79,0,0,0,.31-.24" fill="#edb81e"/><path d="M18,18.24s-.08-.12-.15-.14h-.1s0,0,0,0a.64.64,0,0,1-.42-.17s-.07-.08-.12-.08c-.22,0-.36-.18-.66-.18a.57.57,0,0,0-.56.3h.06a.73.73,0,0,1,.38-.16.16.16,0,0,1,.1,0s0,0,0,.08h.2c.09,0,.14.1.23.1s.09,0,.15,0,0,.07.07.07.13.09.23.14a.07.07,0,0,1-.07.06v0c.13,0,.24.05.4.05s.21,0,.25-.08" fill="#edb81e"/><path d="M16.33,17.88v.05a.06.06,0,0,0-.06.06s.09,0,.09,0a.12.12,0,0,0,0-.1h0Z" fill="#edb81e"/><path d="M17.28,18.61a.11.11,0,0,0,.11.1,1.7,1.7,0,0,0,.22,0,.07.07,0,0,0-.06-.06h0a.81.81,0,0,0-.21-.05s-.07,0-.07,0" fill="#edb81e"/><path d="M19.41,18.6c0,.06.09.07.17.07s.09,0,.11,0-.18-.08-.2-.08-.08,0-.08.05" fill="#edb81e"/><path d="M18,18.57a.13.13,0,0,0,.08.11v-.06s0,0,.09,0a.74.74,0,0,1,.3,0s0,.09.08.09.07-.12.16-.12,0,0,.07,0a.24.24,0,0,0,.12-.05h.25a.65.65,0,0,0-.18-.15l0,0c-.12-.06-.16-.18-.38-.18s-.11,0-.2,0-.1-.05-.17-.05-.05,0-.05.05.05.07.09.07a.21.21,0,0,0,.05.15c-.09,0-.15,0-.31,0s0,0,0,0" fill="#edb81e"/><path d="M20.47,20.26s0,0,.06,0,.06-.07.08-.09v-.05h-.06s-.08.07-.08.14" fill="#edb81e"/><path d="M22.71,22.17c-.08,0-.14.06-.14.17s.18.18.28.18.18-.16.18-.22,0-.06,0-.06-.1.08-.11,0a.3.3,0,0,1-.14-.06h0" fill="#edb81e"/><path d="M18.13,31.28h.06v-.2a.15.15,0,0,0,0-.08c0-.05,0-.11-.08-.11s-.08.21-.08.21v.08a.12.12,0,0,0,.07.1" fill="#edb81e"/><path d="M25.51,23.18c-.1,0-.16,0-.25,0a1,1,0,0,1-.38-.32,2.33,2.33,0,0,0-.32-.11l-.26,0c-.13,0-.16-.1-.3-.1s-.09,0-.15.07H23.8a.49.49,0,0,0,0-.17s-.08,0-.13-.07a1.18,1.18,0,0,0-.46-.19c-.1,0-.19.15-.25.25s-.05.09-.08.09,0-.06,0-.08h-.16a.2.2,0,0,0-.12-.15s-.09,0-.09-.08.19-.27.3-.41-.09-.06-.12-.13a1.33,1.33,0,0,1-.12-.37c-.12,0-.26-.25-.37-.25h0v0a.63.63,0,0,1-.22-.07h-.18c-.18,0-.47,0-.52-.21a.13.13,0,0,1-.1,0c-.08-.17-.14-.15-.27-.28h-.19c0-.08,0-.18-.09-.21s-.25-.06-.29-.15v-.06s.07,0,.1,0l-.19,0s-.17,0-.17,0-.11.08-.21.1-.14,0-.14-.07h-.37A.14.14,0,0,1,19.2,20c-.1,0-.25-.06-.28-.16H18.8c0,.08.11.05.13.13h-.16c-.06,0-.17,0-.17.13s.08.13.08.21,0,.11-.06.11-.11-.13-.11-.2a2.42,2.42,0,0,1,.06-.28.09.09,0,0,0,.07-.08s0-.08-.07-.08-.1.1-.19.12l-.44.14c-.09,0-.15.05-.18.15s0,.15-.07.17-.11.05-.11.12,0,0,0,0v0s0,0-.08,0l-.05,0s0-.05.05-.05-.19-.22-.38-.22-.25.14-.43.14-.12-.13-.19-.17-.25-.11-.25-.26v-.41a.82.82,0,0,0,.05-.3v-.1c-.13,0-.17-.15-.33-.15s-.42,0-.64,0c0,0-.09,0-.09-.07v0c.05,0,.13-.07.13-.14v-.32h.05v0a.36.36,0,0,0,.08-.22c0-.13.12-.25.12-.35V18h-.16l-.13,0c-.19,0-.41.07-.41.26s-.12.19-.14.27,0,.11-.1.11-.05,0-.13,0-.24.1-.37.1-.05-.06-.11-.08-.18-.17-.3-.3a1,1,0,0,1-.17-.19c0-.06,0-.1,0-.17s-.06-.08,0-.13v-.38a1.07,1.07,0,0,0,.07-.27.45.45,0,0,0,0-.11v0h0s0-.05,0-.07a.45.45,0,0,1,.24-.44c.07,0,.13,0,.18,0s.18-.25.37-.25.12.07.19.07.06-.05.11-.05.29.23.48.13c-.08-.05,0-.11,0-.21s0,0-.1,0a2.58,2.58,0,0,1,.37-.06s0,.06.05.06.07-.06.17-.06.23.16.36.16.09-.09.15-.09c.29,0,.21.41.32.63a1.55,1.55,0,0,0,.21.25c0,.06,0,.17.13.17s.15-.13.15-.27a.86.86,0,0,0-.08-.27v0c0-.21-.19-.28-.19-.5,0-.5.41-.63.72-.81h0a.24.24,0,0,1,.12-.09c.05,0,.09-.06.17-.08s.06-.05.08-.07L17.6,15v0c.06,0,.09,0,.1-.07a.12.12,0,0,1-.09-.06s.09,0,.09-.08V14.7h-.05s0,0,0-.1,0-.19,0-.24a.26.26,0,0,1,0-.09,2.11,2.11,0,0,1,.08.22v.08s0,0,0,0a.92.92,0,0,0,.15-.28c0-.05,0-.07-.06-.13l0,0s0,.05,0,.05.18-.23.19-.29-.06,0-.06-.08a.07.07,0,0,1,0,0h.06a.74.74,0,0,0,.26,0c-.05,0-.11,0-.17,0h-.07c.14-.09.37,0,.51-.15s.14,0,.22,0v0s-.06,0-.08,0-.06-.09-.06-.13,0,0,0-.06c0-.25.23-.33.34-.44s.07,0,.15,0a.25.25,0,0,0,.22-.11l0,0v0h.07a.63.63,0,0,0,.27,0c.06,0,.06-.13.16-.14s0,.1.1.1c-.16,0-.4.12-.4.27a.25.25,0,0,0,.14.17c.05,0,.18-.18.31-.22s.5-.18.5-.24-.18-.08-.22-.08c-.19,0-.5-.19-.5-.36s.05-.09.06-.16l-.17,0c0-.06.29-.09.29-.23s-.21-.1-.36-.1S19.21,12,19,12c.09-.18.23-.12.38-.27s0-.16.17-.2a1.64,1.64,0,0,1,.66,0c.34,0,.53.11.73-.15s.64-.15.64-.37a.57.57,0,0,0-.11-.33c-.06,0,0-.06-.06-.1v-.08a1.7,1.7,0,0,1-.64.2l-.07,0c.14-.08.51-.13.55-.26s-.05,0-.06-.08-.5-.05-.5-.28v0a.52.52,0,0,1-.33-.16s.1,0,.1-.13-.06-.12,0-.18-.28-.16-.22-.29S20,9.05,20,8.87c0,0-.08-.06-.11-.09s-.16.09-.16.19a.52.52,0,0,1-.38.35c-.13,0-.15-.15-.23-.15s-.16-.33-.18-.47-.39-.06-.39-.31c-.19,0-.23-.25-.42-.25s-.09.06-.19.06-.32-.11-.51-.11-.21.05-.21.17.24.16,0,.3.12.21.13.31-.17.25-.26.28c.16.27.4.36.4.8,0,.13-.41.43-.55.46.24.12.15.48.24.6s-.11.09-.12.16-.14.14-.2.08-.41-.34-.41-.54,0-.38-.15-.51h-.44A3.42,3.42,0,0,0,15,9.8s-.21-.14-.3-.14-.15.1-.25.1c0-.16-.11-.54-.26-.54s-.1,0-.17.07,0-.11,0-.31a.75.75,0,0,1,.24-.59c.05-.05.17-.31.22-.34s.32,0,.32-.13-.26-.11-.35-.16-.15-.12.4,0c.15,0,.06-.15.14-.15h.15c.16,0,.25-.17.36-.25v-.1c-.23-.06-.46,0-.56-.23h.12c.09.06.18.16.31.16s.3-.14.3-.22-.1-.15,0-.15.21.13.3.13.1,0,.22,0,0-.16.08,0,.4-.23.4-.32-.16-.13-.16-.17-.09-.16.13-.26c0-.06,0,0,0-.17-.22,0-.17-.17-.45-.17-.06,0-.11,0-.17,0a.16.16,0,0,0-.17.14c0,.09.11.12.11.18s-.16.07-.19.14,0,.2-.14.33-.35-.12-.35-.2.11-.07.11-.17S15.16,6,15.1,6s-.06.29-.27.29A.24.24,0,0,0,14.68,6l.06-.08c-.1-.07-.25,0-.33-.1s.17-.07.17-.16-.21-.13-.21-.23-.15-.34-.42-.35-.07.08-.07.15-.19,0-.19.1.06.1.06.17-.09.06-.09.16.46.09.46.32a1.43,1.43,0,0,1,0,.2.91.91,0,0,1,.14-.07c.09.28-.36.14-.36.48-.22.06,0-.17-.1-.24s-.21-.08-.31-.08-.17.07-.17.22a4.74,4.74,0,0,0-.57,0c-.37,0-.8-.13-.88-.41-.13,0-.53,0-.53.19a.07.07,0,0,0,.08.07.76.76,0,0,0,.37-.11c0,.23-.32,0-.32.28,0,0,.08.2,0,.2s-.16-.17-.28-.22l-.1-.05h-.43c-.14,0-.22.05-.37.06S10,6.4,10,6.38s.21,0,.25-.08c-.19-.26-.16-.21-.55-.18s-.61-.31-1-.31c-.13,0-.18.09-.29.09s-.15-.13-.16-.18-.13.17-.26.17-.32-.3-.36-.3-.08.19-.23.19a.14.14,0,0,1-.12-.09,3.22,3.22,0,0,0-.47.13c-.08,0-.26.15-.32.09s-.14,0-.21,0c-.44,0-.13.18-.19.18a1.48,1.48,0,0,1-.75-.21s-.1-.06-.1-.09,0,0-.08,0h0c-.17,0-.23-.13-.43-.13s-.2,0-.32,0a1.34,1.34,0,0,1-.76-.17H3.1a1.37,1.37,0,0,1-.2-.13H2.56l-.15-.07a.21.21,0,0,1-.17.09.24.24,0,0,1,.06-.09c-.09,0-.13-.1-.21-.1s-.19.15-.3.19-.15,0-.24,0a1.86,1.86,0,0,0-.87.65H.3a1.65,1.65,0,0,1-.1.19s.28.1.36.15.15.24.21.27.33.1.4.32c-.08,0-.09,0-.19,0s-.25.06-.25-.15H.61c-.16.1-.44.19-.61.29a.2.2,0,0,0,.2.11s0,0,0,.07.09.09.09.19H.63c.1,0,.15,0,.28,0s.19-.12.3-.12h.1v.1c-.05,0,0,0-.1,0s.11.12.11.16-.46.27-.52.27-.51.17-.51.38.22.14.27.29l-.1,0a1.51,1.51,0,0,0,.45.31s.09-.11.14-.11S1.1,9,1.1,9v.13c0,.06,0,.17.07.17s.06-.05.1-.05h.09a.33.33,0,0,1,0-.1,1.15,1.15,0,0,0,.33.19c0-.05,0-.07,0-.13s.11.06.19.06.15-.05.25-.09h.1c-.16.1-.16.31-.32.41a2.34,2.34,0,0,0-.54.37c-.08.1-.21,0-.33.1s-.13.18-.21.23-.25,0-.33.14c.29.08.42-.21.67-.25a1.05,1.05,0,0,0,.54-.2c.11-.11.34-.18.44-.31s.08-.13.17-.16.3-.12.3-.28v-.1c0-.22.45-.59.61-.59h.08v.06q-.3.11-.3.33s0,0,0,.08S3,9.06,3,9.11s0,0,.07,0a1.32,1.32,0,0,0,.68-.38.17.17,0,0,1-.07-.09A1.83,1.83,0,0,1,4,8.58c.12.23.41.26.64.34H5c.2.11.43.1.61.23s.18.26.32.26S6,9.34,6,9.29a.26.26,0,0,0,.2.1c0-.05.09,0,.12,0a.2.2,0,0,0-.06.14s.07.1.1.1,0-.08.18-.09v.09c0,.06-.1.06-.1.12a.11.11,0,0,0,.12.1c.12,0,.21,0,.21.1v.1c0,.08.16.2.28.2h.07s0,0,0,.09,0,.27.07.3a.47.47,0,0,1,.15.06c.06.06,0,.14.06.2a1.62,1.62,0,0,1,.19.13c0,.15.06.34.29.34,0,.13.27,0,.32.22s.19.08.26.15l.08,0h0c0,.07.08.09.08.16a.38.38,0,0,1-.09.18.23.23,0,0,0-.2-.12s-.1,0-.1,0,.17.21.17.36-.18.6-.12.76,0,.42.07.57-.1.07-.07.13.27.5.41.52c0,.28.16.36.25.6,0,.05,0,.13.06.15.24.09.59.23.69.44h0v0a1.58,1.58,0,0,0,.17.32c0,.08,0,.27.12.32a1.5,1.5,0,0,1,.33.37c.06.08-.1.06-.14.06s.22.08.32.18.12.14.19.21v.18s0,0,.07.06.14.21.26.21a.85.85,0,0,0,.11.14s0-.07,0-.1-.08-.17-.14-.12a.73.73,0,0,1-.21-.42c-.05-.14-.18-.21-.23-.37a.57.57,0,0,0-.14-.28c-.07-.06-.16-.06-.21-.17a.77.77,0,0,1-.12-.34.11.11,0,0,1,0-.09c.08.09.19.08.31.14s0,.17.1.23,0,.18.1.24l.23.24s0,0,.07,0,.21.17.28.3,0,.14,0,.19.17.1.24.16a1.71,1.71,0,0,1,.46.59s.07.07.07.16-.07.12-.07.19,0,.14.1.14.23.13.32.21l.07.05c.09,0,.13,0,.22.07s.12.13.21.15.13,0,.2,0a1.93,1.93,0,0,0,.38.19.31.31,0,0,1,.16,0,.32.32,0,0,0,.13.06c.12,0,.14-.14.26-.14a.26.26,0,0,1,.15.06h0c.18.09.21.24.42.34s.23,0,.36.1.15.11.28.11.09,0,.13,0h0c0,.16.16.22.27.33s.06.05.08.12,0,.19.07.26H16a.06.06,0,0,1,0-.06,1.22,1.22,0,0,1,.26.18c0,.06,0,.13.12.14s0,.05,0,.05.16-.05.21,0,.12.19.23.19.09,0,.1-.11a.08.08,0,0,1,0-.06s.18-.17.23-.17.1.09.17.12,0,0,0,.07.07,0,.08.05h0a.08.08,0,0,0,0,.05c0,.12.12.1.12.24s0,.09,0,.18,0,.09,0,.14v0l0,.05s0,.06.07.07c0,.18-.21.14-.29.28s-.1.3-.28.3c0,.3-.15.27-.15.42s0,.23.11.23,0,0,.1,0-.15.14-.21.24a.42.42,0,0,0-.07.2.51.51,0,0,0,.17.33s.08,0,.1.06a.52.52,0,0,0,.08.19s.07,0,.09.05a2.18,2.18,0,0,1,.15.37c0,.15.18.27.24.43s.12.15.12.26,0,.16,0,.21a.94.94,0,0,0,.41.28.43.43,0,0,1,.22.13c.07.08.14.06.25.11a.57.57,0,0,1,.29.33,4.93,4.93,0,0,1,.05.54c0,.11-.06.29-.06.39v.29c0,.07,0,.19,0,.24v.06c0,.23-.15.4-.15.66,0,.11-.08.2,0,.33v.5c0,.17,0,.28-.09.44s0,0-.06,0-.05.15-.07.19a.88.88,0,0,0-.16.41s0,.24,0,.24.05,0,.05.07,0,0-.07,0a1.73,1.73,0,0,0-.07.31c0,.07,0,.23.09.23s.06-.06.11-.08h.06v.11l-.23,1c-.1,0-.05-.12-.17-.12s-.06,0-.06.07h0V32c0,.07.1.18.1.24s-.16.15-.16.28.1.35.1.5v.09c0,.14.18.12.18.28a.28.28,0,0,1,0,.12l.05,0c0,.06-.13,0-.13.11s0,0,.06.07.14.19.33.19c0,0,0,.08.08.08h.13c0,.13.15.13.25.16s.05.22.21.22h.19l.07,0h.07c.06,0,.23-.13.33-.13s.08,0,.11,0a1.76,1.76,0,0,1-.51-.3c-.09-.09-.08-.4-.21-.47s-.1-.08-.1-.15a.41.41,0,0,1,.12-.31c.06-.06.17,0,.21-.11s0-.18.08-.23.26-.12.26-.31-.3-.11-.3-.38a.24.24,0,0,1,.2-.23c.05,0,.17,0,.18-.09s0-.3.17-.42c0,0-.08,0-.08-.1s.1.06.18.06a.11.11,0,0,0,.07-.09s0,0-.06-.06S20,31,20,31s-.14-.18-.14-.28a.08.08,0,0,1,.07-.08c.13,0,.16.1.3.1s.16,0,.16-.08v-.07c0-.1,0-.3.06-.39s.29,0,.4,0,.3,0,.42-.14a.85.85,0,0,0,.17-.2.26.26,0,0,0,0-.18c0-.08-.11-.08-.13-.15s0-.16-.08-.21-.12-.05-.12-.12,0,0,.05,0,.19.08.28.08a2.24,2.24,0,0,0,.31.08c.31,0,.37-.34.5-.55s.25-.19.38-.38,0-.13.09-.22h0a.63.63,0,0,1,.27-.33v-.32c0-.13,0-.22.08-.31s.14-.05.19-.14.29-.1.45-.26,0,0,.07-.07a.76.76,0,0,1,.34,0,.39.39,0,0,0,.29-.18s0-.11,0-.15a3.76,3.76,0,0,0,.23-.36.63.63,0,0,0,0-.23.29.29,0,0,1,.09-.15s0-.05,0-.09,0-.2,0-.32-.1-.38,0-.48.14-.08.21-.19.07-.07.11-.13c.18-.28.46-.42.46-.92,0-.14,0-.28-.17-.32m-6.13-10.4v0m-.08-.47,0-.07,0,.07m.06.43a.08.08,0,0,0,0,0,.08.08,0,0,1,0,0m0-.08a.06.06,0,0,0,0,0,.06.06,0,0,1,0,0m0-.07a.34.34,0,0,0,0-.1.34.34,0,0,1,0,.1m0-.11a.15.15,0,0,0,0-.07.15.15,0,0,1,0,.07m0-.09s0,0,0-.06,0,0,0,.06M17,13.18a2.69,2.69,0,0,1,.64-.13c0,.26-.44.19-.63.19h-.09l0,0s0,0,0-.06.07,0,.09-.05m-.12.28.11-.05a.3.3,0,0,0,0-.1.3.3,0,0,1,0,.1,1.84,1.84,0,0,1-.63.24c-.07,0-.09-.1-.09-.17s.06.08.1.08.07,0,.09-.07.16-.05.26-.05.13.05.16,0M15.25,12c.06,0,0-.14.1-.14s.14.12.17.15a.33.33,0,0,0,0-.1h.06a1.7,1.7,0,0,1,.34.26c0,.08,0,.15.05.2s.37.12.54.23h.17c.08.06.19.13.19.23a.08.08,0,0,1-.07.08.3.3,0,0,1-.19-.12c0,.11-.09.44-.19.44s-.06-.1-.09-.21,0,0-.13,0a1,1,0,0,0,.07-.25c0-.08-.25-.2-.3-.2s0,.16-.25.18c-.08,0-.07.21-.07.3v.21c0,.09,0,.29-.14.29a.15.15,0,0,1-.16-.13,1.42,1.42,0,0,1,.17-.67c-.06,0-.09,0-.16.09a.58.58,0,0,1,.43-.32,1.06,1.06,0,0,0,.31,0v-.09c-.14,0-.22-.08-.39-.08s-.1.06-.19.06-.11,0-.11-.08h-.14c0-.05.08-.07.08-.17s-.23.15-.3.15-.07.09-.18.09-.08,0-.11-.07l-.11,0,0-.09a3.11,3.11,0,0,1,.44-.3,1,1,0,0,0,.18,0" fill="#edb81e"/><path d="M17.22,17.25c0,.06,0,.13.07.13a0,0,0,0,0,0,0,.09.09,0,0,0-.08-.1h0" fill="#edb81e"/><path d="M17.21,16.87a.11.11,0,0,0-.09.05h.17a.08.08,0,0,0-.08-.05" fill="#edb81e"/><path d="M17.42,17s0,.06,0,.05Z" fill="#edb81e"/><path d="M18.24,18V18a.14.14,0,0,1-.14.06v0h0a.21.21,0,0,0,.11,0" fill="#edb81e"/><path d="M6.78,10.37s0,0,0-.07-.18-.17-.16-.35c-.14,0-.18,0-.18.14.09-.06,0,0,.15,0s0,.09,0,.13.08.15.14.15" fill="#edb81e"/><path d="M6.22,9.7c0-.11,0-.11,0-.29-.09.06,0,0-.15,0S6,9.42,6,9.48a.2.2,0,0,0,.18.2.35.35,0,0,0,.11.27c.07-.07,0-.16,0-.25s-.07,0-.07,0" fill="#edb81e"/><path d="M12.56,5.8a.34.34,0,0,0,.27-.06c-.13-.1-.7-.25-.7-.46S12,4.94,12,4.7c0-.06.15-.12.15-.22s-.12-.15-.24-.15-.2,0-.2.11a.17.17,0,0,0,0,.07c-.11,0-.07,0-.19,0s-.13,0-.13.09a2.18,2.18,0,0,0,.16.47s0,0-.09,0-.07-.17-.11-.25a.4.4,0,0,0-.23-.19h-.15a.34.34,0,0,1,0,.12l-.2,0a.29.29,0,0,0-.31-.21c-.11,0-.16.09-.21.13s0-.24-.12-.24-.86.24-.86.58a.31.31,0,0,0,.21.13.61.61,0,0,1,.23,0c-.07,0-.27,0-.27.14s.38.12.53.12h.35a.29.29,0,0,1,.17.07h-.22a1.08,1.08,0,0,0-.66.16c.05.08.17.24.32.24a.89.89,0,0,1,.37,0c.08.06,0,.17.13.17H11c.14-.1.31-.05.48-.14s.06-.12.18-.12.29.21.56.21.32,0,.38-.13-.06,0-.07-.09-.1,0-.1-.06,0-.06.09-.06" fill="#edb81e"/><path d="M8.29,5.14s.07.13.1.13.06.07.1.07A1.54,1.54,0,0,0,9,5.12c0-.16.3-.44.51-.51s.43-.07.43-.15-.33-.29-.47-.29-.17.08-.24,0S9,4.1,8.88,4.05s-.19,0-.27,0S8.37,4,8.2,4.1c0,.08.1.19.1.24C8.3,4.58,8,4.77,8,5c0,.08.27.07.33.14" fill="#edb81e"/><path d="M10,3.36h0a.19.19,0,0,0-.14.07l.08,0H9.71v.1l.08,0H9.71c-.06,0-.1,0-.17.07s0,0,0,.1a.11.11,0,0,0,.11.1,1.7,1.7,0,0,0,.23,0c.09,0,.17,0,.29,0a.1.1,0,0,1,.07-.09c0,.07.08.1.12.16s-.19,0-.19.08.11.1.19.1A1.23,1.23,0,0,0,10.8,4l.45-.11a3.37,3.37,0,0,1,.44,0,.56.56,0,0,0,.23-.32.18.18,0,0,0-.16-.17c-.09,0-.12.08-.18.08a.3.3,0,0,1-.26-.25.23.23,0,0,1,0-.09.28.28,0,0,1-.13,0c-.07.05-.24.1-.24.21s.12.1.17.1v.09s-.07,0-.07,0a.35.35,0,0,0,.13,0c0,.06-.06.09-.15.09-.29,0-.43-.26-.64-.26h-.15a.12.12,0,0,0-.12-.1.78.78,0,0,0-.22,0s0,0,0,.07m0,.27.1,0-.1,0m.21-.12-.1,0,.1,0" fill="#edb81e"/><path d="M9.21,3.61c0,.05.06.09.11.09s.19-.15.2-.24-.31,0-.31.15" fill="#edb81e"/><path d="M10.15,3.21h.15V3.12h-.23a.09.09,0,0,0,.08.09" fill="#edb81e"/><path d="M8.71,3.46c.07,0,.11,0,.19,0s.06.1.12.1.13-.08.14-.15a.23.23,0,0,0,.23-.21c.06,0,0,.19.17.19l.29-.22s0-.07-.06-.13a.13.13,0,0,0,.09-.11c0-.12-.4,0-.4,0l-.13,0c-.19,0-.22.18-.35.25s-.22.08-.32.14a.65.65,0,0,0-.15.12s.05,0,.06.1.08,0,.12,0" fill="#edb81e"/><path d="M10.64,2.56h.29a.47.47,0,0,0,.19-.06.3.3,0,0,0-.29-.17c-.09,0-.49.14-.49.23s.08-.05.13-.05.09.05.17.05" fill="#edb81e"/><path d="M10.91,2.6c-.14,0-.55,0-.55.17a.25.25,0,0,0,.21.18c.15,0,.38-.06.36-.2h-.19A.42.42,0,0,0,11,2.66a.12.12,0,0,0-.12-.06" fill="#edb81e"/><path d="M10.17,2.81s.07,0,.09-.08-.23-.19-.23,0,.08.1.14.1" fill="#edb81e"/><path d="M13.54,4.77c0-.07,0,0,0-.1s-.2,0-.25,0,.21-.12.21-.25a.08.08,0,0,0-.06-.07h-.27c-.15,0-.3,0-.41.08s0,0,0,.06.13.07.22.08v.19h-.1c-.12,0-.22-.08-.31-.08v.11c.2.2.41.17.6.36,0,0,0,.11.15.11s.07-.08.13-.1c.22-.08.24,0,.27-.35l-.15,0" fill="#edb81e"/><path d="M12.2,3.22h-.08a.19.19,0,0,0,0,.08h0v.12s.09.09.16.07l0,.07h.11a.08.08,0,0,0,.08.08c.13,0,.37-.07.49-.07l.08,0s-.17,0-.17.1v.07a.08.08,0,0,0,0,.07c0,.06.17,0,.21,0a1.12,1.12,0,0,0,.27,0c0-.19.06-.27.06-.43s0-.17-.14-.17-.08.06-.13.06-.2-.07-.31-.07-.07,0-.12,0,.12.1.24.1v.15c-.17,0-.23-.15-.38-.15v.08l.14.12c-.21.06-.31-.29-.51-.29" fill="#edb81e"/><path d="M13.25,6s-.15,0-.15,0a2.65,2.65,0,0,0,.59.21c.08,0,.1-.07.17-.11a.89.89,0,0,0-.42-.35c-.13,0-.11.19-.19.22" fill="#edb81e"/><path d="M14.17,4.19a.19.19,0,0,0-.19.1s0,.06,0,.07h-.15v.12c.05.13,0,.21.11.32a1,1,0,0,0,0,.2h.14c.08-.08.13-.1.15-.22h-.09c0-.14,0,0,.19,0s.3-.15.39-.27l.12-.1a.27.27,0,0,1,0-.09c-.24,0-.43-.08-.66-.08" fill="#edb81e"/><path d="M12,3a.11.11,0,0,0,.1-.08c-.15,0-.16-.19-.34-.19,0,.08.17.27.24.27" fill="#edb81e"/><path d="M12,3.84h.13s.11,0,.11-.09,0-.06-.05-.1-.16.07-.19.18" fill="#edb81e"/><path d="M12,2.22a.13.13,0,0,1-.05.07c.06,0,.09,0,.24,0a.06.06,0,0,0,0,.08c-.08,0-.14,0-.21.09a.24.24,0,0,0,.19,0c.1,0,.19,0,.22,0a1.72,1.72,0,0,1,.32,0c.16,0,.14.17.31.17s.12,0,.12-.09S13,2.51,13,2.46L13,2.39s-.11-.15-.2-.15-.06,0-.1,0-.07-.15-.21-.15-.08,0-.13,0-.12-.12-.26-.12a1.74,1.74,0,0,0-.22.05c0,.08,0,.1.12.1" fill="#edb81e"/><path d="M12.56,2.64s-.18.11-.06.11.18,0,.22,0-.08-.06-.16-.06" fill="#edb81e"/><path d="M15.1,4h.08c0,.12.2.14.34.1h.55c.06,0,.07-.07.16-.08a.15.15,0,0,0,.14.1c.24,0,.54,0,.56-.24a.13.13,0,0,1-.08,0,.09.09,0,0,1,0-.06h.05c-.09-.18-.27-.19-.54-.19s-.47.17-.85.17a1.85,1.85,0,0,1-.46-.08s-.11.06-.11,0,0,0,0,0-.26,0-.3-.16H15c-.06-.08-.37,0-.32-.2h-.12s-.07,0-.14,0c-.23,0-.28-.23-.58-.23-.09,0-.21,0-.21.1s.42.24.49.24a.23.23,0,0,0,.14-.07c.11.11.14.22.27.34,0,0-.08.06-.08.11s.33.31.48.31A.31.31,0,0,0,15.1,4" fill="#edb81e"/><path d="M14.24,3.82c0-.09-.17-.23-.29-.23s-.13.16-.2.16a.11.11,0,0,0-.09.1A3.85,3.85,0,0,0,14.1,4c.09,0,.14-.11.14-.22" fill="#edb81e"/><path d="M14.26,2.83V2.74c-.07,0,0,0-.09,0s-.38,0-.44.09l.42.07c.06,0,.11,0,.11-.07" fill="#edb81e"/><path d="M13.54,2.6a.07.07,0,0,0-.06.06c0,.09.23.06.47,0a.42.42,0,0,1,0-.16c0-.15-.24,0-.24-.16-.07,0-.21,0-.23-.1s-.16,0-.16.1.14.18.22.26" fill="#edb81e"/><path d="M13.21,1.92h.11V1.78h-.24c0,.08.08.1.13.14" fill="#edb81e"/><path d="M14.07,1.78a.65.65,0,0,1-.21-.06h-.1c0,.19.16.21.39.21,0,.06-.08.06-.15.09s0,.07.05.07.08,0,.14-.06,0,.09.1.09.1-.05.2-.05a1.37,1.37,0,0,1,.28.05c-.09,0-.51,0-.51.14s.18.17.3.17a.11.11,0,0,1-.09,0c0,.1.16.13.27.13s.17,0,.17-.16c.06,0,.18.13.24.12V2.47h.12c0-.05,0-.06-.09-.13a.9.9,0,0,1,.09-.1c0,.07,0,.13.11.13s.18-.2.31-.21.13,0,.16,0,0-.05,0-.1-.27-.09-.34-.09-.11.06-.11,0,0-.05,0-.1-.07-.05-.07-.1,0-.12-.09-.12h-.07l0,0v.09h-.08c-.06-.06,0-.15-.12-.19s-.17,0-.27,0-.08-.24-.22-.3a1.68,1.68,0,0,0-.43-.07c0,.09.13.1.21.14h-.12a.38.38,0,0,0-.26.06s.06.11.09.11.12,0,.19,0,0,.07-.07.07-.09-.05-.19-.05-.15,0-.15.07.21.12.3.15,0,.05-.06.05" fill="#edb81e"/><path d="M16.54,7.61s0-.07-.05-.12-.34-.09-.48-.27L16,7.28a1.09,1.09,0,0,1-.1-.19c-.19,0-.23.29-.23.4v.1s0,.06-.06.09-.1,0-.1.14a.69.69,0,0,1,.29,0c0,.07,0,.13,0,.13s0,0,.06,0,.32-.1.32-.25a2.13,2.13,0,0,1,.25.17h.19a.35.35,0,0,0,.22-.08c-.06-.08-.18,0-.29-.13" fill="#edb81e"/><path d="M17.83,6.49c0-.22-.42-.27-.42,0a.16.16,0,0,0,.17.15c.08,0,.25-.06.25-.15" fill="#edb81e"/><path d="M16.3,8s-.09.1-.15.17v.09A.74.74,0,0,0,16.49,8c-.08,0,0,0-.19,0" fill="#edb81e"/><path d="M17,4.73c.11,0,.17-.06.25-.06s.11,0,.2,0,.1,0,.12-.11-.28-.21-.46-.21-.19,0-.34,0a.1.1,0,0,0-.11.1c0,.08.07.11.13.14s.07.15.21.15" fill="#edb81e"/><path d="M16.88,8.39c.07,0,.08-.09.12-.15s-.22-.07-.22,0l.1.1" fill="#edb81e"/><path d="M18.12,6.45S18,6.34,18,6.34s-.08,0-.08.07,0,0,.08,0a.35.35,0,0,0,.14,0" fill="#edb81e"/><path d="M17.17,6c-.08,0-.24.15-.16.15A.17.17,0,0,0,17.17,6" fill="#edb81e"/><path d="M18.63,5.32c0-.11-.15-.13-.23-.13h-.17c-.22,0-.27-.23-.42-.34a1.31,1.31,0,0,0-.5-.1c-.13,0-.16.17-.28.17s-.08-.07-.15-.07-.1.07-.14.07,0-.11,0-.14-.09-.39-.27-.39-.72.09-.72.34c0,.07.06.12.06.19s-.09.13-.13.13-.07-.06-.07-.11a.52.52,0,0,1,0-.13s0,0,0-.06c0-.2.22-.21.29-.36l-.22-.06a.75.75,0,0,0-.55.25s0,.15,0,.19-.14.11-.14.3a.54.54,0,0,0,.1.19,1.69,1.69,0,0,1,.38.06v.09a.85.85,0,0,0-.31,0c0,.1.11.11.15.2h.32a.36.36,0,0,0,.21.14c.3,0,.82,0,1,0,0,0,0,.15,0,.15s.23-.25.32-.25a2.39,2.39,0,0,1,.5.37s-.16,0-.16.09,0,.08.05.08.13-.08.22-.08.58.33.58.51-.15.24-.21.3S18,6.89,18,7s.09.13.13.15a.87.87,0,0,1-.31.09h-.29c-.1,0-.27.12-.27.18s.21.19.29.19.12-.1.2-.1.05,0,.12,0a.17.17,0,0,0,.13-.1c.2.11.31.24.53.34-.11.21.29.21.46.3s.3.06.49.16c0,0,0,.08.07.08a.08.08,0,0,0,.07-.08c0-.19-.38-.33-.5-.48h.1a1.61,1.61,0,0,0,.63.27,1,1,0,0,0,.11-.27c0-.07-.13-.1-.13-.15V7.49h-.11c0-.11-.06,0-.19-.08a.44.44,0,0,1-.15-.26h-.09v-.1a.09.09,0,0,0,.1,0V7c-.06,0-.07,0-.13,0s.09-.08.13-.08c.33,0,.34.46.68.46.08,0,.09-.11.09-.19s.15-.06.15-.08V7c.09,0,.2,0,.2-.11s0-.16-.18-.16a.17.17,0,0,1-.12,0c-.06-.13-.09,0-.24,0s-.14-.12-.15-.24-.33-.08-.34-.24a.36.36,0,0,1-.19,0c.06-.11.12-.11.23-.16a.14.14,0,0,0-.11-.06l-.2,0c0-.08.14-.07.24-.09s-.1-.16-.19-.16H19.1V5.51c-.19,0-.29-.13-.47-.19" fill="#edb81e"/><path d="M17.18,7.88c.07,0,.09,0,.16,0s-.09-.09-.16,0" fill="#edb81e"/><path d="M16.05,7.05s.05.1.14.11-.05-.15-.14-.11" fill="#edb81e"/><path d="M14.81,1H15a.34.34,0,0,0-.18.11.27.27,0,0,0,.12.06c.13,0,.13-.12.27-.12h.13c-.17,0-.34,0-.42.21.06,0,.19,0,.32,0a.38.38,0,0,0-.18.07.63.63,0,0,0,.37.15.3.3,0,0,0,.15-.07h.09c0,.09.13.13.27.13s.08-.06.14-.06.1.05.23.05a.74.74,0,0,0,.51-.16h.1a.61.61,0,0,1-.32.19h-.34s-.05,0-.05.07.22.18.25.21c-.19,0-.25-.17-.42-.23a1.11,1.11,0,0,0-.36,0s-.06,0-.1,0,0,.08.1.08-.17,0-.17.05.46.13.46.34-.2.13-.37.19-.15.1-.2.22v.08h.1l.07,0h.1c0,.17.21.25.3.34h-.12c-.13-.07-.2-.19-.42-.19-.06,0-.17,0-.17.07s.15.14.23.2c-.15.11-.5,0-.5.27a.07.07,0,0,0,.07.06s.06,0,.08-.07a2,2,0,0,0,.64.14c.11,0,.15-.07.21-.07h.51c.13,0,.06.1.22.1s.54-.12.54-.24-.08,0-.1,0H17c0-.23.29-.1.29-.32,0,0,0,0-.05-.1h.34c.11-.08.16-.24.3-.31,0-.1-.11-.12-.19-.17.12,0,.21,0,.19-.12h-.19A1.36,1.36,0,0,1,18.12,2c.11,0,.26.05.35,0s.36-.42.63-.51a2.14,2.14,0,0,0,.78-.33c-.17,0-.44,0-.51,0,.36-.17.69-.05,1-.26,0,0,.17,0,.17-.1s-.36-.08-.45-.17S20,.45,20,.43L19.83.37l-.54.16c.05,0,.07,0,.12-.08-.14-.13-.72-.11-.88-.11h-.19c-.07,0-.1-.05-.21-.05s-.12.12-.21.12-.14-.08-.26-.08a.09.09,0,0,0-.08,0H16.8a.16.16,0,0,0-.16.09c-.09.08,0,0-.13,0s-.28.14-.34.3a1.91,1.91,0,0,0-.46-.15c-.14,0-.05.15-.27.15a.06.06,0,0,1,0,.06h-.15c-.2,0-.64.08-.68.25h.15a.23.23,0,0,1,.1-.05" fill="#edb81e"/><path d="M28.05,5.63c-.14,0-.75,0-.75-.22,0,0,.15,0,.15-.09s-.06-.07-.06-.17.06,0,.1,0c.28,0,.21.34.53.34.07,0,.18,0,.18-.08,0-.39-.43-.5-.68-.74V4.56a.26.26,0,0,0,.09,0,.54.54,0,0,0,.37.31c.08,0,.1-.11.1-.19s-.3-.12-.37-.31h.1a.65.65,0,0,0,.21.16c.05-.14.32,0,.37-.26a.11.11,0,0,1-.07-.1c.13,0,.27-.07.31-.18s-.27,0-.27-.14.1-.09.21-.09,0-.09,0-.15-.1-.14-.1-.29c-.09,0-.22,0-.22-.11s.07-.11.14-.11.47.07.47-.1-.26-.13-.29-.23a.25.25,0,0,0,.12,0,.41.41,0,0,0-.27-.13c-.07,0-.13,0-.2,0s0-.23.11-.29.28-.15.28-.29v-.1c.13,0,.3-.06.3-.17s.05,0,0-.09c.12,0,.31,0,.31-.21-.06,0-.06,0-.15,0,.31,0,.45-.2.68-.28,0,0,.17-.07.17-.15S29.6.78,29.51.78s-.12,0-.14.09h-.32A2,2,0,0,1,28.8,1a.63.63,0,0,1-.16,0h-.45c-.11.09-.45.53-.63.58,0-.07.46-.53.46-.59s-.05-.2-.17-.2-.63.38-.8.38.24-.28.25-.34a12.52,12.52,0,0,1-1.37,0L27.42.73c.18-.07.64,0,.68-.27a3.06,3.06,0,0,1-.59-.07,2.68,2.68,0,0,0-1-.39h-1c-.35,0-.61.19-.94.19a2.43,2.43,0,0,0-.27,0V.27h-.13a1.18,1.18,0,0,0-.42,0,1.21,1.21,0,0,0-.58.13s.09,0,.14.1S23,.44,23,.54s.28.22.39.27h-.31a1.22,1.22,0,0,0-.6-.23c-.07,0-.17,0-.17.08a.38.38,0,0,0,.05.15h-.1C22.15.76,22,.77,22,.65L21.9.71c0,.05,0,.09,0,.14s-.16-.2-.29-.2a2,2,0,0,0-.5.15,4.84,4.84,0,0,0-.63.1c-.22,0,0,.34-.28.34a.26.26,0,0,1-.17-.05,2,2,0,0,1-.67.37s-.14,0-.14.1.39.12.51.14a.4.4,0,0,1-.18.36c-.15.08-.4,0-.58,0s-.2.12-.33.16-.38,0-.38.18.65.29.68.29h.23a.07.07,0,0,0,.07-.06h.27c0,.07,0,.1-.09.15h-.38A.13.13,0,0,1,19,3h-.17c-.06,0-.19,0-.21.13s.09,0,.24,0,.16.08.27.12-.07.07-.13.11a.66.66,0,0,0,.44.16c.05,0,.05,0,.09,0a.18.18,0,0,1-.07-.05.21.21,0,0,1,.13,0c.08,0,.15.06.21.06s.13-.09.21-.09h.21a1.54,1.54,0,0,1,1.42,1.17v.1c.06,0,.17,0,.17.12s-.15.14-.15.29.06.11.18.11S21.9,5,22,5c.23,0,.29.32.5.38,0,0,0,.11-.07.11s-.26-.11-.41-.11-.05,0-.12,0c0,.19.52.23.73.29-.06.19-.16.26-.2.47-.09,0-.09,0-.19,0h0a1.84,1.84,0,0,0-.27.37v.16a.12.12,0,0,1,.14,0c0,.07-.07.1-.07.17s.18.26.22.39,0,.2.07.22.15-.11.25,0-.1,0-.1.13a1.14,1.14,0,0,0,.39.61s0,.11.05.14.17,0,.22.19c.08,0,.19-.09.29-.09s.15.3.32.3.06,0,.14,0a.07.07,0,0,0,.08.06c.18,0,.1-.35.26-.42a2.4,2.4,0,0,1,0-.38c0-.19.32-.12.32-.35,0-.07-.09-.11-.09-.15s0-.06,0-.09,0,0,0-.06c0-.23.36-.17.51-.31s0-.13.13-.17V7h.1c.15-.1.38-.07.51-.21s.11-.23.24-.33l.17-.13s.07-.07.13-.11h.32a7.08,7.08,0,0,1,.7-.17c.2-.06.27-.25.49-.33a.76.76,0,0,0,.29-.13" fill="#edb81e"/><path d="M21.88,5.93H22c.12,0,.26,0,.27-.13-.18-.06-.23-.24-.41-.24a.13.13,0,0,0-.14.14c0,.08.07.23.13.23" fill="#edb81e"/><path d="M28.74,3.66s-.07,0-.07.09,0,.1.09.1a.56.56,0,0,0,.22-.1h-.12V3.66Z" fill="#edb81e"/><path d="M21.6,11.23s0-.06-.05-.06-.15.11-.2.2-.18.46-.37.55A.05.05,0,0,0,21,12v0s-.13.1-.13.13,0,.07.07.07.11,0,.21,0,.12,0,.2,0a.35.35,0,0,0,.14,0c0,.07.12,0,.19,0s-.08,0-.08.1,0,0,0,0,.15-.1.2-.18,0,.18.07.18l.05,0a.08.08,0,0,0,.07.08c.06,0,.1-.08.1-.16s0-.06,0-.15,0,0-.09,0S22,12.06,22,12s.06,0,.07-.11A.11.11,0,0,0,22,12c0-.11,0-.17,0-.23a.33.33,0,0,1-.2,0l-.08,0v0h-.12v-.06l0,0s-.06,0-.1,0-.05,0-.11.05v-.06c0-.12.19-.2.19-.35" fill="#edb81e"/><path d="M59.1,3.85c.07,0,.1-.06.15-.1a.14.14,0,0,0,.12.07c.07,0,.11-.06.15-.06s.08,0,.13,0,.08.06.13.06.11-.06.17-.06h.18c0-.06.09-.13.12-.23a4.68,4.68,0,0,0-.66-.18c-.08,0-.12.08-.12.18-.18,0-.19-.21-.4-.21a.3.3,0,0,0-.31.27.33.33,0,0,0,.34.3" fill="#edb81e"/><path d="M16.51,10.83a.36.36,0,0,0,.2.06h0c0-.1-.11-.12-.23-.12a0,0,0,0,1,0,.05" fill="#edb81e"/><path d="M7.9,11.76a1.28,1.28,0,0,0,.51.25h.06V12a1.51,1.51,0,0,0-.64-.43s-.1-.1-.18-.1a.18.18,0,0,0-.09,0h0l.1,0a.21.21,0,0,1-.07,0c0,.09.21.16.35.16,0,0,0,0-.07.06" fill="#edb81e"/><path d="M6.89,10.84s0-.05,0-.08,0-.11,0-.15,0,.09-.09.09,0-.08,0-.08-.09,0-.15,0v0s0,.12.08.12,0,.08.11.09,0,0,0,.08,0,.13.1.13-.06-.11-.06-.13,0,0,0-.07" fill="#edb81e"/><path d="M2.51,9.65v.08a1.51,1.51,0,0,1,.14.09,1.24,1.24,0,0,1,.26-.19V9.54H2.83a.94.94,0,0,0-.32.11" fill="#edb81e"/><path d="M35.24,14.38c-.11,0-.15,0-.23,0s-.16-.09-.3,0v0s.07,0,.09,0,.2.15.31.17,0,0,.06,0,0,0,0,0,0-.06,0-.11a.24.24,0,0,1,0-.07Z" fill="#edb81e"/><path d="M34.09,13.63s0-.19.06-.27,0,0,0-.08-.06.07-.1.07H34c0,.06.05.25.12.27" fill="#edb81e"/><path d="M34,13.9A.74.74,0,0,1,34,14c0,.05,0,.14.07.14a.23.23,0,0,0,.17-.19.42.42,0,0,0,0-.27s0-.05-.09-.05-.07.07-.14.09.07.09.07.14" fill="#edb81e"/><path d="M33,14.05s0-.06,0-.07l-.11,0s.06.06.09.06,0,0,0,0" fill="#edb81e"/><path d="M34.41,10.22c0-.07,0-.06,0-.14h-.13v.07c0,.07.08.09.16.09v0s0,0,0-.07" fill="#edb81e"/><path d="M34.49,10.28v0l0,0a.16.16,0,0,0,.1,0c.15,0,.09-.24.21-.27s0-.18-.18-.18-.13.18-.13.21.08.09.15.11a.11.11,0,0,1-.1.08" fill="#edb81e"/><path d="M36,9.39a.18.18,0,0,0-.16.17s0,.06,0,.09.1-.1.1-.17,0-.06.06-.09" fill="#edb81e"/><path d="M36.56,9.36s.11,0,.11-.07V9.21a.2.2,0,0,0,.06-.09s0,0-.08-.07-.06,0-.06.07,0,.05,0,.08-.1.05-.15.05,0,.11.07.11" fill="#edb81e"/><path d="M37.34,15a.87.87,0,0,0-.43,0,.63.63,0,0,0,.26.05s.08,0,.17,0" fill="#edb81e"/><path d="M38.63,15.12c.06,0,.19,0,.21-.08s0-.06,0-.06.07,0,.09-.06a1.44,1.44,0,0,0-.4.13,0,0,0,0,0,0,0,0,0,0,0,0,.05,0" fill="#edb81e"/><path d="M42.64,19.77a.15.15,0,0,0,.12-.08.59.59,0,0,0-.2,0s.06,0,.08,0" fill="#edb81e"/><path d="M41.61,5.87a.43.43,0,0,0-.09.15c0,.07,0,.08.12.08A.68.68,0,0,0,41.93,6V5.9c-.1,0-.15-.1-.24-.1s0,.07-.08.07" fill="#edb81e"/><path d="M43.55,5.58c0,.08.15.17.24.17s.09,0,.09,0-.33-.27-.33-.13" fill="#edb81e"/><path d="M46.05,4.49c-.07-.06-.09-.13-.17-.13s-.1.07-.1.14,0,.06,0,.06a.67.67,0,0,0,.27-.07" fill="#edb81e"/><path d="M59.79,4.43H60a.29.29,0,0,0-.32-.27.39.39,0,0,0-.32.2l0,0a1.89,1.89,0,0,1,.41.1" fill="#edb81e"/><path d="M61.13,3.83c.11,0,.31,0,.31-.1a.07.07,0,0,0-.07-.07,6.32,6.32,0,0,1-.8-.13l.07.05c0,.17.32.25.49.25" fill="#edb81e"/><path d="M59.52,4.07c0-.1-.18-.11-.18,0s0,.09.08.09a.11.11,0,0,0,.1-.09" fill="#edb81e"/><path d="M19.92,11.62a1,1,0,0,0,.39.2c.05,0,.07,0,.09,0-.14-.08-.27-.21-.48-.16" fill="#edb81e"/><path d="M20,12.35a.08.08,0,0,0,0,.05s.25.18.29.18.09,0,.09-.08v0h-.21a.19.19,0,0,1-.15-.11" fill="#edb81e"/><path d="M20.76,12.58v-.05c-.15,0-.05,0-.05-.1s0,0-.05-.07a.42.42,0,0,0-.15.23.09.09,0,0,0,.1.08c.08,0,.15-.05.15-.09" fill="#edb81e"/><path d="M.29,8.83s-.07,0-.1.05H.09s.05,0,.08.07H.39c0-.07,0-.12-.1-.12" fill="#edb81e"/><path d="M8.19,18.52s0,.05,0,.05a.53.53,0,0,0,.12,0v-.05a.21.21,0,0,0-.16-.06v.09" fill="#edb81e"/><path d="M8.12,18.26h0a.12.12,0,0,0-.09-.05s0,.06.06.06" fill="#edb81e"/><path d="M7.92,18.18A.11.11,0,0,0,8,18.13H7.89s0,.05,0,.05" fill="#edb81e"/><path d="M7.78,18.06h0s0,0,.06,0,0,0,0,0v0h0Z" fill="#edb81e"/><path d="M7.49,17.9l0,0a.06.06,0,0,0,0,.05h0a.11.11,0,0,1,0-.06l0,0" fill="#edb81e"/></g></g></svg>