<svg xmlns="http://www.w3.org/2000/svg" viewBox="0 0 76.16 76.16"><title>icon-target</title><g id="b92ff230-0735-4192-9722-4c6c9e3323cb" data-name="Layer 2"><g id="a19f0f67-4151-4119-890e-c82821dfedcc" data-name="Layer 8"><path d="M31.62,39.89c.51,0,1.22-.12,1.22-.86s-.83-1-1.3-1a6.6,6.6,0,1,0,6.58,6.58c0-.15.06-1.28-.93-1.27-.78,0-.93.64-.93,1.27a4.74,4.74,0,1,1-4.64-4.73Z" fill="#fff"/><path d="M31.54,76.16A31.53,31.53,0,0,0,57.11,26.21.91.91,0,0,0,55.82,26a.92.92,0,0,0-.22,1.29,29.65,29.65,0,1,1-6.73-6.73A.93.93,0,0,0,50,19.05,31.53,31.53,0,1,0,31.54,76.16Z" fill="#fff"/><path d="M38.6,33.58a.94.94,0,0,0-.38-1.26,14,14,0,1,0,5.62,5.62.93.93,0,1,0-1.64.88,12,12,0,0,1,1.49,5.8A12.17,12.17,0,1,1,31.54,32.47,12,12,0,0,1,37.34,34,.94.94,0,0,0,38.6,33.58Z" fill="#fff"/><path d="M44.89,27.32A.92.92,0,0,0,44.67,26a22.55,22.55,0,0,0-13.13-4.18A22.79,22.79,0,1,0,54.32,44.62a22.56,22.56,0,0,0-4.19-13.13.93.93,0,0,0-1.51,1.07,20.95,20.95,0,1,1-5-5A.92.92,0,0,0,44.89,27.32Z" fill="#fff"/><path d="M30.87,45.29a.91.91,0,0,0,1.31,0L53.34,24.13,66,23.49a.88.88,0,0,0,.61-.27L75.89,14a.93.93,0,0,0,.24-.87.91.91,0,0,0-.6-.67L67.68,9.79l2-2a.93.93,0,1,0-1.32-1.32l-2,2L63.74.63a.91.91,0,0,0-.67-.6.93.93,0,0,0-.87.24L52.94,9.54a.93.93,0,0,0-.27.61L52,22.82,30.87,44A.91.91,0,0,0,30.87,45.29ZM73.51,13.7l-8,8-10.26.51L66.22,11.26Zm-19-3.1,8-7.95L64.9,10,54,20.86Z" fill="#eeb81c"/></g></g></svg>