<svg xmlns="http://www.w3.org/2000/svg" viewBox="0 0 109.21 21.92"><title>instagram</title><g id="afd8133d-0f68-4b94-a974-0ba18564b438" data-name="Layer 2"><g id="b1f9c9b4-12cf-4657-9beb-8b279ad40cc5" data-name="Layer 8"><path d="M42.48,2A6.6,6.6,0,0,0,39,6.47c-.64,2.71,2,3.85,2.21,3.48s-.47-.59-.62-2a5.92,5.92,0,0,1,1.71-4.73c.2-.16.19.07.19.49,0,.76,0,7.59,0,9a12.85,12.85,0,0,1-.22,3.14c-.15.61-.38,1-.2,1.18s1-.24,1.52-.92a5.09,5.09,0,0,0,.83-2.87c0-1.28,0-3.32,0-4.48s0-4.19,0-6.06C44.36,2.26,43.08,1.78,42.48,2Zm66.41,10.13c-.21,0-.3.22-.38.58-.27,1.26-.56,1.55-.93,1.55s-.79-.63-.88-1.88a39.52,39.52,0,0,1,0-4.59c0-.37-.08-.73-1.07-1.09-.43-.16-1-.38-1.36.36A18.63,18.63,0,0,0,103,11.55s-.05,0-.06,0c0-.55-.16-1.54-.18-3.61a1.07,1.07,0,0,0-.53-1c-.29-.19-1.17-.51-1.49-.13a8.41,8.41,0,0,0-.93,2.17c-.26.82-.45,1.37-.45,1.37s0-2.2,0-3a.44.44,0,0,0-.29-.44A6.28,6.28,0,0,0,98,6.57c-.31,0-.38.17-.38.42,0,0,0,2.9,0,4.91v.29c-.17.92-.71,2.17-1.3,2.17s-.87-.52-.87-2.92c0-1.39,0-2,.06-3,0-.58,0-1,0-1.13,0-.31-.54-.47-.79-.52A2.32,2.32,0,0,0,94,6.7a.41.41,0,0,0-.41.39v.34a2.24,2.24,0,0,0-1.14-.92,2.19,2.19,0,0,0-2.54,1,5.81,5.81,0,0,0-1,3A8.46,8.46,0,0,0,89,13.09c-.21.9-.6,1.27-1,1.27-.62,0-1.07-1-1-2.74a15.4,15.4,0,0,1,.51-3.11,1,1,0,0,0-.2-1,1.26,1.26,0,0,0-1.23-.2c-.44.11-1.06.22-1.63.3,0,0,0-.14.06-.38.15-1.27-1.23-1.16-1.67-.76a1.53,1.53,0,0,0-.5,1,1.23,1.23,0,0,0,.55,1.2,12.5,12.5,0,0,1-1.3,3.23,13,13,0,0,1-.81,1.28v-.44c0-2.1,0-3.75,0-4.34s0-1,0-1.12-.13-.31-.41-.42a3,3,0,0,0-.83-.19c-.38,0-.61.18-.6.41v.32a2.24,2.24,0,0,0-1.14-.92,2.21,2.21,0,0,0-2.54,1,6.31,6.31,0,0,0-1,2.94,9,9,0,0,0,0,2.52c-.14.7-.55,1.44-1,1.44s-.93-.52-.93-2.92c0-1.39,0-2,.06-3,0-.58,0-1,0-1.13,0-.31-.55-.47-.8-.52A1.81,1.81,0,0,0,71,6.71a.42.42,0,0,0-.39.37v.35a2.24,2.24,0,0,0-1.14-.92,2.21,2.21,0,0,0-2.54,1,5.58,5.58,0,0,0-1,2.93,11.69,11.69,0,0,0-.08,1.27c-.18,1.13-1,2.44-1.66,2.44-.39,0-.77-.76-.77-2.38,0-2.15.14-5.21.16-5.5l1,0c.42,0,.8,0,1.36,0,.28,0,.55-1,.26-1.15a8.65,8.65,0,0,0-1.43-.11l-1.17-.07s.08-2,.09-2.25-.21-.27-.34-.33a4.74,4.74,0,0,0-1-.27c-.47-.1-.69,0-.73.4-.06.6-.09,2.38-.09,2.38-.35,0-1.54-.07-1.88-.07S59,6.1,59.48,6.11l2,.06s0,3.11,0,4.07v.3A4.72,4.72,0,0,1,60,13.16a2.58,2.58,0,0,0-1.16-2.69L57.08,9.16a4.41,4.41,0,0,0,.81-1.27c.27-.6.28-1.29-.38-1.44a2,2,0,0,0-2.26,1.41,1.61,1.61,0,0,0,.31,1.66.52.52,0,0,0,.1.11c-.25.48-.59,1.12-.87,1.61-.8,1.38-1.4,2.47-1.85,2.47s-.36-1.11-.36-2.14.06-2.23.12-3.62a1,1,0,0,0-.6-1,2.71,2.71,0,0,0-1-.43c-.43,0-1.68.06-2.86,3.47-.15.43-.44,1.22-.44,1.22l0-4.11a.29.29,0,0,0-.17-.25,2.79,2.79,0,0,0-1.2-.33.29.29,0,0,0-.33.32l0,6.41a9.25,9.25,0,0,0,.06,1.31,1.21,1.21,0,0,0,.22.57.64.64,0,0,0,.39.25c.17,0,1.11.16,1.15-.2a12.93,12.93,0,0,1,.56-2.62,10.39,10.39,0,0,1,2.23-4.47c.08-.08.17-.09.17,0,0,.59-.09,2.06-.14,3.31-.13,3.35.48,4,1.35,4,.67,0,1.61-.66,2.62-2.33l1.67-2.81,1,.91a2.18,2.18,0,0,1,.88,2.15c-.13.52-.63,1.06-1.52.54-.26-.15-.37-.27-.63-.44a.46.46,0,0,0-.48,0,1.76,1.76,0,0,0-.63,1c-.1.38.28.59.68.76a4.85,4.85,0,0,0,1.55.31c1.84.06,3.3-.88,4.33-3.33.18,2.11,1,3.31,2.31,3.31.91,0,1.82-1.17,2.21-2.32a4.65,4.65,0,0,0,.5,1.22c1,1.65,3.07,1.29,4.09-.11a2.64,2.64,0,0,0,.36-.59,1.91,1.91,0,0,0,1.83,1.79A2,2,0,0,0,74.69,14a3.9,3.9,0,0,0,.19.35C75.93,16,78,15.66,79,14.26l.12-.18,0,.87-.93.86c-1.57,1.44-2.77,2.53-2.85,3.8a2.15,2.15,0,0,0,2.19,2.3,2.81,2.81,0,0,0,2.52-1.32,7.61,7.61,0,0,0,.78-3.79c0-.61,0-1.38,0-2.22a17.47,17.47,0,0,0,1.75-2.39A18.32,18.32,0,0,0,84.17,8.7s.58,0,1.2,0c.19,0,.25,0,.21.17s-.78,3-.1,4.92a2.37,2.37,0,0,0,2.11,1.71,2.09,2.09,0,0,0,1.78-1.35,2.15,2.15,0,0,0,.14.26c1,1.65,3.06,1.29,4.09-.11a4.4,4.4,0,0,0,.36-.59,2,2,0,0,0,1.89,1.8c.64,0,1.24-.26,1.73-1.42a6.1,6.1,0,0,0,.11,1.06c0,.08.21.18.34.23a2.76,2.76,0,0,0,1.4.07c.15,0,.27-.16.28-.47a19.38,19.38,0,0,1,.27-3.25,9.9,9.9,0,0,1,1-2.75c.11-.18.22-.21.23,0,0,.4,0,1.58.19,3.16a7.44,7.44,0,0,0,.4,2.06,1.14,1.14,0,0,0,1.14.65c.23,0,.7-.07.65-.46a12.93,12.93,0,0,1,.43-3.09,16,16,0,0,1,.89-2.49c.06-.14.09,0,.09,0a22.25,22.25,0,0,0,.2,4.66c.42,1.86,1.65,2.07,2.08,2.07.91,0,1.66-.7,1.91-2.53.06-.44,0-.78-.3-.78ZM70.63,11a6,6,0,0,1-.54,2.37c-.55,1.06-1.63,1.4-2.11-.14a8,8,0,0,1-.08-3.43c.21-1.21.74-2.07,1.57-2S70.74,9,70.63,11Zm8.35,0a6.62,6.62,0,0,1-.54,2.35c-.54,1.07-1.65,1.4-2.11-.14A7.75,7.75,0,0,1,76.24,10c.21-1.12.7-2.15,1.58-2.15S79.1,8.78,79,11.05Zm.22,6.23c0,1.67-.27,3.13-.84,3.55a1,1,0,0,1-1.64-1.06c.19-1.08,1.12-2.18,2.48-3.52C79.2,16.25,79.21,16.56,79.2,17.28Zm14.41-6.22a5.93,5.93,0,0,1-.54,2.34c-.54,1.07-1.64,1.4-2.11-.14a8.69,8.69,0,0,1-.09-3.41c.19-1.19.71-2.09,1.58-2S93.71,9,93.61,11.06Z" fill="#b2b2b2"/><path d="M4.91,9.83a2.46,2.46,0,1,1,2.46,2.46A2.46,2.46,0,0,1,4.91,9.83m-1.33,0A3.79,3.79,0,1,0,7.37,6.05,3.79,3.79,0,0,0,3.58,9.83M10.42,5.9A.88.88,0,1,0,11.3,5a.87.87,0,0,0-.88.88m-6,9.93A4,4,0,0,1,3,15.57,2.27,2.27,0,0,1,2.17,15a2.4,2.4,0,0,1-.55-.84,4.06,4.06,0,0,1-.25-1.37c0-.78,0-1,0-3s0-2.2,0-3a4,4,0,0,1,.25-1.36,2.45,2.45,0,0,1,.55-.85A2.27,2.27,0,0,1,3,4.09a4.26,4.26,0,0,1,1.37-.26c.78,0,1,0,3,0s2.2,0,3,0a4.26,4.26,0,0,1,1.37.26,2.19,2.19,0,0,1,.85.55,2.19,2.19,0,0,1,.55.85,4,4,0,0,1,.25,1.36c0,.78.05,1,.05,3s0,2.2-.05,3a4.06,4.06,0,0,1-.25,1.37,2.16,2.16,0,0,1-.55.84,2.19,2.19,0,0,1-.85.55,4,4,0,0,1-1.37.26c-.77,0-1,0-3,0s-2.2,0-3,0M4.33,2.51a5.63,5.63,0,0,0-1.79.34,3.65,3.65,0,0,0-1.3.85A3.48,3.48,0,0,0,.39,5,5.22,5.22,0,0,0,0,6.79c0,.79,0,1,0,3s0,2.25,0,3a5.34,5.34,0,0,0,.35,1.79A3.52,3.52,0,0,0,1.24,16a3.65,3.65,0,0,0,1.3.85,5.36,5.36,0,0,0,1.79.34c.79,0,1,.05,3,.05s2.25,0,3-.05a5.31,5.31,0,0,0,1.79-.34A3.6,3.6,0,0,0,13.5,16a3.65,3.65,0,0,0,.85-1.3,5.63,5.63,0,0,0,.34-1.79c0-.79,0-1,0-3s0-2.25,0-3A5.5,5.5,0,0,0,14.35,5a3.75,3.75,0,0,0-2.16-2.16,5.31,5.31,0,0,0-1.79-.34c-.78,0-1,0-3,0s-2.25,0-3,0" fill="#b2b2b2"/><rect x="27" width="0.69" height="20.1" fill="#b2b2b2"/></g></g></svg>