<svg xmlns="http://www.w3.org/2000/svg" xmlns:xlink="http://www.w3.org/1999/xlink" viewBox="0 0 176.52 94.08"><defs><clipPath id="d712dd8e-2994-46c5-b6ea-ce9dd7caaab2"><rect x="142.13" y="70.39" width="33.8" height="2.44" fill="none"/></clipPath><linearGradient id="843e51b9-6697-4cca-ae2f-8de47f72f1a9" x1="-881.79" y1="2013.77" x2="-880.79" y2="2013.77" gradientTransform="translate(29944.89 -67989.34) scale(33.8)" gradientUnits="userSpaceOnUse"><stop offset="0" stop-color="#d2ac4e"/><stop offset="0.01" stop-color="#d2ac4e"/><stop offset="0.26" stop-color="#d2c285"/><stop offset="0.69" stop-color="#d3c893"/><stop offset="0.86" stop-color="#cabe88"/><stop offset="0.99" stop-color="#d2b24e"/><stop offset="1" stop-color="#d2b24e"/></linearGradient></defs><title>logo</title><g id="a36478cc-e93c-4cd0-8df5-3293a923fe9b" data-name="Layer 2"><g id="d1028c8f-4a7c-47ff-995f-a74b64f47131" data-name="Layer 1"><path d="M18.87.66V2.41H13.52V33q0,8.79-3.77,13.63a9.68,9.68,0,0,1-7.32,3.66,2,2,0,0,1-1.75-.73A2.84,2.84,0,0,1,0,47.64a2.07,2.07,0,0,1,1.69-2.2q.45-.11,1.77.73a3.4,3.4,0,0,0,2.34.68q1.3-.17,1.86-1.92A18.1,18.1,0,0,0,8,40.32V2.41H2.7V.66Z" fill="#003e7a"/><path d="M37.4,14.28a10.59,10.59,0,0,1,3,7.9,11.1,11.1,0,0,1-3.37,8.23,12.35,12.35,0,0,1-8.83,3.42,9.71,9.71,0,0,1-7.31-3,11.53,11.53,0,0,1-2.85-8.14,11.3,11.3,0,0,1,3.18-8.28A11.57,11.57,0,0,1,29.9,11.2a10,10,0,0,1,7.5,3.08m-7.26,18a4.88,4.88,0,0,0,4.48-2.51,12.63,12.63,0,0,0,1.5-6.52,13.49,13.49,0,0,0-2-7.28Q32,12.76,28.91,12.76q-6.5,0-6.5,8.3A15.71,15.71,0,0,0,24,28.52a6.56,6.56,0,0,0,6.12,3.8" fill="#003e7a"/><path d="M67.14,32.07v1.28H55.56V32.07h2.8q.9,0,1-1.09V19.74A6.09,6.09,0,0,0,58,15.44a4.75,4.75,0,0,0-3.65-1.54,6.6,6.6,0,0,0-4.13,1.47q-1.8,1.52-1.8,2.85V31c.1.73.46,1.09,1.09,1.09h2.75v1.28H40.66V32.07h2.75q.95,0,1.09-1.09V14.57A1.45,1.45,0,0,0,42.89,13H40.66V11.67h7.78V13c0,.38,0,.82,0,1.33v.95a7.24,7.24,0,0,1,2-2.28,8.36,8.36,0,0,1,5.27-1.9q7.64,0,7.64,8.11V31q.14,1.09,1.09,1.09Z" fill="#003e7a"/><path d="M90.05,32v1.33H82.46V29.47q-4.23,4.46-8,4.46a5.55,5.55,0,0,1-4-1.47,5.28,5.28,0,0,1-1.66-4.18,6.2,6.2,0,0,1,2.89-5.6,18.15,18.15,0,0,1,6.12-2l4.65-.81a12.63,12.63,0,0,0-.57-4.94,3.33,3.33,0,0,0-3.27-2.23q-4,0-4.08,2.71a1.86,1.86,0,0,0,.55,1.11,5.34,5.34,0,0,1,.55.69,1.28,1.28,0,0,1-.69,1.19,1.75,1.75,0,0,1-1.35.33q-2.37,0-2.33-2.63t3.27-4a11.76,11.76,0,0,1,4.22-.76q3.75,0,5.6,2.09,1.85,2.28,1.85,7.21V31a1,1,0,0,0,.33.76,1.14,1.14,0,0,0,.76.28Zm-7.59-4.46V21.4A28.78,28.78,0,0,0,75.68,23a4.17,4.17,0,0,0-2,1.76,5.14,5.14,0,0,0-.81,2.8,3.44,3.44,0,0,0,1.07,2.56,3.81,3.81,0,0,0,2.56,1.11,5.49,5.49,0,0,0,3.18-1,10.22,10.22,0,0,0,2.82-2.63" fill="#003e7a"/><path d="M94.35,7.69h2.42v5.84l5.93-.09-.1,2.18H96.77V27.85q0,3.18,2.47,3.18a6.1,6.1,0,0,0,2.7-.85l.33.52A5.23,5.23,0,0,1,97.34,34q-4.56-.09-4.55-5V15.61l-3.56.09V14.42l.9-.24a5,5,0,0,0,3.18-2.06,8.46,8.46,0,0,0,1-4.44" fill="#003e7a"/><path d="M130.36,32v1.33H118.59V32h2.8c.63,0,1-.36,1.09-1.09q0-2,0-10.91a7,7,0,0,0-1.52-4.67,4.67,4.67,0,0,0-3.68-1.78A6.07,6.07,0,0,0,113,15.66q-1.8,1.9-1.8,2.85V30.94c.09.73.46,1.09,1.09,1.09h2.85v1.33H103.31V32h2.8c.6,0,1-.36,1.14-1.09l-.1-28a1.45,1.45,0,0,0-1.61-1.61h-2.28V0h7.88V15.42q2.56-4.7,7.45-4.7,7.93,0,7.78,8.64,0,2.94.1,11.58c.09.73.46,1.09,1.09,1.09Z" fill="#003e7a"/><path d="M151.89,32v1.33H144.3V29.47q-4.22,4.46-8,4.46a5.55,5.55,0,0,1-4-1.47,5.28,5.28,0,0,1-1.66-4.18,6.2,6.2,0,0,1,2.89-5.6,18.16,18.16,0,0,1,6.12-2l4.65-.81a12.62,12.62,0,0,0-.57-4.94,3.33,3.33,0,0,0-3.27-2.23q-4,0-4.08,2.71a1.85,1.85,0,0,0,.54,1.11,5.23,5.23,0,0,1,.55.69,1.28,1.28,0,0,1-.69,1.19,1.75,1.75,0,0,1-1.35.33q-2.37,0-2.33-2.63t3.28-4a11.76,11.76,0,0,1,4.22-.76q3.75,0,5.6,2.09Q148,15.71,148,20.64V31a1,1,0,0,0,.33.76,1.14,1.14,0,0,0,.76.28Zm-7.59-4.46V21.4A28.77,28.77,0,0,0,137.51,23a4.18,4.18,0,0,0-2,1.76,5.15,5.15,0,0,0-.81,2.8,3.44,3.44,0,0,0,1.07,2.56,3.81,3.81,0,0,0,2.56,1.11,5.49,5.49,0,0,0,3.18-1,10.22,10.22,0,0,0,2.82-2.63" fill="#003e7a"/><path d="M176.29,32.07v1.28H164.71V32.07h2.8q.9,0,1-1.09V19.74a6.09,6.09,0,0,0-1.42-4.29,4.76,4.76,0,0,0-3.66-1.54,6.6,6.6,0,0,0-4.13,1.47q-1.8,1.52-1.8,2.85V31q.14,1.09,1.09,1.09h2.75v1.28H149.81V32.07h2.75q.95,0,1.09-1.09V14.57A1.45,1.45,0,0,0,152,13h-2.23V11.67h7.78V13q0,.57,0,1.33v.95a7.24,7.24,0,0,1,2-2.28,8.35,8.35,0,0,1,5.27-1.9q7.64,0,7.64,8.11V31q.14,1.09,1.09,1.09Z" fill="#003e7a"/><path d="M44.68,60.92H46.2l-.62,11.34H19.72V70.78h4.46V41H19.72V39.56H32.87V41H28.41V70.78l7.26-.14a9.41,9.41,0,0,0,3.18-.71,7.85,7.85,0,0,0,2.8-1.61,10.22,10.22,0,0,0,3-7.4" fill="#003e7a"/><path d="M67.74,61.25H52.65a9.38,9.38,0,0,0,2.09,6.5A7.75,7.75,0,0,0,61,70.26q2.18,0,5.65-2.18l.62.47a10.37,10.37,0,0,1-8.35,4.13,10.29,10.29,0,0,1-7.83-3A10.91,10.91,0,0,1,48.43,62a12.62,12.62,0,0,1,2.87-8.28A9.48,9.48,0,0,1,59,50.24a8.22,8.22,0,0,1,6.41,2.68,9.45,9.45,0,0,1,2.42,6.57q0,.52-.09,1.75m-4.08-1.71a11.13,11.13,0,0,0-1.26-5.6,4.09,4.09,0,0,0-3.77-2.18,5.3,5.3,0,0,0-4.22,2,8.54,8.54,0,0,0-1.71,5.65q8.87.24,11,.09" fill="#003e7a"/><path d="M90.27,70.93v1.33H82.68V68.37q-4.23,4.46-8,4.46a5.55,5.55,0,0,1-4-1.47A5.28,5.28,0,0,1,69,67.18a6.2,6.2,0,0,1,2.89-5.6,18.16,18.16,0,0,1,6.12-2l4.65-.81a12.61,12.61,0,0,0-.57-4.94,3.33,3.33,0,0,0-3.27-2.23q-4,0-4.08,2.71a1.86,1.86,0,0,0,.55,1.11,5.26,5.26,0,0,1,.55.69,1.28,1.28,0,0,1-.69,1.19,1.76,1.76,0,0,1-1.35.33q-2.37,0-2.33-2.63t3.27-4A11.79,11.79,0,0,1,79,50.24q3.75,0,5.6,2.09,1.85,2.28,1.85,7.21V69.88a.94.94,0,0,0,.33.76,1.13,1.13,0,0,0,.76.29Zm-7.59-4.46V60.3a28.78,28.78,0,0,0-6.79,1.57,4.17,4.17,0,0,0-2,1.76,5.14,5.14,0,0,0-.81,2.8A3.44,3.44,0,0,0,74.11,69a3.81,3.81,0,0,0,2.56,1.11,5.49,5.49,0,0,0,3.18-1,10.22,10.22,0,0,0,2.82-2.63" fill="#003e7a"/><path d="M93.71,60.2q0,5.13,2.52,7.64a8.27,8.27,0,0,0,6.07,2.51A9.45,9.45,0,0,0,107,69l.48.67a9.62,9.62,0,0,1-7.28,3A10.65,10.65,0,0,1,92.81,70a10.36,10.36,0,0,1-3.13-7.85,11.91,11.91,0,0,1,3.51-8.52,11.42,11.42,0,0,1,8.73-3.37,6.74,6.74,0,0,1,4.27,1.45,3.32,3.32,0,0,1,1.26,2.56,2.59,2.59,0,0,1-.88,2,2.65,2.65,0,0,1-1.71.67,3.49,3.49,0,0,1-1.66-.41q-.76-.4-.62-.92a1.57,1.57,0,0,1,.9-.9c.57-.35.81-.71.71-1.09q-.14-1.61-3.27-1.61a6.9,6.9,0,0,0-4.36,1.85,7.82,7.82,0,0,0-2.85,6.4" fill="#003e7a"/><path d="M135.94,70.93v1.33H124.17V70.93H127c.63,0,1-.36,1.09-1.09q0-2,0-10.91a7,7,0,0,0-1.52-4.67,4.67,4.67,0,0,0-3.68-1.78,6.06,6.06,0,0,0-4.25,2.09q-1.8,1.9-1.8,2.85V69.84c.1.73.46,1.09,1.09,1.09h2.85v1.33H108.89V70.93h2.8c.6,0,1-.36,1.14-1.09l-.1-28a1.45,1.45,0,0,0-1.61-1.61h-2.28V38.9h7.88V54.32q2.56-4.7,7.45-4.7,7.92,0,7.78,8.64,0,2.94.09,11.58c.09.73.46,1.09,1.09,1.09Z" fill="#003e7a"/><path d="M151.71,59.14A4,4,0,0,1,150.52,62a3.09,3.09,0,0,1-1.09.63,3.73,3.73,0,0,1-1.24.28l-2.81.06V51.24h1.8v-.82h-5.53v.82h1.8V63h-1.8v.82H152.3l.26-4.8h-.84Z" fill="#003e7a"/><path d="M163.67,59.14A4,4,0,0,1,162.48,62a3,3,0,0,1-1.09.62,3.71,3.71,0,0,1-1.24.28l-2.81.05V51.24h1.8v-.82h-5.53v.82h1.8V63h-1.8v.82h10.65l.26-4.8h-.84Z" fill="#003e7a"/><path d="M176,61.1l-.09.09a7.94,7.94,0,0,1-2.13,1.59,5.77,5.77,0,0,1-2.59.45,2.93,2.93,0,0,1-2.5-1.69,9.13,9.13,0,0,1-.94-4.4c0-4,1.21-6.11,3.6-6.22a3.08,3.08,0,0,1,2.36.65,3.67,3.67,0,0,1,.87,2.37V54h.79V50.84l-.07,0a11.28,11.28,0,0,0-1.72-.53,12.87,12.87,0,0,0-2.3-.15,5.48,5.48,0,0,0-4.24,1.92A7.27,7.27,0,0,0,165.34,57a7.56,7.56,0,0,0,1.72,5.1,5.44,5.44,0,0,0,4.26,2,7,7,0,0,0,2.86-.53,5.71,5.71,0,0,0,2.21-2l.05-.07Z" fill="#003e7a"/><g clip-path="url(#d712dd8e-2994-46c5-b6ea-ce9dd7caaab2)"><rect x="142.13" y="70.39" width="33.8" height="2.43" fill="url(#843e51b9-6697-4cca-ae2f-8de47f72f1a9)"/></g><polygon points="0 86.91 5.77 86.91 5.77 88.11 3.56 88.11 3.56 93.98 2.2 93.98 2.2 88.11 0 88.11 0 86.91" fill="#5f6a70"/><path d="M16.2,94,15,91.89H13.13V94H11.77V86.91h2.95a3.18,3.18,0,0,1,2.12.64,2.23,2.23,0,0,1,.75,1.8,2.66,2.66,0,0,1-.36,1.41,2.19,2.19,0,0,1-1,.88L17.74,94ZM13.13,90.7h1.59a1.8,1.8,0,0,0,1.17-.33,1.21,1.21,0,0,0,.4-1,1.17,1.17,0,0,0-.4-1,1.84,1.84,0,0,0-1.17-.32H13.13Z" fill="#5f6a70"/><rect x="24.12" y="86.91" width="1.35" height="7.07" fill="#5f6a70"/><path d="M37.49,94l-.63-1.49H33.42L32.79,94h-1.4l3.1-7.07h1.4L38.95,94ZM33.9,91.32h2.48l-1.23-3Z" fill="#5f6a70"/><polygon points="44.86 86.91 46.21 86.91 46.21 92.75 49.26 92.75 49.26 93.98 44.86 93.98 44.86 86.91" fill="#5f6a70"/><path d="M67.13,88.27a2.4,2.4,0,0,0-2.24.07,2.26,2.26,0,0,0-.86.86,2.48,2.48,0,0,0,0,2.41,2.29,2.29,0,0,0,.86.87,2.34,2.34,0,0,0,1.2.32,2.52,2.52,0,0,0,1-.22A2.91,2.91,0,0,0,68,92l.8.89a4.14,4.14,0,0,1-1.29.89,3.64,3.64,0,0,1-1.49.33,3.7,3.7,0,0,1-1.87-.48,3.56,3.56,0,0,1-1.33-1.32,3.6,3.6,0,0,1-.49-1.84,3.51,3.51,0,0,1,.49-1.84,3.55,3.55,0,0,1,1.35-1.3,3.91,3.91,0,0,1,3.38-.17A3.64,3.64,0,0,1,68.8,88l-.79,1a2.66,2.66,0,0,0-.88-.68" fill="#5f6a70"/><path d="M80,87.29a3.62,3.62,0,0,1,1.36,5A3.6,3.6,0,0,1,80,93.59a4,4,0,0,1-3.83,0,3.59,3.59,0,0,1-1.36-1.32,3.58,3.58,0,0,1,1.36-5,4.1,4.1,0,0,1,3.83,0m-3.09,1.05A2.42,2.42,0,0,0,76,91.65a2.45,2.45,0,0,0,.88.88,2.33,2.33,0,0,0,1.2.32,2.29,2.29,0,0,0,1.18-.32,2.39,2.39,0,0,0,.86-.88,2.42,2.42,0,0,0,.32-1.22,2.39,2.39,0,0,0-.32-1.22,2.36,2.36,0,0,0-.86-.87A2.3,2.3,0,0,0,78.06,88a2.38,2.38,0,0,0-1.2.32" fill="#5f6a70"/><polygon points="92.97 86.91 94.29 86.91 94.29 93.98 93 93.98 89.37 89.11 89.37 93.98 88.05 93.98 88.05 86.91 89.33 86.91 92.97 91.79 92.97 86.91" fill="#5f6a70"/><path d="M104.4,88.21a3.38,3.38,0,0,0-1-.18,1.41,1.41,0,0,0-.77.18.57.57,0,0,0-.28.51.67.67,0,0,0,.2.49,1.53,1.53,0,0,0,.49.32,7.64,7.64,0,0,0,.81.28,9,9,0,0,1,1.18.42,2.08,2.08,0,0,1,.78.63,1.72,1.72,0,0,1,.32,1.09,1.86,1.86,0,0,1-.35,1.13,2.19,2.19,0,0,1-1,.73,3.62,3.62,0,0,1-1.4.25,4.41,4.41,0,0,1-1.61-.31,4.57,4.57,0,0,1-1.37-.82l.57-1.15a4.12,4.12,0,0,0,1.2.78,3.19,3.19,0,0,0,1.24.28,1.58,1.58,0,0,0,.89-.22.72.72,0,0,0,.13-1.09,1.47,1.47,0,0,0-.5-.32q-.3-.12-.83-.27a10,10,0,0,1-1.17-.41,2,2,0,0,1-.78-.61,1.68,1.68,0,0,1-.32-1.08,1.8,1.8,0,0,1,.33-1.08,2.09,2.09,0,0,1,.93-.71,3.56,3.56,0,0,1,1.39-.25,4.71,4.71,0,0,1,1.36.2,4.63,4.63,0,0,1,1.2.54l-.54,1.18a5.14,5.14,0,0,0-1.12-.52" fill="#5f6a70"/><path d="M114.16,92.38a1.72,1.72,0,0,0,1.27.48,1.67,1.67,0,0,0,1.26-.48,1.81,1.81,0,0,0,.46-1.31V86.91h1.35v4.16a3.28,3.28,0,0,1-.37,1.6,2.52,2.52,0,0,1-1.07,1,3.46,3.46,0,0,1-1.63.36,3.54,3.54,0,0,1-1.65-.36,2.51,2.51,0,0,1-1.08-1,3.27,3.27,0,0,1-.37-1.6V86.91h1.35v4.16a1.78,1.78,0,0,0,.48,1.31" fill="#5f6a70"/><polygon points="125.15 86.91 126.5 86.91 126.5 92.75 129.55 92.75 129.55 93.98 125.15 93.98 125.15 86.91" fill="#5f6a70"/><polygon points="134.87 86.91 140.64 86.91 140.64 88.11 138.43 88.11 138.43 93.98 137.07 93.98 137.07 88.11 134.87 88.11 134.87 86.91" fill="#5f6a70"/><path d="M151.16,94l-.63-1.49h-3.45L146.45,94H145l3.1-7.07h1.4L152.61,94Zm-3.59-2.66H150l-1.23-3Z" fill="#5f6a70"/><polygon points="163.45 86.91 164.76 86.91 164.76 93.98 163.48 93.98 159.84 89.11 159.84 93.98 158.52 93.98 158.52 86.91 159.8 86.91 163.45 91.79 163.45 86.91" fill="#5f6a70"/><polygon points="170.76 86.91 176.53 86.91 176.53 88.11 174.32 88.11 174.32 93.98 172.96 93.98 172.96 88.11 170.76 88.11 170.76 86.91" fill="#5f6a70"/></g></g></svg>