<svg xmlns="http://www.w3.org/2000/svg" viewBox="0 0 210 91.12"><title>universal-logo</title><g id="fbc66180-9de0-4c27-9861-1fe645cc79ab" data-name="Layer 2"><g id="e5e03379-5cec-4fba-8871-478ad5560997" data-name="Layer 8"><path d="M195.69,30.54l-7.49-1.35A19.51,19.51,0,0,0,173.36,7.87L174.71.38,172.57,0l-1.34,7.49a19.5,19.5,0,0,0-21.32,14.83L142.42,21,142,23.11l7.49,1.35a19.51,19.51,0,0,0,14.83,21.32L163,53.26l2.14.39,1.34-7.49a19.51,19.51,0,0,0,21.32-14.83l7.49,1.34Zm-9.35-1.68L170.12,26,173,9.73A17.62,17.62,0,0,1,186.34,28.86ZM170.9,9.35,168,25.56l-16.22-2.91A17.62,17.62,0,0,1,170.9,9.35ZM151.38,24.79,167.6,27.7l-2.91,16.22A17.63,17.63,0,0,1,151.38,24.79ZM166.83,44.3l2.91-16.22L186,31A17.63,17.63,0,0,1,166.83,44.3Z"/><path d="M153.85,25.23a15.09,15.09,0,0,0,11.28,16.22L167.6,27.7Z" fill="#00aeef"/><path d="M167.27,41.83a15.09,15.09,0,0,0,16.22-11.28l-13.75-2.47Z" fill="#6d6e71"/><path d="M170.45,11.81A15.1,15.1,0,0,0,154.24,23.1L168,25.56Z" fill="#ec008c"/><path d="M183.87,28.42A15.09,15.09,0,0,0,172.59,12.2L170.12,26Z" fill="#fdfa09"/><path d="M38.39,68.25c.35-1.78.74-3.34,1-4.92.16-1.13.77-1.43,1.77-1.42,3.11,0,6.21,0,9.31,0,1.22,0,1.51.51,1.3,1.61-1,5-1.89,10.08-2.92,15.1A2.15,2.15,0,0,1,47.55,80c-6.15,1.72-12.26,2.64-18.44-.18-5.64-2.57-7.72-9-6.95-14.25a19.86,19.86,0,0,1,4.25-10.06c4.23-5.1,9.89-6.83,16.09-7.12,2.86-.13,5.76.58,8.65.92,1.27.15,1.49.84,1.06,2-.5,1.33-.92,2.69-1.36,4-.31,1-.73,1.33-1.89,1-4-1.06-8.06-1.28-12,.55C32.45,59,29.74,66.81,32,71.18c1.36,2.59,6.19,4.34,8.82,3.13.41-.19.63-.83.89-1.3a3.64,3.64,0,0,0,.24-.89c.74-3.24.73-3.24-2.58-3.57A6.94,6.94,0,0,1,38.39,68.25Z"/><path d="M111.06,60.05c2.71-2.09,4.87-3.37,7.68-3.16s5.85,2.22,6.58,4.87c1.7,6.18.54,11.79-4,16.36-3.25,3.26-7.25,4.58-11.86,3.16-.92-.28-1.35,0-1.52,1-.41,2.38-1,4.73-1.35,7.11-.21,1.26-.77,1.82-2.1,1.74-1.73-.09-3.47,0-5.21,0-1,0-1.43-.42-1.19-1.52.82-3.8,1.64-7.6,2.33-11.42,1.18-6.56,2.23-13.13,3.44-19.68a2.3,2.3,0,0,1,1.55-1.35,16.39,16.39,0,0,1,3.14-.07C110.22,57,111.93,56.86,111.06,60.05Zm6.7,7.45a3.6,3.6,0,0,0-2.15-3.72A2.82,2.82,0,0,0,112,65.6a50.83,50.83,0,0,0-2.25,7.16c-.52,2,.76,3.23,2.79,2.62a4.5,4.5,0,0,0,2.52-1.69A11.09,11.09,0,0,0,117.76,67.5Z"/><path d="M127.65,81.17c.74-4,1.41-7.79,2.11-11.53.77-4.08,1.56-8.14,2.33-12.21.59-3.08,1.11-6.18,1.78-9.24A1.89,1.89,0,0,1,135.14,47c2.27-.13,4.56-.06,7.2-.06l-2.13,11.85c2.59-.62,4.46-2.23,7.42-1.9,3,.17,5.51,2.36,5.32,5.34-.25,4.12-.94,8.22-1.51,12.31a54,54,0,0,1-1.1,5.47c-.11.46-.67,1.14-1.05,1.16-2.34.11-4.68,0-7.35,0,.47-2.69.91-5.15,1.33-7.62.4-2.32.94-4.63,1.11-7a3.55,3.55,0,0,0-1.11-2.82c-1.09-.69-2.57.08-3.18,1.13a17.41,17.41,0,0,0-1.89,4.69c-.83,3.42-1.31,6.93-2,10.38-.09.45-.67,1.13-1.05,1.15C132.75,81.22,130.34,81.17,127.65,81.17Z"/><path d="M95,81.06H87.76V77.85l-2.23,2c-4.13,3.65-11.27,2.39-12.31-4.24-1.22-7.77,2.51-15.42,11-17.94a24.6,24.6,0,0,1,12.83.08c1.06.26,1.68.77,1.38,2.11C97.54,63.92,96.67,68,96,72.14,95.49,75,95.32,77.9,95,81.06ZM81.61,71.52c0,1.44,0,3,1.77,3.47s2.58-.79,3.36-2a3.34,3.34,0,0,0,.38-.84c.61-2.25,1.21-4.51,1.77-6.77.14-.57.34-1.51.09-1.68a3.31,3.31,0,0,0-1.88-.29C84.57,63.49,81.6,67.75,81.61,71.52Z"/><path d="M198,82.2c-2.54,0-4.74-1.11-7-1.71-1-.28-1.34-.95-.84-2a13,13,0,0,0,.94-2.78c.32-1.49,1.08-1.43,2.31-1a20.28,20.28,0,0,0,4.86,1c.74,0,1.53-.72,2.29-1.11A9.23,9.23,0,0,0,199,72.65c-1.19-.86-2.6-1.41-3.76-2.3a6.76,6.76,0,0,1,.3-11c4.18-3,8.75-3,13.47-1.7.18,0,.43.07.51.19,1.24,1.89-.51,3.35-.81,5-.06.32-1.13.69-1.71.66-1.34-.07-2.67-.53-4-.51-.66,0-1.32.7-2,1.08a7.52,7.52,0,0,0,1.33,1.78,25.66,25.66,0,0,0,3.05,1.67c6.12,3.29,4.33,10.38-.61,12.75A16.8,16.8,0,0,1,198,82.2Z"/><path d="M187.09,74.54c0,1.12,0,1.92,0,2.72.06,4.23-.06,3.58-3.3,4.24-5.83,1.2-11.48-.49-13.44-6.14-2.05-5.89,1.37-14.15,8-17A20.21,20.21,0,0,1,188.17,57a12.47,12.47,0,0,1,2.38.73,54.52,54.52,0,0,1-1.77,5.16c-.18.42-1.2.7-1.81.66-2.24-.13-4.34.14-6,1.75a7.51,7.51,0,0,0-1.81,2.47c-.82,2.07-1.26,4.28.5,6.1s3.86,1.53,6,.78A6.84,6.84,0,0,1,187.09,74.54Z"/><path d="M53.59,81.18c.74-4,1.5-7.66,2.1-11.36.52-3.17.93-6.36,1.25-9.56.26-2.55.37-2.75,2.85-2.75,1.3,0,2.6,0,3.91,0a3.41,3.41,0,0,1,.61.21c0,.54.06,1.08.07,1.62s0,1.07,0,2c2.57-2.55,4.77-5.12,9.07-4.21-.59,2.5-1.15,5-1.79,7.44-.06.22-.59.43-.91.44-5,.14-6.26,3.52-7.07,7-.6,2.53-1,5.09-1.48,7.65-.19,1.1-.64,1.6-1.84,1.55C58.15,81.12,55.93,81.18,53.59,81.18Z"/><path d="M168.07,57.65c-.38,2.09-.69,3.91-1,5.71-1.06,5.52-2.11,11-3.24,16.53-.1.49-.75,1.21-1.17,1.23-2.28.12-4.56.06-7.29.06,1.5-8,2.95-15.69,4.42-23.53Z"/><path d="M20.88,17.54c-.34,2.14-.56,4-.94,5.89-.8,4-1.52,8-2.56,11.94-1.37,5.14-5.16,8.31-10.46,8.1C3,43.31-.12,40.62,0,36.72A93,93,0,0,1,1.49,25.89c.3-2,.78-3.88,1-5.84.33-2.56.57-2.8,3.6-2.34-.41,2.45-.83,4.91-1.23,7.37-.57,3.48-1.2,7-1.68,10.45a4.09,4.09,0,0,0,2.21,4.54A5.69,5.69,0,0,0,11.9,39c2.34-2.34,2.76-5.43,3.32-8.47C16,26.55,16.7,22.62,17.5,18.7,17.89,16.8,19.35,17.59,20.88,17.54Z"/><path d="M124.91,42.8h-2.2V39.7l-.41-.23a25.12,25.12,0,0,1-2.17,2.32c-1.93,1.6-4.1,2.35-6.51,1.13s-3.15-3.24-3.13-5.8a13,13,0,0,1,16.18-12.61c1,.25,1.5.62,1.28,1.77C126.92,31.72,125.94,37.18,124.91,42.8Zm-11-6c.08,1.32.1,3,1.94,3.74s3.09-.26,4.26-1.38c3-2.84,3.41-6.7,4.13-10.45.27-1.41-.16-1.9-1.59-1.91C118.1,26.72,114,31.18,113.91,36.75Z"/><path d="M27.77,27.08c1-.69,2-1.46,3-2a5.5,5.5,0,0,1,5.84-.17,5,5,0,0,1,2.14,5.36c-.62,3.92-1.26,7.83-2.18,11.68-.15.63-1.76.9-2.7,1.34l-.54-.52c.35-2.09.69-4.18,1.06-6.27.34-1.89.75-3.77,1-5.67a3.23,3.23,0,0,0-1.6-3.64c-1.42-.83-2.58,0-3.6.65a8.67,8.67,0,0,0-3.61,5.82c-.47,2.67-1,5.33-1.61,8-.32,1.46-.88,1.6-3.26.94.32-2.15.61-4.34,1-6.51.55-3,1.21-6,1.79-9.06.22-1.18,0-2.59,2-2.42S27.09,26.27,27.77,27.08Z"/><path d="M67.59,36c-.28-5.61,3.72-10.36,7.49-11.5,3-.92,6.16,0,7.27,2.41,1.42,3.06-.36,6.3-4.16,7.21a32.16,32.16,0,0,1-5.88.73c-1.25.07-1.6.55-1.54,1.71.18,3.86,3.43,4.64,6,4.08a9.8,9.8,0,0,1,1.78-.48,6.74,6.74,0,0,1,1.7.43c-.28.61-.4,1.56-.86,1.76-2.79,1.25-5.72,1.78-8.56.25A6.23,6.23,0,0,1,67.59,36ZM71,32.14c2.58,1.58,7.38-.17,8.45-2.09a2.16,2.16,0,0,0-1.56-3.15,5.36,5.36,0,0,0-2.8.4C73.19,28.15,72.05,29.86,71,32.14Z"/><path d="M56.92,38.66c2.3-4.39,4.37-8.41,6.5-12.39,1-1.94,1.87-2.15,4.12-1.22Q62.84,33.51,58.16,42c-.7,1.26-1.91,1.1-2.93.83-.44-.11-.85-1-1-1.65-.82-4.24-1.58-8.49-2.34-12.74-.2-1.15-.31-2.32-.45-3.43,2.67-.85,3.2-.47,3.51,2.11.4,3.38.88,6.76,1.35,10.13A6.88,6.88,0,0,0,56.92,38.66Z"/><path d="M108.41,25.44c-.31,1.77-1,2.24-2.6,1.45a2.8,2.8,0,0,0-2.18,0,4.43,4.43,0,0,0-2.22,1.93c-.24.68.38,1.79.86,2.56a4.67,4.67,0,0,0,1.62,1.2c2.78,1.73,3.76,3.66,3.15,6.25a6.43,6.43,0,0,1-5.74,4.54,20,20,0,0,1-4.18-.52c-1.1-.18-1.57-1-1-1.86.28-.45,1.26-.64,1.92-.64.83,0,1.66.45,2.5.48a3,3,0,0,0,1.78-5.58c-.74-.54-1.57-1-2.26-1.59C98.12,32,97.3,30,98.6,27.5,100.31,24.2,105.82,23,108.41,25.44Z"/><path d="M130.27,42.55c.44-2.64.84-5.3,1.34-8,1-5.37,2.13-10.73,3.1-16.12.47-2.59.53-2.72,3.48-2.24-.1.93-.14,1.9-.32,2.83-1.35,7.21-2.74,14.41-4.1,21.61C133.3,43.13,133,43.32,130.27,42.55Z"/><path d="M84.33,42.82C84.92,39.74,85.5,37,86,34.2c.46-2.61.81-5.25,1.23-7.87.25-1.6,1.19-2.34,2.36-1.61.55.35.6,1.48.86,2.2a29.19,29.19,0,0,1,3.32-2.33A5.8,5.8,0,0,1,96,24.43a16,16,0,0,1-.11,2.3,1,1,0,0,1-.75.64c-3.91.42-5,3.47-5.82,6.52-.71,2.54-1,5.19-1.57,7.78C87.34,43.75,85.84,42.7,84.33,42.82Z"/><path d="M41.89,42.52c.63-3.56,1.24-7.14,1.91-10.72.31-1.64.77-3.24,1.06-4.88.45-2.47.83-2.73,3.55-2-.26,1.17-.56,2.35-.78,3.54-.75,4.07-1.45,8.15-2.21,12.22C45,43.14,44.47,43.39,41.89,42.52Z"/><path d="M49.77,18.79c-.11,1.87-.7,2.71-2.06,2.73a1.65,1.65,0,0,1-1.8-1.87c0-1.25.66-2.28,2-2.1C48.65,17.65,49.32,18.48,49.77,18.79Z"/></g></g></svg>