<svg xmlns="http://www.w3.org/2000/svg" viewBox="0 0 162.41 110.23"><title>Asset 2</title><g id="9d7c1358-4b19-4cdc-a069-bb48881e661d" data-name="Layer 2"><g id="e4c77a08-c5fb-4f3e-86f5-62ab3cd98686" data-name="Layer 1"><path d="M46.29,39.61a1.05,1.05,0,0,1,.41,0H49c.41,0,.4,0,.42-.43s0-.68-.44-.83a.93.93,0,0,1-.48-.59l-2.24-5.65a.46.46,0,0,1,0-.12c0-.14,0-.27,0-.41a34.67,34.67,0,0,0-.65-3.8,21.86,21.86,0,0,0-3.15-7.4,3.71,3.71,0,0,1,0-.85c0-.19-.07-.26-.26-.25a1.65,1.65,0,0,1-.56,0,13.81,13.81,0,0,0-2.19-2.11,1.34,1.34,0,0,1-.18-.16.25.25,0,0,1,0-.23c0-.11.12-.09.2-.08a2.9,2.9,0,0,0,1.81-.57,10.89,10.89,0,0,0,1-.75A17.19,17.19,0,0,1,45.64,13a15.78,15.78,0,0,1,9.42-1.12,14.16,14.16,0,0,1,3.26,1,14.57,14.57,0,0,0,2,.76q3.5.91,7,2a2.22,2.22,0,0,0,.48.11c.74.06,1.47.16,2.21.21a7.49,7.49,0,0,0,2,0,14,14,0,0,0,3.23-.76,8.76,8.76,0,0,0,2.51-1.28c.17-.15.34-.39.56-.38s.38.25.56.39c0,0,0,0,.07,0a3.38,3.38,0,0,0,.35-.28c.17-.18.3-.15.49,0a4.67,4.67,0,0,0,1.05.79A13.83,13.83,0,0,0,85,15.83a9.59,9.59,0,0,0,1.88.19l2.66-.25a5,5,0,0,0,1-.18c1.63-.5,3.24-1,4.89-1.43a26.62,26.62,0,0,0,4.32-1.44,9.2,9.2,0,0,1,1.58-.58,17.8,17.8,0,0,1,5.31-.48,15.49,15.49,0,0,1,4,.81,15.79,15.79,0,0,1,4.83,2.85,9.53,9.53,0,0,0,1.08.82,3,3,0,0,0,1.7.52c.07,0,.14,0,.18,0a.21.21,0,0,1,0,.23,1.9,1.9,0,0,1-.25.22,12.46,12.46,0,0,0-1.66,1.54,17.9,17.9,0,0,0-3.51,5.91,26.44,26.44,0,0,0-1.64,7.81,52.05,52.05,0,0,0,0,7.24,28.14,28.14,0,0,0,1,5.57c0,.13.12.25.06.39s-.14-.07-.2-.12a11.26,11.26,0,0,0-5.07-2.85,15.45,15.45,0,0,0-5.23-.42,12.19,12.19,0,0,0-4.74,1.27,9.89,9.89,0,0,0-5.74,8.09,9.63,9.63,0,0,0,1.15,5.89,10.88,10.88,0,0,0,6.59,5.12,14.8,14.8,0,0,0,6.77.34,11.5,11.5,0,0,0,6.91-3.83c.1-.11.16-.26.31-.32a8.85,8.85,0,0,1,.27,3.43A14.84,14.84,0,0,1,112.1,67a30.61,30.61,0,0,1-3.59,5.9,33.61,33.61,0,0,1-5.92,6.22,19.75,19.75,0,0,1-6.28,3.46,8.31,8.31,0,0,1-2.74.53,26,26,0,0,0-4.92.34,23.32,23.32,0,0,0-6.24,1.9,17.29,17.29,0,0,0-3.13,1.89.66.66,0,0,1-.83.07l-.24-.15a19.72,19.72,0,0,0-6.27-3,26.17,26.17,0,0,0-7.73-1A5.69,5.69,0,0,1,62.94,83a16.38,16.38,0,0,1-3.62-1.21,22.91,22.91,0,0,1-6-4.12,37.89,37.89,0,0,1-6-7.23,21.61,21.61,0,0,1-2.77-5.91,10.75,10.75,0,0,1-.09-6.09.65.65,0,0,0-.05-.51,3.44,3.44,0,0,1-.33-1.84,1.76,1.76,0,0,0,0-.37,5.59,5.59,0,0,1,.29-2.39,6,6,0,0,1,2.74-3.52.68.68,0,0,1,.07.14,4.79,4.79,0,0,0,2.5,3.12,10.4,10.4,0,0,0,2.86,1,27.56,27.56,0,0,0,4.66.49,18.52,18.52,0,0,1,2.5.26,5.44,5.44,0,0,1,1.89.65,1.26,1.26,0,0,1,.25,2,2.85,2.85,0,0,1-.92.61,6.28,6.28,0,0,1-2.12.49,17,17,0,0,1-5.23-.41,10.83,10.83,0,0,1-3-1.15,2.51,2.51,0,0,1-.81-.69.6.6,0,0,1-.11-.58c0-.11.19-.2.13-.32s-.23-.14-.34-.21-.32-.16-.48-.24-.18,0-.23.07-.07.15-.11.22L46,61.17c-.2.43-.16.35.2.52h0a1.47,1.47,0,0,0,.53.21c.21,0,.3-.26.43-.41a.46.46,0,0,1,.58-.12c.48.17,1,.34,1.44.49A27.18,27.18,0,0,0,55.77,63a21.08,21.08,0,0,0,5.66-.31,10.5,10.5,0,0,0,4.42-2,5.84,5.84,0,0,0,2.35-5.17,5,5,0,0,0-2.84-4.41,9,9,0,0,0-1.57-.62,20.32,20.32,0,0,0-4.62-.73,38,38,0,0,1-4.1-.33,5.53,5.53,0,0,1-1.81-.53A.67.67,0,0,1,53,47.73a2.09,2.09,0,0,1,.73-.53,6.15,6.15,0,0,1,2.09-.57,16.25,16.25,0,0,1,5.72.41,7.32,7.32,0,0,1,2.18.84c.4.25.44.38.35.85s-.07.35.24.5l.37.18c.28.13.29.13.42-.16l1.92-4.19c.16-.36.32-.73.5-1.08.1-.2.06-.3-.15-.37a5.26,5.26,0,0,1-.56-.25.18.18,0,0,0-.27.08c-.22.44-.57.44-1,.33l-2.46-.66a20.88,20.88,0,0,0-8.51-.76,12.14,12.14,0,0,0-3.89,1.14,8.48,8.48,0,0,0-1.68,1.11,5.51,5.51,0,0,0-1.91,3.28,6.33,6.33,0,0,0-1.55,1,17.88,17.88,0,0,1-2.68,2c-.12.08-.22.21-.38.23a.48.48,0,0,1,.05-.64,10.33,10.33,0,0,0,.94-1.35,21.83,21.83,0,0,0,2.75-9.52M71.68,20.33l-.47-.2c-.41-.17-.42-.17-.71.15a.74.74,0,0,1-.88.24c-.65-.22-1.31-.39-2-.59a20.44,20.44,0,0,0-9.55-.77,12.28,12.28,0,0,0-4.95,1.91,9.66,9.66,0,0,0-3.93,5,10.68,10.68,0,0,0-.47,4.39,9.2,9.2,0,0,0,1.77,4.8A11,11,0,0,0,55.89,39a17.33,17.33,0,0,0,4.93.85,20,20,0,0,0,6.35-.75A36.37,36.37,0,0,0,73,36.8c.58-.28.57-.28.57-.91,0-.21,0-.34-.27-.37a1,1,0,0,1-.2-.05c-.41-.14-.5-.24-.51-.68q0-2.24,0-4.49c0-.45.09-.54.5-.69s.47-.16.47-.67.09-.56-.54-.56H62.85l-.45,0a.5.5,0,0,1-.47-.38c-.06-.18,0-.42-.21-.52s-.4,0-.61,0h-.16c-.16,0-.23.06-.22.22s0,.17,0,.25v5c0,.55,0,.55.53.55s.49,0,.64-.45.22-.47.58-.47h3.71c.17,0,.24,0,.24.23s0,.63,0,.95a.35.35,0,0,1-.26.39,11.16,11.16,0,0,1-7.14.54,4.89,4.89,0,0,1-4-4.3A5.14,5.14,0,0,1,57.39,25a7.11,7.11,0,0,1,3.41-1.1,11.69,11.69,0,0,1,5.18.69,4.41,4.41,0,0,1,1.13.59c.45.35.49.56.2,1,0,0,0,0,0,.08a4.07,4.07,0,0,0,.68.27c.36.14.36.14.53-.19l3.06-5.74a.52.52,0,0,0,.11-.33m37,17.45-.25-.42L105,31.78c-.43-.7-.43-.7-1.11-.23a.25.25,0,0,0-.12.31c0,.08,0,.16.05.24.08.39,0,.47-.3.67a10.12,10.12,0,0,1-2.61,1.09,12.94,12.94,0,0,1-4.67.22,7.09,7.09,0,0,1-2.61-.84A4.49,4.49,0,0,1,92,27.05a5.19,5.19,0,0,1,2.83-2.2,10.13,10.13,0,0,1,4.06-.48,10.45,10.45,0,0,1,3.63.83,3.62,3.62,0,0,1,1,.56c.25.22.4.46.21.79-.1.17,0,.24.13.3a6.32,6.32,0,0,1,.6.26c.15.07.23,0,.29-.11s.07-.15.11-.22l2.92-5.9c.27-.54.27-.54-.3-.77-.37-.15-.38-.15-.65.15a.76.76,0,0,1-.91.26c-.82-.27-1.65-.5-2.48-.74a20,20,0,0,0-9-.62,12.26,12.26,0,0,0-4.95,1.92,9.65,9.65,0,0,0-3.92,5,10.77,10.77,0,0,0-.41,4.84,9,9,0,0,0,1.68,4.28A10.75,10.75,0,0,0,92.13,39a18.91,18.91,0,0,0,9,.61A18.47,18.47,0,0,0,106.4,38c.46-.22.86-.35,1.22.14a.19.19,0,0,0,.25.07,7.38,7.38,0,0,0,.84-.41M82.92,54.65V48.52c0-.11,0-.22,0-.33S83,48,83.13,48h5.52a.54.54,0,0,1,.57.44c0,.16,0,.36.15.45s.35,0,.52,0h.29c.18,0,.24-.08.23-.24s0-.19,0-.29q0-3,0-6c0-.26.12-.59-.06-.75s-.52,0-.8-.06-.23.08-.27.23c-.21.73-.21.73-1,.73H70.91a.48.48,0,0,1-.49-.36c-.07-.19,0-.47-.22-.55a1.74,1.74,0,0,0-.65,0h-.16c-.14,0-.2.07-.19.2s0,.14,0,.21q0,3.09,0,6.18c0,.24-.11.55.06.71s.48,0,.72.05.28-.08.34-.26c.2-.65.24-.68.92-.69h5c.52,0,.47,0,.47.46q0,6.1,0,12.19c0,.15,0,.3,0,.45a.53.53,0,0,1-.39.55c-.17.06-.39,0-.49.18s0,.38,0,.56,0,.11,0,.17c0,.3,0,.3.29.31h7c.23,0,.52.1.68,0s0-.47.07-.71-.06-.34-.3-.4c-.6-.15-.63-.19-.64-.81,0-.11,0-.22,0-.33ZM64.15,71.88l.39-.14a2.12,2.12,0,0,0,1.28-1.41,2.27,2.27,0,0,0-.92-2.46A3.59,3.59,0,0,0,63,67.21c-1.23-.09-2.47,0-3.7,0-.24,0-.55-.11-.71.07s0,.47-.05.72c0,0,0,0,0,0s0,.23.2.23H59c.44.06.56.18.59.64,0,.14,0,.27,0,.41v4.24c0,.14,0,.27,0,.41,0,.44-.15.56-.57.62-.15,0-.34-.06-.43.06s0,.32,0,.48,0,.11,0,.16c0,.36,0,.36.35.36h3.21c.64,0,.64,0,.64-.66,0-.38,0-.38-.4-.4s-.61-.12-.67-.59a13.61,13.61,0,0,1,0-1.6c0-.27,0-.29.31-.28s.22.14.27.26c.48,1,1,2,1.43,3a.4.4,0,0,0,.43.27c.69,0,1.37,0,2.06,0s.59,0,.59-.58,0-.46-.44-.49a1.18,1.18,0,0,1-1.08-.62c-.34-.67-.69-1.34-1.06-2M82,72c-.07-.13-.12-.22-.16-.32-.61-1.41-1.22-2.82-1.82-4.24a.41.41,0,0,0-.46-.3c-.82,0-1.65,0-2.47,0s-.8,0-.77.82c0,.18.07.23.24.23.69,0,.89,0,.89,1,0,1.47,0,2.94,0,4.41a2.55,2.55,0,0,1,0,.41c-.06.37-.16.46-.53.52-.18,0-.45-.07-.54.08s0,.4,0,.6c0,0,0,.06,0,.08,0,.29,0,.3.3.3h3.21c.2,0,.31,0,.29-.27a4,4,0,0,1,0-.58c0-.19-.08-.23-.24-.22a3,3,0,0,1-.62,0,.55.55,0,0,1-.51-.5,4.51,4.51,0,0,1,0-.66q0-2,0-4c0-.08,0-.18,0-.25a.46.46,0,0,1,.14.22l1.63,3.73,1,2.3c.05.12.09.25.28.25.44,0,.88,0,1.32,0,.14,0,.2-.06.19-.2s0-.19,0-.29q0-2.8,0-5.6c0-.23,0-.47,0-.7,0-.4.13-.48.52-.57.18,0,.43.06.54-.1s0-.4,0-.6c0-.39,0-.39-.37-.39h-2.6c-.6,0-.52-.06-.52.53,0,.16-.07.35,0,.48s.29,0,.43,0c.43,0,.55.16.61.58a1.33,1.33,0,0,1,0,.16q0,1.44,0,2.88A.86.86,0,0,1,82,72m24.5,1.1a3.11,3.11,0,0,0-.7-.26c-.32-.12-.34-.11-.51.18a3.11,3.11,0,0,1-3.11,1.51c-.13,0-.21,0-.21-.18,0-.77,0-1.54,0-2.31,0-.08,0-.16.11-.19a.75.75,0,0,1,.94.66c0,.17-.06.4.07.51s.37,0,.56,0h.17c.28,0,.28,0,.28-.3,0-.8,0-1.59,0-2.39,0-.25.12-.59-.07-.74s-.5,0-.76,0-.25,0-.25.23a1.94,1.94,0,0,1-.07.49.45.45,0,0,1-.42.38l-.37,0c-.13,0-.2,0-.2-.19q0-1,0-2.06c0-.14.06-.19.2-.19a2.89,2.89,0,0,1,2.6,1c.14.18.19.5.42.51a1.62,1.62,0,0,0,.64-.25c.11,0,.24-.06.31-.19-.33-.63-.68-1.25-1-1.89a.54.54,0,0,0-.58-.33h-5c-.23,0-.51-.1-.67.07s0,.42,0,.64,0,.34.32.36c.58,0,.7.17.72.77,0,.08,0,.16,0,.25v4.28c0,.14,0,.28,0,.41,0,.43-.15.55-.57.61-.15,0-.33-.06-.43.06s0,.32,0,.48,0,.17,0,.25.06.28.28.28h5.89a.33.33,0,0,0,.35-.21c.36-.77.74-1.53,1.11-2.3M55,67.49l-.27-.16a2.36,2.36,0,0,0-1.9-.23,3.52,3.52,0,0,0-1.66,1,4.67,4.67,0,0,0-1.22,3.27,4.38,4.38,0,0,0,1,2.94,3.47,3.47,0,0,0,3.49,1.37,4.58,4.58,0,0,0,1.08-.38,5.43,5.43,0,0,1,.76-.29c.19-.06.46,0,.57-.16s0-.43,0-.64c0-.6,0-1.21,0-1.81,0-.34.11-.44.39-.49s.3,0,.39-.07,0-.29,0-.44,0-.25,0-.37c0-.31,0-.31-.33-.31h-2.8a2.19,2.19,0,0,0-.85.05c0,.29,0,.57,0,.86,0,0,0,0,0,0s0,.23.21.22a1.51,1.51,0,0,1,.33,0c.29,0,.43.15.46.44a5.7,5.7,0,0,1,0,1.72.61.61,0,0,1-.58.5A1.21,1.21,0,0,1,53,74.11a2.61,2.61,0,0,1-.5-1,6.92,6.92,0,0,1-.07-3.46,2.63,2.63,0,0,1,.41-.94,1.06,1.06,0,0,1,1.54-.33,2.84,2.84,0,0,1,.79.72,7.15,7.15,0,0,1,.43.61c.08.13.16.16.3.09l.63-.29c.29-.13.29-.13.18-.42l-.53-1.43c-.2-.53-.2-.52-.78-.53-.23,0-.38,0-.39.34m18.78,8.12c.61,0,1.21,0,1.81,0,.22,0,.29-.07.28-.28a5.54,5.54,0,0,1,0-.58c0-.13,0-.21-.18-.2a.89.89,0,0,1-1-.74l-.5-1.53c-.52-1.6-1-3.21-1.56-4.81-.07-.23-.16-.34-.43-.32s-.77,0-1.15,0-.42,0-.57.4c-.62,1.77-1.23,3.55-1.84,5.33-.12.36-.26.72-.4,1.08a.88.88,0,0,1-.79.57c-.13,0-.3-.05-.39.06s0,.29,0,.44a.56.56,0,0,0,0,.08c0,.55-.06.49.47.49h2.35c.87,0,.87,0,.8-.87,0-.15-.06-.19-.2-.19a2.45,2.45,0,0,1-.45,0c-.29,0-.37-.16-.29-.46s.19-.57.25-.87.15-.23.32-.23c.6,0,1.21,0,1.81,0,.19,0,.26.07.3.25s.12.42.17.63c.1.42,0,.63-.46.68-.15,0-.33-.07-.43.05s0,.32,0,.48,0,.17,0,.25.07.28.28.28h1.81m5.52-56.35H76.08c-.87,0-.87,0-.8.87a.23.23,0,0,0,.18.23c.75.28.75.28.75,1.07V37.36c0,.17,0,.33,0,.49a.48.48,0,0,1-.39.51c-.17.05-.39,0-.49.17s0,.37,0,.56,0,.19,0,.29.06.2.2.19H83.1c.17,0,.25-.06.24-.24a5.54,5.54,0,0,1,0-.58c0-.2-.08-.28-.27-.33-.69-.2-.7-.22-.7-.94V21.35c0-.11,0-.22,0-.33a.53.53,0,0,1,.43-.57c.18-.05.43,0,.51-.21a1.59,1.59,0,0,0,0-.57s0-.05,0-.08c0-.33,0-.34-.35-.34H79.29m13.8,49v1.26c0,1.4,0,2.8,0,4.2,0,.62-.15.78-.71.83-.22,0-.5-.09-.63.07s0,.45,0,.68,0,.31.32.31H95.9c.64,0,.64,0,.63-.62,0-.42,0-.42-.44-.43-.78,0-.94-.17-.94-1,0-1.12,0-2.25,0-3.38,0-.56,0-1.12,0-1.69,0-.32,0-.32.33-.26a2.31,2.31,0,0,1,1.33.84,7.44,7.44,0,0,1,.62.9c.27-.13.52-.27.78-.38s.17-.16.09-.31c-.33-.63-.67-1.26-1-1.9a.41.41,0,0,0-.45-.26H91.35c-.15,0-.3,0-.39.16q-.52,1-1,2c-.07.13,0,.2.09.26s.42.2.62.31.22,0,.29-.09a4.09,4.09,0,0,1,.74-1,2.09,2.09,0,0,1,1.42-.62m-3.78,6.33a.73.73,0,0,0-.32,0c-.51,0-.65-.17-.68-.68,0-.07,0-.14,0-.21q0-2.22,0-4.45a3.59,3.59,0,0,1,0-.45c0-.35.14-.43.48-.52.17,0,.4,0,.5-.1s0-.37,0-.56,0-.08,0-.12c0-.31,0-.31-.33-.31H85.93c-.23,0-.52-.1-.68,0s-.06.47-.06.71,0,.28.29.3c.62.05.74.17.76.78,0,.07,0,.14,0,.21q0,2.2,0,4.4a2.52,2.52,0,0,1,0,.37c-.06.42-.17.51-.57.57-.15,0-.33-.06-.43.06s0,.32,0,.48,0,.14,0,.21c0,.31,0,.32.32.32h3c.28,0,.65.13.82-.07s0-.58.05-.88a.2.2,0,0,0,0-.08" fill="#fd0101"/><path d="M112.39,45.62c.06-.14,0-.27-.06-.39a28.14,28.14,0,0,1-1-5.57,52.05,52.05,0,0,1,0-7.24,26.43,26.43,0,0,1,1.64-7.81,17.89,17.89,0,0,1,3.51-5.91,12.59,12.59,0,0,1,1.66-1.54,1.75,1.75,0,0,0,.25-.22.21.21,0,0,0,0-.23c0-.08-.12,0-.18,0a3,3,0,0,1-1.7-.52,9.76,9.76,0,0,1-1.08-.82,15.77,15.77,0,0,0-4.83-2.85,15.45,15.45,0,0,0-4-.81,17.74,17.74,0,0,0-5.31.48,9.13,9.13,0,0,0-1.58.58,26.53,26.53,0,0,1-4.32,1.44c-1.65.4-3.27.94-4.89,1.43a4.85,4.85,0,0,1-1,.18L86.83,16A9.54,9.54,0,0,1,85,15.83a13.84,13.84,0,0,1-4.24-1.38,4.66,4.66,0,0,1-1.05-.79c-.18-.15-.31-.18-.49,0a3.45,3.45,0,0,1-.35.28s-.06,0-.07,0c-.18-.14-.35-.38-.56-.39s-.39.23-.56.38a8.73,8.73,0,0,1-2.51,1.28,14,14,0,0,1-3.23.76,7.56,7.56,0,0,1-2,0c-.74-.05-1.47-.15-2.21-.21a2.16,2.16,0,0,1-.48-.11q-3.45-1.08-7-2a14.77,14.77,0,0,1-2-.76,14.14,14.14,0,0,0-3.26-1A15.77,15.77,0,0,0,45.64,13a17.19,17.19,0,0,0-3.54,2.31,11,11,0,0,1-1,.76,2.9,2.9,0,0,1-1.81.57c-.08,0-.17,0-.2.08a.25.25,0,0,0,0,.23,1.24,1.24,0,0,0,.18.17,13.8,13.8,0,0,1,2.19,2.11,1.07,1.07,0,0,1-.45,0H33.78c-.53,0-1.06,0-1.59,0-.2,0-.27.07-.26.26s0,.27,0,.41c0,.36,0,.37.37.47a.25.25,0,0,1,.19.31,3.69,3.69,0,0,1-.22.79s0,.09-.07.1c-.29.06-.3.33-.38.54a2.68,2.68,0,0,0-.16.59,9.79,9.79,0,0,1-.7,2.36c-.58,1.55-1.1,3.13-1.73,4.66,0,.11,0,.24-.14.34a.7.7,0,0,1-.33-.39,10.21,10.21,0,0,1-1.19-5.43,10.55,10.55,0,0,1,.4-2.06,7.15,7.15,0,0,1,.42-1c.06-.13,0-.21-.12-.23a6.38,6.38,0,0,1-1.3-.52,5.57,5.57,0,0,1-1.61-1.07,1.35,1.35,0,0,1-.6-1.36.75.75,0,0,1,1-.54,2,2,0,0,1,.57.4c.23.21.46.43.7.64s.26.29.45.26a1.23,1.23,0,0,0,.79-.31l.46-.53a32.4,32.4,0,0,1,8.82-7.13,29.93,29.93,0,0,1,7.54-3,44.27,44.27,0,0,1,4.4-.87l-1-.73c-.11-.08-.24,0-.36,0A20.68,20.68,0,0,0,41.68,7.7c-1.08.45-2.17.9-3.23,1.41a34.82,34.82,0,0,0-8.18,5.36,9.44,9.44,0,0,1-2.06,1.42,2.87,2.87,0,0,1-1.38.31c-.23,0-.29-.12-.17-.33a2,2,0,0,1,.37-.44,26,26,0,0,1,3.41-2.82q1.46-1,3-1.94c.65-.38,1.31-.76,2-1.13a11.43,11.43,0,0,0,1.09-.71,9.43,9.43,0,0,1,1.91-1q1.81-.74,3.65-1.39a40.79,40.79,0,0,1,4.69-1.23c.37-.08.75-.15,1.13-.22a.61.61,0,0,0-.15-.38,4.43,4.43,0,0,1-.56-1.52.25.25,0,0,0,0,0,14,14,0,0,1-.47-2c0-.16-.18-.26-.16-.45a1.31,1.31,0,0,1,.2-.61c.14,0,.2.11.28.2.52.52,1.06,1,1.56,1.59a3.93,3.93,0,0,0,1.19.79c.92.48,1.82,1,2.75,1.48.37.19.41.18.69-.11a13.44,13.44,0,0,1,3.18-2.7,3.34,3.34,0,0,1,3.37,0A.64.64,0,0,1,60,2.26,4.16,4.16,0,0,1,59.2,3c-.37.29-.73.58-1.09.88a3.83,3.83,0,0,0-.92,1.19,1.41,1.41,0,0,0-.07,1.34,2.22,2.22,0,0,1,.17.42c.18.66.71,1,1.26,1.28A.61.61,0,0,0,58.62,8a4.14,4.14,0,0,1,1.15-2.24,7.76,7.76,0,0,1,2.56-1.88,3.25,3.25,0,0,1,2.75,0c.79.36.87.8.28,1.42a8.82,8.82,0,0,1-1,.82A6.26,6.26,0,0,0,63,7.44l-.13.21A1.88,1.88,0,0,0,63,9.82a5.16,5.16,0,0,0,1.49,1.27,9.62,9.62,0,0,0,2.32,1.21,2.52,2.52,0,0,1,.83.4c.05,0,.16,0,.24,0l2.36.37h.21a26.94,26.94,0,0,0,3.28-.25,10.09,10.09,0,0,0,1.91-.73c-.09-.25-.29-.34-.44-.47a5,5,0,0,1,0-7.4A5,5,0,0,1,77.44,3,5.21,5.21,0,0,1,84,7.49a4.91,4.91,0,0,1-1.81,4.34c-.09.08-.21.13-.25.31a8,8,0,0,0,2,.76,23.08,23.08,0,0,0,3.12.22A15.1,15.1,0,0,0,89,12.87l.37-.06a2.41,2.41,0,0,0,.83-.26c.4-.22.85-.35,1.27-.54a9.77,9.77,0,0,0,3-2,2.62,2.62,0,0,0,.66-1.51A.89.89,0,0,0,94.94,8a3.83,3.83,0,0,0-1.13-1.48L92.51,5.5A2.5,2.5,0,0,1,92,5a.61.61,0,0,1,.19-1A2.83,2.83,0,0,1,94,3.56a4,4,0,0,1,1.86.58A8.76,8.76,0,0,1,97.9,5.81,4.23,4.23,0,0,1,99,8.13c.58-.35,1.17-.62,1.28-1.35,0-.1.08-.13.11-.2a1.35,1.35,0,0,0,.09-1.34,4,4,0,0,0-1-1.34L98.39,3a4.47,4.47,0,0,1-.75-.7.64.64,0,0,1,.15-1.08,2.89,2.89,0,0,1,2-.4,4,4,0,0,1,1.61.59,8.94,8.94,0,0,1,2,1.66c.31.35.67.65,1,1,.14.17.35.11.51,0l1.49-.8,1.46-.79a4.08,4.08,0,0,0,1.19-.87c.45-.5.93-1,1.4-1.45.07-.08.13-.18.28-.18a.88.88,0,0,1,.19.79c-.24,1-.45,2.05-.77,3.06A8.91,8.91,0,0,1,109.68,5c.05.11.16.09.25.11,1.42.25,2.82.59,4.21,1A54.91,54.91,0,0,1,119.42,8a10.82,10.82,0,0,1,2.07,1.17c.59.4,1.22.72,1.84,1.08a35.92,35.92,0,0,1,6.89,4.9,4.73,4.73,0,0,1,.68.72c.06.09.14.19.07.3s-.18.11-.29.1a3.34,3.34,0,0,1-1.31-.32,7.82,7.82,0,0,1-1.92-1.26,36.88,36.88,0,0,0-4-3.06,34.93,34.93,0,0,0-3.42-2c-.7-.35-1.41-.69-2.12-1s-1.63-.71-2.45-1.06c-.38-.16-.78-.26-1.17-.41a9.64,9.64,0,0,0-1.18-.35c-.41-.1-.83-.19-1.25-.27s-.81-.14-1.22-.19-.85-.09-1.27-.13a.41.41,0,0,0-.32,0l-.91.7c.86.16,1.65.29,2.45.44a32.73,32.73,0,0,1,3.82,1,32.14,32.14,0,0,1,4.74,2,33,33,0,0,1,7.9,5.66,26.82,26.82,0,0,1,2.15,2.33,1.86,1.86,0,0,0,.22.24.82.82,0,0,0,1.07,0c.26-.22.5-.46.75-.69a2.65,2.65,0,0,1,.39-.3.78.78,0,0,1,1.19.64,1.16,1.16,0,0,1-.23.73,3.22,3.22,0,0,1-.75.76,8,8,0,0,1-2.41,1.25c-.33.11-.32.1-.17.42a8.93,8.93,0,0,1,.21,6.78,11.92,11.92,0,0,1-1.05,2.17,3.23,3.23,0,0,1-.45.58,2.19,2.19,0,0,1-3.38-.28c-.08-.12-.23-.24-.24-.36a3.89,3.89,0,0,1,0-1,6.24,6.24,0,0,1,.41-1.2c.18-.39.36-.77.53-1.16a2,2,0,0,0,.21-.66c0-.18.17-.35.22-.53a6.08,6.08,0,0,0-.09-3.65c-.16-.46-.26-.49-.6-.14l-.06.06a13.62,13.62,0,0,1-1.54,1.65l-.46.53a6.7,6.7,0,0,1-2.43,1.79,2.45,2.45,0,0,1-1.69.13,1.41,1.41,0,0,1-.59-2.4,3.17,3.17,0,0,1,1-.63,6.73,6.73,0,0,0,1.82-1,.58.58,0,0,1,.22-.1,6.69,6.69,0,0,0,2.54-1.56,1,1,0,0,0,.35-1.1l-.51.42A8.79,8.79,0,0,1,120,21.49a2.44,2.44,0,0,0-.92.44,5.2,5.2,0,0,0-1.35,1.49A11.8,11.8,0,0,0,116,29.74,5.78,5.78,0,0,0,117,33a1.79,1.79,0,0,1,.27.72c.06.33.07.33.39.34h.16a.71.71,0,0,0,.83-.45,3.35,3.35,0,0,0-1.12-1,1.4,1.4,0,0,1-.86-1.16,1.46,1.46,0,0,1,2.06-1.35,1.4,1.4,0,0,1,.68,2c-.11.19-.15.34,0,.51a.13.13,0,0,1,0,.07c0,.44.4.53.74.64a.37.37,0,0,0,.31,0c.47-.28.7-.11,1.11.41a6,6,0,0,1,1,2.49,10.09,10.09,0,0,1-.45,5.95c-.15.41-.16.41-.59.41H117.1c-.11,0-.19,0-.19.16s0,.49,0,.74.08.16.17.19l.36.1a.49.49,0,0,1,.4.54c0,.66,0,1.32,0,2q0,7.15,0,14.3c0,.19,0,.38,0,.58a.5.5,0,0,1-.42.53c-.17,0-.4,0-.48.18a1.38,1.38,0,0,0,0,.53c0,.55-.07.49.47.49h6.55a.6.6,0,0,1,.48.18.82.82,0,0,0,.22.18,1,1,0,0,1,.57.7c.07.31.33.33.57.39a.94.94,0,0,0,.37,0,.77.77,0,0,1,.76.31c.21.27.46.5.7.77a1.85,1.85,0,0,0-.4.47.52.52,0,0,1-.59.27,1.6,1.6,0,0,0-1.6.53c-.82.76-1.52,1.62-2.28,2.43a7.23,7.23,0,0,0-.83,1.12c-.62,1-1.24,2-1.88,2.94-.84,1.27-1.68,2.53-2.56,3.77-.4.56-.9,1-1.34,1.56a37.29,37.29,0,0,1-3.49,3.43,4.42,4.42,0,0,1-.85.64c-.55.31-1.08.65-1.61,1-2.07,1.36-4.26,2.49-6.41,3.7a3.52,3.52,0,0,1-.74.18c-1.07.35-2.15.67-3.21,1A10.2,10.2,0,0,1,98,88.8c-2.48.36-5,.66-7.46,1-1,.14-2,.41-3,.63a3.67,3.67,0,0,1-.52.11,1.78,1.78,0,0,0-1,.5,1,1,0,0,0-.1.77.16.16,0,0,0,.15,0,1.06,1.06,0,0,1,.58.17c2.72,1.3,5.46,2.55,8.26,3.69a11.36,11.36,0,0,0,2.15.53,16.82,16.82,0,0,0,2.2.3,3.39,3.39,0,0,0,1.5-.18c.27-.11.55-.18.82-.28a15,15,0,0,0,3.32-1.77,9.48,9.48,0,0,0,1.43-1.11,5,5,0,0,0,1.5-3.67,2.5,2.5,0,0,1,.08-.73.68.68,0,0,1,.4-.49,1.15,1.15,0,0,1,1.57.76,2.9,2.9,0,0,1,0,1.39,7.16,7.16,0,0,1-.73,1.92.49.49,0,0,0,.21.75.15.15,0,0,0,.19,0,5.38,5.38,0,0,0,.67-.54,7,7,0,0,0,1.89-3.45,5.76,5.76,0,0,0-.07-2.33c-.07-.28-.14-.56-.18-.84a.67.67,0,0,1,.33-.77.81.81,0,0,1,1,.13,1.83,1.83,0,0,1,.5,1,7.79,7.79,0,0,1-.13,3.43l-.11.48a3.9,3.9,0,0,0,2.54-1.72,1.46,1.46,0,0,0,.11-.88,3.9,3.9,0,0,0-.89-2.09,11.33,11.33,0,0,0-1-1.09,5.93,5.93,0,0,1-.76-.87c-.6-.9-.15-1.39.56-1.72a2.43,2.43,0,0,1,2.46.29,7.91,7.91,0,0,1,2.37,2.49,5.7,5.7,0,0,1,.8,2.22,4.22,4.22,0,0,1-.49,2.54,11.59,11.59,0,0,1-1,1.54c-.26.36-.51.74-.79,1.15.67.22.8.9,1.25,1.3s.44,1.21.29,1.86a.36.36,0,0,1-.34.3.39.39,0,0,1-.43-.25c0-.15-.17-.2-.3-.24a3.87,3.87,0,0,0-1.86-.18,7.51,7.51,0,0,0-2.47,1c-1,.54-2,1-3,1.64a11.75,11.75,0,0,1-4,1.36c-.9.18-1.8.31-2.69.55a6.8,6.8,0,0,1-2.69.13,5.6,5.6,0,0,0-.9,0,18.2,18.2,0,0,1-2.7-.26A22,22,0,0,1,95,98.59,14.21,14.21,0,0,1,91.28,97a43.92,43.92,0,0,0-4.61-2.27,9.89,9.89,0,0,0-2.23-.55c-.35-.06-.71,0-1.07-.08a3.66,3.66,0,0,0-1.25.21c-.19,0-.2.2-.24.35s.1.17.19.22a3.24,3.24,0,0,0,.9.27.81.81,0,0,1,.39.21l.34.3a5.59,5.59,0,0,1,1.38,1.77c.48,1,1.05,2,1.54,3a4.53,4.53,0,0,0,1.14,1.38,8,8,0,0,0,2.87,1.55.66.66,0,0,1,.18.08,2.83,2.83,0,0,0,1.39.42,1.1,1.1,0,0,0,1-.46,2.3,2.3,0,0,0,.56-1.67,6.57,6.57,0,0,1,0-.66c0-.3.14-.41.44-.43a1.09,1.09,0,0,1,1.21,1,3.07,3.07,0,0,1-.38,1.66,6.18,6.18,0,0,1-.72,1,1.73,1.73,0,0,0,1.41-.51,6,6,0,0,0,.71-1,2.38,2.38,0,0,0,.16-2,3.87,3.87,0,0,1-.17-.51.44.44,0,0,1,.37-.61,1.09,1.09,0,0,1,1.36.69,2.9,2.9,0,0,1,.11,1.54,4.51,4.51,0,0,1-.41,1.25c0,.1-.21.2,0,.31s.29.15.44,0a3.44,3.44,0,0,0,.45-.58,3.6,3.6,0,0,0,.42-1.24,6.8,6.8,0,0,1,.17-1,1.09,1.09,0,0,1,1.07-.87c.84,0,1.59.31,1.52,1.47a4.53,4.53,0,0,1-.65,2.19c-.19.3-.26.66-.44,1a2.7,2.7,0,0,1-1.6,1.42,1.43,1.43,0,0,0-.47.25c-.37.27-.37.26,0,.57A4.24,4.24,0,0,1,99.78,108a2.63,2.63,0,0,1,.28.81,1.06,1.06,0,0,1-.58,1.2,1.88,1.88,0,0,1-1.11.23c-.37,0-.51-.19-.52-.56a3.53,3.53,0,0,1,0-.37,1.89,1.89,0,0,0-.59-1.56,2.22,2.22,0,0,0-1.15-.73.41.41,0,0,1-.2-.12.71.71,0,0,0-.48-.19c-.29,0-.57-.06-.86-.06a3.73,3.73,0,0,1-1.13-.18c-.32-.1-.66-.06-1-.19s-.89-.2-1.32-.4a3.6,3.6,0,0,0-1.12-.42.4.4,0,0,1-.18-.08c-.5-.37-1.06-.66-1.58-1a5.2,5.2,0,0,1-1.3-1.08,4.47,4.47,0,0,0-.82-.8,1.91,1.91,0,0,1-.48-.55c-.26-.44-.57-.85-.85-1.27-.14-.21-.09-.51-.33-.67,0-.34-.25-.58-.38-.87a6.4,6.4,0,0,0-.83-1.44,10.49,10.49,0,0,0-1.6-1.44.24.24,0,0,0-.15-.06A6.54,6.54,0,0,1,80.44,96a3.07,3.07,0,0,1-.89-.4c-.09,0-.06-.15,0-.22.2-.68.36-1.38.59-2.05a.76.76,0,0,1,.3-.37A8.44,8.44,0,0,1,83,91.56a.71.71,0,0,0,.53-.5,1.56,1.56,0,0,1,.51-.67,3.68,3.68,0,0,1,2-.94c1.09-.19,2.17-.48,3.26-.69a21.63,21.63,0,0,1,2.33-.22c1-.08,1.95-.12,2.91-.24.65-.08,1.29-.25,1.93-.39l3.3-.69a4.12,4.12,0,0,0,.78-.25l4.24-1.8a3.07,3.07,0,0,0,.43-.23l4.13-2.63a1.74,1.74,0,0,0,.27-.19c1.35-1.29,2.77-2.51,4.07-3.85A51.26,51.26,0,0,0,118,73.2a4.67,4.67,0,0,0,.36-.6c.93-1.74,1.87-3.48,2.88-5.18a10.8,10.8,0,0,1,1-1.23,1.1,1.1,0,0,1,.34-.23l.88-.51a9.75,9.75,0,0,0-1.05-.34.18.18,0,0,0-.24.09l-.21.3c-1.49,2.14-2.94,4.31-4.47,6.42a45.11,45.11,0,0,1-5,6.17c-.89.86-1.81,1.68-2.77,2.45a29.49,29.49,0,0,1-4.5,3c-.5.27-1,.55-1.46.85a10.06,10.06,0,0,1-2.64,1.21.8.8,0,0,0-.37.17,2.14,2.14,0,0,1-1.2.49c-1.3.23-2.59.44-3.88.71-.86.18-1.7.45-2.57.59a17.78,17.78,0,0,1-2.42.21,21.29,21.29,0,0,0-3.35.37c-.89.15-1.79.26-2.68.4a1.73,1.73,0,0,0-.83.32c-.48.36-1,.7-1.49,1a2.55,2.55,0,0,0-.74.7,12.6,12.6,0,0,1-1.85,1.93.94.94,0,0,0-.31.56c-.08.53-.21,1-.29,1.57,0,.21-.13.24-.3.23s-.28,0-.31-.22c-.09-.56-.21-1.1-.31-1.66a.68.68,0,0,0-.23-.42c-.2-.18-.39-.38-.6-.57A8.76,8.76,0,0,1,76,90.53a2,2,0,0,0-.56-.54q-.89-.6-1.76-1.22a.87.87,0,0,0-.41-.16c-.65-.09-1.31-.16-2-.27-1.09-.18-2.19-.35-3.29-.47-.63-.07-1.26,0-1.89-.09a16.83,16.83,0,0,1-3.44-.59c-1.1-.32-2.23-.45-3.35-.67-.48-.09-1-.2-1.46-.26a1.58,1.58,0,0,1-.93-.41,1.06,1.06,0,0,0-.48-.23A9.16,9.16,0,0,1,54,84.51c-.41-.26-.82-.51-1.25-.72a38.37,38.37,0,0,1-6.28-4.36,2.72,2.72,0,0,1-.24-.22c-.38-.38-.74-.78-1.13-1.15a37.2,37.2,0,0,1-3.73-4.38c-1.8-2.34-3.35-4.85-5.09-7.23-.29-.4-.57-.8-.85-1.21a.25.25,0,0,0-.34-.12c-.31.11-.63.18-1,.3l.87.5a2,2,0,0,1,.57.47,9.94,9.94,0,0,1,1,1.48c.92,1.56,1.77,3.16,2.62,4.76a4.34,4.34,0,0,0,.49.76c.19.23.38.47.56.71A47.05,47.05,0,0,0,46,80.35c.5.45,1,.91,1.47,1.38a6.32,6.32,0,0,0,1.07.83q1.71,1.07,3.4,2.17a7.45,7.45,0,0,0,1.16.61c1.24.52,2.48,1,3.71,1.57a10.12,10.12,0,0,0,2,.53l3.7.79a10.07,10.07,0,0,0,1.31.14c1.35.12,2.71.21,4.06.33.78.07,1.53.31,2.3.46s1.45.32,2.17.46a1.07,1.07,0,0,1,.51.24,6.11,6.11,0,0,0,.55.44,1.55,1.55,0,0,1,.67.85.49.49,0,0,0,.36.35l.35.12a8.52,8.52,0,0,1,2.42,1.29.66.66,0,0,1,.28.38c.19.67.38,1.34.58,2,.05.18,0,.24-.16.31a4.77,4.77,0,0,1-1.66.51.79.79,0,0,0-.44.18l-1.27,1.11a4,4,0,0,0-.72,1.09c-.43.71-.74,1.48-1.13,2.22a6.34,6.34,0,0,1-1,1.42q-.86.9-1.78,1.75a4.66,4.66,0,0,1-.68.46,11.38,11.38,0,0,1-1.54.95,12,12,0,0,1-2.05.79l-1.74.42a9.27,9.27,0,0,1-1.43.15,3.32,3.32,0,0,0-2.5,1.5,1.58,1.58,0,0,0-.26.9c0,.12,0,.25,0,.37,0,.65-.16.84-.82.79a2.49,2.49,0,0,1-.52-.1,1.15,1.15,0,0,1-.85-1.43,2.79,2.79,0,0,1,.83-1.48,5.61,5.61,0,0,1,.74-.65c.12-.09.14-.18,0-.24a5.24,5.24,0,0,0-.67-.33,1.91,1.91,0,0,1-.87-.45,3.68,3.68,0,0,1-.82-1c-.21-.52-.45-1-.68-1.54a4.5,4.5,0,0,1-.36-1.72,1.33,1.33,0,0,1,.45-1.1s.06-.07.12-.09a4,4,0,0,1,.63-.16,1.17,1.17,0,0,1,1.42,1c.07.29.1.6.15.89a3.17,3.17,0,0,0,.84,1.76.31.31,0,0,0,.36.1c.16-.06.22-.12.12-.3a3.91,3.91,0,0,1-.5-2.09,2.28,2.28,0,0,1,.19-.84,1.1,1.1,0,0,1,1.38-.6.42.42,0,0,1,.33.56,2.42,2.42,0,0,1-.14.43,2.49,2.49,0,0,0,.27,2.39A5.28,5.28,0,0,0,62,104a.86.86,0,0,0,.61.29,3.06,3.06,0,0,0,.59.06c0-.15-.14-.23-.22-.33a3.86,3.86,0,0,1-.8-1.7,2.3,2.3,0,0,1,0-.7,1.1,1.1,0,0,1,1.25-1c.26,0,.37.13.39.39a6.53,6.53,0,0,1,0,.7,2.28,2.28,0,0,0,.54,1.64,1.32,1.32,0,0,0,1.27.46,10.26,10.26,0,0,0,1.68-.6c.24-.06.45-.2.68-.28a7.49,7.49,0,0,0,2.56-1.82,1.2,1.2,0,0,0,.21-.35c.61-1.18,1.23-2.36,1.82-3.55a4.9,4.9,0,0,1,1.06-1.4c.08-.08.17-.15.24-.23A1.79,1.79,0,0,1,75,95a1,1,0,0,0,.46-.15c.09-.06.27-.06.22-.24s-.05-.3-.24-.34a4.7,4.7,0,0,0-1.21-.21,11.07,11.07,0,0,0-2.91.48,15.89,15.89,0,0,0-2,.86c-1.17.54-2.3,1.16-3.43,1.79a14.18,14.18,0,0,1-3.73,1.48l-.83.23a17.42,17.42,0,0,1-3.53.5l-2.3.1a3.63,3.63,0,0,1-1.06-.09c-1.36-.33-2.74-.55-4.12-.82a5.22,5.22,0,0,1-1.16-.31,2.67,2.67,0,0,0-.75-.2,1.9,1.9,0,0,1-.73-.37,11.29,11.29,0,0,0-2.08-1.1.54.54,0,0,1-.18-.09A4,4,0,0,0,44.39,96c-.2-.1-.34-.27-.53-.37a6.45,6.45,0,0,0-2.52-.85,3.72,3.72,0,0,0-1.64.3c-.12,0-.18.16-.26.25-.25.28-.52.24-.65-.11a3.19,3.19,0,0,1-.06-1.46c0-.11.12-.18.19-.26a4.92,4.92,0,0,0,.52-.58c.23-.34.4-.73.9-.84a8.07,8.07,0,0,0-.94-1.29,1.43,1.43,0,0,1-.24-.33c-.05-.08-.06-.2-.13-.25-.33-.28-.42-.71-.66-1A2.88,2.88,0,0,1,38.05,88a4.77,4.77,0,0,1,0-1.68A5.12,5.12,0,0,1,39.2,84a7.08,7.08,0,0,1,2.26-2.08,2.33,2.33,0,0,1,2.46,0,.93.93,0,0,1,.35,1.46,4.68,4.68,0,0,1-.68.83,15.18,15.18,0,0,0-1.07,1.15,4.06,4.06,0,0,0-1,2.15A1.67,1.67,0,0,0,42,88.94a4.33,4.33,0,0,0,2.16,1.24c.06-.17,0-.3-.06-.44A7.89,7.89,0,0,1,44,86.27a2.37,2.37,0,0,1,.23-.66,1.22,1.22,0,0,1,.34-.41.79.79,0,0,1,.89-.07.64.64,0,0,1,.33.74c-.06.39-.16.78-.24,1.17a5.44,5.44,0,0,0,.84,4.17A5.69,5.69,0,0,0,47.94,93c.1.07.18.22.35.09s.34-.37.25-.58-.11-.19-.16-.29a6.71,6.71,0,0,1-.73-2.26,2.3,2.3,0,0,1,0-.86,1.15,1.15,0,0,1,1.54-.81.67.67,0,0,1,.42.47,2.66,2.66,0,0,1,.09.77A5.13,5.13,0,0,0,52,93.81a17.7,17.7,0,0,0,3.28,2,6.2,6.2,0,0,0,2.88.75c.51,0,1-.11,1.51-.17.82-.1,1.62-.31,2.42-.46a2.26,2.26,0,0,0,.38-.14c2.85-1.14,5.64-2.42,8.41-3.74a1.1,1.1,0,0,1,.62-.18.15.15,0,0,0,.15,0,1,1,0,0,0-.11-.77,2.2,2.2,0,0,0-1-.51c-1.24-.23-2.46-.58-3.71-.76s-2.34-.29-3.51-.44-2.63-.39-4-.53a19.31,19.31,0,0,1-3.1-.8A14.25,14.25,0,0,0,54,87.35a.82.82,0,0,1-.26-.13c-2.68-1.45-5.32-3-7.88-4.61a8.44,8.44,0,0,1-1.19-.93c-.54-.5-1.11-1-1.64-1.46A12.8,12.8,0,0,1,42,79.1q-.95-1.13-1.95-2.22a5.79,5.79,0,0,1-.31-.5c-.4-.52-.74-1.08-1.12-1.62-.27-.38-.51-.8-.78-1.19-.64-.95-1.22-1.94-1.86-2.89a8.88,8.88,0,0,0-1.37-1.87c-.44-.39-.76-.88-1.15-1.3a6.8,6.8,0,0,0-1.22-1.08.43.43,0,0,1-.16-.13c-.16-.31-.43-.27-.71-.23s-.28,0-.41,0a.6.6,0,0,1-.67-.35A.9.9,0,0,0,30,65.4l.82-.88a.65.65,0,0,1,.55-.21,1.45,1.45,0,0,0,.8-.11c.11-.06.2-.12.2-.23a1.08,1.08,0,0,1,.56-.78c.29-.22.54-.48.82-.72a.69.69,0,0,1,.42-.2c.37,0,.74-.06,1.11-.06a2.15,2.15,0,0,1,1,.26c.17.09.32.16.48,0s.35-.25.28-.53A18.15,18.15,0,0,1,36.61,59c0-.53-.1-1.07-.1-1.6a1.83,1.83,0,0,1,.21-.72c.23-.5.39-1,.6-1.53a4,4,0,0,1,.47-1c.26-.34.46-.72.69-1.07a.2.2,0,0,0,0-.29c-.08-.09-.14-.2-.23-.29-.23-.25-.46-.47-.21-.86a.32.32,0,0,0-.18-.47.56.56,0,0,1-.35-.68.87.87,0,0,1,.59-.68,1.09,1.09,0,0,1,.41,0c.14,0,.32.08.4,0a1.38,1.38,0,0,0,.24-.43,1.29,1.29,0,0,0,.12-.52c0-.46.09-.93.09-1.4a5.87,5.87,0,0,1,.36-1.51l.06-.18c-.07-.09-.13,0-.2,0A2.39,2.39,0,0,1,37.05,45a6.31,6.31,0,0,1-1-1.43,10.52,10.52,0,0,1-1.38-5.14,9.55,9.55,0,0,1,.4-2.8.27.27,0,0,1,.32-.23h5.69c.15,0,.25,0,.31.2.22.62.45,1.23.68,1.85a3.87,3.87,0,0,1,.13.39c.1.37,0,.48-.34.61s-.33.11-.32.44a2.81,2.81,0,0,0,0,.72h4.33a1,1,0,0,1,.36,0,21.84,21.84,0,0,1-2.75,9.52,10.49,10.49,0,0,1-.94,1.35.48.48,0,0,0-.05.64c.16,0,.25-.15.38-.23a17.87,17.87,0,0,0,2.68-2,6.32,6.32,0,0,1,1.55-1c0,.39-.05.78,0,1.18a4.57,4.57,0,0,1,.07.81,6,6,0,0,0-2.74,3.52,5.58,5.58,0,0,0-.29,2.39,1.76,1.76,0,0,1,0,.37A3.44,3.44,0,0,0,44.47,58a.65.65,0,0,1,.05.51,10.75,10.75,0,0,0,.09,6.09,21.62,21.62,0,0,0,2.77,5.91,37.88,37.88,0,0,0,6,7.23,22.92,22.92,0,0,0,6,4.13A16.43,16.43,0,0,0,62.94,83a5.78,5.78,0,0,0,1.27.09,26.11,26.11,0,0,1,7.73,1,19.72,19.72,0,0,1,6.27,3l.24.15a.66.66,0,0,0,.83-.07,17.26,17.26,0,0,1,3.13-1.89,23.31,23.31,0,0,1,6.24-1.9,26.1,26.1,0,0,1,4.92-.34,8.3,8.3,0,0,0,2.74-.53,19.76,19.76,0,0,0,6.28-3.46,33.64,33.64,0,0,0,5.92-6.22A30.65,30.65,0,0,0,112.1,67a14.84,14.84,0,0,0,1.32-4.78,8.85,8.85,0,0,0-.27-3.43,5.82,5.82,0,0,1,.47-.72,10.1,10.1,0,0,0,1.26-7.9,9.09,9.09,0,0,0-2.15-4.11c-.1-.11-.18-.24-.27-.36s0-.11-.08-.09Z" fill="#030202"/><path d="M4.69,23.25a4.13,4.13,0,0,0-.08,1.15c0,2,0,4.09,0,6.13,0,2.23,0,4.45,0,6.68,0,.17,0,.35,0,.52A1.25,1.25,0,0,0,5.35,39H0c0-.12.09-.11.14-.14A1,1,0,0,0,.7,38a3.76,3.76,0,0,0,0-.41V21.27A1.18,1.18,0,0,0,0,19.95c.36-.1,8.1-.12,8.53,0a0,0,0,0,1,0,.07c-.58.42-.65.61-.43,1.29s.56,1.34.84,2l2.25,5.29c.12.28.26.56.4.85a.74.74,0,0,0,.21-.33c.44-.9.9-1.79,1.31-2.7s.81-1.64,1.19-2.47c.28-.6.53-1.23.86-1.81a5.64,5.64,0,0,0,.44-1.05.74.74,0,0,0-.17-.8c-.11-.11-.24-.21-.37-.32.31-.08,8-.12,8.71,0,0,0,0,.07,0,.1a1.05,1.05,0,0,0-.62,1c0,.11,0,.22,0,.33V37.46c0,.07,0,.14,0,.21a1.15,1.15,0,0,0,.76,1.24c-.32.1-5.65.11-6.12,0,.68-.23.79-.74.79-1.32q0-7,0-14v-.31l-.09,0L11.49,38a.72.72,0,0,1-.21-.34c-.25-.55-.5-1.11-.75-1.66L9.21,33.13l-.66-1.46c-.33-.72-.63-1.46-1-2.16S7,28.29,6.71,27.68s-.5-1.26-.82-1.85-.51-1.2-.82-1.77c-.14-.25-.23-.55-.37-.82" fill="#030202"/><path d="M123.25,62.22h-5.42c0-.14.1-.13.15-.17a.94.94,0,0,0,.43-.67,4,4,0,0,0,0-.61q0-8.07,0-16.15c0-.57,0-1.14-.63-1.46h7.52c0,.12-.09.11-.14.15a.77.77,0,0,0-.17,1.24c.17.22.35.42.54.62l8.16,8.94.48.5c.13-.07.07-.18.07-.27q0-4.92,0-9.85a1.23,1.23,0,0,0-.69-1.3c.33-.09,5-.11,5.59,0,0,.09-.09.1-.14.12a1,1,0,0,0-.54.82,3.41,3.41,0,0,0,0,.45q0,8.12,0,16.23v0c0,.58.1,1.1.79,1.32-.35.11-5.24.15-6.11.06,0-.14.1-.14.16-.19a.76.76,0,0,0,.2-1.09,2.35,2.35,0,0,0-.63-.75c-.19-.13-.26-.34-.42-.5-.8-.83-1.57-1.69-2.35-2.53l-2.92-3.22c-1.21-1.34-2.42-2.68-3.66-4a6.87,6.87,0,0,0-.93-1v.74q0,5.48,0,11c0,.07,0,.14,0,.21,0,.54.07,1,.68,1.29l-.05.06" fill="#030202"/><path d="M157.91,54.94c-.09,0-.1-.07-.12-.12a1.06,1.06,0,0,0-.92-.6l-.41,0h-6.55c-.42,0-.43-.08-.43.41,0,.8,0,1.59,0,2.39,0,.3,0,.61,0,.91s.09.28.29.28h11.33c.55,0,1-.12,1.25-.79a50.5,50.5,0,0,1,0,5.6s-.07,0-.08-.07a.78.78,0,0,0-.71-.64,4,4,0,0,0-.7,0h-17c0-.11.06-.12.1-.14a1,1,0,0,0,.55-.9c0-.15,0-.3,0-.45q0-8.07,0-16.15a1.82,1.82,0,0,0,0-.61c-.09-.23-.1-.54-.44-.62a.27.27,0,0,1-.15-.24h17.18a1.26,1.26,0,0,0,1.31-.68v5.44s-.06,0-.07-.06a1.1,1.1,0,0,0-1.11-.63c-3.8,0-7.61,0-11.41,0-.3,0-.3,0-.3.29q0,1.4,0,2.8c0,.28,0,.29.3.29h6.72a3.49,3.49,0,0,0,.87-.17c.14,0,.22-.16.31-.27s.09-.23.24-.3Z" fill="#030202"/><path d="M32.75,19.88h8.79a1.19,1.19,0,0,0-.22,1.43c.46,1.34,1,2.63,1.54,3.95q2.4,6.06,4.81,12.12c.07.18.13.36.2.54a3,3,0,0,0,.79,1H42.36c0-.1.05-.1.09-.13a.86.86,0,0,0,.39-1,3.07,3.07,0,0,0-.12-.44A15.77,15.77,0,0,0,42,35.46a2.26,2.26,0,0,1-.08-.4c-.07-.21-.16-.35-.41-.29H32.61c-.41,0-.41,0-.55.38l-.74,2,0,.12a1.28,1.28,0,0,0,.49,1.69c-.25.1-5.12.14-5.88,0,0,0,0-.06,0-.07a4.39,4.39,0,0,0,1.46-2.21,3.48,3.48,0,0,0,.4-1.21c.36-.55.36-1.25.68-1.81.16-.29.16-.62.32-.88a3.71,3.71,0,0,0,.37-.9A16.31,16.31,0,0,0,29.75,30c1.12-2.71,2-5.49,3.07-8.23A7.45,7.45,0,0,0,33,21a1.06,1.06,0,0,0-.29-1.15m7.88,12.21-3.82-9.71h-.08l-3.57,9.7Z" fill="#030202"/><path d="M75.52,98.82a4.16,4.16,0,0,1,.13-1c0-.19.2-.37.3-.56a3.35,3.35,0,0,1,1.4-1.3c.41-.21.84-.39,1.24-.62a.34.34,0,0,1,.39,0c.51.34,1.11.51,1.62.86a3.18,3.18,0,0,1-.29,5.53,3.26,3.26,0,0,1-2,.35,2.08,2.08,0,0,1-1-.26,4.84,4.84,0,0,1-1.19-1,3.22,3.22,0,0,1-.64-2" fill="#030202"/><path d="M41.17,81.19l-.45.37c-.63.51-1.24,1-1.83,1.6a5.55,5.55,0,0,0-1.72,4.49,7.71,7.71,0,0,0,.28,1.7.71.71,0,0,0,.28.43,1.65,1.65,0,0,1,.69,1.84,1.69,1.69,0,0,1-1.48,1.31,1.76,1.76,0,0,1-1.85-.8A1.6,1.6,0,0,1,35,90.39a.75.75,0,0,0,.07-.62A8.55,8.55,0,0,1,35,86.06a3.65,3.65,0,0,1,.54-1.35,4.1,4.1,0,0,0,.34-.65,1.72,1.72,0,0,1,.55-.73c.73-.55,1.51-1,2.27-1.52a1.21,1.21,0,0,1,.33-.14l1.86-.5a.41.41,0,0,1,.31,0" fill="#030202"/><path d="M116.47,81.19a.37.37,0,0,1,.33,0l1.85.51a1.19,1.19,0,0,1,.37.17l2.08,1.4a1.06,1.06,0,0,1,.36.38c.29.53.61,1,.88,1.57a4.79,4.79,0,0,1,.41,1.91,7.93,7.93,0,0,1-.27,2.69.65.65,0,0,0,.06.54,1.62,1.62,0,0,1-.1,1.86,1.81,1.81,0,0,1-1.76.75A1.79,1.79,0,0,1,119.12,91a1.63,1.63,0,0,1,.67-1.18,1,1,0,0,0,.38-.6,6.61,6.61,0,0,0,.11-3.26,5.3,5.3,0,0,0-1.51-2.76c-.63-.57-1.26-1.15-1.92-1.68a1.54,1.54,0,0,1-.39-.36" fill="#030202"/><path d="M72.18,9.05a2.83,2.83,0,0,1-1.27,2.34,3,3,0,0,1-4.4-1.07,3.08,3.08,0,0,1-.26-1.85,3,3,0,0,1,3.67-2.26,3.14,3.14,0,0,1,1.93,1.46,2.48,2.48,0,0,1,.33,1.38" fill="#030202"/><path d="M85.41,8.7a1.89,1.89,0,0,1,.53-1.34,2.89,2.89,0,0,1,2.94-1.19,2.81,2.81,0,0,1,2.39,2.09,2.7,2.7,0,0,1-.89,2.93A3,3,0,0,1,85.47,9.7a5.36,5.36,0,0,1-.06-1" fill="#030202"/><path d="M103.76,90.26A1.77,1.77,0,1,1,101.93,92a1.8,1.8,0,0,1,1.83-1.77" fill="#030202"/><path d="M55.67,92a1.82,1.82,0,0,1-1.84,1.77,1.77,1.77,0,1,1,0-3.54A1.8,1.8,0,0,1,55.67,92" fill="#030202"/><path d="M133,25.44a13.15,13.15,0,0,1-.33,3.28,3,3,0,0,1-.45,1.05.71.71,0,0,1-1.23,0c0-.06,0-.12,0-.19a2.55,2.55,0,0,1,.23-1.16c.11-.19,0-.42.16-.61s.1-.57.37-.8.18-.55.33-.81a.76.76,0,0,0,0-.36,10.72,10.72,0,0,0-.54-3.36,4,4,0,0,1-.21-.92.92.92,0,0,1,.12-.59.34.34,0,0,1,.58-.06,1.52,1.52,0,0,1,.31.57,12.1,12.1,0,0,1,.55,2.74c0,.44.07.88.09,1.22" fill="#030202"/><path d="M114.59,96.89a1.77,1.77,0,0,1,1.83-1.76,1.8,1.8,0,0,1,1.82,1.78,1.82,1.82,0,0,1-1.84,1.77,1.77,1.77,0,0,1-1.81-1.79" fill="#030202"/><path d="M43,96.89a1.77,1.77,0,0,1-1.82,1.78,1.77,1.77,0,1,1,0-3.54A1.77,1.77,0,0,1,43,96.89" fill="#030202"/><path d="M24.6,25.72a16.34,16.34,0,0,1,.49-3.78,3,3,0,0,1,.37-.91c.08-.13.18-.25.36-.23s.24.17.3.31a1.3,1.3,0,0,1,0,.77c-.13.59-.35,1.15-.47,1.75a12.5,12.5,0,0,0-.23,2,2.37,2.37,0,0,0,.48,1.6,1.3,1.3,0,0,1,.19.49c.1.35.2.7.33,1a2.21,2.21,0,0,1,.13.64.69.69,0,0,1-.45.71.59.59,0,0,1-.71-.29,3.09,3.09,0,0,1-.48-1.09,14.24,14.24,0,0,1-.32-3" fill="#030202"/><path d="M33.8,61.28c-.75.06-1.39-.93-1.33-1.47a1.52,1.52,0,0,1,1.59-1.32A1.41,1.41,0,0,1,35.39,60a1.43,1.43,0,0,1-1.59,1.3" fill="#030202"/><path d="M123.63,61.29c-.37,0-.4,0-.4-.38q0-1,0-2c0-.34,0-.38.38-.37A1.37,1.37,0,0,1,125,59.9a1.36,1.36,0,0,1-1.41,1.39" fill="#030202"/><path d="M82.92,54.66v5.89c0,.11,0,.22,0,.33,0,.61,0,.66.64.81.24.06.32.17.3.4s.1.54-.07.71-.45,0-.68,0h-7c-.28,0-.29,0-.29-.31,0-.05,0-.11,0-.17s-.07-.41,0-.56.32-.12.49-.18a.53.53,0,0,0,.4-.55c0-.15,0-.3,0-.45q0-6.1,0-12.19c0-.5.06-.46-.47-.46h-5c-.68,0-.72,0-.92.69-.06.18-.13.29-.34.26s-.55.1-.72-.05-.06-.47-.06-.71c0-2.06,0-4.12,0-6.18,0-.07,0-.14,0-.21s0-.21.18-.2h.16a1.72,1.72,0,0,1,.65,0c.18.08.15.36.22.55a.49.49,0,0,0,.49.36H88.29c.78,0,.78,0,1-.73,0-.15.09-.25.27-.23s.61-.11.8.06.06.49.06.75q0,3,0,6c0,.1,0,.19,0,.29s0,.26-.23.24h-.29c-.18,0-.38.06-.52,0s-.11-.3-.15-.46a.54.54,0,0,0-.57-.44H83.13c-.16,0-.22.08-.21.23s0,.22,0,.33Zm6.88-12.2a1.31,1.31,0,0,1-1.36.68H71.26c-.57,0-1.1-.06-1.35-.65-.1,0-.09.06-.09.1q0,2.7,0,5.39l0,0c.05,0,0,0,.05,0a1.16,1.16,0,0,1,1.18-.67h6c.15,0,.2.06.19.19s0,.14,0,.21q0,6.45,0,12.89a6,6,0,0,1,0,.66.94.94,0,0,1-.46.74c-.06,0-.16,0-.19.17H83c0-.09-.06-.11-.11-.13a.9.9,0,0,1-.51-.75,4.59,4.59,0,0,1,0-.57q0-6.51,0-13c0-.38,0-.38.38-.38h5.73a2.91,2.91,0,0,1,.53,0,1,1,0,0,1,.67.44c0,.07.07.17.19.23Z" fill="#fff"/><path d="M112.46,45.71c.09.12.18.25.27.36a9.08,9.08,0,0,1,2.15,4.11,10.1,10.1,0,0,1-1.26,7.89,5.82,5.82,0,0,0-.47.72c-.15.05-.21.21-.31.32a11.51,11.51,0,0,1-6.91,3.83,14.82,14.82,0,0,1-6.77-.34,10.89,10.89,0,0,1-6.59-5.12,9.63,9.63,0,0,1-1.15-5.89,9.89,9.89,0,0,1,5.74-8.09,12.19,12.19,0,0,1,4.74-1.27,15.44,15.44,0,0,1,5.23.42,11.25,11.25,0,0,1,5.07,2.85c.06.05.1.14.2.12h0c0,.06,0,.09.08.09m-9.09,16.86a14.34,14.34,0,0,0,3.6-.46,10.7,10.7,0,0,0,5.56-3.55,9.07,9.07,0,0,0,2-6.48,8.77,8.77,0,0,0-1.29-4.29,10.3,10.3,0,0,0-6-4.46,14.54,14.54,0,0,0-5.51-.47,11.65,11.65,0,0,0-5.27,1.71,9.41,9.41,0,0,0-3.87,11.61,9.61,9.61,0,0,0,4.8,5.1,12.75,12.75,0,0,0,6,1.3" fill="#fff"/><path d="M70.66,21.1l-2.51,4.71a2.42,2.42,0,0,0-1.59-1.58,11.21,11.21,0,0,0-4.24-.93,10,10,0,0,0-3.3.34,6.49,6.49,0,0,0-4,3.1,5.71,5.71,0,0,0-.66,2.85,5.8,5.8,0,0,0,.55,2.55A5.71,5.71,0,0,0,58.15,35a10.42,10.42,0,0,0,4.38.55,12,12,0,0,0,4.17-1A.46.46,0,0,0,67,34c0-.59,0-1.18,0-1.77,0-.29,0-.3-.3-.3H62.62a1.26,1.26,0,0,0-1.26.63v-4.2a1.36,1.36,0,0,0,1.41.63H72.84a.13.13,0,0,1-.12.13A1.1,1.1,0,0,0,72,30.24q0,2.31,0,4.62A1.07,1.07,0,0,0,72.76,36a1.07,1.07,0,0,1,.18.09c0,.09-.06.12-.12.15A31.68,31.68,0,0,1,66,38.82a19,19,0,0,1-9.21-.13,10.75,10.75,0,0,1-5.16-3,8.38,8.38,0,0,1-2.22-4.6,10.47,10.47,0,0,1,.21-4.33A8.84,8.84,0,0,1,53,21.89a11.75,11.75,0,0,1,5.28-2.15,19.92,19.92,0,0,1,9.15.77c.67.21,1.35.38,2,.61a1.23,1.23,0,0,0,1.1-.1l.09.08" fill="#030202"/><path d="M46.78,61.1c.11-.37,2.1-4.71,2.28-5a2.94,2.94,0,0,0,1.77,1.79,13.46,13.46,0,0,0,4.36,1.27,16.34,16.34,0,0,0,3.9.09,6.21,6.21,0,0,0,2.62-.78,2.22,2.22,0,0,0,1.16-1.57,1.68,1.68,0,0,0-.48-1.51,3.46,3.46,0,0,0-1.54-.84,14,14,0,0,0-3.37-.5,29.09,29.09,0,0,1-4.74-.49,10.86,10.86,0,0,1-2.7-1,4.49,4.49,0,0,1-1.36-6.75,7.42,7.42,0,0,1,3.1-2.17,13.68,13.68,0,0,1,4.46-.86,21.93,21.93,0,0,1,7,1l2.22.6a1.5,1.5,0,0,0,1.19-.11,33.89,33.89,0,0,1-1.85,4.16c-.19-.8-.82-1.11-1.46-1.39a13.37,13.37,0,0,0-3.9-1,16.31,16.31,0,0,0-3.66,0,6.8,6.8,0,0,0-2.36.67,2.67,2.67,0,0,0-.85.64A1.26,1.26,0,0,0,53,49.41a5.85,5.85,0,0,0,1.88.58,29.84,29.84,0,0,0,3.77.33,20.63,20.63,0,0,1,5,.74A7.37,7.37,0,0,1,65.7,52a4.25,4.25,0,0,1,1.85,3.08,5.34,5.34,0,0,1-2.35,5.35,10.16,10.16,0,0,1-3.9,1.67,20.39,20.39,0,0,1-5.37.3,28.21,28.21,0,0,1-4.24-.54,23.26,23.26,0,0,1-3.6-1,1,1,0,0,0-1.3.25" fill="#030202"/><path d="M107.75,37.44a1,1,0,0,0-1.3-.14,23.7,23.7,0,0,1-2.82,1.14,19.17,19.17,0,0,1-6.66.85A15.23,15.23,0,0,1,91.26,38a9.61,9.61,0,0,1-4.56-4,8.86,8.86,0,0,1-1.11-4,9.78,9.78,0,0,1,.68-4.35,9.32,9.32,0,0,1,3.88-4.35,12.38,12.38,0,0,1,5-1.66,20.15,20.15,0,0,1,8.66.86c.68.21,1.37.39,2,.62a1.14,1.14,0,0,0,1.05-.15s.07-.08.16,0l-2.61,5.29a2.34,2.34,0,0,0-1.48-1.49,10.36,10.36,0,0,0-3.56-.94,11.77,11.77,0,0,0-3.93.24,6.38,6.38,0,0,0-3.67,2.27,4.85,4.85,0,0,0-1,3.21,5.06,5.06,0,0,0,3.69,4.74,12.2,12.2,0,0,0,9.21-.89l.07,0a1,1,0,0,0,.69-1.19c.25.21,3.14,4.88,3.29,5.3" fill="#030202"/><path d="M89.79,42.46v5.62c-.12-.06-.14-.16-.19-.23a1,1,0,0,0-.67-.44,2.91,2.91,0,0,0-.53,0H82.68c-.37,0-.37,0-.37.38q0,6.51,0,13a4.59,4.59,0,0,0,0,.57.9.9,0,0,0,.51.75s.1,0,.11.13H76.62c0-.12.12-.13.19-.17a.94.94,0,0,0,.46-.74,6,6,0,0,0,0-.66q0-6.45,0-12.89c0-.07,0-.14,0-.21s0-.21-.19-.19h-6a1.16,1.16,0,0,0-1.18.67c0-.07,0,0-.05,0l0,0q0-2.7,0-5.39s0-.08.09-.1c.25.59.79.65,1.35.65H88.44a1.31,1.31,0,0,0,1.36-.68" fill="#030202"/><path d="M62,71h-.21c-.13,0-.2,0-.2-.19q0-1.15,0-2.3c0-.14,0-.2.19-.2a3.13,3.13,0,0,1,1.17.19,1.35,1.35,0,0,1,.61,1.94,1.17,1.17,0,0,1-.82.49c-.24,0-.49.06-.73.09h0" fill="#fd0101"/><path d="M103.37,62.57a12.75,12.75,0,0,1-6-1.3,9.61,9.61,0,0,1-4.8-5.1,9.41,9.41,0,0,1,3.87-11.61,11.65,11.65,0,0,1,5.27-1.71,14.54,14.54,0,0,1,5.51.47,10.31,10.31,0,0,1,6,4.46,8.77,8.77,0,0,1,1.29,4.29,9.07,9.07,0,0,1-2,6.48A10.7,10.7,0,0,1,107,62.11a14.34,14.34,0,0,1-3.6.46m.11-4a7.66,7.66,0,0,0,1.6-.2,5.39,5.39,0,0,0,4-3.59,6.51,6.51,0,0,0,.23-3.33,5.33,5.33,0,0,0-3.22-4.14,7,7,0,0,0-5-.25,5.36,5.36,0,0,0-3.73,3.69,6.63,6.63,0,0,0-.17,3.14,5.31,5.31,0,0,0,2.7,3.88,7,7,0,0,0,3.56.79" fill="#030202"/><path d="M71.27,69.21,72.05,72c-.56.07-1.07,0-1.64,0a28,28,0,0,1,.86-2.78" fill="#fd0101"/><path d="M76.17,19.89h6.26c0,.14-.13.14-.2.18a.93.93,0,0,0-.42.68,4.24,4.24,0,0,0,0,.57q0,8.1,0,16.19c0,.14,0,.27,0,.41a1,1,0,0,0,.6.91l.11.06s0,0,0,.05H76.16a1.21,1.21,0,0,0,.64-1.24c0-.14,0-.28,0-.41V21.56c0-.14,0-.27,0-.41a1.23,1.23,0,0,0-.63-1.25" fill="#030202"/><path d="M39.75,31.5H38.13c-.13,0-.15-.08-.15-.19A1.46,1.46,0,0,1,39,30c.13,0,.2,0,.25.13.16.42.33.84.52,1.34" fill="#030202"/><path d="M37.6,26a3.52,3.52,0,0,1-1.26-.49c-.14-.08-.07-.19,0-.29.14-.4.29-.79.47-1.27.31.7.55,1.35.82,2" fill="#030202"/><path d="M103.48,58.59a7,7,0,0,1-3.56-.79,5.31,5.31,0,0,1-2.7-3.88,6.6,6.6,0,0,1,.17-3.14,5.36,5.36,0,0,1,3.72-3.7,7,7,0,0,1,5,.25,5.33,5.33,0,0,1,3.22,4.14,6.51,6.51,0,0,1-.22,3.33,5.39,5.39,0,0,1-4,3.59,7.73,7.73,0,0,1-1.6.2m0-.6a5.92,5.92,0,0,0,1.41-.18,4.78,4.78,0,0,0,3.55-3,5.92,5.92,0,0,0,.3-3,4.74,4.74,0,0,0-2.91-3.9,6.35,6.35,0,0,0-4.93-.09,4.71,4.71,0,0,0-3,3.56,6.33,6.33,0,0,0-.06,2.41,4.7,4.7,0,0,0,2.43,3.53,6.49,6.49,0,0,0,3.27.71" fill="#fff"/><path d="M103.5,58a6.49,6.49,0,0,1-3.27-.71,4.7,4.7,0,0,1-2.43-3.53,6.33,6.33,0,0,1,.06-2.41,4.71,4.71,0,0,1,3-3.56,6.35,6.35,0,0,1,4.93.09,4.74,4.74,0,0,1,2.91,3.9,5.92,5.92,0,0,1-.3,3,4.78,4.78,0,0,1-3.55,3,5.92,5.92,0,0,1-1.41.18" fill="#fd0101"/></g></g></svg>