<svg xmlns="http://www.w3.org/2000/svg" viewBox="0 0 289.57 196.54"><title>logo</title><g id="f56731f8-1cad-4a78-a27d-9757ae4c3ceb" data-name="Layer 2"><g id="0a29f5dd-6c9a-43db-afbe-0d29d4d9ddfe" data-name="Layer 1"><path d="M82.53,70.63a1.87,1.87,0,0,1,.73-.06h4c.74,0,.71,0,.75-.76s0-1.21-.78-1.48a1.66,1.66,0,0,1-.86-1.05q-2-5-4-10.06a.88.88,0,0,1,0-.21c0-.24,0-.49,0-.73a62.15,62.15,0,0,0-1.16-6.78,39,39,0,0,0-5.62-13.2,6.59,6.59,0,0,1-.05-1.51c0-.35-.13-.47-.47-.45a3,3,0,0,1-1-.05,24.66,24.66,0,0,0-3.9-3.76,2.28,2.28,0,0,1-.33-.29.44.44,0,0,1-.07-.42c.05-.2.22-.16.36-.15a5.17,5.17,0,0,0,3.23-1,19.4,19.4,0,0,0,1.74-1.35,30.63,30.63,0,0,1,6.32-4.12,28.13,28.13,0,0,1,16.79-2,25.26,25.26,0,0,1,5.8,1.77,26.2,26.2,0,0,0,3.48,1.36q6.25,1.62,12.41,3.54a4,4,0,0,0,.86.19c1.31.12,2.62.28,3.94.38a13.41,13.41,0,0,0,3.5,0,25,25,0,0,0,5.76-1.35c1.53-.69,3.19-1.11,4.48-2.28.3-.27.61-.7,1-.68s.67.44,1,.7c0,0,.09,0,.13,0a6.06,6.06,0,0,0,.63-.5c.31-.31.54-.27.86,0a8.35,8.35,0,0,0,1.88,1.4c2.44,1.06,4.85,2.22,7.56,2.46a16.94,16.94,0,0,0,3.34.34c1.58-.17,3.16-.29,4.74-.44a8.77,8.77,0,0,0,1.72-.32c2.9-.89,5.78-1.84,8.72-2.56a47.34,47.34,0,0,0,7.71-2.57,16.44,16.44,0,0,1,2.82-1,31.64,31.64,0,0,1,9.47-.85,27.61,27.61,0,0,1,7.17,1.44,28.17,28.17,0,0,1,8.62,5.08,17.05,17.05,0,0,0,1.93,1.46,5.32,5.32,0,0,0,3,.94c.12,0,.25-.07.32.07a.36.36,0,0,1,0,.42,3,3,0,0,1-.44.39,22.25,22.25,0,0,0-3,2.74,31.87,31.87,0,0,0-6.26,10.54,47.07,47.07,0,0,0-2.92,13.93,92.64,92.64,0,0,0,0,12.91,50.2,50.2,0,0,0,1.84,9.94c.07.23.21.45.11.7-.18,0-.25-.12-.35-.22A20.09,20.09,0,0,0,191,76a27.51,27.51,0,0,0-9.32-.75,21.72,21.72,0,0,0-8.45,2.27C167.38,80.63,163.66,85.25,163,92A17.16,17.16,0,0,0,165,102.48a19.4,19.4,0,0,0,11.75,9.13,26.37,26.37,0,0,0,12.06.6,20.52,20.52,0,0,0,12.33-6.83c.17-.2.28-.47.55-.56a15.74,15.74,0,0,1,.49,6.11,26.52,26.52,0,0,1-2.36,8.52A54.63,54.63,0,0,1,193.47,130a60,60,0,0,1-10.55,11.09,35.22,35.22,0,0,1-11.19,6.17,14.83,14.83,0,0,1-4.88.95,46.52,46.52,0,0,0-8.78.61,41.52,41.52,0,0,0-11.13,3.38,31,31,0,0,0-5.59,3.36,1.17,1.17,0,0,1-1.48.12c-.15-.09-.3-.17-.43-.27A35.17,35.17,0,0,0,128.25,150a46.63,46.63,0,0,0-13.78-1.82,10.29,10.29,0,0,1-2.26-.16,29.28,29.28,0,0,1-6.46-2.15,40.85,40.85,0,0,1-10.65-7.35,67.59,67.59,0,0,1-10.62-12.89,38.56,38.56,0,0,1-4.94-10.53,19.16,19.16,0,0,1-.15-10.86,1.15,1.15,0,0,0-.1-.91,6.13,6.13,0,0,1-.59-3.28,3.16,3.16,0,0,0,0-.65,9.93,9.93,0,0,1,.52-4.26,10.65,10.65,0,0,1,4.88-6.27,1.19,1.19,0,0,1,.13.25,8.55,8.55,0,0,0,4.45,5.56,18.58,18.58,0,0,0,5.09,1.82,49.22,49.22,0,0,0,8.31.87,33,33,0,0,1,4.45.46A9.74,9.74,0,0,1,109.94,99a2.24,2.24,0,0,1,.44,3.58,5.08,5.08,0,0,1-1.64,1.1,11.17,11.17,0,0,1-3.77.88,30.23,30.23,0,0,1-9.33-.73,19.31,19.31,0,0,1-5.32-2,4.45,4.45,0,0,1-1.44-1.23,1.06,1.06,0,0,1-.2-1c.07-.2.34-.36.23-.58s-.4-.25-.61-.37-.57-.29-.85-.43-.33-.09-.41.13-.13.26-.19.4l-4.76,10.41c-.35.76-.28.62.36.93l.07,0a2.62,2.62,0,0,0,.94.38c.38,0,.53-.47.76-.74a.82.82,0,0,1,1-.22c.85.31,1.7.6,2.57.87a48.48,48.48,0,0,0,11.61,2,37.57,37.57,0,0,0,10.09-.55,18.73,18.73,0,0,0,7.88-3.57,10.41,10.41,0,0,0,4.2-9.22,8.94,8.94,0,0,0-5.07-7.87,16,16,0,0,0-2.79-1.1,36.18,36.18,0,0,0-8.24-1.31,67.28,67.28,0,0,1-7.31-.6,9.8,9.8,0,0,1-3.22-.95,1.19,1.19,0,0,1-.37-2.06,3.73,3.73,0,0,1,1.29-.95,11,11,0,0,1,3.73-1,29,29,0,0,1,10.2.74,13.11,13.11,0,0,1,3.88,1.5c.71.45.79.67.62,1.52-.12.63-.12.63.43.89l.66.31c.5.23.51.23.74-.29l3.41-7.48c.29-.65.58-1.3.89-1.93.18-.35.1-.53-.26-.66a9.28,9.28,0,0,1-1-.46.31.31,0,0,0-.49.14c-.39.79-1,.79-1.75.58-1.46-.41-2.93-.77-4.39-1.18a37.24,37.24,0,0,0-15.17-1.36,21.66,21.66,0,0,0-6.93,2,15.19,15.19,0,0,0-3,2,9.83,9.83,0,0,0-3.4,5.84,11.3,11.3,0,0,0-2.76,1.8,31.72,31.72,0,0,1-4.77,3.64c-.22.14-.39.37-.67.4A.85.85,0,0,1,76,90a18.55,18.55,0,0,0,1.68-2.41c3.12-5.23,4.38-11,4.9-17m45.26-34.39-.84-.35c-.73-.29-.75-.3-1.27.27a1.32,1.32,0,0,1-1.56.44c-1.16-.39-2.34-.69-3.51-1.05a36.47,36.47,0,0,0-17-1.37,21.92,21.92,0,0,0-8.82,3.41,17.22,17.22,0,0,0-7,8.89,19,19,0,0,0-.84,7.83,16.38,16.38,0,0,0,3.16,8.56,19.51,19.51,0,0,0,9.58,6.73,30.84,30.84,0,0,0,8.79,1.52,35.68,35.68,0,0,0,11.32-1.33,64.78,64.78,0,0,0,10.4-4.17c1-.49,1-.5,1-1.62,0-.37-.08-.61-.49-.66a1.77,1.77,0,0,1-.35-.09c-.73-.24-.9-.43-.9-1.22q0-4,0-8c0-.81.15-1,.9-1.23s.84-.29.83-1.2c0-1.11.15-1-1-1H112.05l-.81,0a.88.88,0,0,1-.84-.68c-.11-.31-.06-.75-.37-.92s-.72,0-1.09-.05h-.29c-.28,0-.41.11-.39.39s0,.29,0,.44q0,4.44,0,8.89c0,1,0,1,1,1s.87,0,1.14-.8.39-.83,1-.83H118c.31,0,.44.09.43.41,0,.56,0,1.13,0,1.69a.63.63,0,0,1-.47.7,19.9,19.9,0,0,1-12.73,1c-3.94-1-6.64-3.4-7.18-7.66a9.16,9.16,0,0,1,4.27-9.46,12.66,12.66,0,0,1,6.08-2,20.84,20.84,0,0,1,9.23,1.22,7.84,7.84,0,0,1,2,1.06c.81.62.87,1,.36,1.84,0,0,0,.08,0,.14a7.3,7.3,0,0,0,1.22.49c.64.25.64.25,1-.33l5.45-10.23a.93.93,0,0,0,.19-.6m66,31.11-.45-.75-6.1-9.95c-.77-1.25-.76-1.24-2-.42a.44.44,0,0,0-.22.55c0,.14.07.29.09.43.14.69.08.84-.54,1.19A18,18,0,0,1,180,60.35a23,23,0,0,1-8.32.39A12.63,12.63,0,0,1,167,59.24a8,8,0,0,1-3-11,9.25,9.25,0,0,1,5.05-3.93,18.06,18.06,0,0,1,7.24-.86,18.61,18.61,0,0,1,6.47,1.49,6.38,6.38,0,0,1,1.7,1c.44.38.71.82.37,1.41-.17.3,0,.43.24.54a11,11,0,0,1,1.08.46c.26.13.41.07.51-.19s.13-.27.19-.4l5.2-10.53c.48-1,.48-1-.54-1.38-.66-.26-.67-.27-1.15.28a1.36,1.36,0,0,1-1.62.47c-1.46-.48-2.95-.88-4.43-1.32a35.74,35.74,0,0,0-16.12-1.1,21.86,21.86,0,0,0-8.82,3.42,17.21,17.21,0,0,0-7,8.9,19.19,19.19,0,0,0-.74,8.63,16.08,16.08,0,0,0,3,7.63,19.16,19.16,0,0,0,9.6,6.82,33.73,33.73,0,0,0,16.1,1.09,32.92,32.92,0,0,0,9.33-3c.82-.4,1.53-.62,2.17.25a.34.34,0,0,0,.45.13,13,13,0,0,0,1.51-.73m-46,30.1V86.5c0-.2,0-.39,0-.59s.09-.42.38-.4h9l.88,0a1,1,0,0,1,1,.78c.07.28,0,.65.27.81s.62,0,.93.07.34,0,.51,0c.33,0,.43-.14.41-.44s0-.34,0-.51c0-3.57,0-7.15,0-10.72,0-.46.22-1.06-.11-1.33s-.94-.05-1.42-.1c-.32,0-.4.14-.48.41-.37,1.3-.38,1.3-1.76,1.3H127.15l-.73,0a.86.86,0,0,1-.87-.65c-.13-.34-.08-.84-.39-1a3.07,3.07,0,0,0-1.16-.06h-.29c-.25,0-.35.12-.33.36s0,.24,0,.37c0,3.67,0,7.35,0,11,0,.43-.2,1,.11,1.26s.85,0,1.28.1.5-.14.6-.46c.36-1.16.43-1.21,1.64-1.23h8.89c.93,0,.83-.08.83.82q0,10.87,0,21.74c0,.27,0,.54,0,.81a.94.94,0,0,1-.7,1c-.3.1-.7.06-.87.32s0,.67-.07,1c0,.1,0,.2,0,.29,0,.53,0,.53.52.55h12.56c.41,0,.93.19,1.21-.08s.07-.84.12-1.26-.1-.6-.53-.71c-1.08-.26-1.12-.35-1.13-1.44,0-.2,0-.39,0-.59Zm-33.46,30.71c.29-.1.5-.17.7-.25a3.78,3.78,0,0,0,2.28-2.51,4,4,0,0,0-1.64-4.38,6.38,6.38,0,0,0-3.42-1.16c-2.2-.16-4.4-.08-6.6-.09-.43,0-1-.2-1.26.12s-.07.85-.09,1.28c0,0,0,0,0,.07,0,.27.06.42.36.4a2.55,2.55,0,0,1,.44,0c.79.1,1,.33,1.05,1.13,0,.24,0,.49,0,.73q0,3.78,0,7.56c0,.25,0,.49,0,.73-.06.78-.26,1-1,1.1-.26,0-.6-.11-.77.1s-.05.57-.07.86c0,.1,0,.2,0,.29,0,.64,0,.65.64.65h5.73c1.14,0,1.14,0,1.14-1.18,0-.68,0-.68-.71-.71-.86,0-1.09-.22-1.19-1.06a24.36,24.36,0,0,1-.06-2.86c0-.49.07-.51.55-.5.33,0,.39.25.49.46.85,1.79,1.71,3.57,2.55,5.36a.71.71,0,0,0,.77.49c1.22,0,2.45,0,3.67,0,1.05,0,1.05,0,1.05-1,0-.81,0-.82-.78-.88a2.1,2.1,0,0,1-1.93-1.1c-.61-1.2-1.23-2.38-1.88-3.63m31.9.23c-.12-.24-.21-.4-.28-.56-1.08-2.51-2.18-5-3.24-7.55a.74.74,0,0,0-.82-.53c-1.47,0-2.94,0-4.41,0s-1.44,0-1.37,1.47c0,.33.14.4.43.42,1.24.06,1.59,0,1.59,1.75,0,2.62,0,5.24,0,7.86a4.46,4.46,0,0,1,0,.73c-.11.67-.28.81-.94.93-.33.06-.8-.13-1,.15s-.06.71-.07,1.07c0,0,0,.1,0,.15,0,.52,0,.53.53.53,1.91,0,3.82,0,5.73,0,.36,0,.55-.07.52-.48a6.78,6.78,0,0,1,0-1c0-.34-.13-.41-.43-.4a5.31,5.31,0,0,1-1.1-.05,1,1,0,0,1-.91-.89,7.94,7.94,0,0,1-.07-1.17q0-3.56,0-7.13c0-.15-.06-.32.06-.45a.81.81,0,0,1,.25.4l2.9,6.66,1.79,4.1c.1.22.17.45.5.44.78,0,1.57,0,2.35,0,.25,0,.35-.11.35-.35s0-.34,0-.51q0-5,0-10c0-.42,0-.83,0-1.25.07-.72.24-.86.93-1,.33-.08.77.11,1-.17s.06-.71.07-1.08c0-.69,0-.69-.67-.69h-4.63c-1.08,0-.93-.12-.93.94,0,.29-.12.63.07.85s.51.06.77.09c.76.08,1,.29,1.08,1a2.41,2.41,0,0,1,0,.29q0,2.57,0,5.14a1.55,1.55,0,0,1-.09.29m43.68,2a5.46,5.46,0,0,0-1.25-.47c-.58-.21-.61-.2-.9.32-1.24,2.17-3.23,2.76-5.55,2.69-.23,0-.37-.06-.37-.33,0-1.37,0-2.74,0-4.11,0-.15,0-.29.2-.33a1.33,1.33,0,0,1,1.68,1.18c0,.31-.11.71.14.9s.66.05,1,.07h.29c.5,0,.51,0,.51-.54,0-1.42,0-2.84,0-4.26,0-.45.22-1.05-.12-1.33s-.89-.05-1.35-.08c-.3,0-.45.09-.44.41a3.48,3.48,0,0,1-.12.87.81.81,0,0,1-.76.68c-.22,0-.44,0-.66,0s-.36-.07-.36-.33q0-1.84,0-3.67c0-.25.11-.34.35-.35a5.15,5.15,0,0,1,4.63,1.87c.24.32.33.88.76.9a2.92,2.92,0,0,0,1.14-.45c.19-.09.42-.12.56-.34-.6-1.12-1.22-2.22-1.78-3.36a1,1,0,0,0-1-.59c-3,0-5.92,0-8.88,0-.4,0-.91-.19-1.19.12s-.08.75-.09,1.14c0,.56-.08.6.58.64,1,.05,1.25.3,1.28,1.36,0,.15,0,.29,0,.44q0,3.82,0,7.63c0,.25,0,.49,0,.73-.06.77-.27,1-1,1.09-.26,0-.6-.11-.76.1s0,.57-.07.86,0,.29,0,.44c0,.38.11.51.5.5q5.25,0,10.5,0a.59.59,0,0,0,.63-.37c.65-1.37,1.31-2.72,2-4.1m-91.9-10-.49-.29a4.21,4.21,0,0,0-3.39-.41,6.27,6.27,0,0,0-3,1.83A8.32,8.32,0,0,0,89,127.29a7.8,7.8,0,0,0,1.76,5.25A6.19,6.19,0,0,0,97,135a8.19,8.19,0,0,0,1.93-.67,10,10,0,0,1,1.36-.53c.35-.1.81,0,1-.29s.06-.76.07-1.15c0-1.08,0-2.15.06-3.23,0-.61.19-.78.68-.88.23,0,.53.09.69-.13s.05-.52.07-.79,0-.44,0-.66c0-.55,0-.56-.58-.56-1.66,0-3.33,0-5,0a3.9,3.9,0,0,0-1.52.09q0,.77,0,1.54s0,0,0,.07c0,.27.07.41.38.39a2.61,2.61,0,0,1,.58,0c.52.07.76.26.82.78a10.1,10.1,0,0,1,0,3.07,1.08,1.08,0,0,1-1,.89,2.15,2.15,0,0,1-2-.82,4.64,4.64,0,0,1-.9-1.75,12.37,12.37,0,0,1-.12-6.17,4.71,4.71,0,0,1,.73-1.67,1.9,1.9,0,0,1,2.75-.58,5.08,5.08,0,0,1,1.4,1.28,12.42,12.42,0,0,1,.76,1.08c.15.23.29.29.54.16s.75-.35,1.13-.52.51-.24.33-.74c-.31-.85-.63-1.69-.95-2.54s-.36-.93-1.4-.94c-.4,0-.67.07-.69.6m33.49,14.47c1.08,0,2.16,0,3.23,0,.39,0,.52-.13.5-.51a9.78,9.78,0,0,1,0-1c0-.24-.05-.37-.32-.35a1.59,1.59,0,0,1-1.7-1.32q-.45-1.36-.89-2.72c-.93-2.86-1.86-5.72-2.77-8.58-.13-.41-.29-.6-.76-.58-.68,0-1.37,0-2.06,0-.91,0-.75-.09-1,.71-1.1,3.16-2.18,6.33-3.28,9.5-.23.65-.47,1.28-.72,1.92a1.57,1.57,0,0,1-1.4,1c-.24,0-.54-.1-.7.1s0,.52-.07.78a1.45,1.45,0,0,0,0,.15c0,1-.11.88.85.88h4.19c1.55,0,1.55,0,1.43-1.55,0-.26-.11-.34-.35-.33a4.35,4.35,0,0,1-.81,0c-.53-.08-.66-.29-.52-.81s.33-1,.46-1.55c.08-.35.27-.4.58-.4,1.08,0,2.15,0,3.23,0,.34,0,.47.13.54.44s.21.75.31,1.13c.19.75-.07,1.12-.83,1.22-.26,0-.59-.13-.76.09s0,.57-.07.86,0,.3,0,.44c0,.39.13.5.5.5,1.08,0,2.15,0,3.23,0m9.83-100.47h-5.73c-1.56,0-1.55,0-1.43,1.55a.41.41,0,0,0,.31.41c1.33.5,1.33.51,1.34,1.9v.15q0,14.14,0,28.27c0,.29,0,.59,0,.88a.87.87,0,0,1-.69.91c-.3.09-.69,0-.87.3s0,.67-.07,1c0,.17,0,.34,0,.51s.11.35.36.34h13.58c.3,0,.45-.1.44-.43s0-.69,0-1-.15-.5-.49-.59c-1.23-.35-1.25-.4-1.25-1.67V38.07c0-.2,0-.39,0-.59a.94.94,0,0,1,.77-1c.32-.1.77-.05.91-.37a2.85,2.85,0,0,0,.05-1s0-.1,0-.15c0-.6,0-.6-.62-.61h-6.61M166,121.68v2.25c0,2.5,0,5,0,7.49,0,1.11-.27,1.38-1.27,1.49-.38,0-.89-.16-1.12.13s-.07.8-.07,1.21,0,.56.57.56H171c1.13,0,1.13,0,1.13-1.11,0-.75,0-.75-.79-.77-1.39,0-1.67-.3-1.67-1.7,0-2,0-4,0-6,0-1,0-2,0-3,0-.57,0-.57.59-.46a4.11,4.11,0,0,1,2.37,1.49,13,13,0,0,1,1.11,1.61c.47-.24.92-.48,1.38-.69s.3-.29.16-.56c-.6-1.12-1.19-2.25-1.74-3.39a.74.74,0,0,0-.8-.46c-1.12,0-2.25,0-3.38,0h-6.46c-.26,0-.53,0-.69.28-.61,1.22-1.24,2.44-1.87,3.65-.12.23-.06.35.17.46.38.17.75.35,1.11.56s.39.07.52-.17a7.28,7.28,0,0,1,1.33-1.75,3.73,3.73,0,0,1,2.53-1.1M159.23,133a1.3,1.3,0,0,0-.57-.05c-.91-.05-1.15-.3-1.21-1.21,0-.12,0-.24,0-.37q0-4,0-7.93a6.37,6.37,0,0,1,0-.81c.08-.63.24-.77.86-.92.3-.08.72.08.9-.17s0-.67.07-1c0-.07,0-.15,0-.22,0-.54,0-.55-.59-.55h-5.5c-.41,0-.93-.17-1.21.09s-.1.83-.12,1.26,0,.5.51.54c1.1.09,1.31.3,1.36,1.38,0,.12,0,.24,0,.37q0,3.93,0,7.85a4.64,4.64,0,0,1,0,.66c-.11.74-.3.91-1,1-.26,0-.59-.12-.76.11s0,.57-.07.85c0,.12,0,.24,0,.37,0,.56,0,.57.56.57,1.76,0,3.52,0,5.28,0,.5,0,1.17.23,1.47-.12s.09-1,.09-1.57a.44.44,0,0,0-.05-.14" fill="#fd0101"/><path d="M200.38,81.34c.1-.25,0-.47-.11-.7a50.19,50.19,0,0,1-1.84-9.94,92.81,92.81,0,0,1,0-12.91,47.07,47.07,0,0,1,2.92-13.93,31.87,31.87,0,0,1,6.26-10.54,22.16,22.16,0,0,1,3-2.74,3,3,0,0,0,.44-.39.37.37,0,0,0,0-.42c-.07-.14-.21-.08-.32-.07a5.31,5.31,0,0,1-3-.94,17,17,0,0,1-1.93-1.46,28.16,28.16,0,0,0-8.62-5.08A27.59,27.59,0,0,0,190,20.79a31.67,31.67,0,0,0-9.46.85,16.38,16.38,0,0,0-2.82,1A47.33,47.33,0,0,1,170,25.25c-2.95.71-5.83,1.67-8.72,2.56a8.82,8.82,0,0,1-1.72.32c-1.58.15-3.17.28-4.74.44a17,17,0,0,1-3.35-.34c-2.71-.24-5.12-1.4-7.56-2.46a8.4,8.4,0,0,1-1.87-1.4c-.33-.27-.56-.32-.86,0a5.85,5.85,0,0,1-.63.5s-.1,0-.13,0c-.33-.25-.62-.68-1-.7s-.7.41-1,.68c-1.29,1.17-3,1.6-4.48,2.28a24.93,24.93,0,0,1-5.76,1.35,13.42,13.42,0,0,1-3.5,0c-1.32-.1-2.62-.26-3.94-.37a4,4,0,0,1-.86-.19q-6.16-1.93-12.41-3.54A26.14,26.14,0,0,1,104,22.94a25.24,25.24,0,0,0-5.81-1.77,28.12,28.12,0,0,0-16.79,2,30.65,30.65,0,0,0-6.32,4.13,19.12,19.12,0,0,1-1.74,1.35,5.17,5.17,0,0,1-3.23,1c-.14,0-.31-.05-.36.15a.43.43,0,0,0,.07.42,2.38,2.38,0,0,0,.33.29A24.61,24.61,0,0,1,74,34.28a1.93,1.93,0,0,1-.8.06h-13c-.95,0-1.89,0-2.84,0-.36,0-.48.12-.45.47s0,.49,0,.73c0,.64,0,.65.65.83a.44.44,0,0,1,.35.55,6.52,6.52,0,0,1-.39,1.41c0,.06-.07.16-.12.17-.52.11-.54.58-.67,1a4.89,4.89,0,0,0-.29,1.06,17.41,17.41,0,0,1-1.25,4.21c-1,2.77-2,5.58-3.08,8.31-.08.2-.05.43-.25.6-.32-.12-.47-.47-.58-.7a18.19,18.19,0,0,1-2.12-9.69,18.74,18.74,0,0,1,.71-3.67,12.93,12.93,0,0,1,.74-1.77c.11-.24.05-.37-.21-.42a11.44,11.44,0,0,1-2.31-.93,9.92,9.92,0,0,1-2.87-1.91,2.41,2.41,0,0,1-1.07-2.42,1.34,1.34,0,0,1,1.71-1,3.6,3.6,0,0,1,1,.72c.42.38.82.77,1.25,1.14.24.2.47.52.8.46a2.21,2.21,0,0,0,1.4-.56l.82-.94A57.79,57.79,0,0,1,66.9,19.3a53.26,53.26,0,0,1,13.45-5.38,78.92,78.92,0,0,1,7.85-1.55c-.63-.48-1.16-.9-1.7-1.3-.19-.14-.43,0-.65,0a36.92,36.92,0,0,0-11.53,2.69c-1.93.8-3.86,1.61-5.75,2.51A62.18,62.18,0,0,0,54,25.8a16.72,16.72,0,0,1-3.66,2.53,5.09,5.09,0,0,1-2.46.56c-.41,0-.51-.22-.31-.58a3.64,3.64,0,0,1,.66-.79,46.38,46.38,0,0,1,6.09-5q2.6-1.84,5.35-3.45c1.17-.68,2.34-1.36,3.52-2a20.53,20.53,0,0,0,1.94-1.27A16.82,16.82,0,0,1,68.51,14q3.22-1.31,6.51-2.47a72.72,72.72,0,0,1,8.36-2.19c.67-.15,1.34-.26,2-.39a1.08,1.08,0,0,0-.26-.68,7.91,7.91,0,0,1-1-2.71.45.45,0,0,0,0-.07,24.87,24.87,0,0,1-.84-3.6c-.06-.29-.33-.46-.29-.8A2.34,2.34,0,0,1,83.34,0c.25,0,.36.2.5.35.93.94,1.9,1.85,2.78,2.83a7,7,0,0,0,2.12,1.41c1.64.86,3.25,1.78,4.9,2.63.66.34.73.32,1.23-.2a23.91,23.91,0,0,1,5.68-4.8,6,6,0,0,1,6-.08,1.15,1.15,0,0,1,.38,1.9,7.4,7.4,0,0,1-1.38,1.31c-.65.52-1.31,1-1.94,1.57A6.83,6.83,0,0,0,102,9a2.51,2.51,0,0,0-.12,2.39,4.21,4.21,0,0,1,.3.75c.32,1.18,1.27,1.72,2.24,2.29a1,1,0,0,0,.12-.24,7.39,7.39,0,0,1,2-4,13.85,13.85,0,0,1,4.57-3.35,5.8,5.8,0,0,1,4.9-.06c1.41.63,1.55,1.42.49,2.53a15.84,15.84,0,0,1-1.75,1.46,11.24,11.24,0,0,0-2.51,2.45l-.23.37a3.34,3.34,0,0,0,.32,3.88A9.12,9.12,0,0,0,115,19.77a17.13,17.13,0,0,0,4.14,2.15,4.5,4.5,0,0,1,1.49.72c.1.08.28.06.42.09l4.2.66a2,2,0,0,0,.37,0,47.73,47.73,0,0,0,5.85-.44,18,18,0,0,0,3.41-1.3c-.16-.44-.51-.6-.78-.84a8.85,8.85,0,0,1,0-13.2,8.85,8.85,0,0,1,4-2.2c6.27-1.44,11.25,2.79,11.73,7.94a8.77,8.77,0,0,1-3.22,7.75c-.16.14-.38.23-.45.54A14.16,14.16,0,0,0,149.71,23a41.1,41.1,0,0,0,5.56.4,26.71,26.71,0,0,0,3.34-.44l.65-.1a4.3,4.3,0,0,0,1.49-.47c.71-.4,1.52-.62,2.27-1a17.42,17.42,0,0,0,5.29-3.55,4.68,4.68,0,0,0,1.17-2.7,1.6,1.6,0,0,0-.21-.85,6.82,6.82,0,0,0-2-2.64c-.77-.62-1.55-1.24-2.32-1.88a4.4,4.4,0,0,1-.9-1,1.08,1.08,0,0,1,.34-1.7,5.06,5.06,0,0,1,3.15-.8,7.14,7.14,0,0,1,3.31,1,15.58,15.58,0,0,1,3.71,3,7.54,7.54,0,0,1,2,4.14c1-.63,2.08-1.11,2.28-2.41,0-.17.14-.24.2-.35a2.41,2.41,0,0,0,.15-2.39A7.17,7.17,0,0,0,177.43,7l-2-1.61a8,8,0,0,1-1.34-1.25,1.14,1.14,0,0,1,.27-1.92A5.14,5.14,0,0,1,178,1.47a7.08,7.08,0,0,1,2.87,1.06,15.88,15.88,0,0,1,3.64,3c.55.62,1.19,1.17,1.72,1.81.25.31.62.19.92,0,.89-.46,1.77-.95,2.65-1.43l2.6-1.41a7.29,7.29,0,0,0,2.13-1.56c.79-.9,1.66-1.73,2.5-2.59.13-.13.24-.32.49-.33a1.56,1.56,0,0,1,.33,1.41c-.43,1.82-.81,3.66-1.37,5.45a15.9,15.9,0,0,1-.91,2c.09.2.29.17.45.2,2.53.45,5,1.06,7.5,1.75a98.46,98.46,0,0,1,9.41,3.4,19.34,19.34,0,0,1,3.69,2.08c1,.71,2.18,1.29,3.28,1.92a64.14,64.14,0,0,1,12.29,8.74,8.46,8.46,0,0,1,1.21,1.28c.11.16.24.33.13.54s-.33.19-.52.19a6,6,0,0,1-2.34-.57,14,14,0,0,1-3.43-2.25,65.76,65.76,0,0,0-7.1-5.45A62.46,62.46,0,0,0,214,17.12c-1.25-.62-2.5-1.23-3.78-1.81-1.45-.65-2.91-1.26-4.37-1.89-.68-.29-1.39-.46-2.08-.73a16.86,16.86,0,0,0-2.11-.63c-.73-.19-1.48-.34-2.23-.48s-1.45-.24-2.18-.33S195.76,11.1,195,11a.74.74,0,0,0-.57.07l-1.62,1.26c1.54.28,3,.51,4.36.79A58,58,0,0,1,204,14.87a57,57,0,0,1,8.44,3.52,58.89,58.89,0,0,1,14.08,10.09,47.8,47.8,0,0,1,3.84,4.14,3.24,3.24,0,0,0,.4.43,1.46,1.46,0,0,0,1.91,0c.46-.39.89-.82,1.34-1.22a4.76,4.76,0,0,1,.7-.53,1.39,1.39,0,0,1,2.12,1.14,2.07,2.07,0,0,1-.42,1.3,5.82,5.82,0,0,1-1.34,1.35,14.33,14.33,0,0,1-4.3,2.23c-.59.2-.56.18-.31.75a15.92,15.92,0,0,1,.38,12.08A21.07,21.07,0,0,1,229,54a5.71,5.71,0,0,1-.81,1,3.9,3.9,0,0,1-6-.5c-.15-.21-.42-.42-.42-.64a6.88,6.88,0,0,1,0-1.82,11.3,11.3,0,0,1,.74-2.15c.32-.69.65-1.37.95-2.07a3.68,3.68,0,0,0,.37-1.18c0-.33.31-.62.4-1a10.84,10.84,0,0,0-.16-6.51c-.29-.83-.47-.87-1.06-.25a.64.64,0,0,0-.1.1,24.29,24.29,0,0,1-2.74,2.93c-.27.32-.54.63-.82.94a11.94,11.94,0,0,1-4.34,3.19,4.37,4.37,0,0,1-3,.23,2.52,2.52,0,0,1-1-4.28,5.64,5.64,0,0,1,1.8-1.12,12,12,0,0,0,3.24-1.84,1,1,0,0,1,.4-.17,12,12,0,0,0,4.53-2.78,1.8,1.8,0,0,0,.63-2l-.9.75A15.67,15.67,0,0,1,214,38.32a4.33,4.33,0,0,0-1.64.78,9.26,9.26,0,0,0-2.4,2.66A21,21,0,0,0,206.81,53a10.3,10.3,0,0,0,1.78,5.81,3.17,3.17,0,0,1,.48,1.29c.1.59.12.59.7.6a2.44,2.44,0,0,1,.29,0,1.26,1.26,0,0,0,1.49-.8,6,6,0,0,0-2-1.8A2.5,2.5,0,0,1,208,56.06a2.6,2.6,0,0,1,3.67-2.41,2.49,2.49,0,0,1,1.21,3.51c-.2.35-.27.61,0,.9a.24.24,0,0,1,.06.13c.09.79.71.94,1.32,1.14a.65.65,0,0,0,.55,0c.84-.5,1.25-.2,2,.72a10.66,10.66,0,0,1,1.8,4.43,18,18,0,0,1-.8,10.6c-.28.73-.28.73-1,.73h-8c-.19,0-.33.06-.33.29,0,.44,0,.88,0,1.32,0,.22.14.29.31.34l.63.18a.87.87,0,0,1,.71,1c0,1.17,0,2.35,0,3.52q0,12.75,0,25.49c0,.34,0,.69,0,1a.89.89,0,0,1-.74.94c-.29.09-.72,0-.85.32a2.46,2.46,0,0,0,0,.94c0,1-.12.87.84.87H221a1.08,1.08,0,0,1,.85.33,1.4,1.4,0,0,0,.39.33,1.73,1.73,0,0,1,1,1.25c.12.55.59.6,1,.7a1.66,1.66,0,0,0,.66,0,1.37,1.37,0,0,1,1.35.55c.38.48.82.89,1.25,1.37a3.26,3.26,0,0,0-.71.83.94.94,0,0,1-1.05.48,2.86,2.86,0,0,0-2.86.94c-1.47,1.35-2.72,2.88-4.07,4.33a12.84,12.84,0,0,0-1.48,2c-1.1,1.75-2.2,3.52-3.35,5.25-1.49,2.26-3,4.52-4.56,6.73-.71,1-1.61,1.84-2.39,2.79a66.84,66.84,0,0,1-6.23,6.12,7.87,7.87,0,0,1-1.51,1.14c-1,.56-1.93,1.16-2.87,1.78-3.69,2.42-7.6,4.43-11.43,6.6a6.25,6.25,0,0,1-1.32.32c-1.9.63-3.83,1.19-5.73,1.83a18.17,18.17,0,0,1-3.23.62c-4.43.64-8.87,1.17-13.31,1.77-1.81.24-3.59.73-5.38,1.11a6.48,6.48,0,0,1-.93.2,3.16,3.16,0,0,0-1.73.9,1.71,1.71,0,0,0-.17,1.36.29.29,0,0,0,.27.08,1.86,1.86,0,0,1,1,.3c4.85,2.31,9.74,4.55,14.72,6.57a20.3,20.3,0,0,0,3.83.94,30.25,30.25,0,0,0,3.92.53,6.08,6.08,0,0,0,2.67-.33c.48-.19,1-.32,1.46-.5a26.62,26.62,0,0,0,5.93-3.16,16.79,16.79,0,0,0,2.55-2,8.84,8.84,0,0,0,2.68-6.54,4.39,4.39,0,0,1,.14-1.31,1.21,1.21,0,0,1,.72-.87,2.05,2.05,0,0,1,2.8,1.35,5.14,5.14,0,0,1-.06,2.47,12.73,12.73,0,0,1-1.3,3.42A.87.87,0,0,0,195,166a.26.26,0,0,0,.33,0,9.18,9.18,0,0,0,1.2-1,12.44,12.44,0,0,0,3.37-6.16,10.27,10.27,0,0,0-.14-4.15c-.12-.5-.25-1-.33-1.5a1.19,1.19,0,0,1,.59-1.38,1.44,1.44,0,0,1,1.7.23,3.24,3.24,0,0,1,.9,1.81,13.84,13.84,0,0,1-.23,6.11c-.06.25-.12.51-.2.85a6.94,6.94,0,0,0,4.53-3.07,2.59,2.59,0,0,0,.2-1.57,6.93,6.93,0,0,0-1.58-3.73,20.18,20.18,0,0,0-1.78-1.95,10.63,10.63,0,0,1-1.35-1.55c-1.08-1.61-.27-2.48,1-3.07a4.33,4.33,0,0,1,4.38.52,14.08,14.08,0,0,1,4.23,4.43,10.21,10.21,0,0,1,1.43,4,7.53,7.53,0,0,1-.88,4.53A20.77,20.77,0,0,1,210.5,162c-.47.65-.91,1.32-1.41,2,1.2.39,1.43,1.6,2.22,2.31,1.05,1,.78,2.15.51,3.31a.65.65,0,0,1-.61.54.69.69,0,0,1-.76-.44.72.72,0,0,0-.53-.43,6.9,6.9,0,0,0-3.31-.32,13.35,13.35,0,0,0-4.4,1.71c-1.8,1-3.65,1.85-5.39,2.92a21,21,0,0,1-7.16,2.43c-1.6.32-3.21.56-4.79,1a12.15,12.15,0,0,1-4.79.23,9.94,9.94,0,0,0-1.61-.06,32.34,32.34,0,0,1-4.82-.47,39.71,39.71,0,0,1-4.2-1,25.32,25.32,0,0,1-6.72-2.85,77.78,77.78,0,0,0-8.22-4,17.59,17.59,0,0,0-4-1c-.62-.1-1.27-.08-1.9-.14a6.52,6.52,0,0,0-2.23.37c-.33.08-.36.36-.43.62s.19.3.34.39a5.8,5.8,0,0,0,1.61.48,1.45,1.45,0,0,1,.7.36c.19.19.4.36.6.54a10,10,0,0,1,2.45,3.16c.86,1.84,1.87,3.6,2.75,5.43a8.06,8.06,0,0,0,2,2.47,14.35,14.35,0,0,0,5.12,2.76,1.16,1.16,0,0,1,.33.15,5.06,5.06,0,0,0,2.48.75,2,2,0,0,0,1.79-.82,4.09,4.09,0,0,0,1-3c0-.39-.06-.78,0-1.17s.25-.73.78-.77a1.94,1.94,0,0,1,2.15,1.84,5.47,5.47,0,0,1-.68,3,11.11,11.11,0,0,1-1.28,1.82,3.09,3.09,0,0,0,2.51-.91,10.91,10.91,0,0,0,1.26-1.71,4.23,4.23,0,0,0,.28-3.61,7.19,7.19,0,0,1-.3-.9.78.78,0,0,1,.66-1.09,1.94,1.94,0,0,1,2.43,1.23,5.17,5.17,0,0,1,.2,2.75,8.08,8.08,0,0,1-.74,2.22c-.08.17-.36.36-.05.55s.52.26.79,0a6.12,6.12,0,0,0,.81-1,6.36,6.36,0,0,0,.74-2.21,12.3,12.3,0,0,1,.3-1.73,1.94,1.94,0,0,1,1.91-1.54c1.49-.09,2.83.56,2.71,2.63a8.09,8.09,0,0,1-1.16,3.9c-.33.54-.46,1.17-.79,1.72a4.82,4.82,0,0,1-2.85,2.54,2.53,2.53,0,0,0-.83.44c-.66.48-.66.47,0,1a7.54,7.54,0,0,1,1.9,2.21,4.65,4.65,0,0,1,.5,1.45,1.89,1.89,0,0,1-1,2.14,3.36,3.36,0,0,1-2,.41c-.66-.06-.91-.33-.92-1a6.37,6.37,0,0,1,0-.66,3.36,3.36,0,0,0-1.06-2.79,4,4,0,0,0-2.06-1.31.74.74,0,0,1-.36-.21,1.26,1.26,0,0,0-.85-.34c-.51,0-1-.1-1.54-.1a6.59,6.59,0,0,1-2-.33c-.57-.18-1.18-.1-1.74-.34-.76-.33-1.59-.36-2.36-.71a6.44,6.44,0,0,0-2-.75.73.73,0,0,1-.33-.15c-.9-.66-1.89-1.18-2.82-1.78a9.29,9.29,0,0,1-2.32-1.93,8.1,8.1,0,0,0-1.46-1.42,3.37,3.37,0,0,1-.86-1c-.47-.78-1-1.51-1.52-2.26-.25-.37-.15-.92-.59-1.2,0-.61-.44-1-.68-1.55a11.34,11.34,0,0,0-1.48-2.57,18.84,18.84,0,0,0-2.85-2.58.46.46,0,0,0-.26-.11,11.55,11.55,0,0,1-1.93-.37,5.41,5.41,0,0,1-1.58-.71c-.16-.08-.1-.26-.06-.4.36-1.22.64-2.46,1-3.66a1.35,1.35,0,0,1,.53-.66,15.07,15.07,0,0,1,4.67-2.4,1.25,1.25,0,0,0,1-.9,2.79,2.79,0,0,1,.91-1.2,6.58,6.58,0,0,1,3.57-1.68c2-.34,3.87-.85,5.81-1.23a38.71,38.71,0,0,1,4.16-.38c1.73-.15,3.47-.22,5.19-.43,1.16-.14,2.3-.45,3.45-.69l5.89-1.23a7.42,7.42,0,0,0,1.39-.44l7.55-3.21a5.57,5.57,0,0,0,.77-.41l7.37-4.69a3,3,0,0,0,.48-.33c2.41-2.29,4.94-4.47,7.25-6.87a91.34,91.34,0,0,0,7.71-9,8.42,8.42,0,0,0,.64-1.07c1.65-3.11,3.33-6.21,5.13-9.24a19.62,19.62,0,0,1,1.71-2.2,2,2,0,0,1,.6-.41l1.57-.91a17.5,17.5,0,0,0-1.88-.6.33.33,0,0,0-.43.17c-.12.18-.25.36-.38.54-2.65,3.82-5.25,7.68-8,11.45a80.54,80.54,0,0,1-9,11c-1.59,1.54-3.22,3-4.94,4.37a52.72,52.72,0,0,1-8,5.4c-.88.47-1.74,1-2.6,1.51a17.91,17.91,0,0,1-4.71,2.16,1.44,1.44,0,0,0-.66.3,3.82,3.82,0,0,1-2.14.87c-2.31.4-4.63.79-6.92,1.27-1.53.32-3,.81-4.58,1a31.43,31.43,0,0,1-4.31.38,37.82,37.82,0,0,0-6,.65c-1.59.28-3.18.47-4.77.71a3.09,3.09,0,0,0-1.47.56c-.86.65-1.75,1.25-2.65,1.84a4.53,4.53,0,0,0-1.32,1.25,22.53,22.53,0,0,1-3.29,3.44,1.67,1.67,0,0,0-.55,1c-.15.94-.38,1.87-.53,2.81-.06.37-.23.43-.54.42s-.5,0-.56-.39c-.16-1-.38-2-.55-3a1.23,1.23,0,0,0-.4-.75c-.37-.33-.71-.68-1.07-1a15.58,15.58,0,0,1-2.47-2.71,3.62,3.62,0,0,0-1-1q-1.58-1.07-3.14-2.18a1.57,1.57,0,0,0-.73-.29c-1.16-.15-2.33-.29-3.49-.49-1.95-.33-3.9-.62-5.87-.84-1.12-.13-2.25-.09-3.37-.17a30,30,0,0,1-6.14-1.06c-2-.57-4-.81-6-1.19-.86-.17-1.72-.35-2.6-.46a2.83,2.83,0,0,1-1.65-.73,1.89,1.89,0,0,0-.85-.4,16.29,16.29,0,0,1-4.32-2c-.72-.46-1.46-.9-2.22-1.29a68.48,68.48,0,0,1-11.19-7.77,4.88,4.88,0,0,1-.43-.4c-.67-.68-1.32-1.38-2-2a66.24,66.24,0,0,1-6.65-7.81c-3.21-4.17-6-8.64-9.08-12.88-.52-.71-1-1.44-1.52-2.16a.45.45,0,0,0-.61-.21c-.55.19-1.12.33-1.83.54.6.35,1.07.63,1.56.89a3.63,3.63,0,0,1,1,.83A17.55,17.55,0,0,1,65.21,121c1.64,2.78,3.15,5.63,4.68,8.48a7.73,7.73,0,0,0,.88,1.35c.35.41.67.84,1,1.27a83.85,83.85,0,0,0,10.3,11.15c.89.81,1.77,1.62,2.63,2.46a11.25,11.25,0,0,0,1.91,1.48q3,1.91,6.07,3.86a13.14,13.14,0,0,0,2.07,1.09c2.21.93,4.42,1.84,6.61,2.81a17.94,17.94,0,0,0,3.53.94c2.2.48,4.4.94,6.6,1.42a17.59,17.59,0,0,0,2.33.25c2.41.21,4.83.37,7.24.6,1.39.13,2.73.55,4.1.82s2.58.57,3.87.83a1.91,1.91,0,0,1,.91.43,11.12,11.12,0,0,0,1,.78,2.77,2.77,0,0,1,1.19,1.52.88.88,0,0,0,.64.63c.21.06.41.16.62.22a15.23,15.23,0,0,1,4.32,2.29,1.2,1.2,0,0,1,.5.69c.34,1.2.68,2.4,1,3.59.09.31-.06.42-.29.56a8.53,8.53,0,0,1-3,.9,1.42,1.42,0,0,0-.79.33c-.75.67-1.51,1.32-2.27,2a7.2,7.2,0,0,0-1.29,1.95c-.76,1.27-1.33,2.65-2,4a11.21,11.21,0,0,1-1.73,2.54q-1.54,1.61-3.18,3.11a8.16,8.16,0,0,1-1.21.82,20.12,20.12,0,0,1-2.74,1.69,21.26,21.26,0,0,1-3.66,1.41q-1.56.35-3.11.74a16.44,16.44,0,0,1-2.55.26,5.91,5.91,0,0,0-4.45,2.68,2.81,2.81,0,0,0-.46,1.6c0,.22,0,.44,0,.66.06,1.17-.28,1.5-1.46,1.4a4.4,4.4,0,0,1-.93-.19,2,2,0,0,1-1.51-2.54,5,5,0,0,1,1.48-2.65A10,10,0,0,1,105.4,190c.21-.16.26-.32,0-.44a9.29,9.29,0,0,0-1.19-.59,3.42,3.42,0,0,1-1.56-.81,6.59,6.59,0,0,1-1.46-1.84c-.37-.93-.8-1.83-1.21-2.75a8,8,0,0,1-.64-3.07,2.38,2.38,0,0,1,.8-2c.07-.06.1-.13.21-.16a7.31,7.31,0,0,1,1.13-.29,2.09,2.09,0,0,1,2.54,1.77c.13.52.18,1.06.27,1.59a5.63,5.63,0,0,0,1.49,3.13.55.55,0,0,0,.65.18c.28-.1.39-.21.21-.53a7,7,0,0,1-.89-3.73,4.07,4.07,0,0,1,.34-1.5,2,2,0,0,1,2.45-1.07.75.75,0,0,1,.59,1,4.2,4.2,0,0,1-.25.76,4.44,4.44,0,0,0,.48,4.27,9.51,9.51,0,0,0,1.27,1.51,1.53,1.53,0,0,0,1.09.52,5.39,5.39,0,0,0,1,.12c0-.27-.24-.41-.38-.59a6.87,6.87,0,0,1-1.42-3,4.12,4.12,0,0,1-.05-1.24,2,2,0,0,1,2.22-1.75c.45.06.67.24.7.7a11,11,0,0,1,0,1.25,4.06,4.06,0,0,0,1,2.93,2.35,2.35,0,0,0,2.27.82c1.12-.12,2-.8,3-1.08.42-.11.8-.35,1.22-.5a13.35,13.35,0,0,0,4.57-3.24,2.14,2.14,0,0,0,.38-.62c1.08-2.11,2.2-4.21,3.24-6.34a8.7,8.7,0,0,1,1.89-2.5c.14-.14.3-.26.43-.4a3.17,3.17,0,0,1,2-1.07,1.81,1.81,0,0,0,.83-.27c.16-.11.48-.11.4-.43s-.1-.53-.43-.61a8.39,8.39,0,0,0-2.16-.37,19.72,19.72,0,0,0-5.19.86,28,28,0,0,0-3.57,1.53c-2.09,1-4.11,2.06-6.11,3.19a25.38,25.38,0,0,1-6.65,2.64c-.5.12-1,.28-1.49.4a31,31,0,0,1-6.3.89q-2.05.07-4.1.18a6.47,6.47,0,0,1-1.89-.16c-2.42-.59-4.89-1-7.34-1.46a9.26,9.26,0,0,1-2.06-.55,4.75,4.75,0,0,0-1.33-.36,3.39,3.39,0,0,1-1.3-.66,20.1,20.1,0,0,0-3.71-2,.94.94,0,0,1-.32-.16,7.08,7.08,0,0,0-1.88-1c-.35-.18-.6-.48-.95-.65a11.52,11.52,0,0,0-4.49-1.52,6.61,6.61,0,0,0-2.93.53c-.22.09-.32.29-.47.45-.45.5-.93.43-1.15-.19a5.67,5.67,0,0,1-.11-2.61c0-.2.21-.32.34-.47a8.74,8.74,0,0,0,.92-1c.4-.61.71-1.3,1.6-1.5a14.39,14.39,0,0,0-1.68-2.31,2.56,2.56,0,0,1-.42-.59c-.09-.14-.11-.35-.23-.45-.59-.5-.75-1.26-1.18-1.86a5.14,5.14,0,0,1-.55-1.92,8.51,8.51,0,0,1,0-3,9.12,9.12,0,0,1,2-4.21,12.62,12.62,0,0,1,4-3.71,4.16,4.16,0,0,1,4.38.05,1.65,1.65,0,0,1,.62,2.61,8.25,8.25,0,0,1-1.21,1.47,27.19,27.19,0,0,0-1.9,2,7.25,7.25,0,0,0-1.71,3.83,3,3,0,0,0,.8,2.48,7.73,7.73,0,0,0,3.85,2.2c.11-.29,0-.54-.1-.78a14.06,14.06,0,0,1-.24-6.18,4.2,4.2,0,0,1,.42-1.17,2.17,2.17,0,0,1,.6-.73,1.41,1.41,0,0,1,1.59-.12,1.14,1.14,0,0,1,.58,1.31c-.11.7-.29,1.39-.43,2.08a9.71,9.71,0,0,0,1.49,7.43,10.15,10.15,0,0,0,2.81,3.16c.18.12.32.4.62.15.47-.38.61-.66.44-1-.08-.18-.19-.34-.28-.52a12,12,0,0,1-1.31-4,4.15,4.15,0,0,1,.08-1.53,2,2,0,0,1,2.75-1.44,1.2,1.2,0,0,1,.76.84,4.66,4.66,0,0,1,.16,1.38,9.16,9.16,0,0,0,4,7.67,31.57,31.57,0,0,0,5.84,3.48,11,11,0,0,0,5.13,1.35c.9,0,1.8-.19,2.69-.29,1.46-.17,2.88-.54,4.32-.83a4,4,0,0,0,.69-.25c5.09-2,10.06-4.32,15-6.67a2,2,0,0,1,1.11-.32.28.28,0,0,0,.27-.09,1.77,1.77,0,0,0-.19-1.36,4,4,0,0,0-1.8-.91c-2.21-.42-4.38-1-6.61-1.35s-4.18-.51-6.26-.79c-2.35-.31-4.7-.69-7.05-1a34.29,34.29,0,0,1-5.52-1.42,25.44,25.44,0,0,0-4-1.13,1.44,1.44,0,0,1-.46-.23c-4.78-2.58-9.48-5.29-14.05-8.22a15.07,15.07,0,0,1-2.13-1.66c-1-.89-2-1.7-2.93-2.6a23.13,23.13,0,0,1-1.89-2q-1.68-2-3.47-4a10.15,10.15,0,0,1-.56-.9c-.72-.93-1.33-1.93-2-2.88-.48-.68-.91-1.42-1.38-2.12-1.15-1.69-2.17-3.46-3.31-5.16a15.94,15.94,0,0,0-2.44-3.33c-.78-.69-1.35-1.56-2.06-2.31a12.17,12.17,0,0,0-2.17-1.92.81.81,0,0,1-.28-.23c-.29-.55-.77-.48-1.26-.41-.24,0-.49,0-.73.06a1.08,1.08,0,0,1-1.19-.63,1.6,1.6,0,0,0-.59-.66L54.91,115a1.16,1.16,0,0,1,1-.37,2.6,2.6,0,0,0,1.44-.2c.19-.1.35-.21.36-.42a1.93,1.93,0,0,1,1-1.4c.52-.39,1-.86,1.45-1.29a1.22,1.22,0,0,1,.76-.36c.66,0,1.32-.11,2-.12a3.84,3.84,0,0,1,1.81.47c.3.16.58.28.86,0s.62-.45.49-.95a32.22,32.22,0,0,1-.77-5.24c-.08-.95-.17-1.9-.17-2.85a3.27,3.27,0,0,1,.38-1.29c.41-.89.7-1.82,1.06-2.73a7.14,7.14,0,0,1,.84-1.77c.46-.6.81-1.28,1.23-1.91a.36.36,0,0,0,0-.52c-.15-.16-.26-.36-.41-.52-.41-.44-.82-.84-.37-1.53a.57.57,0,0,0-.31-.83A1,1,0,0,1,66.86,90a1.56,1.56,0,0,1,1-1.22,1.94,1.94,0,0,1,.73-.08c.24,0,.57.14.71,0a2.46,2.46,0,0,0,.44-.77A2.28,2.28,0,0,0,70,87c.06-.83.15-1.66.16-2.49a10.46,10.46,0,0,1,.64-2.7c0-.12.07-.23.1-.33-.12-.16-.24-.07-.35,0a4.26,4.26,0,0,1-4.48-1.27,11.31,11.31,0,0,1-1.73-2.54,18.74,18.74,0,0,1-2.46-9.16,17,17,0,0,1,.72-5,.49.49,0,0,1,.57-.41H73.3c.27,0,.44,0,.54.35.38,1.1.81,2.2,1.22,3.29a7.17,7.17,0,0,1,.23.7c.17.67.06.86-.6,1.09s-.59.2-.57.79a5.05,5.05,0,0,0,.06,1.28h7.71a1.7,1.7,0,0,1,.65,0c-.51,6-1.78,11.75-4.9,17A18.77,18.77,0,0,1,76,90a.85.85,0,0,0-.1,1.14c.28,0,.45-.26.67-.4a31.79,31.79,0,0,0,4.77-3.64,11.25,11.25,0,0,1,2.76-1.8c0,.7-.09,1.4-.06,2.1a8.3,8.3,0,0,1,.13,1.44,10.64,10.64,0,0,0-4.88,6.27,10,10,0,0,0-.52,4.26,3.22,3.22,0,0,1,0,.65,6.15,6.15,0,0,0,.59,3.28,1.15,1.15,0,0,1,.1.91,19.17,19.17,0,0,0,.15,10.86,38.56,38.56,0,0,0,4.94,10.53A67.53,67.53,0,0,0,95.1,138.51a40.85,40.85,0,0,0,10.65,7.36,29.31,29.31,0,0,0,6.46,2.15,10.24,10.24,0,0,0,2.26.16A46.64,46.64,0,0,1,128.26,150a35.16,35.16,0,0,1,11.19,5.39c.14.1.29.18.43.27a1.17,1.17,0,0,0,1.48-.12,30.92,30.92,0,0,1,5.59-3.36,41.55,41.55,0,0,1,11.13-3.38,46.57,46.57,0,0,1,8.78-.61,14.81,14.81,0,0,0,4.88-.94,35.24,35.24,0,0,0,11.19-6.17A60,60,0,0,0,193.47,130a54.6,54.6,0,0,0,6.39-10.52,26.56,26.56,0,0,0,2.36-8.52,15.78,15.78,0,0,0-.49-6.11,10.38,10.38,0,0,1,.84-1.28,18,18,0,0,0,2.25-14.08A16.19,16.19,0,0,0,201,82.14c-.18-.2-.33-.42-.49-.64,0-.09,0-.19-.14-.17Z" fill="#030202"/><path d="M8.36,41.45a7.35,7.35,0,0,0-.13,2c.08,3.65,0,7.29,0,10.94,0,4,0,7.94,0,11.9,0,.31-.06.63,0,.94a2.23,2.23,0,0,0,1.32,2.19H0c0-.21.17-.2.26-.25a1.79,1.79,0,0,0,1-1.53,6.41,6.41,0,0,0,0-.73q0-14.47,0-28.94s0,0,0-.07A2.11,2.11,0,0,0,0,35.57c.64-.18,14.43-.21,15.21-.06a.08.08,0,0,1,0,.12c-1,.75-1.17,1.08-.77,2.29s1,2.38,1.49,3.57q2,4.71,4,9.42c.21.5.46,1,.7,1.52a1.32,1.32,0,0,0,.38-.58c.79-1.6,1.6-3.19,2.34-4.82s1.44-2.93,2.13-4.4c.51-1.08.94-2.19,1.54-3.22a10.08,10.08,0,0,0,.78-1.87,1.32,1.32,0,0,0-.3-1.43c-.2-.2-.43-.37-.65-.56.56-.15,14.19-.21,15.53-.07,0,.07,0,.13-.06.18a1.87,1.87,0,0,0-1.11,1.83c0,.2,0,.39,0,.59q0,14.36,0,28.73c0,.12,0,.25,0,.37a2.06,2.06,0,0,0,1.35,2.21c-.58.17-10.07.19-10.9,0C32.83,69,33,68.05,33,67q0-12.45,0-24.9v-.56l-.17,0L20.48,67.83a1.27,1.27,0,0,1-.38-.61c-.45-1-.89-2-1.34-3l-2.35-5.18-1.17-2.59c-.58-1.29-1.12-2.59-1.76-3.85-.55-1.07-1-2.2-1.52-3.28s-.89-2.24-1.46-3.3S9.58,43.92,9,42.9c-.25-.45-.41-1-.67-1.45" fill="#030202"/><path d="M219.74,110.94h-9.66c0-.25.17-.24.28-.31a1.66,1.66,0,0,0,.77-1.19,6.83,6.83,0,0,0,.09-1.1q0-14.4,0-28.79c0-1,0-2-1.12-2.61h13.4c.09.22-.15.2-.24.27a1.36,1.36,0,0,0-.31,2.2c.3.39.63.75,1,1.11l14.55,15.95.85.9c.23-.13.13-.32.13-.47q0-8.78,0-17.56A2.19,2.19,0,0,0,238.21,77c.59-.15,9-.19,10-.06,0,.17-.15.17-.24.21a1.75,1.75,0,0,0-1,1.46,6,6,0,0,0,0,.81q0,14.47,0,28.94s0,0,0,.07c0,1,.17,2,1.4,2.35-.62.2-9.35.26-10.9.12-.07-.25.18-.24.29-.33a1.35,1.35,0,0,0,.35-1.95,4.18,4.18,0,0,0-1.12-1.33c-.33-.23-.47-.61-.74-.9-1.42-1.48-2.8-3-4.18-4.52-1.74-1.91-3.47-3.83-5.21-5.74-2.16-2.38-4.31-4.78-6.53-7.11a12.28,12.28,0,0,0-1.66-1.75v1.32q0,9.77,0,19.54c0,.12,0,.24,0,.37,0,1,.13,1.86,1.21,2.3l-.1.11" fill="#030202"/><path d="M281.54,98c-.15,0-.18-.13-.22-.21a1.88,1.88,0,0,0-1.64-1.07c-.24,0-.49,0-.73,0H267.27c-.76,0-.77-.14-.77.73,0,1.42,0,2.84,0,4.26,0,.54,0,1.08,0,1.62s.16.51.51.5l1,0h19.24c1,0,1.87-.21,2.22-1.41a90.29,90.29,0,0,1,0,10,.14.14,0,0,1-.14-.13A1.38,1.38,0,0,0,288,111a7.09,7.09,0,0,0-1.24-.06H256.49c0-.2.1-.21.18-.25a1.77,1.77,0,0,0,1-1.6c0-.27,0-.54,0-.81q0-14.4,0-28.79a3.25,3.25,0,0,0-.08-1.09c-.15-.42-.18-1-.79-1.1a.49.49,0,0,1-.26-.43h30.62a2.25,2.25,0,0,0,2.34-1.21v9.69c-.07-.06-.11-.07-.13-.11a2,2,0,0,0-2-1.12c-6.78,0-13.56,0-20.35,0-.52,0-.53,0-.54.51q0,2.5,0,5c0,.5,0,.51.54.51,4,0,8,0,12,0a6.17,6.17,0,0,0,1.55-.31c.25-.06.39-.28.55-.47s.16-.4.42-.54Z" fill="#030202"/><path d="M58.4,35.45H74.07A2.13,2.13,0,0,0,73.68,38c.82,2.38,1.81,4.7,2.74,7Q80.69,55.85,85,66.65c.13.32.22.65.36,1a5.24,5.24,0,0,0,1.4,1.85H75.53c0-.18.1-.18.16-.23a1.53,1.53,0,0,0,.69-1.78,5.38,5.38,0,0,0-.22-.78,28.15,28.15,0,0,0-1.37-3.45,3.94,3.94,0,0,1-.15-.71c-.12-.38-.29-.61-.72-.52a1.09,1.09,0,0,1-.22,0H58.14c-.73,0-.73,0-1,.67l-1.33,3.48c0,.07,0,.14-.07.21a2.28,2.28,0,0,0,.87,3c-.45.17-9.13.24-10.48.08,0,0,0-.11,0-.12a7.83,7.83,0,0,0,2.61-3.94,6.24,6.24,0,0,0,.71-2.16c.65-1,.65-2.22,1.21-3.22.29-.52.29-1.1.58-1.58a6.6,6.6,0,0,0,.66-1.6A29.16,29.16,0,0,0,53,53.51c2-4.82,3.63-9.79,5.46-14.68a13.1,13.1,0,0,0,.41-1.33,1.89,1.89,0,0,0-.51-2m14,21.76L65.63,39.9l-.14,0L59.14,57.22Z" fill="#030202"/><path d="M134.65,176.18a7.52,7.52,0,0,1,.23-1.73c0-.34.35-.66.54-1a6,6,0,0,1,2.49-2.32c.73-.37,1.5-.69,2.21-1.11a.61.61,0,0,1,.69,0c.91.61,2,.92,2.89,1.53a5.68,5.68,0,0,1-.51,9.85,5.8,5.8,0,0,1-3.51.63,3.74,3.74,0,0,1-1.77-.46,8.71,8.71,0,0,1-2.13-1.85,5.76,5.76,0,0,1-1.14-3.53" fill="#030202"/><path d="M73.4,144.75l-.8.67c-1.13.91-2.2,1.87-3.26,2.85a9.9,9.9,0,0,0-3.08,8,13.74,13.74,0,0,0,.51,3,1.27,1.27,0,0,0,.5.77,2.94,2.94,0,0,1,1.23,3.29,3,3,0,0,1-2.63,2.34,3.14,3.14,0,0,1-3.3-1.43,2.85,2.85,0,0,1-.12-3.13,1.35,1.35,0,0,0,.13-1.1,15.23,15.23,0,0,1-.24-6.62,6.52,6.52,0,0,1,1-2.4,7,7,0,0,0,.6-1.16,3.06,3.06,0,0,1,1-1.3c1.3-1,2.69-1.81,4-2.71a2.11,2.11,0,0,1,.59-.26l3.32-.9a.72.72,0,0,1,.55,0" fill="#030202"/><path d="M207.65,144.75a.65.65,0,0,1,.58,0l3.3.91a2.16,2.16,0,0,1,.66.31l3.72,2.49a1.92,1.92,0,0,1,.65.68c.52.94,1.08,1.85,1.57,2.79a8.57,8.57,0,0,1,.74,3.41,14.13,14.13,0,0,1-.49,4.79,1.15,1.15,0,0,0,.11,1,2.9,2.9,0,0,1-.17,3.31,3.24,3.24,0,0,1-3.15,1.33,3.2,3.2,0,0,1-2.8-3.44,2.89,2.89,0,0,1,1.2-2.11,1.79,1.79,0,0,0,.68-1.07,11.81,11.81,0,0,0,.2-5.81,9.45,9.45,0,0,0-2.7-4.92c-1.12-1-2.24-2-3.42-3a2.73,2.73,0,0,1-.69-.65" fill="#030202"/><path d="M128.7,16.14a5,5,0,0,1-2.26,4.17,5.42,5.42,0,0,1-7.84-1.91,5.49,5.49,0,0,1-.47-3.29c.31-2.79,3.9-4.83,6.55-4a5.59,5.59,0,0,1,3.44,2.6,4.41,4.41,0,0,1,.58,2.46" fill="#030202"/><path d="M152.28,15.51a3.39,3.39,0,0,1,.94-2.39A5.15,5.15,0,0,1,158.46,11a5,5,0,0,1,4.26,3.73,4.82,4.82,0,0,1-1.59,5.22,5.39,5.39,0,0,1-8.75-2.64,9.42,9.42,0,0,1-.11-1.78" fill="#030202"/><path d="M185,160.93a3.16,3.16,0,1,1-3.26,3.16,3.2,3.2,0,0,1,3.26-3.16" fill="#030202"/><path d="M99.25,164.09A3.23,3.23,0,0,1,96,167.25a3.16,3.16,0,1,1,0-6.32,3.2,3.2,0,0,1,3.26,3.16" fill="#030202"/><path d="M237.11,45.35a23.41,23.41,0,0,1-.59,5.84,5.32,5.32,0,0,1-.8,1.88,1.26,1.26,0,0,1-2.19,0c-.09-.12-.05-.22,0-.34a4.53,4.53,0,0,1,.41-2.07c.19-.35,0-.75.29-1.09s.18-1,.65-1.42.32-1,.6-1.44a1.37,1.37,0,0,0,.06-.65,19.07,19.07,0,0,0-1-6,7.1,7.1,0,0,1-.38-1.64,1.64,1.64,0,0,1,.22-1.06.6.6,0,0,1,1-.1,2.74,2.74,0,0,1,.55,1,21.65,21.65,0,0,1,1,4.88c.09.78.12,1.56.16,2.17" fill="#030202"/><path d="M204.31,172.74a3.16,3.16,0,0,1,3.26-3.14,3.21,3.21,0,0,1,3.25,3.17,3.25,3.25,0,0,1-3.29,3.15,3.16,3.16,0,0,1-3.23-3.18" fill="#030202"/><path d="M76.67,172.74a3.16,3.16,0,0,1-3.24,3.17,3.16,3.16,0,1,1,0-6.31,3.15,3.15,0,0,1,3.26,3.14" fill="#030202"/><path d="M43.87,45.85a29.11,29.11,0,0,1,.88-6.73,5.27,5.27,0,0,1,.65-1.63c.15-.23.32-.45.64-.4s.43.3.53.55a2.33,2.33,0,0,1,0,1.37c-.23,1.05-.63,2.06-.84,3.11a22.16,22.16,0,0,0-.41,3.49,4.21,4.21,0,0,0,.86,2.85,2.33,2.33,0,0,1,.33.87c.18.63.36,1.25.59,1.87a3.89,3.89,0,0,1,.23,1.15,1.23,1.23,0,0,1-.79,1.27,1,1,0,0,1-1.26-.52,5.51,5.51,0,0,1-.85-1.94,25.35,25.35,0,0,1-.57-5.32" fill="#030202"/><path d="M60.27,109.26c-1.33.11-2.49-1.66-2.37-2.61a2.7,2.7,0,0,1,2.84-2.36,2.52,2.52,0,0,1,2.37,2.65,2.55,2.55,0,0,1-2.83,2.33" fill="#030202"/><path d="M220.43,109.27c-.67,0-.71,0-.72-.68,0-1.22,0-2.44,0-3.66,0-.6.06-.67.67-.65a2.5,2.5,0,1,1,0,5" fill="#030202"/><path d="M127.79,36.24a.93.93,0,0,1-.19.6l-5.45,10.23c-.31.58-.32.58-1,.33a7.19,7.19,0,0,1-1.22-.49c0-.05,0-.11,0-.14.52-.85.45-1.23-.36-1.84a7.86,7.86,0,0,0-2-1.06,20.85,20.85,0,0,0-9.23-1.22,12.67,12.67,0,0,0-6.08,2A9.16,9.16,0,0,0,98,54.07c.54,4.26,3.25,6.63,7.18,7.66a19.9,19.9,0,0,0,12.73-1,.63.63,0,0,0,.47-.7c0-.56,0-1.13,0-1.69,0-.33-.11-.41-.42-.41h-6.61c-.64,0-.8.16-1,.83s-.27.8-1.14.8-1,0-1-1q0-4.44,0-8.89c0-.15,0-.29,0-.44s.11-.41.39-.39h.29c.37,0,.77-.12,1.09.05s.26.6.37.92a.88.88,0,0,0,.84.68l.81,0h18.14c1.11,0,.95-.12,1,1,0,.92,0,.92-.83,1.2s-.9.42-.9,1.23q0,4,0,8c0,.79.17,1,.9,1.22a1.76,1.76,0,0,0,.35.09c.41,0,.49.28.49.66,0,1.12,0,1.12-1,1.62a64.73,64.73,0,0,1-10.4,4.17,35.67,35.67,0,0,1-11.32,1.33,30.81,30.81,0,0,1-8.79-1.52,19.51,19.51,0,0,1-9.58-6.73,16.39,16.39,0,0,1-3.16-8.56,19,19,0,0,1,.84-7.83,17.22,17.22,0,0,1,7-8.89,21.92,21.92,0,0,1,8.82-3.41,36.46,36.46,0,0,1,17,1.37c1.17.36,2.35.66,3.51,1.05a1.32,1.32,0,0,0,1.56-.44c.52-.58.54-.57,1.27-.27l.84.35M126,37.61l.09-.28-.24.14a2.19,2.19,0,0,1-2,.19c-1.18-.4-2.39-.72-3.58-1.08A35.52,35.52,0,0,0,104,35.2,21,21,0,0,0,94.56,39a15.76,15.76,0,0,0-6.07,8.67,18.7,18.7,0,0,0-.37,7.72,14.94,14.94,0,0,0,4,8.2,19.16,19.16,0,0,0,9.2,5.36,34,34,0,0,0,16.43.23,56.5,56.5,0,0,0,12.1-4.61c.11-.05.21-.11.22-.27a2,2,0,0,0-.32-.16,1.91,1.91,0,0,1-1.36-2q0-4.11,0-8.23a2,2,0,0,1,1.31-2,.24.24,0,0,0,.2-.24h-18c-1,0-2-.08-2.51-1.12V58a2.24,2.24,0,0,1,2.24-1.11H119c.52,0,.53,0,.53.53,0,1.05,0,2.11,0,3.16a.82.82,0,0,1-.61.92,21.38,21.38,0,0,1-7.44,1.84,18.6,18.6,0,0,1-7.81-1,10.18,10.18,0,0,1-5.83-5.08,10.31,10.31,0,0,1-1-4.55A10.18,10.18,0,0,1,98,47.67a11.58,11.58,0,0,1,7.2-5.52,17.94,17.94,0,0,1,5.89-.61,20,20,0,0,1,7.55,1.65A4.3,4.3,0,0,1,121.52,46l4.47-8.4" fill="#fff"/><path d="M84.13,88.86A8.28,8.28,0,0,0,84,87.42c0-.7,0-1.4.06-2.1a9.82,9.82,0,0,1,3.4-5.84,15.17,15.17,0,0,1,3-2,21.65,21.65,0,0,1,6.93-2,37.27,37.27,0,0,1,15.17,1.36c1.46.41,2.93.78,4.39,1.18.73.2,1.36.2,1.75-.58a.31.31,0,0,1,.48-.15,9.09,9.09,0,0,0,1,.46c.36.13.44.31.26.66-.32.63-.6,1.28-.9,1.93l-3.41,7.48c-.23.51-.24.51-.74.29l-.66-.32c-.55-.26-.55-.26-.43-.89.17-.85.09-1.06-.62-1.51a13.1,13.1,0,0,0-3.88-1.5,29,29,0,0,0-10.2-.74,11,11,0,0,0-3.73,1,3.71,3.71,0,0,0-1.29.95,1.19,1.19,0,0,0,.37,2.06,9.82,9.82,0,0,0,3.22.95,67.77,67.77,0,0,0,7.31.6,36.12,36.12,0,0,1,8.24,1.3,16.06,16.06,0,0,1,2.79,1.1A8.94,8.94,0,0,1,121.59,99a10.41,10.41,0,0,1-4.2,9.22,18.71,18.71,0,0,1-7.88,3.57,37.55,37.55,0,0,1-10.09.55,48.5,48.5,0,0,1-11.61-2c-.86-.27-1.72-.56-2.57-.87a.82.82,0,0,0-1,.22c-.23.27-.38.73-.76.74a2.65,2.65,0,0,1-.94-.38l-.07,0c-.64-.31-.71-.17-.36-.93l4.77-10.41c.06-.13.13-.26.19-.4s.24-.22.41-.13.58.27.85.43.5.15.61.37-.16.38-.23.58a1.06,1.06,0,0,0,.2,1,4.46,4.46,0,0,0,1.44,1.23,19.37,19.37,0,0,0,5.32,2,30.26,30.26,0,0,0,9.33.73,11.16,11.16,0,0,0,3.77-.88,5.06,5.06,0,0,0,1.64-1.1,2.24,2.24,0,0,0-.44-3.58,9.7,9.7,0,0,0-3.38-1.17,32.78,32.78,0,0,0-4.45-.46,49.22,49.22,0,0,1-8.31-.87,18.56,18.56,0,0,1-5.09-1.82,8.55,8.55,0,0,1-4.45-5.56,1.25,1.25,0,0,0-.13-.25m-.73,20.07a1.83,1.83,0,0,1,2.32-.44,41.68,41.68,0,0,0,6.41,1.82,50.15,50.15,0,0,0,7.57,1,36.35,36.35,0,0,0,9.57-.53,18.15,18.15,0,0,0,7-3,9.51,9.51,0,0,0,4.2-9.54,7.57,7.57,0,0,0-3.29-5.49A13.13,13.13,0,0,0,113.41,91a36.7,36.7,0,0,0-8.9-1.31,53.18,53.18,0,0,1-6.72-.6,10.36,10.36,0,0,1-3.35-1,2.25,2.25,0,0,1-.67-3.69,4.79,4.79,0,0,1,1.51-1.15,12.11,12.11,0,0,1,4.21-1.19,29,29,0,0,1,6.52,0,23.83,23.83,0,0,1,7,1.71c1.15.5,2.26,1.06,2.61,2.48a60.41,60.41,0,0,0,3.31-7.41,2.67,2.67,0,0,1-2.13.2c-1.32-.35-2.65-.7-4-1.07a39.09,39.09,0,0,0-12.52-1.7,24.43,24.43,0,0,0-8,1.53,13.22,13.22,0,0,0-5.53,3.87c-2.52,3.07-2.74,9.35,2.43,12A19.33,19.33,0,0,0,94,95.45a51.74,51.74,0,0,0,8.46.87,25,25,0,0,1,6,.88,6.17,6.17,0,0,1,2.74,1.5,3,3,0,0,1,.86,2.69,4,4,0,0,1-2.06,2.8,11.07,11.07,0,0,1-4.67,1.4,29.15,29.15,0,0,1-7-.17,24,24,0,0,1-7.78-2.26c-1.4-.7-2.69-1.52-3.16-3.19-.32.56-3.87,8.29-4.07,9" fill="#fff"/><path d="M193.83,67.35a13.13,13.13,0,0,1-1.51.73.34.34,0,0,1-.45-.13c-.64-.87-1.35-.64-2.17-.25a32.94,32.94,0,0,1-9.33,3,33.72,33.72,0,0,1-16.1-1.09,19.16,19.16,0,0,1-9.6-6.82,16.08,16.08,0,0,1-3-7.64,19.19,19.19,0,0,1,.74-8.63,17.21,17.21,0,0,1,7-8.9,21.85,21.85,0,0,1,8.82-3.42,35.74,35.74,0,0,1,16.12,1.1c1.48.43,3,.83,4.43,1.32a1.36,1.36,0,0,0,1.62-.47c.48-.55.49-.54,1.15-.27,1,.41,1,.41.54,1.38l-5.2,10.53c-.07.13-.14.26-.19.4s-.25.32-.51.19a10.89,10.89,0,0,0-1.08-.46c-.29-.1-.41-.23-.24-.54.34-.59.07-1-.37-1.41a6.42,6.42,0,0,0-1.7-1,18.61,18.61,0,0,0-6.47-1.49,18.05,18.05,0,0,0-7.24.86A9.25,9.25,0,0,0,164,48.24a8,8,0,0,0,3,11,12.61,12.61,0,0,0,4.65,1.49,23,23,0,0,0,8.32-.39,18,18,0,0,0,4.66-1.94c.62-.35.67-.5.54-1.2,0-.14-.06-.29-.09-.43a.44.44,0,0,1,.22-.55c1.22-.82,1.22-.83,2,.42l6.1,9.95.45.75m-1.72-.59c-.26-.75-5.42-9.09-5.86-9.46A1.85,1.85,0,0,1,185,59.43l-.13.06a21.76,21.76,0,0,1-16.41,1.59c-3.7-1.31-6.44-4.08-6.58-8.45a8.65,8.65,0,0,1,1.73-5.71,11.38,11.38,0,0,1,6.55-4,21,21,0,0,1,7-.42,18.44,18.44,0,0,1,6.35,1.67,4.18,4.18,0,0,1,2.64,2.66l4.65-9.42c-.17-.08-.23,0-.29.07a2,2,0,0,1-1.88.26c-1.21-.4-2.44-.72-3.65-1.1a35.89,35.89,0,0,0-15.43-1.53,22.06,22.06,0,0,0-8.84,3,16.6,16.6,0,0,0-6.92,7.76,17.42,17.42,0,0,0-1.22,7.77,15.8,15.8,0,0,0,2,7.14,17.12,17.12,0,0,0,8.13,7.15A27.11,27.11,0,0,0,172.9,70a34.16,34.16,0,0,0,11.88-1.51,42,42,0,0,0,5-2,1.8,1.8,0,0,1,2.31.25" fill="#fff"/><path d="M147.83,97.45v10.5c0,.2,0,.39,0,.59,0,1.1.05,1.18,1.14,1.44.43.1.58.3.53.71s.19,1-.12,1.26-.8.08-1.21.08H135.61c-.51,0-.51,0-.52-.55,0-.1,0-.2,0-.29,0-.34-.12-.73.07-1s.58-.22.87-.32a.94.94,0,0,0,.7-1c0-.27,0-.54,0-.81q0-10.87,0-21.74c0-.9.1-.81-.83-.81H127c-1.21,0-1.28.06-1.64,1.23-.1.33-.24.51-.6.46s-1,.17-1.28-.1-.11-.83-.11-1.26c0-3.67,0-7.34,0-11,0-.12,0-.25,0-.37s.08-.37.33-.36H124a3.09,3.09,0,0,1,1.16.06c.32.15.26.64.39,1a.86.86,0,0,0,.87.65l.73,0h30.26c1.39,0,1.4,0,1.76-1.3.08-.27.16-.44.48-.41.48,0,1.08-.2,1.42.1s.11.88.11,1.33c0,3.57,0,7.15,0,10.72,0,.17,0,.34,0,.51s-.08.46-.41.44c-.17,0-.34,0-.51,0s-.68.12-.93-.07-.2-.53-.27-.81a1,1,0,0,0-1-.78l-.88,0h-9c-.29,0-.39.14-.38.4s0,.39,0,.59ZM160.09,75.7a2.33,2.33,0,0,1-2.42,1.21H127c-1,0-2-.1-2.41-1.15-.17,0-.17.11-.17.18q0,4.81,0,9.62s0,0,0,0,0-.08.09.06a2.06,2.06,0,0,1,2.11-1.19h10.43a2.56,2.56,0,0,0,.29,0c.26,0,.35.1.34.34s0,.24,0,.37q0,11.49,0,23a10.44,10.44,0,0,1,0,1.17,1.67,1.67,0,0,1-.83,1.32c-.12.07-.29.08-.33.3h11.31c0-.17-.11-.19-.19-.23a1.6,1.6,0,0,1-.9-1.34,8.16,8.16,0,0,1-.07-1q0-11.61,0-23.21c0-.68,0-.68.67-.68h10.21a5.11,5.11,0,0,1,.95.09,1.78,1.78,0,0,1,1.19.78c.09.13.12.3.33.41Z" fill="#fff"/><path d="M141.37,34.33H148c.6,0,.6,0,.62.61,0,0,0,.1,0,.15a2.83,2.83,0,0,1-.05,1c-.14.32-.59.27-.91.37a.94.94,0,0,0-.77,1c0,.2,0,.39,0,.59q0,14.32,0,28.64s0,.1,0,.15c0,1.27,0,1.32,1.25,1.67.34.1.51.23.49.59s0,.69,0,1-.14.44-.44.43H134.58c-.24,0-.36-.09-.36-.34s0-.34,0-.51c0-.34-.13-.72.07-1s.58-.21.88-.3a.86.86,0,0,0,.69-.91c0-.29,0-.59,0-.88q0-14.14,0-28.27V38.2c0-1.4,0-1.4-1.34-1.9a.4.4,0,0,1-.31-.41c-.12-1.55-.13-1.55,1.43-1.55Zm-5.57,1.14a2.2,2.2,0,0,1,1.13,2.23c0,.24,0,.49,0,.73q0,14,0,28.06c0,.25,0,.49,0,.73a2.15,2.15,0,0,1-1.15,2.21h11.29c0-.05,0-.09,0-.1l-.19-.1a1.74,1.74,0,0,1-1.07-1.62c0-.24,0-.49,0-.73q0-14.43,0-28.87a7.45,7.45,0,0,1,.06-1,1.66,1.66,0,0,1,.75-1.21c.13-.08.34-.08.36-.32Z" fill="#fff"/><path d="M126,37.61,121.52,46a4.3,4.3,0,0,0-2.83-2.82,20,20,0,0,0-7.55-1.65,17.94,17.94,0,0,0-5.89.61A11.58,11.58,0,0,0,98,47.67a10.18,10.18,0,0,0-1.18,5.09,10.31,10.31,0,0,0,1,4.55,10.18,10.18,0,0,0,5.83,5.08,18.6,18.6,0,0,0,7.81,1,21.38,21.38,0,0,0,7.44-1.84.82.82,0,0,0,.61-.92c0-1.05,0-2.1,0-3.16,0-.52,0-.53-.53-.53h-7.35A2.24,2.24,0,0,0,109.4,58V50.55c.56,1,1.5,1.12,2.51,1.12h18a.24.24,0,0,1-.2.24,2,2,0,0,0-1.31,2q0,4.11,0,8.23a1.91,1.91,0,0,0,1.36,2,2,2,0,0,1,.32.16c0,.16-.11.22-.22.27a56.5,56.5,0,0,1-12.1,4.61A34,34,0,0,1,101.28,69a19.16,19.16,0,0,1-9.2-5.36,14.94,14.94,0,0,1-4-8.2,18.7,18.7,0,0,1,.37-7.72A15.76,15.76,0,0,1,94.56,39,21,21,0,0,1,104,35.2a35.52,35.52,0,0,1,16.31,1.37c1.19.37,2.4.68,3.58,1.08a2.19,2.19,0,0,0,2-.19l.16.14" fill="#030202"/><path d="M83.41,108.93c.2-.67,3.75-8.4,4.07-9,.47,1.67,1.76,2.49,3.16,3.19a24,24,0,0,0,7.78,2.26,29.15,29.15,0,0,0,7,.17,11.07,11.07,0,0,0,4.67-1.4,4,4,0,0,0,2.06-2.8,3,3,0,0,0-.86-2.69,6.17,6.17,0,0,0-2.74-1.5,25,25,0,0,0-6-.88A51.74,51.74,0,0,1,94,95.45a19.33,19.33,0,0,1-4.82-1.71c-5.18-2.69-5-9-2.43-12a13.22,13.22,0,0,1,5.53-3.87,24.43,24.43,0,0,1,8-1.53A39.09,39.09,0,0,1,112.79,78c1.32.37,2.64.72,4,1.07a2.67,2.67,0,0,0,2.13-.2,60.41,60.41,0,0,1-3.31,7.41c-.34-1.42-1.45-2-2.61-2.48a23.83,23.83,0,0,0-7-1.71,29,29,0,0,0-6.52,0,12.11,12.11,0,0,0-4.21,1.19,4.79,4.79,0,0,0-1.51,1.15,2.25,2.25,0,0,0,.67,3.69,10.36,10.36,0,0,0,3.35,1,53.18,53.18,0,0,0,6.72.6,36.7,36.7,0,0,1,8.9,1.31,13.13,13.13,0,0,1,3.72,1.69,7.57,7.57,0,0,1,3.29,5.49,9.51,9.51,0,0,1-4.2,9.54,18.15,18.15,0,0,1-7,3,36.35,36.35,0,0,1-9.57.53,50.15,50.15,0,0,1-7.57-1,41.68,41.68,0,0,1-6.41-1.82,1.83,1.83,0,0,0-2.32.44" fill="#030202"/><path d="M192.11,66.76a1.8,1.8,0,0,0-2.31-.25,42,42,0,0,1-5,2A34.16,34.16,0,0,1,172.9,70a27.11,27.11,0,0,1-10.19-2.21,17.12,17.12,0,0,1-8.13-7.15,15.8,15.8,0,0,1-2-7.14,17.42,17.42,0,0,1,1.22-7.77A16.6,16.6,0,0,1,160.73,38a22.06,22.06,0,0,1,8.84-3A35.89,35.89,0,0,1,185,36.59c1.21.38,2.44.7,3.65,1.1a2,2,0,0,0,1.88-.26c.07,0,.12-.15.29-.07l-4.65,9.42a4.18,4.18,0,0,0-2.64-2.66,18.44,18.44,0,0,0-6.35-1.67,21,21,0,0,0-7,.42,11.38,11.38,0,0,0-6.55,4,8.65,8.65,0,0,0-1.73,5.71c.14,4.37,2.88,7.14,6.58,8.45a21.76,21.76,0,0,0,16.41-1.59l.13-.06a1.85,1.85,0,0,0,1.23-2.12c.44.37,5.59,8.71,5.86,9.46" fill="#030202"/><path d="M160.09,75.7v10c-.21-.11-.24-.28-.33-.41a1.78,1.78,0,0,0-1.19-.78,5.11,5.11,0,0,0-.95-.09H147.41c-.67,0-.67,0-.67.68q0,11.6,0,23.21a8.16,8.16,0,0,0,.07,1,1.6,1.6,0,0,0,.9,1.34c.08,0,.18.07.19.23H136.6c0-.22.22-.23.33-.3a1.67,1.67,0,0,0,.83-1.32,10.44,10.44,0,0,0,0-1.17q0-11.49,0-23c0-.12,0-.24,0-.37s-.08-.37-.34-.34a2.56,2.56,0,0,1-.29,0H126.75a2.06,2.06,0,0,0-2.11,1.19c-.06-.13,0,0-.09-.06s0,0,0,0q0-4.81,0-9.62c0-.06,0-.15.17-.18.45,1.05,1.4,1.15,2.41,1.15h30.63a2.33,2.33,0,0,0,2.42-1.21" fill="#030202"/><path d="M184.3,111.56a22.73,22.73,0,0,1-10.63-2.31,17.13,17.13,0,0,1-8.56-9.1A16.77,16.77,0,0,1,172,79.46a20.77,20.77,0,0,1,9.4-3.06,25.93,25.93,0,0,1,9.82.83,18.39,18.39,0,0,1,10.71,8,15.62,15.62,0,0,1,2.3,7.65,16.17,16.17,0,0,1-3.61,11.56,19.06,19.06,0,0,1-9.92,6.34,25.59,25.59,0,0,1-6.41.83m.2-7.09a13.63,13.63,0,0,0,2.86-.35,9.61,9.61,0,0,0,7.16-6.41,11.62,11.62,0,0,0,.4-5.94,9.5,9.5,0,0,0-5.74-7.38,12.42,12.42,0,0,0-8.89-.44,9.56,9.56,0,0,0-6.64,6.59,11.79,11.79,0,0,0-.3,5.59,9.46,9.46,0,0,0,4.81,6.92,12.42,12.42,0,0,0,6.35,1.42" fill="#030202"/><path d="M135.8,35.47H147c0,.24-.23.24-.36.32a1.66,1.66,0,0,0-.75,1.21,7.45,7.45,0,0,0-.06,1q0,14.44,0,28.87c0,.25,0,.49,0,.73a1.74,1.74,0,0,0,1.07,1.62l.19.1s0,0,0,.1H135.78a2.15,2.15,0,0,0,1.15-2.21c0-.25,0-.49,0-.73q0-14,0-28.06c0-.24,0-.49,0-.73a2.2,2.2,0,0,0-1.13-2.23" fill="#030202"/><path d="M70.88,56.16H68c-.23,0-.28-.14-.27-.34a2.6,2.6,0,0,1,1.8-2.27c.24-.06.36,0,.44.23.28.75.58,1.49.93,2.38" fill="#030202"/><path d="M67,46.43a6.31,6.31,0,0,1-2.24-.87c-.25-.14-.12-.34-.05-.51.26-.71.52-1.41.84-2.27.55,1.25,1,2.41,1.46,3.65" fill="#030202"/><path d="M184.5,104.47a12.41,12.41,0,0,1-6.34-1.42,9.46,9.46,0,0,1-4.81-6.92,11.77,11.77,0,0,1,.3-5.59,9.56,9.56,0,0,1,6.64-6.59,12.42,12.42,0,0,1,8.9.44,9.5,9.5,0,0,1,5.74,7.38,11.61,11.61,0,0,1-.4,5.94,9.61,9.61,0,0,1-7.16,6.41,13.7,13.7,0,0,1-2.86.35m0-1.07a10.49,10.49,0,0,0,2.52-.31,8.53,8.53,0,0,0,6.33-5.37,10.56,10.56,0,0,0,.53-5.42,8.44,8.44,0,0,0-5.2-7,11.33,11.33,0,0,0-8.8-.16,8.39,8.39,0,0,0-5.43,6.35,11.25,11.25,0,0,0-.11,4.3,8.39,8.39,0,0,0,4.33,6.29,11.57,11.57,0,0,0,5.83,1.27" fill="#fff"/><path d="M184.54,103.39a11.57,11.57,0,0,1-5.83-1.27,8.39,8.39,0,0,1-4.33-6.29,11.25,11.25,0,0,1,.11-4.3,8.39,8.39,0,0,1,5.43-6.35,11.33,11.33,0,0,1,8.8.16,8.44,8.44,0,0,1,5.2,7,10.56,10.56,0,0,1-.53,5.42,8.53,8.53,0,0,1-6.33,5.37,10.49,10.49,0,0,1-2.52.31" fill="#fd0101"/></g></g></svg>