<svg xmlns="http://www.w3.org/2000/svg" viewBox="0 0 305.04 67.03"><title>Asset 8</title><g id="b7293239-7b6e-4cd6-b9db-1f82c505c502" data-name="Layer 2"><g id="a9654f3f-5c56-4af2-a16e-576235a19f84" data-name="Layer 7"><path d="M32.85,23.72q-4.57-10.55-9.12-21.1l-.22-.55H15.62c-.07.14-.24.64-.28.73-1.67,3.89-3.37,7.78-5,11.67L1.52,34.76,0,38.29H8.66L12,30.5H27.34l3.33,7.79h8.48c-.2-.48-.36-.86-.52-1.24ZM15,23.42,19.6,12.7l4.61,10.72Z" fill="#ecb71e"/><path d="M76.44,2.09V38.34h7.89V2.09Z" fill="#ecb71e"/><path d="M61.63,19.92v5h2.49v4.53a1,1,0,0,1-.77.82,37.27,37.27,0,0,1-4.41,1.13,10.23,10.23,0,0,1-8.25-2.1c-3.05-2.46-4.13-5.73-4.07-9.51a11.51,11.51,0,0,1,1.94-6.57C52.21,8,59.26,7.4,63.91,10.34c.95.6,1.84,1.28,2.77,1.93l4.08-5.89a2.87,2.87,0,0,0-.21-.26l-.42-.36A19.75,19.75,0,0,0,52.9,1.71a18.11,18.11,0,0,0-12.8,10.13,18.47,18.47,0,0,0-1.62,10.71c.84,7.07,4.7,11.93,11.12,14.79a20.58,20.58,0,0,0,10.8,1.24A17.86,17.86,0,0,0,71.66,33.3a2,2,0,0,0,.44-.74V19.92Z" fill="#ecb71e"/><path d="M88.65,2,99.13,29.84,109.58,2h8.16V38.33h-6.29v-12l.62-16-10.73,28H96.83L88.65,17Z" fill="#fff"/><path d="M140.75,38.33a9.33,9.33,0,0,1-.7-2.52,10.21,10.21,0,0,1-13.72.7,7.43,7.43,0,0,1-2.57-5.74A7.66,7.66,0,0,1,127,24.14q3.21-2.31,9.17-2.31h3.72V20.06a4.73,4.73,0,0,0-1.17-3.36,4.65,4.65,0,0,0-3.57-1.26,5.34,5.34,0,0,0-3.39,1,3.2,3.2,0,0,0-1.32,2.63h-6.06A6.73,6.73,0,0,1,125.8,15a9.8,9.8,0,0,1,4-3,14.08,14.08,0,0,1,5.65-1.1A11.32,11.32,0,0,1,143,13.21a8.5,8.5,0,0,1,2.89,6.7V32.09a13.79,13.79,0,0,0,1,5.81v.42ZM134.08,34a6.9,6.9,0,0,0,3.38-.87,5.85,5.85,0,0,0,2.38-2.35V25.65h-3.27a9,9,0,0,0-5.07,1.17,3.8,3.8,0,0,0-1.7,3.32A3.54,3.54,0,0,0,131,32.92,4.49,4.49,0,0,0,134.08,34Z" fill="#fff"/><path d="M166.4,16.87a15.18,15.18,0,0,0-2.47-.2q-4.17,0-5.61,3.19V38.33h-6.06v-27H158l.15,3a6.83,6.83,0,0,1,6.09-3.52,5.68,5.68,0,0,1,2.15.35Z" fill="#fff"/><path d="M179,26.75l-2.7,2.77v8.81h-6.06V0h6.06V22.11l1.9-2.37,7.46-8.41H193l-10,11.26L194,38.33h-7Z" fill="#fff"/><path d="M208.29,38.83A12.54,12.54,0,0,1,199,35.2a13.17,13.17,0,0,1-3.58-9.67v-.75a16.19,16.19,0,0,1,1.56-7.22,11.87,11.87,0,0,1,4.38-5,11.59,11.59,0,0,1,6.29-1.77q5.51,0,8.52,3.52t3,10v2.44H201.48A8.11,8.11,0,0,0,203.72,32,6.71,6.71,0,0,0,208.64,34a8.2,8.2,0,0,0,6.79-3.37l3.27,3.12a10.88,10.88,0,0,1-4.33,3.76A13.54,13.54,0,0,1,208.29,38.83Zm-.72-23.13a5.11,5.11,0,0,0-4,1.75,9.06,9.06,0,0,0-2,4.87h11.55v-.45a7.37,7.37,0,0,0-1.62-4.6A5.07,5.07,0,0,0,207.57,15.7Z" fill="#fff"/><path d="M231.43,4.77v6.56h4.77v4.49h-4.77V30.89a3.31,3.31,0,0,0,.61,2.23,2.83,2.83,0,0,0,2.18.69,9.24,9.24,0,0,0,2.12-.25v4.69a14.89,14.89,0,0,1-4,.57q-7,0-7-7.71V15.82h-4.44V11.33h4.44V4.77Z" fill="#fff"/><path d="M240.83,4.32A3.22,3.22,0,0,1,241.72,2a3.34,3.34,0,0,1,2.53-.92A3.38,3.38,0,0,1,246.8,2a3.19,3.19,0,0,1,.9,2.32,3.12,3.12,0,0,1-.9,2.28,3.41,3.41,0,0,1-2.55.91,3.37,3.37,0,0,1-2.53-.91A3.14,3.14,0,0,1,240.83,4.32Zm6.44,34h-6.06v-27h6.06Z" fill="#fff"/><path d="M259.5,11.33l.17,3.12a9.71,9.71,0,0,1,7.86-3.62q8.43,0,8.58,9.66V38.33h-6.06V20.84a5.56,5.56,0,0,0-1.11-3.8,4.67,4.67,0,0,0-3.63-1.24,5.84,5.84,0,0,0-5.46,3.32V38.33h-6.06v-27Z" fill="#fff"/><path d="M281.23,24.63q0-6.29,3-10A9.49,9.49,0,0,1,292,10.83,8.89,8.89,0,0,1,299.3,14l.28-2.72H305V37.5a10.88,10.88,0,0,1-3.31,8.38Q298.43,49,292.81,49a14.41,14.41,0,0,1-5.8-1.23,10.32,10.32,0,0,1-4.3-3.23l2.87-3.64a8.66,8.66,0,0,0,6.89,3.32,6.7,6.7,0,0,0,4.77-1.64,6.26,6.26,0,0,0,1.75-4.8V35.91a8.93,8.93,0,0,1-7,2.92,9.47,9.47,0,0,1-7.75-3.77Q281.23,31.29,281.23,24.63Zm6,.52a10.87,10.87,0,0,0,1.66,6.4,5.34,5.34,0,0,0,4.6,2.33A5.84,5.84,0,0,0,299,30.74V18.87a5.75,5.75,0,0,0-5.39-3.07,5.36,5.36,0,0,0-4.65,2.37Q287.27,20.54,287.27,25.15Z" fill="#fff"/><path d="M70,46.65h.56a7.58,7.58,0,0,1,5.19,2.19c-.5.51-1,1-1.51,1.52a5.67,5.67,0,0,0-9.51,3.42A5.83,5.83,0,0,0,66,58.28a5.61,5.61,0,0,0,4.09,2,5.44,5.44,0,0,0,4.06-1.39A4.44,4.44,0,0,0,75.5,56c-1.74,0-3.48,0-5.22,0V53.85h7.32a7.42,7.42,0,0,1-1.93,6.58,7.16,7.16,0,0,1-4.45,2,8.18,8.18,0,0,1-4.68-.92,8.06,8.06,0,0,1-3.74-4.26A7.72,7.72,0,0,1,62.75,52a8,8,0,0,1,2.88-3.82A8.22,8.22,0,0,1,70,46.65Z" fill="#5680c0"/><path d="M112,47.2h2.24v15c-.74,0-1.5,0-2.24,0,0-5,0-10,0-14.95Z" fill="#3aa554"/><path d="M82.6,52.38a5.26,5.26,0,0,1,4,.86,4.92,4.92,0,0,1,2,3.14,5.07,5.07,0,0,1-5.32,6.08,5.1,5.1,0,0,1-3.81-2,5.24,5.24,0,0,1-.69-4.76,5,5,0,0,1,3.82-3.28m.31,2a2.82,2.82,0,0,0-1.47.93,3.32,3.32,0,0,0,.17,4.33,2.79,2.79,0,0,0,2.49.78A2.82,2.82,0,0,0,86.05,59,3.31,3.31,0,0,0,85.49,55a2.83,2.83,0,0,0-2.58-.66Z" fill="#e7453c"/><path d="M93.7,52.38a5.09,5.09,0,0,1,5,8.2,5.18,5.18,0,0,1-8.12-.17,5.29,5.29,0,0,1-.66-4.86,5,5,0,0,1,3.79-3.17m.31,2a2.86,2.86,0,0,0-1.47.92,3.33,3.33,0,0,0,.12,4.28,2.8,2.8,0,0,0,2.56.83A2.87,2.87,0,0,0,97.17,59,3.33,3.33,0,0,0,96.58,55,2.81,2.81,0,0,0,94,54.37Z" fill="#f4b726"/><path d="M103.12,53a4.28,4.28,0,0,1,4.11-.31,3.91,3.91,0,0,1,1.07.79c0-.28,0-.58,0-.87h2.12v9.24A5.52,5.52,0,0,1,109,65.73,5,5,0,0,1,104.74,67,4.87,4.87,0,0,1,101.08,64c.63-.3,1.29-.54,1.94-.83a2.88,2.88,0,0,0,2,1.76,2.72,2.72,0,0,0,2.62-.84,4.19,4.19,0,0,0,.62-2.86,3.72,3.72,0,0,1-1.71,1,4.6,4.6,0,0,1-4.18-1.08,5.16,5.16,0,0,1,.71-8.26m2.17,1.34a2.76,2.76,0,0,0-1.64,1,3.34,3.34,0,0,0,0,4.2,2.74,2.74,0,0,0,2.36,1,2.66,2.66,0,0,0,2-1.33,3.54,3.54,0,0,0-.36-4,2.58,2.58,0,0,0-2.37-.83Z" fill="#5680c0"/><path d="M117,53.52a4.73,4.73,0,0,1,4.81-1,5.41,5.41,0,0,1,3,3.53L118,58.92a2.7,2.7,0,0,0,1.45,1.36,2.93,2.93,0,0,0,2.77-.4,4.46,4.46,0,0,0,.78-.83l1.73,1.15a5.13,5.13,0,0,1-8.1.51,5.37,5.37,0,0,1,.39-7.2m1.12,1.94a3,3,0,0,0-.49,1.76l4.56-1.9a1.88,1.88,0,0,0-1.48-1A2.68,2.68,0,0,0,118.08,55.46Z" fill="#e7453c"/><path d="M54.54,61.13l-1.08-2.59h-6l-1.09,2.59H43.94l5.38-12.26h2.44l5.31,12.26Zm-6.24-4.61h4.31l-2.14-5.15Z" fill="#959797"/><path d="M140.17,50a3.91,3.91,0,0,1,1.27,3.12,4.21,4.21,0,0,1-1.27,3.27,5.1,5.1,0,0,1-3.58,1.16h-2.68v3.61h-2.35V48.87h5A5.29,5.29,0,0,1,140.17,50Zm-1.66,4.9a2.08,2.08,0,0,0,.71-1.71,2,2,0,0,0-.71-1.68,3.24,3.24,0,0,0-2-.56h-2.56v4.54h2.56A3.16,3.16,0,0,0,138.51,54.88Z" fill="#959797"/><path d="M148.84,61.13V60a3.07,3.07,0,0,1-1.26.93,4.62,4.62,0,0,1-1.77.32,3.76,3.76,0,0,1-1.73-.38,2.76,2.76,0,0,1-1.15-1,2.81,2.81,0,0,1-.4-1.49,2.49,2.49,0,0,1,.93-2.06,4.19,4.19,0,0,1,2.63-.76h2.73v-.25a1.58,1.58,0,0,0-.54-1.28,2.4,2.4,0,0,0-1.58-.45,5.4,5.4,0,0,0-2.78.88l-.82-1.58a10.38,10.38,0,0,1,2-.89,7.41,7.41,0,0,1,2.11-.27,4.17,4.17,0,0,1,2.83.88,3.12,3.12,0,0,1,1,2.45l0,6.13ZM148,59a1.62,1.62,0,0,0,.79-1.15V57h-2.37a2.55,2.55,0,0,0-1.34.27,1,1,0,0,0-.43.88,1.14,1.14,0,0,0,.45.95,1.91,1.91,0,0,0,1.22.35A3,3,0,0,0,148,59Z" fill="#959797"/><path d="M157.2,52.17a3.79,3.79,0,0,1,1.9-.5v2.21a3.08,3.08,0,0,0-2.32.67,2.6,2.6,0,0,0-.87,2.06v4.52h-2.27V51.76h2.27v1.81A3.38,3.38,0,0,1,157.2,52.17Z" fill="#959797"/><path d="M166.18,60.55a4.45,4.45,0,0,1-2.35.68,2.82,2.82,0,0,1-2-.71,2.71,2.71,0,0,1-.77-2.1V53.81h-1.31l0-1.66h1.33V49.57h2.26v2.57H166v1.66h-2.68V58a1.35,1.35,0,0,0,.25.92.94.94,0,0,0,.74.27,3.29,3.29,0,0,0,1.33-.39Z" fill="#959797"/><path d="M176.15,52.65a3.66,3.66,0,0,1,.93,2.64v5.85h-2.29V55.95a2.12,2.12,0,0,0-.56-1.55,2,2,0,0,0-1.52-.57,2.32,2.32,0,0,0-1.8.77,2.83,2.83,0,0,0-.66,1.93v4.61H168V51.76h2.27v1.75a3.56,3.56,0,0,1,3.36-1.84A3.34,3.34,0,0,1,176.15,52.65Z" fill="#959797"/><path d="M186.91,53A5.24,5.24,0,0,1,188,56.56c0,.3,0,.53,0,.68H181.1a2.6,2.6,0,0,0,2.68,2.14,3.54,3.54,0,0,0,1.37-.27,3.37,3.37,0,0,0,1.15-.78l1.23,1.28a4.75,4.75,0,0,1-1.71,1.19,5.74,5.74,0,0,1-2.23.42,5.2,5.2,0,0,1-2.53-.6,4.17,4.17,0,0,1-1.69-1.67,5.44,5.44,0,0,1,0-5,4.29,4.29,0,0,1,1.69-1.69,5,5,0,0,1,2.47-.61A4.27,4.27,0,0,1,186.91,53Zm-1,2.75a2.28,2.28,0,0,0-.68-1.65,2.66,2.66,0,0,0-3.39,0,2.68,2.68,0,0,0-.83,1.66Z" fill="#959797"/><path d="M193.56,52.17a3.79,3.79,0,0,1,1.9-.5v2.21a3.08,3.08,0,0,0-2.32.67,2.6,2.6,0,0,0-.87,2.06v4.52H190V51.76h2.27v1.81A3.38,3.38,0,0,1,193.56,52.17Z" fill="#959797"/><path d="M210.51,61.13l-1.08-2.59h-6l-1.09,2.59h-2.43l5.38-12.26h2.44L213,61.13Zm-6.24-4.61h4.31l-2.14-5.15Z" fill="#959797"/><path d="M222.56,51.76v8.48a4.34,4.34,0,0,1-.61,2.32,4,4,0,0,1-1.72,1.53,5.92,5.92,0,0,1-2.58.53,6.87,6.87,0,0,1-4-1.25l.91-1.64a4.81,4.81,0,0,0,2.92,1,3,3,0,0,0,2-.65,2.23,2.23,0,0,0,.74-1.77v-1.1a3.13,3.13,0,0,1-1.23,1.09,3.87,3.87,0,0,1-1.75.38,4.14,4.14,0,0,1-2.17-.57,3.9,3.9,0,0,1-1.47-1.59,5.07,5.07,0,0,1-.53-2.36,4.92,4.92,0,0,1,.53-2.32,3.86,3.86,0,0,1,1.47-1.57,4.18,4.18,0,0,1,2.17-.56,3.82,3.82,0,0,1,1.74.39,3.22,3.22,0,0,1,1.24,1.09v-1.4Zm-3,6.37a3.05,3.05,0,0,0,0-3.87,2.53,2.53,0,0,0-3.59,0,3,3,0,0,0,0,3.86,2.54,2.54,0,0,0,3.59,0Z" fill="#959797"/><path d="M232.52,53a5.24,5.24,0,0,1,1.13,3.59c0,.3,0,.53,0,.68h-6.92a2.6,2.6,0,0,0,2.68,2.14,3.54,3.54,0,0,0,1.37-.27,3.37,3.37,0,0,0,1.15-.78l1.23,1.28a4.75,4.75,0,0,1-1.71,1.19,5.74,5.74,0,0,1-2.23.42,5.2,5.2,0,0,1-2.53-.6A4.17,4.17,0,0,1,225,58.95a5.44,5.44,0,0,1,0-5,4.29,4.29,0,0,1,1.69-1.69,5,5,0,0,1,2.47-.61A4.27,4.27,0,0,1,232.52,53Zm-1,2.75a2.28,2.28,0,0,0-.68-1.65,2.66,2.66,0,0,0-3.39,0,2.68,2.68,0,0,0-.83,1.66Z" fill="#959797"/><path d="M243.79,52.65a3.66,3.66,0,0,1,.93,2.64v5.85h-2.29V55.95a2.12,2.12,0,0,0-.56-1.55,2,2,0,0,0-1.52-.57,2.32,2.32,0,0,0-1.8.77,2.83,2.83,0,0,0-.66,1.93v4.61h-2.27V51.76h2.27v1.75a3.56,3.56,0,0,1,3.36-1.84A3.34,3.34,0,0,1,243.79,52.65Z" fill="#959797"/><path d="M251.27,53.69a2.39,2.39,0,0,0-1.85.77,2.83,2.83,0,0,0-.71,2,2.87,2.87,0,0,0,.71,2,2.39,2.39,0,0,0,1.85.77,3,3,0,0,0,2.52-1.1l1.42,1.18a4.15,4.15,0,0,1-1.66,1.4,5.55,5.55,0,0,1-2.4.49,5,5,0,0,1-2.46-.6A4.19,4.19,0,0,1,247,58.95a5.47,5.47,0,0,1,0-5,4.26,4.26,0,0,1,1.68-1.68,5,5,0,0,1,2.48-.6,5.55,5.55,0,0,1,2.28.45,4.11,4.11,0,0,1,1.64,1.27l-1.38,1.31A3.17,3.17,0,0,0,251.27,53.69Z" fill="#959797"/><path d="M259.92,64a3.24,3.24,0,0,1-1.94.59,3.57,3.57,0,0,1-1.23-.2,3.88,3.88,0,0,1-1.1-.64l1-1.73a3,3,0,0,0,.61.36,1.6,1.6,0,0,0,.6.11,1.43,1.43,0,0,0,1.36-.95l.28-.61-3.87-9.21H258l2.66,6.81,2.44-6.81h2.29l-4.2,10.55A3.69,3.69,0,0,1,259.92,64Z" fill="#959797"/></g></g></svg>