<svg xmlns="http://www.w3.org/2000/svg" viewBox="0 0 84.07 99.52"><title>logo</title><g id="b15f7549-8c3b-4509-9e82-74762408c815" data-name="Layer 2"><g id="e693ccef-64ba-486a-8fbe-58ab6fbf22b4" data-name="Layer 8"><path d="M0,98.52l3.9-11H.33V86.37h5v.93L1.44,98.21H5.32l-.17,1.13H0Z" fill="#ee2945"/><path d="M11.55,86.37v13H10.31v-13Z" fill="#ee2945"/><path d="M18.55,95.05l-.66,4.29H16.64l2.14-13h1.77l2.23,13h-1.3l-.7-4.29Zm2.07-1.15c-.5-3-.83-5.24-.95-6.41h-.06c0,1-.52,4-.89,6.41Z" fill="#ee2945"/><path d="M34.39,86.37h1.24v5.44h2.84V86.37h1.22v13H38.47V92.93H35.63v6.41H34.39Z" fill="#ee2945"/><path d="M50.69,89.49v6.65c0,2.23-.92,3.38-2.78,3.38s-2.68-1.31-2.68-3.36V89.49c0-2.13,1-3.3,2.76-3.3S50.69,87.55,50.69,89.49Zm-4.2,0v6.77c0,1.56.56,2.16,1.48,2.16s1.45-.58,1.45-2.22v-6.7c0-1.45-.5-2.15-1.47-2.15S46.49,88,46.49,89.46Z" fill="#ee2945"/><path d="M62.55,93.79c0-2.41,0-4.94.08-6.3h0c-.33,2.16-1.38,8-2.12,11.85H59.27c-.54-3.32-1.63-9.55-1.94-11.87h0c0,1.52.1,4.45.1,6.69v5.18H56.22v-13h1.84c.76,4,1.68,8.95,1.85,10.58h0c.21-1.57,1.26-6.85,2-10.58h1.81v13H62.55Z" fill="#ee2945"/><path d="M73.74,93H70.82v5.24h3.31L74,99.34H69.58v-13h4.33v1.14H70.82v4.33h2.92Z" fill="#ee2945"/><path d="M80,95.73v.74c0,1.28.44,2,1.4,2s1.36-.66,1.36-2.22A3.33,3.33,0,0,0,81.1,93C79.7,91.9,79,91.26,79,89.36c0-1.63.48-3.19,2.45-3.17s2.37,1.21,2.37,2.9v.58H82.59v-.54c0-1.11-.21-1.85-1.16-1.85s-1.19.84-1.19,1.88c0,1.29.25,1.73,1.46,2.65C83.47,93.16,84,93.9,84,96c0,1.82-.49,3.48-2.62,3.48s-2.62-1.34-2.62-3v-.74Z" fill="#ee2945"/><path d="M74.51,40.15H49.6l-2,3.49H70.73A28.8,28.8,0,0,1,63.1,59l1.78,3.08A32.25,32.25,0,0,0,74.2,43.63h9.86V40.16Z" fill="#ee2945"/><path d="M74.22,34.53h0A32.26,32.26,0,0,0,64.84,16l-1.65,2.86-.13.22a28.77,28.77,0,0,1,7.69,15.5l-17.91,0-2,3.48,20.26,0h3.44A29.53,29.53,0,0,0,74.22,34.53Z" fill="#ee2945"/><path d="M13.69,34.42A28.75,28.75,0,0,1,21.38,19L19.6,15.93a32.31,32.31,0,0,0-9.38,18.48H.36v3.49H34.83l2-3.48Z" fill="#ee2945"/><path d="M33.61,40.07,13.34,40H9.9a34,34,0,0,0,.3,3.49h0a32.23,32.23,0,0,0,9.41,18.61L21.39,59a28.84,28.84,0,0,1-7.72-15.52l17.92,0Z" fill="#ee2945"/><path d="M57.45,10.52A31.43,31.43,0,0,0,54.28,9,32.3,32.3,0,0,0,30.14,9l-5-8.58-3,1.74L27,10.52c-.62.33-1.23.68-1.82,1.05L18.45,0l-3,1.74,6.85,11.84,1.74,3a27.21,27.21,0,0,1,2.84-2c.6-.38,1.21-.73,1.83-1.06A27.81,27.81,0,0,1,31.88,12a28.92,28.92,0,0,1,20.67,0h0L22.28,64.47a31.34,31.34,0,0,0,2.87,2Z" fill="#ff8939"/><path d="M26.92,67.48A33.79,33.79,0,0,0,30.09,69a32.43,32.43,0,0,0,24.14,0l5,8.58,3-1.75-4.8-8.31c.62-.33,1.23-.69,1.82-1.06L65.92,78l3-1.74L62.09,64.41l-1.74-3a28.76,28.76,0,0,1-2.84,2c-.6.37-1.21.72-1.83,1.06A29.64,29.64,0,0,1,52.49,66a29.06,29.06,0,0,1-20.67,0h0L62.09,13.53a31.44,31.44,0,0,0-2.87-2Z" fill="#ff8939"/></g></g></svg>