<svg xmlns="http://www.w3.org/2000/svg" xmlns:xlink="http://www.w3.org/1999/xlink" viewBox="0 0 496.31 59.31"><defs><linearGradient id="f2b5ce96-aa2a-4517-8754-fd2f7927384c" x1="14.34" y1="23.35" x2="103.88" y2="23.35" gradientUnits="userSpaceOnUse"><stop offset="0" stop-color="#00b4eb"/><stop offset="0.99" stop-color="#0037ff"/></linearGradient></defs><title>logo</title><g id="a94a614e-64d8-4239-8cf4-2deb87f7f2da" data-name="Layer 2"><g id="ad06ed87-007a-485c-986b-b6da1ad04c5e" data-name="Layer 4"><path d="M73.31,47.18c0-.16.07-.32.12-.48H1.34C.88,47.27.43,47.85,0,48.43v.51H72.93c.1-.6.23-1.17.37-1.74v0Z" fill="#fff" opacity="0.63"/><path d="M13,48.94v-.51c-.32.43-.64.87-.95,1.31Q10.75,51.6,9.66,53.5H80.81a5.15,5.15,0,0,0,5.12-4.56H13Z" fill="#1a1a1a"/><rect x="59.26" y="30.32" width="15.55" height="5.18" rx="2.17" fill="#29abe2"/><path d="M101.87.05a1.65,1.65,0,0,0-1.21,1.64V4c0,8.61-5.27,11.22-12.18,11.66a2.16,2.16,0,0,1-1.63-.5,2,2,0,0,0-1.2-.38A103.59,103.59,0,0,0,59.12,19C39.73,24.61,23.86,34.91,14.34,46.7H86.43c1.34-4.7,4.3-8,7.8-8.36l-.18-15.05s-2.32-2.07-4.26-4.07c7.95-.62,14.09-4.94,14.09-16.12V1.61A1.61,1.61,0,0,0,101.87.05ZM85.29,25.14c-.24,2.68-.3,5.36-.3,5.36s.3,3.58-7,3.16c-.6.06-.9.24-1.49,1s-.54,2.86-4.65,2.86c-3,0-8.34-.09-11-.15a3.57,3.57,0,0,1-3.12-1.84l0,0c-.66-.78-.89-.6-2.08-.72s-11.86,0-6.74-4.71c0,0,10.15-10.26,33.41-9.23l.25,0A3.86,3.86,0,0,1,85.29,25.14Z" fill="url(#f2b5ce96-aa2a-4517-8754-fd2f7927384c)"/><path d="M146.24,53l-5.1-6.13a16.83,16.83,0,0,1-4.09.47,16.43,16.43,0,0,1-8.33-2.14,15.46,15.46,0,0,1-5.89-6,17.44,17.44,0,0,1-2.16-8.68,17.31,17.31,0,0,1,2.16-8.66,15.48,15.48,0,0,1,5.89-6,17.3,17.3,0,0,1,16.67,0,15.48,15.48,0,0,1,5.89,6,17.31,17.31,0,0,1,2.16,8.66,17.64,17.64,0,0,1-1.86,8.14,15.33,15.33,0,0,1-5.15,5.87L154.18,53ZM128.58,36.26A8.87,8.87,0,0,0,132,40a10.48,10.48,0,0,0,10.11,0,8.85,8.85,0,0,0,3.41-3.74,12.44,12.44,0,0,0,1.23-5.68,12.48,12.48,0,0,0-1.23-5.69,8.82,8.82,0,0,0-3.41-3.73,10.48,10.48,0,0,0-10.11,0,8.85,8.85,0,0,0-3.42,3.73,12.48,12.48,0,0,0-1.23,5.69A12.44,12.44,0,0,0,128.58,36.26Z" fill="#1a1a1a"/><path d="M181.79,21.34V47.05h-6.54v-5.2a8.21,8.21,0,0,1-3.36,4.07,10.08,10.08,0,0,1-5.41,1.46,9.1,9.1,0,0,1-7.1-2.93q-2.65-2.93-2.65-8.16V21.34h6.5v14.2a6.74,6.74,0,0,0,1.58,4.76A5.54,5.54,0,0,0,169.08,42a5.82,5.82,0,0,0,4.5-1.81A7.39,7.39,0,0,0,175.25,35V21.34Z" fill="#1a1a1a"/><path d="M202.21,22.55a8.34,8.34,0,0,1,3.3,4.13V21.34H212V47.05h-6.5V41.67a8.43,8.43,0,0,1-3.3,4.15,9.71,9.71,0,0,1-5.56,1.56,11.05,11.05,0,0,1-5.85-1.58,10.6,10.6,0,0,1-4.06-4.57,15.79,15.79,0,0,1-1.47-7,15.73,15.73,0,0,1,1.47-7,10.63,10.63,0,0,1,4.06-4.58A11,11,0,0,1,196.65,21,9.85,9.85,0,0,1,202.21,22.55Zm-8.44,6.17a7.73,7.73,0,0,0-1.86,5.48,7.62,7.62,0,0,0,1.86,5.45,7,7,0,0,0,9.81,0,7.46,7.46,0,0,0,1.93-5.4,7.57,7.57,0,0,0-1.93-5.46,6.48,6.48,0,0,0-4.89-2A6.4,6.4,0,0,0,193.77,28.72Z" fill="#1a1a1a"/><path d="M223.33,12.71V47.05h-6.54V12.71Z" fill="#1a1a1a"/><path d="M228.48,11.39a4.78,4.78,0,0,1,5.85,0A3.29,3.29,0,0,1,235.44,14a3.25,3.25,0,0,1-1.11,2.53,4.78,4.78,0,0,1-5.85,0A3.25,3.25,0,0,1,227.37,14,3.29,3.29,0,0,1,228.48,11.39Zm6.17,10V47.05h-6.54V21.34Z" fill="#1a1a1a"/><path d="M253.17,41.44v5.61h-3.43c-2.88,0-5.08-.69-6.61-2.09s-2.3-3.71-2.3-7V26.86h-3.58V21.34h3.58V15h6.54v6.36h5.76v5.52h-5.76V38.1a3.63,3.63,0,0,0,.74,2.59,3.45,3.45,0,0,0,2.51.75Z" fill="#1a1a1a"/><path d="M261.11,21.34l7,17.45,6.49-17.45h7.2l-15.74,38h-7.24l5.81-13-10.82-25Z" fill="#1a1a1a"/><path d="M299.21,14.29V47.05h-6.54V14.29Z" fill="#1a1a1a"/><path d="M314.34,22.39A10.06,10.06,0,0,1,319.63,21v7h-1.9q-7.2,0-7.2,6.68V47.05H304V21.34h6.54v4.92A10.71,10.71,0,0,1,314.34,22.39Z" fill="#1a1a1a"/><path d="M340.72,22.59a11.62,11.62,0,0,1,4.72,4.58,13.89,13.89,0,0,1,1.71,7,13.75,13.75,0,0,1-1.71,7,11.75,11.75,0,0,1-4.72,4.58,15,15,0,0,1-13.5,0,11.66,11.66,0,0,1-4.71-4.58,13.66,13.66,0,0,1-1.72-7,13.8,13.8,0,0,1,1.72-7,11.54,11.54,0,0,1,4.71-4.58,15.3,15.3,0,0,1,13.5,0Zm-11.39,6a7.64,7.64,0,0,0-1.9,5.6,7.62,7.62,0,0,0,1.9,5.59,6.54,6.54,0,0,0,9.28,0,7.62,7.62,0,0,0,1.91-5.59,7.65,7.65,0,0,0-1.91-5.6,6.57,6.57,0,0,0-9.28,0Z" fill="#1a1a1a"/><path d="M373.05,23.89c1.76,1.95,2.65,4.69,2.65,8.22V47.05h-6.5V32.85a6.74,6.74,0,0,0-1.58-4.76,5.6,5.6,0,0,0-4.32-1.69,5.75,5.75,0,0,0-4.45,1.81,7.37,7.37,0,0,0-1.67,5.2V47.05h-6.55V21.34h6.55v5.15a8.22,8.22,0,0,1,3.36-4.06A10.05,10.05,0,0,1,366,21,9.09,9.09,0,0,1,373.05,23.89Z" fill="#1a1a1a"/><path d="M424.56,14.66V47.05h-6.49V24.45l-8.31,22.6H404.1l-8.31-22.51V47.05h-6.54V14.66h7.93L407,39l9.65-24.36Z" fill="#1a1a1a"/><path d="M445,22.55a8.34,8.34,0,0,1,3.3,4.13V21.34h6.5V47.05h-6.5V41.67a8.43,8.43,0,0,1-3.3,4.15,9.71,9.71,0,0,1-5.56,1.56,11.05,11.05,0,0,1-5.85-1.58,10.6,10.6,0,0,1-4.06-4.57,15.79,15.79,0,0,1-1.47-7,15.73,15.73,0,0,1,1.47-7,10.63,10.63,0,0,1,4.06-4.58A11,11,0,0,1,439.42,21,9.85,9.85,0,0,1,445,22.55Zm-8.44,6.17a7.73,7.73,0,0,0-1.86,5.48,7.62,7.62,0,0,0,1.86,5.45,7,7,0,0,0,9.81,0,7.46,7.46,0,0,0,1.93-5.4,7.57,7.57,0,0,0-1.93-5.46,6.48,6.48,0,0,0-4.89-2A6.4,6.4,0,0,0,436.54,28.72Z" fill="#1a1a1a"/><path d="M459.93,11.39a4.78,4.78,0,0,1,5.85,0A3.29,3.29,0,0,1,466.89,14a3.25,3.25,0,0,1-1.11,2.53,4.78,4.78,0,0,1-5.85,0A3.26,3.26,0,0,1,458.81,14,3.3,3.3,0,0,1,459.93,11.39Zm6.17,10V47.05h-6.54V21.34Z" fill="#1a1a1a"/><path d="M486.5,22.55a8.66,8.66,0,0,1,3.32,4.13v-14h6.49V47.05h-6.49V41.67a8.76,8.76,0,0,1-3.32,4.15A9.64,9.64,0,0,1,481,47.38a11,11,0,0,1-5.84-1.58A10.68,10.68,0,0,1,471,41.23a15.93,15.93,0,0,1-1.46-7,15.87,15.87,0,0,1,1.46-7,10.71,10.71,0,0,1,4.07-4.58A11,11,0,0,1,481,21,9.78,9.78,0,0,1,486.5,22.55Zm-8.42,6.17a7.73,7.73,0,0,0-1.86,5.48,7.62,7.62,0,0,0,1.86,5.45,6.39,6.39,0,0,0,4.91,2,6.46,6.46,0,0,0,4.9-2,7.5,7.5,0,0,0,1.93-5.4,7.61,7.61,0,0,0-1.93-5.46,6.5,6.5,0,0,0-4.9-2A6.38,6.38,0,0,0,478.08,28.72Z" fill="#1a1a1a"/></g></g></svg>