<svg xmlns="http://www.w3.org/2000/svg" viewBox="0 0 308.84 53.71"><title>logo</title><g id="de453486-ac85-40b7-8ce8-758a19698e59" data-name="Layer 2"><g id="fa63e81e-601b-4db1-a661-3f5f58b620c2" data-name="Layer 1"><path d="M38.88,51.44a27.3,27.3,0,0,1-11.45,2.27,29.86,29.86,0,0,1-10.91-1.94,25.18,25.18,0,0,1-14.44-14A28,28,0,0,1,0,26.78,27.92,27.92,0,0,1,2.13,15.7,24.65,24.65,0,0,1,8,7.24a26,26,0,0,1,8.79-5.36,31.49,31.49,0,0,1,21.49,0,20.35,20.35,0,0,1,8.46,5.58l-8.35,8.35a10.33,10.33,0,0,0-4.54-3.53,15.07,15.07,0,0,0-5.76-1.15,14.59,14.59,0,0,0-5.94,1.19,13.93,13.93,0,0,0-4.64,3.28,14.92,14.92,0,0,0-3,4.93,17.41,17.41,0,0,0-1.08,6.23,17.91,17.91,0,0,0,1.08,6.34,14.74,14.74,0,0,0,3,4.93A13.43,13.43,0,0,0,22,41.26a14.53,14.53,0,0,0,5.83,1.15A13.57,13.57,0,0,0,34.27,41a12.44,12.44,0,0,0,4.39-3.74l8.57,8.06a24.27,24.27,0,0,1-8.35,6.16" fill="#474747"/><path d="M87.19,52.34l-4.82-5a19.9,19.9,0,0,1-6,4.28,20.71,20.71,0,0,1-8.89,1.69,25.73,25.73,0,0,1-6.77-.9,17.27,17.27,0,0,1-5.87-2.81,14.48,14.48,0,0,1-4.1-4.75,13.87,13.87,0,0,1-1.55-6.73,13.45,13.45,0,0,1,.86-4.9,13.61,13.61,0,0,1,2.34-4,16.48,16.48,0,0,1,3.42-3,27.58,27.58,0,0,1,4-2.23A19.94,19.94,0,0,1,56,19a12.77,12.77,0,0,1-1.44-6A11.44,11.44,0,0,1,56,7.06a12.71,12.71,0,0,1,3.71-4A15.47,15.47,0,0,1,64.84.72,23,23,0,0,1,70.49,0a21.8,21.8,0,0,1,5.69.76,15.27,15.27,0,0,1,5,2.34,12,12,0,0,1,3.53,4A12,12,0,0,1,86,13a11.83,11.83,0,0,1-.79,4.43,12.61,12.61,0,0,1-2.2,3.6,17.48,17.48,0,0,1-3.28,2.92,36.28,36.28,0,0,1-4,2.38l6.41,6.55L87.34,25h13.1l-11,14.76,12.67,12.6ZM66.38,30.82a11.71,11.71,0,0,0-3.78,2.41A5.84,5.84,0,0,0,61,37.66a5.81,5.81,0,0,0,.61,2.7,6.55,6.55,0,0,0,1.58,2,6.88,6.88,0,0,0,2.2,1.26,7.51,7.51,0,0,0,2.52.43,8.81,8.81,0,0,0,4.25-1,9.7,9.7,0,0,0,3.24-2.88Zm9.07-17.5a4.56,4.56,0,0,0-4.82-4.68A4.87,4.87,0,0,0,67.14,10a4.42,4.42,0,0,0-1.4,3.35,6.73,6.73,0,0,0,1,3.46,11.85,11.85,0,0,0,2.84,3.17,13.26,13.26,0,0,0,4.18-2.66,5.29,5.29,0,0,0,1.73-4" fill="#474747"/><polygon points="106.13 52.34 106.13 1.37 118.51 1.37 118.51 41.62 138.24 41.62 138.24 52.34 106.13 52.34" fill="#474747"/><path d="M171.36,21.86a6.13,6.13,0,0,1-.65,3A5.34,5.34,0,0,1,169,26.75a7.73,7.73,0,0,1-2.54,1.08,13.09,13.09,0,0,1-3,.34H161v7.55h-4.84v-20h7.35a13.77,13.77,0,0,1,3.07.33,7.24,7.24,0,0,1,2.49,1A5.09,5.09,0,0,1,170.75,19a6.26,6.26,0,0,1,.61,2.9m-4.83,0a2.15,2.15,0,0,0-.28-1.16,2,2,0,0,0-.76-.71,3.28,3.28,0,0,0-1.09-.34,9.16,9.16,0,0,0-1.26-.08H161v4.72h2a7.34,7.34,0,0,0,1.3-.11,3.49,3.49,0,0,0,1.12-.4,2.12,2.12,0,0,0,.78-.75,2.23,2.23,0,0,0,.28-1.17" fill="#474747"/><polygon points="174.56 35.71 174.56 15.7 179.42 15.7 179.42 31.5 187.17 31.5 187.17 35.71 174.56 35.71" fill="#474747"/><path d="M205.39,31.46A7.17,7.17,0,0,1,203.65,34a8,8,0,0,1-2.73,1.65,10.93,10.93,0,0,1-7.11,0A7.75,7.75,0,0,1,191.13,34a7.2,7.2,0,0,1-1.7-2.55,8.79,8.79,0,0,1-.59-3.29V15.69h4.81V27.77a5.6,5.6,0,0,0,.21,1.56,4,4,0,0,0,.65,1.31,3,3,0,0,0,1.16.92,4.63,4.63,0,0,0,3.48,0,3.17,3.17,0,0,0,1.17-.92,3.66,3.66,0,0,0,.65-1.31,6,6,0,0,0,.2-1.56V15.69H206V28.16a8.62,8.62,0,0,1-.61,3.29" fill="#474747"/><polygon points="228.34 35.71 228.45 21.55 228.37 21.55 223.16 35.71 219.77 35.71 214.71 21.55 214.63 21.55 214.74 35.71 210.19 35.71 210.19 15.7 217.07 15.7 221.62 28.53 221.74 28.53 226.1 15.7 233.09 15.7 233.09 35.71 228.34 35.71" fill="#474747"/><path d="M253.08,29.89a5.4,5.4,0,0,1-.65,2.76,5.18,5.18,0,0,1-1.73,1.8,7.55,7.55,0,0,1-2.45,1,13.27,13.27,0,0,1-2.81.3h-8v-20h8a12.29,12.29,0,0,1,2.38.24,7.07,7.07,0,0,1,2.21.82,4.41,4.41,0,0,1,2.23,4.09,4.17,4.17,0,0,1-.9,2.76A5,5,0,0,1,249,25.17v.06a5.5,5.5,0,0,1,1.6.52,4.63,4.63,0,0,1,1.3,1,4.57,4.57,0,0,1,.88,1.39,4.66,4.66,0,0,1,.33,1.78m-5.48-8.4a1.6,1.6,0,0,0-.78-1.48,4.55,4.55,0,0,0-2.3-.47h-2.38v4.13h2.6a3.5,3.5,0,0,0,2.11-.55,1.89,1.89,0,0,0,.75-1.63m.65,7.95a1.77,1.77,0,0,0-.93-1.72,5.46,5.46,0,0,0-2.49-.48h-2.69v4.58h2.72a7.3,7.3,0,0,0,1.17-.1,3.71,3.71,0,0,0,1.1-.35,2,2,0,0,0,1.12-1.92" fill="#474747"/><rect x="256.56" y="15.69" width="4.86" height="20.02" fill="#474747"/><polygon points="278.56 35.71 270.5 22.62 270.41 22.62 270.52 35.71 265.83 35.71 265.83 15.7 271.35 15.7 279.38 28.76 279.46 28.76 279.35 15.7 284.04 15.7 284.04 35.71 278.56 35.71" fill="#474747"/><path d="M302.8,35.74a18,18,0,0,1-4.28.48,12.43,12.43,0,0,1-4.42-.76,10.22,10.22,0,0,1-3.48-2.15A9.78,9.78,0,0,1,288.34,30a11,11,0,0,1-.82-4.31,11,11,0,0,1,.83-4.35,9.68,9.68,0,0,1,2.3-3.32,10.21,10.21,0,0,1,3.45-2.11,12.16,12.16,0,0,1,4.27-.74,13.11,13.11,0,0,1,4.41.72,9.12,9.12,0,0,1,3.31,1.94L303,21.29A5.29,5.29,0,0,0,301.18,20a6.33,6.33,0,0,0-2.63-.52,5.83,5.83,0,0,0-2.35.47,5.65,5.65,0,0,0-1.87,1.3,5.9,5.9,0,0,0-1.23,2,6.93,6.93,0,0,0-.44,2.5,7.86,7.86,0,0,0,.4,2.54,5.49,5.49,0,0,0,1.17,2,5.33,5.33,0,0,0,1.92,1.3,6.89,6.89,0,0,0,2.61.47,9.81,9.81,0,0,0,1.61-.13,6,6,0,0,0,1.41-.41V27.8H298V23.9h8.26V34.5a15.38,15.38,0,0,1-3.44,1.24" fill="#474747"/><path d="M162.32,43.5a2.91,2.91,0,0,0-1.08-.84,3,3,0,0,0-1.29-.31,3.88,3.88,0,0,0-.65.06,1.69,1.69,0,0,0-.59.22,1.47,1.47,0,0,0-.44.41,1.1,1.1,0,0,0-.18.65,1,1,0,0,0,.14.56,1.26,1.26,0,0,0,.41.4,3.67,3.67,0,0,0,.65.31l.85.29,1.41.5a5.28,5.28,0,0,1,1.34.72,3.81,3.81,0,0,1,1,1.12,3.23,3.23,0,0,1,.4,1.67,4.34,4.34,0,0,1-.42,2,4,4,0,0,1-1.14,1.38,4.88,4.88,0,0,1-1.64.81,6.87,6.87,0,0,1-1.9.26,7.84,7.84,0,0,1-2.76-.5,5.85,5.85,0,0,1-2.22-1.42l2.11-2.14a3.9,3.9,0,0,0,1.29,1,3.5,3.5,0,0,0,1.59.4,3.22,3.22,0,0,0,.7-.07,1.74,1.74,0,0,0,.59-.25,1.22,1.22,0,0,0,.4-.45,1.42,1.42,0,0,0,.15-.68,1.07,1.07,0,0,0-.19-.64,1.85,1.85,0,0,0-.54-.48,4.35,4.35,0,0,0-.86-.39l-1.18-.39a11.27,11.27,0,0,1-1.25-.49,4.17,4.17,0,0,1-1.09-.72,3.33,3.33,0,0,1-.77-1.07,3.62,3.62,0,0,1-.29-1.53,3.77,3.77,0,0,1,.45-1.9,3.92,3.92,0,0,1,1.18-1.3,5.11,5.11,0,0,1,1.66-.74A7.49,7.49,0,0,1,160,39.7a6.94,6.94,0,0,1,2.3.41,5.94,5.94,0,0,1,2.06,1.22Z" fill="#474747"/><path d="M177.58,50.52a4.77,4.77,0,0,1-1.16,1.69,5.35,5.35,0,0,1-1.81,1.1,7.29,7.29,0,0,1-4.73,0,5.15,5.15,0,0,1-1.79-1.1A4.77,4.77,0,0,1,167,50.52a5.85,5.85,0,0,1-.4-2.19V40h3.2v8a3.71,3.71,0,0,0,.14,1,2.62,2.62,0,0,0,.43.88,2,2,0,0,0,.77.61,3.08,3.08,0,0,0,2.31,0,2.11,2.11,0,0,0,.78-.61,2.41,2.41,0,0,0,.43-.87,3.94,3.94,0,0,0,.13-1V40H178v8.29a5.72,5.72,0,0,1-.4,2.19" fill="#474747"/><path d="M191,44.14a4.09,4.09,0,0,1-.43,2,3.56,3.56,0,0,1-1.17,1.29,5.14,5.14,0,0,1-1.69.71,8.63,8.63,0,0,1-2,.23h-1.6v5h-3.21V40h4.89a9.18,9.18,0,0,1,2,.22,4.81,4.81,0,0,1,1.65.7,3.37,3.37,0,0,1,1.11,1.26,4.15,4.15,0,0,1,.4,1.93m-3.21,0a1.44,1.44,0,0,0-.19-.77,1.3,1.3,0,0,0-.51-.47,2.2,2.2,0,0,0-.73-.23,6.12,6.12,0,0,0-.84-.06H184.1v3.14h1.35a4.86,4.86,0,0,0,.86-.07,2.32,2.32,0,0,0,.74-.26,1.41,1.41,0,0,0,.52-.5,1.49,1.49,0,0,0,.19-.78" fill="#474747"/><path d="M203.31,44.14a4.09,4.09,0,0,1-.43,2,3.56,3.56,0,0,1-1.17,1.29,5.14,5.14,0,0,1-1.69.71,8.63,8.63,0,0,1-2,.23h-1.6v5h-3.21V40h4.89a9.18,9.18,0,0,1,2,.22,4.81,4.81,0,0,1,1.65.7,3.37,3.37,0,0,1,1.11,1.26,4.15,4.15,0,0,1,.4,1.93m-3.21,0a1.44,1.44,0,0,0-.19-.77,1.3,1.3,0,0,0-.51-.47,2.2,2.2,0,0,0-.73-.23,6.12,6.12,0,0,0-.84-.06h-1.41v3.14h1.35a4.86,4.86,0,0,0,.86-.07,2.32,2.32,0,0,0,.74-.26,1.41,1.41,0,0,0,.52-.5,1.49,1.49,0,0,0,.19-.78" fill="#474747"/><polygon points="205.55 53.35 205.55 40.04 208.78 40.04 208.78 50.55 213.94 50.55 213.94 53.35 205.55 53.35" fill="#474747"/><polygon points="220.76 47.71 220.76 53.35 217.55 53.35 217.55 47.71 212.54 40.04 216.44 40.04 219.28 44.97 222.12 40.04 225.88 40.04 220.76 47.71" fill="#474747"/><path d="M241.26,53.12a7.13,7.13,0,0,1-3,.59,7.79,7.79,0,0,1-2.85-.51,6.57,6.57,0,0,1-3.77-3.67,7.81,7.81,0,0,1,0-5.75,6.44,6.44,0,0,1,1.53-2.21,6.78,6.78,0,0,1,2.29-1.4,8.22,8.22,0,0,1,5.61,0,5.32,5.32,0,0,1,2.21,1.46l-2.18,2.18a2.69,2.69,0,0,0-1.18-.92,3.94,3.94,0,0,0-1.51-.3,3.81,3.81,0,0,0-1.55.31,3.63,3.63,0,0,0-1.21.86,3.87,3.87,0,0,0-.79,1.29,4.55,4.55,0,0,0-.28,1.63,4.68,4.68,0,0,0,.28,1.66,3.84,3.84,0,0,0,.78,1.29,3.5,3.5,0,0,0,1.19.84,3.79,3.79,0,0,0,1.52.3,3.53,3.53,0,0,0,1.67-.38,3.25,3.25,0,0,0,1.15-1l2.24,2.11a6.33,6.33,0,0,1-2.18,1.61" fill="#474747"/><path d="M258.76,46.64a7.43,7.43,0,0,1-.54,2.89,6.59,6.59,0,0,1-1.51,2.24,6.72,6.72,0,0,1-2.3,1.44,8.09,8.09,0,0,1-2.9.51,8,8,0,0,1-2.89-.51,6.75,6.75,0,0,1-2.29-1.44,6.58,6.58,0,0,1-1.51-2.24,7.41,7.41,0,0,1-.54-2.89,7.32,7.32,0,0,1,.54-2.89,6.32,6.32,0,0,1,1.51-2.19,6.74,6.74,0,0,1,2.29-1.39,8.28,8.28,0,0,1,2.89-.49,8.36,8.36,0,0,1,2.9.49,6.72,6.72,0,0,1,2.3,1.39,6.34,6.34,0,0,1,1.51,2.19,7.34,7.34,0,0,1,.54,2.89m-3.44,0A4.57,4.57,0,0,0,255,45a3.85,3.85,0,0,0-.78-1.29,3.6,3.6,0,0,0-1.2-.85,3.81,3.81,0,0,0-1.55-.31,3.7,3.7,0,0,0-2.74,1.16A3.65,3.65,0,0,0,248,45a4.7,4.7,0,0,0-.27,1.62,4.75,4.75,0,0,0,.28,1.66,4,4,0,0,0,.78,1.31,3.56,3.56,0,0,0,1.2.85,4,4,0,0,0,3.08,0,3.69,3.69,0,0,0,1.2-.85,3.87,3.87,0,0,0,.79-1.31,4.76,4.76,0,0,0,.28-1.66" fill="#474747"/><path d="M263.63,51.7a1.74,1.74,0,0,1-.56,1.32,1.86,1.86,0,0,1-1.32.53,2,2,0,0,1-.74-.14,2,2,0,0,1-.61-.38,1.78,1.78,0,0,1-.41-.57,1.71,1.71,0,0,1-.15-.72A1.73,1.73,0,0,1,260,51a1.86,1.86,0,0,1,.41-.59A2,2,0,0,1,261,50a1.93,1.93,0,0,1,2.07.38,1.74,1.74,0,0,1,.56,1.32" fill="#474747"/><rect x="270.66" y="40.04" width="3.23" height="13.31" fill="#474747"/><polygon points="285.41 53.35 280.05 44.65 279.99 44.65 280.07 53.35 276.95 53.35 276.95 40.04 280.61 40.04 285.95 48.73 286.01 48.73 285.93 40.04 289.05 40.04 289.05 53.35 285.41 53.35" fill="#474747"/><path d="M301.63,53.12a7.13,7.13,0,0,1-3,.59,7.79,7.79,0,0,1-2.85-.51A6.57,6.57,0,0,1,292,49.54a7.81,7.81,0,0,1,0-5.75,6.44,6.44,0,0,1,1.53-2.21,6.78,6.78,0,0,1,2.29-1.4,8.23,8.23,0,0,1,5.61,0,5.32,5.32,0,0,1,2.21,1.46l-2.18,2.18a2.7,2.7,0,0,0-1.18-.92,3.94,3.94,0,0,0-1.5-.3,3.81,3.81,0,0,0-1.55.31,3.63,3.63,0,0,0-1.21.86,3.87,3.87,0,0,0-.79,1.29,4.55,4.55,0,0,0-.28,1.63,4.68,4.68,0,0,0,.28,1.66,3.83,3.83,0,0,0,.78,1.29,3.5,3.5,0,0,0,1.19.84,3.79,3.79,0,0,0,1.52.3,3.54,3.54,0,0,0,1.67-.38,3.24,3.24,0,0,0,1.15-1l2.24,2.11a6.34,6.34,0,0,1-2.18,1.61" fill="#474747"/><path d="M308.84,51.7a1.74,1.74,0,0,1-.56,1.32,1.86,1.86,0,0,1-1.33.53A2,2,0,0,1,305.6,53a1.78,1.78,0,0,1-.41-.57,1.71,1.71,0,0,1-.15-.72,1.73,1.73,0,0,1,.15-.71,1.86,1.86,0,0,1,.41-.59,2,2,0,0,1,.61-.41,1.93,1.93,0,0,1,2.07.38,1.74,1.74,0,0,1,.56,1.32" fill="#474747"/></g></g></svg>