<svg xmlns="http://www.w3.org/2000/svg" viewBox="0 0 204.68 88.81"><title>Asset 30</title><g id="e9d4b32e-8aa9-4c78-8d7c-43756a513953" data-name="Layer 2"><g id="a86a4520-c5f6-4f9d-a0a4-a70e54d9e7f2" data-name="Layer 8"><path d="M190.72,29.76l-7.3-1.31A19,19,0,0,0,169,7.67l1.31-7.3L168.2,0l-1.31,7.3a19,19,0,0,0-20.78,14.45l-7.3-1.31-.37,2.09,7.29,1.31a19,19,0,0,0,14.46,20.77l-1.31,7.3,2.08.38,1.31-7.3a19,19,0,0,0,20.78-14.46l7.3,1.31Zm-9.11-1.63-15.8-2.84,2.83-15.81A17.17,17.17,0,0,1,181.61,28.13Zm-15.05-19-2.84,15.81-15.8-2.84A17.17,17.17,0,0,1,166.56,9.11Zm-19,15.05L163.35,27l-2.84,15.8A17.18,17.18,0,0,1,147.54,24.16Zm15.06,19,2.83-15.81,15.81,2.84A17.18,17.18,0,0,1,162.6,43.18Z" fill="#fff"/><path d="M150,24.59A14.71,14.71,0,0,0,161,40.4l2.4-13.4Z" fill="#00aeef"/><path d="M163,40.77a14.7,14.7,0,0,0,15.8-11l-13.4-2.41Z" fill="#6d6e71"/><path d="M166.13,11.51a14.72,14.72,0,0,0-15.81,11l13.4,2.41Z" fill="#ec008c"/><path d="M179.21,27.69a14.71,14.71,0,0,0-11-15.8l-2.4,13.4Z" fill="#fdfa09"/><path d="M37.41,66.51c.35-1.72.72-3.24,1-4.79.15-1.1.76-1.39,1.73-1.38,3,0,6,0,9.07,0,1.19,0,1.47.49,1.27,1.57-1,4.9-1.84,9.82-2.85,14.71A2.11,2.11,0,0,1,46.35,78c-6,1.67-12,2.57-18-.17-5.49-2.51-7.53-8.8-6.77-13.9a19.36,19.36,0,0,1,4.14-9.8c4.12-5,9.64-6.65,15.68-6.94,2.79-.13,5.62.57,8.43.9,1.24.14,1.46.81,1,1.91-.49,1.29-.9,2.62-1.33,3.93-.31.93-.71,1.29-1.85,1-3.92-1-7.85-1.25-11.67.54-4.41,2-7.06,9.68-4.81,13.95,1.33,2.51,6,4.22,8.59,3,.4-.18.62-.81.87-1.26a3.19,3.19,0,0,0,.23-.87c.72-3.16.72-3.15-2.51-3.48A5.76,5.76,0,0,1,37.41,66.51Z" fill="#fff"/><path d="M108.24,58.53c2.64-2,4.75-3.28,7.49-3.08s5.7,2.16,6.42,4.74c1.65,6,.52,11.49-3.92,16-3.16,3.18-7.06,4.46-11.55,3.08-.9-.28-1.32,0-1.49,1-.4,2.31-.93,4.6-1.32,6.92-.2,1.23-.74,1.77-2,1.7-1.69-.09-3.38,0-5.08,0-1,0-1.39-.41-1.16-1.49.8-3.7,1.6-7.4,2.27-11.12C99,69.78,100,63.37,101.22,57a2.2,2.2,0,0,1,1.5-1.32,17.39,17.39,0,0,1,3.07-.07C107.43,55.55,109.09,55.41,108.24,58.53Zm6.53,7.26a3.47,3.47,0,0,0-2.1-3.62,2.72,2.72,0,0,0-3.5,1.77,50.82,50.82,0,0,0-2.2,7c-.5,2,.74,3.16,2.73,2.56a4.38,4.38,0,0,0,2.45-1.65A10.77,10.77,0,0,0,114.77,65.79Z" fill="#fff"/><path d="M124.41,79.11c.72-3.93,1.38-7.59,2.06-11.24.74-4,1.52-7.93,2.27-11.9.57-3,1.08-6,1.74-9a1.82,1.82,0,0,1,1.23-1.21c2.22-.13,4.45-.06,7-.06-.74,4.12-1.44,8-2.08,11.55,2.52-.61,4.35-2.18,7.24-1.85,3,.17,5.37,2.3,5.18,5.2-.25,4-.91,8-1.48,12a51.25,51.25,0,0,1-1.06,5.33c-.11.45-.66,1.12-1,1.13-2.27.11-4.56.06-7.16.06.46-2.63.89-5,1.3-7.43s.91-4.51,1.08-6.79a3.43,3.43,0,0,0-1.08-2.74c-1.06-.68-2.51.07-3.11,1.1a17.08,17.08,0,0,0-1.83,4.56c-.81,3.34-1.28,6.76-2,10.12-.09.44-.65,1.1-1,1.12C129.38,79.16,127,79.11,124.41,79.11Z" fill="#fff"/><path d="M92.57,79h-7V75.87L83.36,77.8c-4,3.56-11,2.34-12-4.13-1.19-7.57,2.45-15,10.74-17.48a23.92,23.92,0,0,1,12.51.08c1,.24,1.63.75,1.34,2-.88,4-1.73,8-2.41,12C93.07,73.09,92.9,75.92,92.57,79Zm-13-9.3c0,1.41,0,3,1.72,3.39s2.52-.77,3.28-2a3.38,3.38,0,0,0,.37-.82c.59-2.2,1.18-4.39,1.73-6.6.13-.55.32-1.47.08-1.64a3.14,3.14,0,0,0-1.83-.27C82.43,61.87,79.53,66,79.54,69.7Z" fill="#fff"/><path d="M193,80.12c-2.48,0-4.62-1.08-6.8-1.67-1-.27-1.31-.93-.83-2a11.87,11.87,0,0,0,.92-2.71c.31-1.45,1.05-1.4,2.25-1a19.77,19.77,0,0,0,4.74,1c.72,0,1.49-.7,2.24-1.08A9.19,9.19,0,0,0,194,70.8c-1.16-.83-2.54-1.36-3.66-2.23a6.59,6.59,0,0,1,.28-10.74c4.08-2.89,8.54-2.89,13.14-1.66.17,0,.42.07.5.19,1.21,1.83-.5,3.26-.79,4.88-.06.32-1.1.67-1.67.65-1.31-.07-2.61-.51-3.91-.5-.65,0-1.29.68-1.93,1a7.19,7.19,0,0,0,1.3,1.74,25.79,25.79,0,0,0,3,1.63c6,3.2,4.22,10.12-.59,12.42A16.65,16.65,0,0,1,193,80.12Z" fill="#fff"/><path d="M182.35,72.65c0,1.09,0,1.87,0,2.65.07,4.12,0,3.49-3.22,4.14C173.46,80.6,168,79,166,73.45c-2-5.74,1.34-13.79,7.81-16.54a19.56,19.56,0,0,1,9.54-1.35,11.44,11.44,0,0,1,2.32.71,50.12,50.12,0,0,1-1.72,5c-.18.41-1.17.68-1.76.64-2.18-.13-4.23.14-5.86,1.7a7.28,7.28,0,0,0-1.76,2.41c-.8,2-1.23,4.17.48,5.94s3.77,1.5,5.86.77A5.93,5.93,0,0,1,182.35,72.65Z" fill="#fff"/><path d="M52.23,79.12c.72-3.88,1.46-7.46,2.05-11.07.5-3.09.9-6.2,1.22-9.32.25-2.48.36-2.68,2.77-2.68,1.27,0,2.54,0,3.81,0a2.55,2.55,0,0,1,.6.21c0,.52.06,1.05.07,1.57s0,1,0,1.94c2.5-2.48,4.64-5,8.84-4.1C71,58.15,70.46,60.57,69.84,63c0,.21-.58.41-.89.42-4.91.14-6.1,3.43-6.89,6.79-.58,2.46-1,5-1.44,7.46-.19,1.07-.62,1.56-1.79,1.51C56.67,79.06,54.51,79.12,52.23,79.12Z" fill="#fff"/><path d="M163.81,56.19c-.37,2-.68,3.81-1,5.57-1,5.37-2,10.75-3.16,16.11-.1.47-.72,1.17-1.14,1.19-2.21.12-4.44.06-7.1.06,1.46-7.78,2.87-15.29,4.31-22.93Z" fill="#fff"/><path d="M20.35,17.09c-.33,2.09-.55,3.93-.91,5.74-.79,3.89-1.49,7.81-2.5,11.64-1.33,5-5,8.1-10.2,7.9C2.92,42.21-.12,39.59,0,35.79A88.73,88.73,0,0,1,1.46,25.23c.29-1.9.75-3.78,1-5.69C2.78,17,3,16.81,6,17.26c-.4,2.39-.8,4.79-1.19,7.18-.56,3.4-1.17,6.79-1.64,10.19a4,4,0,0,0,2.15,4.43A5.55,5.55,0,0,0,11.59,38c2.29-2.28,2.69-5.29,3.25-8.25.72-3.83,1.44-7.67,2.22-11.49C17.44,16.37,18.86,17.14,20.35,17.09Z" fill="#fff"/><path d="M121.74,41.72H119.6v-3l-.4-.23a23.9,23.9,0,0,1-2.12,2.26c-1.88,1.56-4,2.29-6.34,1.1s-3.07-3.16-3-5.66a12.63,12.63,0,0,1,15.76-12.28c1,.25,1.46.61,1.25,1.72C123.7,30.92,122.74,36.24,121.74,41.72ZM111,35.81c.08,1.3.1,2.91,1.89,3.65s3-.25,4.15-1.34c2.89-2.77,3.33-6.53,4-10.19.26-1.37-.16-1.85-1.55-1.86C115.1,26,111.14,30.39,111,35.81Z" fill="#fff"/><path d="M27.07,26.39c1-.67,1.92-1.42,2.95-2a5.36,5.36,0,0,1,5.69-.16,4.84,4.84,0,0,1,2.09,5.23c-.61,3.81-1.23,7.63-2.13,11.38-.14.61-1.72.88-2.63,1.31l-.53-.52c.34-2,.68-4.07,1-6.1.33-1.85.73-3.68,1-5.53A3.15,3.15,0,0,0,33,26.46c-1.38-.81-2.52-.05-3.51.64A8.42,8.42,0,0,0,26,32.77c-.47,2.6-1,5.2-1.57,7.78-.32,1.42-.86,1.57-3.19.92.32-2.1.6-4.23,1-6.34.54-3,1.18-5.89,1.74-8.84.22-1.15,0-2.52,1.93-2.35S26.4,25.6,27.07,26.39Z" fill="#fff"/><path d="M65.87,35.09C65.6,29.63,69.5,25,73.18,23.89c3-.9,6,0,7.08,2.35,1.39,3-.35,6.14-4.05,7a31.61,31.61,0,0,1-5.74.71c-1.22.06-1.56.53-1.5,1.67.18,3.75,3.35,4.51,5.9,4a10.47,10.47,0,0,1,1.74-.47,6.36,6.36,0,0,1,1.65.42c-.27.59-.39,1.52-.84,1.72-2.72,1.21-5.57,1.73-8.34.24A6.1,6.1,0,0,1,65.87,35.09Zm3.35-3.76c2.52,1.54,7.19-.17,8.23-2a2.1,2.1,0,0,0-1.51-3.07,5.34,5.34,0,0,0-2.74.39C71.34,27.43,70.22,29.1,69.22,31.33Z" fill="#fff"/><path d="M55.47,37.68c2.24-4.28,4.26-8.19,6.34-12.08,1-1.89,1.82-2.1,4-1.19L56.69,40.9c-.68,1.24-1.86,1.08-2.86.82-.43-.12-.82-1-.94-1.61-.81-4.13-1.55-8.28-2.29-12.42-.19-1.12-.3-2.26-.44-3.35,2.61-.83,3.12-.46,3.42,2.06.4,3.3.86,6.59,1.32,9.88A7.67,7.67,0,0,0,55.47,37.68Z" fill="#fff"/><path d="M105.66,24.79c-.3,1.73-1,2.19-2.53,1.42a2.65,2.65,0,0,0-2.12,0,4.23,4.23,0,0,0-2.17,1.88c-.24.66.37,1.74.84,2.5a4.75,4.75,0,0,0,1.57,1.17c2.71,1.68,3.67,3.56,3.07,6.09a6.27,6.27,0,0,1-5.59,4.43,21.08,21.08,0,0,1-4.07-.51c-1.08-.18-1.53-1-1-1.82a2.48,2.48,0,0,1,1.87-.62c.82,0,1.62.44,2.44.46a2.91,2.91,0,0,0,1.74-5.43c-.73-.53-1.53-1-2.2-1.55-1.89-1.64-2.68-3.56-1.42-6C97.77,23.58,103.14,22.41,105.66,24.79Z" fill="#fff"/><path d="M127,41.47c.43-2.57.82-5.17,1.31-7.75,1-5.25,2.07-10.47,3-15.72.46-2.52.52-2.65,3.4-2.18-.1.91-.14,1.85-.31,2.76q-2,10.53-4,21.06C129.92,42,129.61,42.23,127,41.47Z" fill="#fff"/><path d="M82.19,41.73c.58-3,1.14-5.69,1.62-8.39s.79-5.12,1.2-7.68c.24-1.56,1.16-2.28,2.3-1.56.53.34.59,1.44.84,2.14A28.9,28.9,0,0,1,91.38,24a5.74,5.74,0,0,1,2.22-.15,18.47,18.47,0,0,1-.11,2.24,1,1,0,0,1-.73.63c-3.81.41-4.85,3.38-5.68,6.35-.69,2.48-1,5.06-1.53,7.59C85.13,42.64,83.66,41.61,82.19,41.73Z" fill="#fff"/><path d="M40.83,41.44C41.44,38,42,34.48,42.69,31c.3-1.6.75-3.17,1-4.77.43-2.4.8-2.65,3.45-1.91-.25,1.14-.54,2.29-.75,3.45-.74,4-1.43,8-2.16,11.92C43.83,42.05,43.34,42.29,40.83,41.44Z" fill="#fff"/><path d="M48.51,18.32c-.11,1.81-.68,2.63-2,2.65a1.61,1.61,0,0,1-1.76-1.82c0-1.21.65-2.22,1.94-2C47.42,17.2,48.07,18,48.51,18.32Z" fill="#fff"/></g></g></svg>