<svg xmlns="http://www.w3.org/2000/svg" viewBox="0 0 126.41 41.65"><title>pvs</title><g id="77634359-84cf-4ed5-a288-207a002447c9" data-name="Layer 2"><g id="91cda9be-49cb-4dc6-8c61-3511a8b30641" data-name="Layer 7"><path d="M1.91,23.15c3.83,0,7.54.24,11-1.64l2.33,8.26c.39,1.39.76,2.79,1.21,4.17a1.11,1.11,0,0,0,.8.62c1.62.06,3.24.06,4.86,0a1.2,1.2,0,0,0,.87-.67c.6-1.89,1.11-3.81,1.74-6a8,8,0,0,0,5.65,6.21A15,15,0,0,0,39,34C29.49,44.13,9.66,44.23,0,34.13L1.91,34Z" fill="#e13e2b"/><path d="M.16,7.3C10-2.57,29.63-2.57,39.52,8.14c-2.76-1.1-5.46-.88-8.23-.52a45.93,45.93,0,0,1-5.76.06H24.28L19.84,26.07l-.18,0c-.37-1.5-.74-3-1.1-4.51-1-4.32-2.1-8.63-3.1-13-.18-.8-.54-1-1.3-1-4.65,0-9.29,0-13.94,0Z" fill="#e13e2b"/><path d="M43.83,26.66a10.14,10.14,0,0,0-4.38-5.52c-1.74-1.22-3.57-2.3-5.3-3.53a9.85,9.85,0,0,1-2.27-2.12c-1.37-1.87-.33-4,2-4.13s3.11.5,3.94,2.89c1.47-.12,3-.2,4.48-.4a1.21,1.21,0,0,1,1.54,1A17.64,17.64,0,0,1,43.83,26.66Z" fill="#e13e2b"/><path d="M30.61,26.65l-5.67.56,2.32-8.28c2.87,1.94,5.78,3.8,8.56,5.84a6.93,6.93,0,0,1,2,2.69,2,2,0,0,1-1.28,2.77c-2.38.91-5,.45-5.7-2.72C30.78,27.25,30.7,27,30.61,26.65Z" fill="#e13e2b"/><path d="M2,19.47V11.25a16.48,16.48,0,0,1,5.8.43,2.18,2.18,0,0,1,.78.46c1.38,1.29,1.12,3,.95,4.55a2.56,2.56,0,0,1-2.38,2.39C5.44,19.28,3.74,19.34,2,19.47Z" fill="#e13e2b"/><path d="M49.1,14.43h2l1.65,8.86,1.56-8.86h2.06L53.86,26.95H51.62Z" fill="#e13e2b"/><path d="M61.29,14.43h2.44l2.5,12.52H64.12l-.49-2.89H61.45l-.51,2.89H58.79Zm2.09,8.18-.85-5.26-.85,5.26Z" fill="#e13e2b"/><path d="M69.95,26.16A4.51,4.51,0,0,1,69,23.3l2-.39a4.33,4.33,0,0,0,.38,1.82,1.1,1.1,0,0,0,1,.63.94.94,0,0,0,.78-.32,1.33,1.33,0,0,0,.26-.86,2.25,2.25,0,0,0-.33-1.25,6.06,6.06,0,0,0-1-1.14l-1.58-1.38a4.88,4.88,0,0,1-1.09-1.34A3.59,3.59,0,0,1,69,17.38a3,3,0,0,1,.87-2.29,3.39,3.39,0,0,1,2.4-.8,2.7,2.7,0,0,1,2.3.92,4.56,4.56,0,0,1,.8,2.48l-2,.34a4.62,4.62,0,0,0-.27-1.53A.86.86,0,0,0,72.3,16a1.07,1.07,0,0,0-.83.32,1.2,1.2,0,0,0-.3.85,1.88,1.88,0,0,0,.25,1,4.3,4.3,0,0,0,.77.88l1.56,1.38A6.85,6.85,0,0,1,75.13,22a3.9,3.9,0,0,1,.49,2,3.17,3.17,0,0,1-.39,1.59,2.81,2.81,0,0,1-1.11,1.09,3.32,3.32,0,0,1-1.64.39A3.21,3.21,0,0,1,69.95,26.16Z" fill="#e13e2b"/><path d="M80,26a5.08,5.08,0,0,1-.81-3.08V18.48a5.13,5.13,0,0,1,.8-3.12,4.13,4.13,0,0,1,5.38-.14,4.08,4.08,0,0,1,.77,2.67v1.05H84V17.86a6.86,6.86,0,0,0-.06-1,1.06,1.06,0,0,0-.32-.62,1.13,1.13,0,0,0-.8-.24,1.2,1.2,0,0,0-.83.26,1.22,1.22,0,0,0-.36.68A5.83,5.83,0,0,0,81.53,18v5.43A3.17,3.17,0,0,0,81.81,25a1.07,1.07,0,0,0,1,.47,1.08,1.08,0,0,0,.78-.25,1.15,1.15,0,0,0,.32-.66A6.79,6.79,0,0,0,84,23.44V22.31h2.19v1a4.55,4.55,0,0,1-.76,2.81,3.1,3.1,0,0,1-2.63,1A3.22,3.22,0,0,1,80,26Z" fill="#e13e2b"/><path d="M91.22,26.62a2.61,2.61,0,0,1-1.08-1.41,7.33,7.33,0,0,1-.31-2.32V14.43h2.23v8.73a4.33,4.33,0,0,0,.26,1.67,1,1,0,0,0,1,.59,1,1,0,0,0,1.06-.59,4.33,4.33,0,0,0,.26-1.67V14.43h2.21V22.9a7.35,7.35,0,0,1-.31,2.31,2.61,2.61,0,0,1-1.08,1.41,4.85,4.85,0,0,1-4.27,0Z" fill="#e13e2b"/><path d="M100.82,14.43h2.27v11h3v1.56h-5.32Z" fill="#e13e2b"/><path d="M111.19,14.43h2.44l2.5,12.52H114l-.49-2.89h-2.18l-.51,2.89h-2.15Zm2.09,8.18-.85-5.26-.85,5.26Z" fill="#e13e2b"/><path d="M119.27,14.43h3a4.81,4.81,0,0,1,3,.75,3.06,3.06,0,0,1,1,2.57,4.63,4.63,0,0,1-.35,1.94,2.12,2.12,0,0,1-1.2,1.09l1.75,6.17h-2.29l-1.5-5.73h-1.08v5.73h-2.27Zm3,5.36a1.81,1.81,0,0,0,1.38-.45,2.15,2.15,0,0,0,.41-1.47,2.28,2.28,0,0,0-.36-1.44,1.6,1.6,0,0,0-1.31-.45h-.85v3.8Z" fill="#e13e2b"/><path d="M58.49.13h2.45q2.13,0,2.13,2.37a2,2,0,0,1-2.23,2.26H60v3.7H58.49Zm2.1,3.56a1,1,0,0,0,.83-.26,1.52,1.52,0,0,0,.22-.94,3,3,0,0,0-.07-.76.64.64,0,0,0-.29-.4,1.36,1.36,0,0,0-.68-.13H60V3.69Z" fill="#e13e2b"/><path d="M65,.13h1.51V3.61h1.7V.13h1.52V8.47H68.19V4.7h-1.7V8.47H65Z" fill="#e13e2b"/><path d="M73.2,5.29,71.52.13h1.42l1,3.3,1-3.3h1.39L74.65,5.29V8.47H73.2Z" fill="#e13e2b"/><path d="M78.51,7.94A3,3,0,0,1,77.9,6l1.31-.26A2.88,2.88,0,0,0,79.46,7a.73.73,0,0,0,.69.42.63.63,0,0,0,.52-.21.88.88,0,0,0,.17-.57,1.5,1.5,0,0,0-.22-.83A4,4,0,0,0,79.92,5l-1-.92a3.25,3.25,0,0,1-.73-.89,2.39,2.39,0,0,1-.24-1.13A2,2,0,0,1,78.48.58,2.25,2.25,0,0,1,80.08,0a1.8,1.8,0,0,1,1.53.61,3,3,0,0,1,.54,1.65l-1.31.23a3.07,3.07,0,0,0-.18-1,.57.57,0,0,0-.58-.35.71.71,0,0,0-.55.22.8.8,0,0,0-.2.57,1.26,1.26,0,0,0,.16.67A2.86,2.86,0,0,0,80,3.2l1,.92A4.56,4.56,0,0,1,82,5.21a2.59,2.59,0,0,1,.33,1.33A2.11,2.11,0,0,1,82,7.59a1.87,1.87,0,0,1-.74.73,2.21,2.21,0,0,1-1.09.26A2.13,2.13,0,0,1,78.51,7.94Z" fill="#e13e2b"/><path d="M84.28.13h1.5V8.47h-1.5Z" fill="#e13e2b"/><path d="M88.52,7.86A3.38,3.38,0,0,1,88,5.8v-3A3.42,3.42,0,0,1,88.52.75,2.75,2.75,0,0,1,92.1.66a2.71,2.71,0,0,1,.51,1.78v.7H91.15V2.42a4.56,4.56,0,0,0,0-.69.7.7,0,0,0-.21-.41.75.75,0,0,0-.53-.16.8.8,0,0,0-.56.17.81.81,0,0,0-.24.45,3.88,3.88,0,0,0-.06.74V6.12a2.11,2.11,0,0,0,.19,1,.71.71,0,0,0,.67.31.72.72,0,0,0,.52-.16.77.77,0,0,0,.22-.44,4.52,4.52,0,0,0,0-.73V5.38h1.46v.67a3,3,0,0,1-.5,1.87,2.07,2.07,0,0,1-1.75.66A2.14,2.14,0,0,1,88.52,7.86Z" fill="#e13e2b"/><path d="M94.76.13h1.5V8.47h-1.5Z" fill="#e13e2b"/><path d="M99.85.13h1.63l1.67,8.34h-1.41l-.33-1.92H99.95l-.34,1.92H98.18Zm1.39,5.44-.57-3.5-.57,3.5Z" fill="#e13e2b"/><path d="M105,.13h1.06l2,4.75V.13h1.26V8.47h-1l-2-5v5H105Z" fill="#e13e2b"/><path d="M111.72,2.49a.49.49,0,0,0,.46-.26,1.82,1.82,0,0,0,.12-.77h-.63V.13H113V1.2a2.81,2.81,0,0,1-.27,1.32,1,1,0,0,1-.87.44Z" fill="#e13e2b"/><path d="M115.38,7.94a3,3,0,0,1-.61-1.9l1.31-.26A2.88,2.88,0,0,0,116.33,7a.73.73,0,0,0,.69.42.63.63,0,0,0,.52-.21.88.88,0,0,0,.17-.57,1.5,1.5,0,0,0-.22-.83A4,4,0,0,0,116.8,5l-1-.92a3.25,3.25,0,0,1-.73-.89,2.39,2.39,0,0,1-.24-1.13,2,2,0,0,1,.58-1.52,2.25,2.25,0,0,1,1.6-.54,1.8,1.8,0,0,1,1.53.61A3,3,0,0,1,119,2.31l-1.31.23a3.07,3.07,0,0,0-.18-1,.57.57,0,0,0-.58-.35.71.71,0,0,0-.55.22.8.8,0,0,0-.2.57,1.26,1.26,0,0,0,.16.67,2.86,2.86,0,0,0,.51.59l1,.92a4.56,4.56,0,0,1,.92,1.09,2.59,2.59,0,0,1,.33,1.33,2.11,2.11,0,0,1-.26,1.06,1.87,1.87,0,0,1-.74.73,2.21,2.21,0,0,1-1.09.26A2.13,2.13,0,0,1,115.38,7.94Z" fill="#e13e2b"/><path d="M59.5,40.89a3,3,0,0,1-.61-1.9l1.31-.26a2.88,2.88,0,0,0,.25,1.21.73.73,0,0,0,.69.42.63.63,0,0,0,.52-.21.88.88,0,0,0,.17-.57,1.5,1.5,0,0,0-.22-.83,4,4,0,0,0-.69-.76l-1-.92a3.25,3.25,0,0,1-.73-.89A2.39,2.39,0,0,1,58.89,35a2,2,0,0,1,.58-1.52,2.25,2.25,0,0,1,1.6-.54,1.8,1.8,0,0,1,1.53.61,3,3,0,0,1,.54,1.65l-1.31.23a3.07,3.07,0,0,0-.18-1,.57.57,0,0,0-.58-.35.71.71,0,0,0-.55.22.8.8,0,0,0-.2.57,1.25,1.25,0,0,0,.16.67,2.86,2.86,0,0,0,.51.59l1,.92a4.56,4.56,0,0,1,.92,1.09,2.59,2.59,0,0,1,.33,1.33A2.11,2.11,0,0,1,63,40.54a1.87,1.87,0,0,1-.74.73,2.21,2.21,0,0,1-1.09.26A2.13,2.13,0,0,1,59.5,40.89Z" fill="#e13e2b"/><path d="M67.35,33.08h3.5v1.07h-2v2.4h1.56V37.6H68.87v2.77h2v1H67.35Z" fill="#e13e2b"/><path d="M75,33.08h2a3.2,3.2,0,0,1,2,.5,2,2,0,0,1,.65,1.71,3.09,3.09,0,0,1-.23,1.29,1.41,1.41,0,0,1-.8.73l1.16,4.11H78.25l-1-3.82h-.72v3.82H75Zm2,3.57a1.2,1.2,0,0,0,.92-.3,1.43,1.43,0,0,0,.27-1,1.52,1.52,0,0,0-.24-1,1.07,1.07,0,0,0-.87-.3h-.57v2.53Z" fill="#e13e2b"/><path d="M83.48,33.08h1.34l1.1,5.9,1-5.9h1.37l-1.68,8.34H85.16Z" fill="#e13e2b"/><path d="M92.17,33.08h1.5v8.34h-1.5Z" fill="#e13e2b"/><path d="M98.55,40.8A3.38,3.38,0,0,1,98,38.75v-3a3.42,3.42,0,0,1,.54-2.08,2.75,2.75,0,0,1,3.58-.09,2.71,2.71,0,0,1,.51,1.78v.7h-1.46v-.72a4.56,4.56,0,0,0,0-.69.7.7,0,0,0-.21-.41.75.75,0,0,0-.53-.16.8.8,0,0,0-.56.17.81.81,0,0,0-.24.45,3.88,3.88,0,0,0-.06.74v3.61a2.11,2.11,0,0,0,.19,1,.71.71,0,0,0,.67.31.72.72,0,0,0,.52-.16.77.77,0,0,0,.22-.44,4.52,4.52,0,0,0,0-.73v-.75h1.46V39a3,3,0,0,1-.5,1.87,2.07,2.07,0,0,1-1.75.66A2.14,2.14,0,0,1,98.55,40.8Z" fill="#e13e2b"/><path d="M106.88,33.08h3.5v1.07h-2v2.4H110V37.6h-1.56v2.77h2v1h-3.52Z" fill="#e13e2b"/><path d="M115.1,40.89a3,3,0,0,1-.61-1.9l1.31-.26a2.88,2.88,0,0,0,.25,1.21.73.73,0,0,0,.69.42.63.63,0,0,0,.52-.21.88.88,0,0,0,.17-.57,1.5,1.5,0,0,0-.22-.83,4,4,0,0,0-.69-.76l-1-.92a3.25,3.25,0,0,1-.73-.89A2.39,2.39,0,0,1,114.5,35a2,2,0,0,1,.58-1.52,2.25,2.25,0,0,1,1.6-.54,1.8,1.8,0,0,1,1.53.61,3,3,0,0,1,.54,1.65l-1.31.23a3.07,3.07,0,0,0-.18-1,.57.57,0,0,0-.58-.35.71.71,0,0,0-.55.22.8.8,0,0,0-.2.57,1.25,1.25,0,0,0,.16.67,2.86,2.86,0,0,0,.51.59l1,.92a4.56,4.56,0,0,1,.92,1.09,2.59,2.59,0,0,1,.33,1.33,2.11,2.11,0,0,1-.26,1.06,1.87,1.87,0,0,1-.74.73,2.21,2.21,0,0,1-1.09.26A2.13,2.13,0,0,1,115.1,40.89Z" fill="#e13e2b"/></g></g></svg>