<svg xmlns="http://www.w3.org/2000/svg" viewBox="0 0 135.67 36.2"><title>scott</title><g id="be305db9-f71f-460a-8386-abb26540d772" data-name="Layer 2"><g id="27f25313-5231-440e-8384-bf3229e0c81c" data-name="Layer 1"><path d="M2.48,11.68S4.8,3.08,14.15,4.07,25.4,16.73,21.09,20.78c0,0,1.41-8.44-5.38-11.75-4.1-2-8-1.9-13.23,2.65" fill="#f32837"/><path d="M7.36,31.12A11,11,0,0,1,.08,19.21c1-9.35,13.25-11.31,17.31-7,0,0-8.21-1.76-12.09,5-2.27,4-2.48,8.69,2.07,13.9" fill="#5bb4e5"/><path d="M22.35,6.3a11,11,0,0,1,7.28,11.91c-1,9.35-13.25,11.31-17.31,7,0,0,8.21,1.76,12.09-5,2.27-4,2.48-8.69-2.07-13.9" fill="#5bb4e5"/><path d="M27.17,25.5s-2.32,8.6-11.66,7.61S4.26,20.45,8.56,16.4c0,0-1.41,8.44,5.38,11.75,4.1,2,8,1.9,13.24-2.65" fill="#f32837"/><polygon points="34.39 36.01 34.39 29.08 35.84 29.08 35.84 31.72 38.53 31.72 38.53 29.08 39.97 29.08 39.97 36.01 38.53 36.01 38.53 32.91 35.84 32.91 35.84 36.01 34.39 36.01" fill="#f32837"/><polygon points="46.5 30.3 42.83 30.3 42.83 31.78 46.2 31.78 46.2 32.98 42.83 32.98 42.83 34.76 46.67 34.76 46.67 36.01 41.41 36.01 41.41 29.08 46.5 29.08 46.5 30.3" fill="#f32837"/><path d="M49.78,29.08h1.64L53.88,36H52.31l-.46-1.43H49.29L48.82,36H47.31Zm-.09,4.31h1.78l-.88-2.73Z" fill="#f32837"/><polygon points="59.1 29.08 59.1 30.3 57.02 30.3 57.02 36.01 55.56 36.01 55.56 30.3 53.47 30.3 53.47 29.08 59.1 29.08" fill="#f32837"/><rect x="59.83" y="29.08" width="1.44" height="6.93" fill="#f32837"/><polygon points="62.6 29.08 64.12 29.08 66.88 33.91 66.88 29.08 68.23 29.08 68.23 36.01 66.78 36.01 63.95 31.09 63.95 36.01 62.6 36.01 62.6 29.08" fill="#f32837"/><path d="M74.25,31.24a1.36,1.36,0,0,0-.81-1,2,2,0,0,0-.8-.15,1.73,1.73,0,0,0-1.38.63,2.86,2.86,0,0,0-.54,1.9,2.36,2.36,0,0,0,.58,1.81,1.92,1.92,0,0,0,1.33.53,1.72,1.72,0,0,0,1.2-.42,1.8,1.8,0,0,0,.57-1.09H72.81V32.29h2.89V36h-1l-.15-.86a3.33,3.33,0,0,1-.75.69,2.66,2.66,0,0,1-1.41.35,2.94,2.94,0,0,1-2.26-1,3.63,3.63,0,0,1-.92-2.62,3.84,3.84,0,0,1,.93-2.7,3.16,3.16,0,0,1,2.45-1,3.21,3.21,0,0,1,2.13.67,2.48,2.48,0,0,1,.92,1.67Z" fill="#f32837"/><path d="M79.87,33.11a3.4,3.4,0,0,1,1-.88l.15-.09a2.88,2.88,0,0,1-.47-.69,1.73,1.73,0,0,1-.16-.74,1.45,1.45,0,0,1,.52-1.18,2,2,0,0,1,1.33-.43,1.78,1.78,0,0,1,1.24.44A1.43,1.43,0,0,1,84,30.65a1.59,1.59,0,0,1-.29,1,2.86,2.86,0,0,1-.86.71l1,1.21a2,2,0,0,0,.27-.53,2,2,0,0,0,.1-.61h1.19a3.77,3.77,0,0,1-.3,1.28,3.62,3.62,0,0,1-.49.8L85.84,36H84.21l-.48-.59a3.06,3.06,0,0,1-.66.48,2.71,2.71,0,0,1-1.25.28,2.21,2.21,0,0,1-1.67-.62,1.94,1.94,0,0,1-.6-1.38,1.83,1.83,0,0,1,.31-1.07m1.31,1.66a1,1,0,0,0,.73.29,1.39,1.39,0,0,0,.64-.15,1.86,1.86,0,0,0,.49-.34L81.73,33a2.32,2.32,0,0,0-.67.59,1,1,0,0,0-.16.56.88.88,0,0,0,.29.63m.59-3.71a6,6,0,0,0,.38.49,2.53,2.53,0,0,0,.42-.33.78.78,0,0,0,.24-.55.58.58,0,0,0-.15-.39.56.56,0,0,0-.45-.17.66.66,0,0,0-.35.1.5.5,0,0,0-.24.46.72.72,0,0,0,.14.4"/><path d="M90.08,29.8a3.24,3.24,0,0,1,4.67.29,2.49,2.49,0,0,1,.47,1.29H93.77a2,2,0,0,0-.36-.75,1.58,1.58,0,0,0-2.37.19,3.11,3.11,0,0,0-.45,1.8,2.73,2.73,0,0,0,.47,1.75,1.48,1.48,0,0,0,1.2.58,1.36,1.36,0,0,0,1.14-.5,2.19,2.19,0,0,0,.36-.8H95.2a3.12,3.12,0,0,1-1,1.84,2.77,2.77,0,0,1-2,.71,2.94,2.94,0,0,1-2.33-1,3.85,3.85,0,0,1-.85-2.64,3.82,3.82,0,0,1,1-2.8" fill="#5fb4e5"/><path d="M101.72,35.39a3.6,3.6,0,0,1-4.55,0,3.73,3.73,0,0,1-1.05-2.86,3.66,3.66,0,0,1,1.05-2.86,3.6,3.6,0,0,1,4.55,0,3.67,3.67,0,0,1,1.05,2.86,3.74,3.74,0,0,1-1.05,2.86m-.91-1.05a2.83,2.83,0,0,0,.51-1.8,2.83,2.83,0,0,0-.51-1.8,1.66,1.66,0,0,0-1.37-.64,1.68,1.68,0,0,0-1.37.64,2.8,2.8,0,0,0-.51,1.8,2.8,2.8,0,0,0,.51,1.8,1.68,1.68,0,0,0,1.38.63,1.66,1.66,0,0,0,1.37-.63" fill="#5fb4e5"/><path d="M109.22,35.39a3.61,3.61,0,0,1-4.55,0,3.73,3.73,0,0,1-1.05-2.86,3.66,3.66,0,0,1,1.05-2.86,3.6,3.6,0,0,1,4.55,0,3.67,3.67,0,0,1,1.05,2.86,3.74,3.74,0,0,1-1.05,2.86m-.91-1.05a2.83,2.83,0,0,0,.51-1.8,2.83,2.83,0,0,0-.51-1.8,1.66,1.66,0,0,0-1.37-.64,1.68,1.68,0,0,0-1.37.64,2.8,2.8,0,0,0-.51,1.8,2.8,2.8,0,0,0,.51,1.8,1.68,1.68,0,0,0,1.38.63,1.66,1.66,0,0,0,1.37-.63" fill="#5fb4e5"/><polygon points="111.38 29.08 112.83 29.08 112.83 34.76 116.3 34.76 116.3 36.01 111.38 36.01 111.38 29.08" fill="#5fb4e5"/><rect x="117.15" y="29.08" width="1.44" height="6.93" fill="#5fb4e5"/><polygon points="119.93 29.08 121.45 29.08 124.2 33.91 124.2 29.08 125.55 29.08 125.55 36.01 124.1 36.01 121.28 31.09 121.28 36.01 119.93 36.01 119.93 29.08" fill="#5fb4e5"/><path d="M131.58,31.24a1.36,1.36,0,0,0-.81-1,2,2,0,0,0-.79-.15,1.73,1.73,0,0,0-1.38.63,2.86,2.86,0,0,0-.54,1.9,2.36,2.36,0,0,0,.58,1.81A1.92,1.92,0,0,0,130,35a1.72,1.72,0,0,0,1.2-.42,1.8,1.8,0,0,0,.57-1.09h-1.61V32.29H133V36h-1l-.15-.86a3.31,3.31,0,0,1-.75.69,2.66,2.66,0,0,1-1.41.35,2.94,2.94,0,0,1-2.26-1,3.63,3.63,0,0,1-.92-2.62,3.84,3.84,0,0,1,.93-2.7,3.16,3.16,0,0,1,2.45-1,3.21,3.21,0,0,1,2.13.67,2.49,2.49,0,0,1,.92,1.67Z" fill="#5fb4e5"/><path d="M49.79,4.18H44.21L43.3,7.74Q42.93,9.2,45.72,9.2a9.58,9.58,0,0,1,5.7,1.48A3.65,3.65,0,0,1,53,14.84L51.77,19.5a3.7,3.7,0,0,1-1.86,2.19,6.31,6.31,0,0,1-3.28.89H38a4.21,4.21,0,0,1-2.82-.89,2,2,0,0,1-.74-2.19L35.57,15h5.89l-.88,3.46h5.57l.91-3.56q.37-1.45-2.42-1.46A9.58,9.58,0,0,1,39,11.91a3.62,3.62,0,0,1-1.54-4.16L38.6,3.08A3.7,3.7,0,0,1,40.46.9,6.31,6.31,0,0,1,43.74,0H52.4a4.21,4.21,0,0,1,2.82.9A2,2,0,0,1,56,3.08L54.8,7.62H48.91Z" fill="#f32837"/><path d="M70.7,4.18H65.12L61.49,18.41h5.57L67.94,15h5.89L72.68,19.5a3.7,3.7,0,0,1-1.86,2.19,6.31,6.31,0,0,1-3.28.89H58.88a4.21,4.21,0,0,1-2.82-.89,2,2,0,0,1-.74-2.19L59.51,3.08A3.7,3.7,0,0,1,61.37.9,6.31,6.31,0,0,1,64.65,0h8.66a4.21,4.21,0,0,1,2.82.9,2,2,0,0,1,.74,2.19L75.71,7.62H69.82Z" fill="#f32837"/><path d="M93.83,0a4.21,4.21,0,0,1,2.82.9,2,2,0,0,1,.74,2.19L93.2,19.5a3.7,3.7,0,0,1-1.86,2.19,6.31,6.31,0,0,1-3.28.89H79.41a4.21,4.21,0,0,1-2.82-.89,2,2,0,0,1-.74-2.19L80,3.08A3.7,3.7,0,0,1,81.9.9,6.31,6.31,0,0,1,85.17,0ZM85.65,4.18,82,18.41h5.57L91.22,4.18Z" fill="#f32837"/><polygon points="105.57 4.18 99.82 4.18 100.89 0 118.25 0 117.18 4.18 111.44 4.18 106.75 22.59 100.88 22.59 105.57 4.18" fill="#f32837"/><polygon points="123 4.18 117.25 4.18 118.31 0 135.67 0 134.6 4.18 128.87 4.18 124.17 22.59 118.3 22.59 123 4.18" fill="#f32837"/><rect x="34.51" y="24.27" width="98.83" height="2.8"/></g></g></svg>