<svg xmlns="http://www.w3.org/2000/svg" viewBox="0 0 132.25 22.74"><title>stars</title><g id="c08f7bb8-0f71-40ef-880c-d6bdfa8d1bce" data-name="Layer 2"><g id="1de193c5-e619-41c7-908f-f63de6693311" data-name="Layer 7"><path d="M23.51,8.82l-2.6,2c-1.39,1-2.77,2.09-4.17,3.12a.39.39,0,0,0-.16.53q1.37,3.89,2.73,7.79l.17.51-2.15-1.41c-1.73-1.13-3.45-2.26-5.17-3.4a.48.48,0,0,0-.63,0q-3.39,2.24-6.79,4.46l-.55.36.64-2c.7-2.11,1.39-4.22,2.09-6.32a.39.39,0,0,0-.16-.53L.37,9.11A1.4,1.4,0,0,1,0,8.73H8.21a.5.5,0,0,0,.57-.39C9.72,5.72,10.68,3.1,11.64.48L11.82,0c.06.13.1.21.13.3.88,2.7,1.75,5.4,2.61,8.11.09.28.24.33.49.33h8.44l0,.08" fill="#ebb619"/><path d="M50.62,8.82l-2.6,2c-1.39,1-2.77,2.09-4.17,3.12a.39.39,0,0,0-.16.53q1.37,3.89,2.73,7.79l.17.51-2.15-1.41c-1.73-1.13-3.45-2.26-5.17-3.4a.48.48,0,0,0-.63,0q-3.39,2.24-6.79,4.46l-.55.36.64-2c.7-2.11,1.39-4.22,2.09-6.32a.39.39,0,0,0-.16-.53L27.48,9.11a1.38,1.38,0,0,1-.37-.38h8.21a.5.5,0,0,0,.57-.39c.94-2.63,1.9-5.25,2.86-7.87L38.93,0c.05.13.1.21.13.3.87,2.7,1.75,5.4,2.61,8.11.09.28.24.33.49.33H50.6l0,.08" fill="#ebb619"/><path d="M77.88,8.82l-2.6,2c-1.39,1-2.77,2.09-4.17,3.12a.39.39,0,0,0-.15.53q1.37,3.89,2.72,7.79l.17.51L71.7,21.33c-1.73-1.13-3.45-2.26-5.17-3.4a.48.48,0,0,0-.63,0q-3.39,2.24-6.79,4.46l-.55.36c.23-.72.43-1.35.64-2,.69-2.11,1.39-4.22,2.09-6.32a.39.39,0,0,0-.17-.53L54.74,9.11a1.35,1.35,0,0,1-.37-.38h8.21a.5.5,0,0,0,.57-.39C64.09,5.72,65.06,3.1,66,.48L66.19,0c.05.13.1.21.13.3.87,2.7,1.75,5.4,2.61,8.11.09.28.24.33.49.33h8.44l0,.08" fill="#ebb619"/><path d="M105.07,8.82l-2.6,2c-1.39,1-2.77,2.09-4.17,3.12a.39.39,0,0,0-.16.53q1.37,3.89,2.73,7.79l.17.51-2.15-1.41c-1.73-1.13-3.45-2.26-5.17-3.4a.48.48,0,0,0-.63,0q-3.39,2.24-6.79,4.46l-.55.36.64-2c.7-2.11,1.39-4.22,2.09-6.32a.39.39,0,0,0-.16-.53L81.93,9.11a1.4,1.4,0,0,1-.37-.38h8.21a.5.5,0,0,0,.57-.39c.94-2.63,1.9-5.25,2.86-7.87L93.38,0c.06.13.1.21.13.3.88,2.7,1.75,5.4,2.61,8.11.09.28.24.33.49.33H105l0,.08" fill="#ebb619"/><path d="M132.25,8.82l-2.6,2c-1.39,1-2.77,2.09-4.17,3.12a.39.39,0,0,0-.16.53q1.37,3.89,2.73,7.79l.17.51-2.15-1.41c-1.73-1.13-3.45-2.26-5.17-3.4a.48.48,0,0,0-.63,0q-3.39,2.24-6.79,4.46l-.55.36.64-2c.7-2.11,1.39-4.22,2.09-6.32a.39.39,0,0,0-.16-.53l-6.38-4.79a1.38,1.38,0,0,1-.37-.38H117a.5.5,0,0,0,.57-.39c.94-2.63,1.9-5.25,2.86-7.87l.18-.48c.05.13.1.21.13.3.87,2.7,1.75,5.4,2.61,8.11.09.28.24.33.49.33h8.44l0,.08" fill="#ebb619"/></g></g></svg>