<svg xmlns="http://www.w3.org/2000/svg" viewBox="0 0 204 22"><title>uber-eats-btn</title><g id="edc58e6a-a5ae-4ba7-bb4b-6a329663e188" data-name="Layer 2"><g id="bf0880ee-2b8c-4a0e-a0da-183b56770483" data-name="Layer 7"><path d="M12.88,17.22a6.93,6.93,0,0,1-5.24,2.51,6.53,6.53,0,0,1-3-.72,8.06,8.06,0,0,1-2.42-1.88A8.83,8.83,0,0,1,.58,14.47,8.22,8.22,0,0,1,0,11.42,8.88,8.88,0,0,1,.56,8.3,8.36,8.36,0,0,1,2.14,5.66,7.6,7.6,0,0,1,4.53,3.85a6.65,6.65,0,0,1,3-.68,8.77,8.77,0,0,1,2.19.26,6.66,6.66,0,0,1,1.76.74,5.57,5.57,0,0,1,1.33,1.12,7,7,0,0,1,1,1.44l-1.24.83a5.29,5.29,0,0,0-2.1-2.23,5.87,5.87,0,0,0-2.92-.71,5.24,5.24,0,0,0-2.45.57A5.74,5.74,0,0,0,3.21,6.72,7,7,0,0,0,2,8.91a8,8,0,0,0-.41,2.54,7.42,7.42,0,0,0,.47,2.62,7,7,0,0,0,1.3,2.17,6.41,6.41,0,0,0,1.94,1.49,5.55,5.55,0,0,0,2.43.55,5.74,5.74,0,0,0,2.68-.66,7.84,7.84,0,0,0,2.45-2.08V12.83H9.25V11.59h5v8H12.88Z" fill="#fff"/><path d="M22.33,19.84a5.68,5.68,0,0,1-2.39-.49A6,6,0,0,1,16.84,16a6.3,6.3,0,0,1-.44-2.36,6.4,6.4,0,0,1,.45-2.4,6.16,6.16,0,0,1,1.24-2A6,6,0,0,1,20,7.93a5.48,5.48,0,0,1,2.37-.51,5.56,5.56,0,0,1,2.38.51A6,6,0,0,1,26.6,9.29a6.16,6.16,0,0,1,1.24,2,6.4,6.4,0,0,1,.45,2.4A6.5,6.5,0,0,1,27.85,16a6,6,0,0,1-3.11,3.33A5.77,5.77,0,0,1,22.33,19.84ZM18,13.68a5,5,0,0,0,.34,1.87,5.09,5.09,0,0,0,.93,1.52,4.07,4.07,0,0,0,1.38,1,3.9,3.9,0,0,0,1.69.37A3.77,3.77,0,0,0,24,18.08a4.58,4.58,0,0,0,1.4-1,5.17,5.17,0,0,0,.94-1.53,5.37,5.37,0,0,0,0-3.76,5,5,0,0,0-.94-1.54,4.45,4.45,0,0,0-1.4-1,3.91,3.91,0,0,0-1.69-.38,3.83,3.83,0,0,0-1.68.38,4.37,4.37,0,0,0-1.38,1.05A5.11,5.11,0,0,0,18,13.68Z" fill="#fff"/><path d="M42.53,19l-.41.18c-.17.08-.38.15-.61.23a6.22,6.22,0,0,1-.78.21,4.56,4.56,0,0,1-.92.09,3.32,3.32,0,0,1-1-.14,2.23,2.23,0,0,1-.81-.42,2.13,2.13,0,0,1-.55-.73,2.31,2.31,0,0,1-.21-1V8.87H35.63V7.63h1.65v-4h1.57V7.63h2.76V8.87H38.85V17a1.22,1.22,0,0,0,.47,1,1.59,1.59,0,0,0,1,.31,2.87,2.87,0,0,0,1.17-.22,4.22,4.22,0,0,0,.64-.31Z" fill="#fff"/><path d="M49.29,19.84a5.64,5.64,0,0,1-2.39-.49A6,6,0,0,1,43.79,16a6.5,6.5,0,0,1-.44-2.36,6.4,6.4,0,0,1,.45-2.4,6.34,6.34,0,0,1,1.24-2,6.08,6.08,0,0,1,1.88-1.36,5.48,5.48,0,0,1,2.37-.51,5.56,5.56,0,0,1,2.38.51,6,6,0,0,1,1.89,1.36,6.34,6.34,0,0,1,1.24,2,6.4,6.4,0,0,1,.45,2.4A6.5,6.5,0,0,1,54.81,16a5.91,5.91,0,0,1-1.23,2,5.83,5.83,0,0,1-1.89,1.35A5.76,5.76,0,0,1,49.29,19.84Zm-4.35-6.16a5,5,0,0,0,.35,1.87,5.09,5.09,0,0,0,.93,1.52,4.07,4.07,0,0,0,1.38,1,3.9,3.9,0,0,0,1.69.37A3.77,3.77,0,0,0,51,18.08a4.54,4.54,0,0,0,1.39-1,5,5,0,0,0,.94-1.53,5.22,5.22,0,0,0,0-3.76,4.79,4.79,0,0,0-.94-1.54,4.41,4.41,0,0,0-1.39-1,3.91,3.91,0,0,0-1.69-.38,3.83,3.83,0,0,0-1.68.38,4.37,4.37,0,0,0-1.38,1.05,5,5,0,0,0-.94,1.55A5.17,5.17,0,0,0,44.94,13.68Z" fill="#fff"/><path d="M70.26,16.92a3.59,3.59,0,0,0,1.9-.46,3.63,3.63,0,0,0,1.24-1.19,4.92,4.92,0,0,0,.67-1.7,9.72,9.72,0,0,0,.2-2V3.28h3.15v8.33A11.81,11.81,0,0,1,77,14.76a7.23,7.23,0,0,1-1.26,2.58,6.2,6.2,0,0,1-2.22,1.74,8.45,8.45,0,0,1-6.57,0,6.17,6.17,0,0,1-2.22-1.8,7.35,7.35,0,0,1-1.23-2.58,12.33,12.33,0,0,1-.38-3.06V3.28h3.18v8.33a10,10,0,0,0,.19,2,5.07,5.07,0,0,0,.67,1.69,3.66,3.66,0,0,0,1.23,1.18A3.61,3.61,0,0,0,70.26,16.92Z" fill="#fff"/><path d="M87.17,19.84a4.79,4.79,0,0,1-2.46-.62,4.48,4.48,0,0,1-1.7-1.7v2.09h-2.7V2.82H83.4V9.68A4.65,4.65,0,0,1,85.09,8a4.84,4.84,0,0,1,2.45-.61,4.54,4.54,0,0,1,2.14.51,5.31,5.31,0,0,1,1.66,1.36,5.92,5.92,0,0,1,1.08,2,7.42,7.42,0,0,1,.38,2.41,6.91,6.91,0,0,1-.42,2.44,6.21,6.21,0,0,1-1.19,2,5.45,5.45,0,0,1-1.79,1.32A5.22,5.22,0,0,1,87.17,19.84Zm-.85-2.62a3.21,3.21,0,0,0,2.41-1.06A3.54,3.54,0,0,0,89.41,15a3.93,3.93,0,0,0,.24-1.38,4.13,4.13,0,0,0-.23-1.41,3.71,3.71,0,0,0-.65-1.17,3.37,3.37,0,0,0-1-.81A2.85,2.85,0,0,0,86.5,10a2.81,2.81,0,0,0-1.85.67,4.59,4.59,0,0,0-1.25,1.67V15.2a2.4,2.4,0,0,0,.47.82,3.26,3.26,0,0,0,1.55,1.05A2.93,2.93,0,0,0,86.32,17.22Z" fill="#fff"/><path d="M100.49,19.84a6.74,6.74,0,0,1-2.63-.49,6,6,0,0,1-2-1.35,5.85,5.85,0,0,1-1.27-2,6.31,6.31,0,0,1-.45-2.36,6.76,6.76,0,0,1,.43-2.43,6,6,0,0,1,1.27-2,6,6,0,0,1,2-1.37,6.68,6.68,0,0,1,2.66-.51,6.46,6.46,0,0,1,2.63.51,6,6,0,0,1,2,1.36,5.68,5.68,0,0,1,1.24,2,6.52,6.52,0,0,1,.43,2.35c0,.2,0,.39,0,.58a2.72,2.72,0,0,1-.06.46H97.4a3.55,3.55,0,0,0,.35,1.26,3,3,0,0,0,.71.94,3.13,3.13,0,0,0,1,.6,3.21,3.21,0,0,0,1.15.21,3.58,3.58,0,0,0,1.74-.45A2.38,2.38,0,0,0,103.45,16l2.65.73A5.45,5.45,0,0,1,104,19,6.59,6.59,0,0,1,100.49,19.84Zm3.12-7.27a3.19,3.19,0,0,0-1-2.17,3.07,3.07,0,0,0-2.15-.82,3.19,3.19,0,0,0-1.16.22,3,3,0,0,0-1,.61,3,3,0,0,0-.68.95,3.18,3.18,0,0,0-.31,1.21Z" fill="#fff"/><path d="M115.85,10.23a5.93,5.93,0,0,0-2.51.54,3.14,3.14,0,0,0-1.58,1.55v7.29h-3.09v-12h2.83v2.58A5.65,5.65,0,0,1,112.26,9a5.81,5.81,0,0,1,.94-.86,4.58,4.58,0,0,1,1-.57,2.81,2.81,0,0,1,1-.19h.38l.24,0Z" fill="#fff"/><path d="M134.18,16.83v2.78H122.84V3.28H134V6.07h-8V10h6.87v2.57H126v4.26Z" fill="#62b12f"/><path d="M139.42,19.84a4.41,4.41,0,0,1-1.63-.29,4,4,0,0,1-1.31-.8,3.67,3.67,0,0,1-.86-1.21,3.59,3.59,0,0,1-.31-1.52,3.25,3.25,0,0,1,.38-1.57,3.55,3.55,0,0,1,1.06-1.23,5.33,5.33,0,0,1,1.62-.8,7.15,7.15,0,0,1,2.07-.28,8.19,8.19,0,0,1,1.57.14,6.17,6.17,0,0,1,1.37.39V12a2.42,2.42,0,0,0-.68-1.84,2.81,2.81,0,0,0-2-.65,5.4,5.4,0,0,0-1.89.35,8.47,8.47,0,0,0-1.88,1l-.95-2a9,9,0,0,1,5-1.54,5.85,5.85,0,0,1,4,1.28,4.67,4.67,0,0,1,1.44,3.69v3.75a1.13,1.13,0,0,0,.17.69.79.79,0,0,0,.57.23v2.62a6.7,6.7,0,0,1-1.36.16,2,2,0,0,1-1.34-.39,1.66,1.66,0,0,1-.59-1l-.07-.67a5.37,5.37,0,0,1-2,1.61A5.62,5.62,0,0,1,139.42,19.84Zm.88-2.25a3.9,3.9,0,0,0,1.48-.28,2.68,2.68,0,0,0,1.09-.73,1.12,1.12,0,0,0,.51-.88V14.32a7,7,0,0,0-1.2-.33,6,6,0,0,0-1.24-.13,3.28,3.28,0,0,0-1.95.54,1.62,1.62,0,0,0-.76,1.37,1.64,1.64,0,0,0,.6,1.3A2.15,2.15,0,0,0,140.3,17.59Z" fill="#62b12f"/><path d="M156.47,19a12.27,12.27,0,0,1-1.52.55,6.22,6.22,0,0,1-1.89.28,4.2,4.2,0,0,1-1.2-.16,2.61,2.61,0,0,1-1-.52,2.46,2.46,0,0,1-.68-.92,3.29,3.29,0,0,1-.25-1.37V9.93h-1.59V7.56h1.59V3.65H153V7.56h2.53V9.93H153v5.89a1.11,1.11,0,0,0,.33.91,1.32,1.32,0,0,0,.82.26,2.77,2.77,0,0,0,.94-.16l.74-.28Z" fill="#62b12f"/><path d="M162.63,19.84a9.42,9.42,0,0,1-3-.48A7.21,7.21,0,0,1,157.18,18l1.15-1.93a10,10,0,0,0,2.15,1.18,5.73,5.73,0,0,0,2.08.4,2.61,2.61,0,0,0,1.45-.34,1.12,1.12,0,0,0,.53-1,1,1,0,0,0-.62-.94,13.23,13.23,0,0,0-2-.69c-.79-.22-1.45-.42-2-.62a5.3,5.3,0,0,1-1.33-.68,2.44,2.44,0,0,1-.74-.88,2.82,2.82,0,0,1-.23-1.18A3.74,3.74,0,0,1,158,9.65a3.57,3.57,0,0,1,1-1.25,4.44,4.44,0,0,1,1.51-.79,5.91,5.91,0,0,1,1.87-.28,8,8,0,0,1,2.54.39A6.12,6.12,0,0,1,167.05,9l-1.24,1.86a7.12,7.12,0,0,0-1.79-1,4.7,4.7,0,0,0-1.71-.32,2.42,2.42,0,0,0-1.31.32,1.12,1.12,0,0,0-.53,1,1,1,0,0,0,.13.53,1,1,0,0,0,.4.37,3.59,3.59,0,0,0,.72.31c.3.1.67.2,1.12.31.83.22,1.54.43,2.13.64a5.93,5.93,0,0,1,1.45.74,2.61,2.61,0,0,1,.82,1,2.93,2.93,0,0,1,.27,1.3,3.36,3.36,0,0,1-1.31,2.8A5.69,5.69,0,0,1,162.63,19.84Z" fill="#62b12f"/><path d="M193,0a11,11,0,1,0,11,11A11,11,0,0,0,193,0Zm0,1.74A9.26,9.26,0,1,1,183.74,11,9.28,9.28,0,0,1,193,1.74Z" fill="#ccc"/><polygon points="191.04 17.21 197.25 11 191.04 4.79 189.9 5.93 194.97 11 189.9 16.07 191.04 17.21" fill="#ccc"/></g></g></svg>