<?xml version="1.0" encoding="utf-8"?>
<!-- Generator: Adobe Illustrator 22.1.0, SVG Export Plug-In . SVG Version: 6.00 Build 0)  -->
<svg version="1.1" id="Layer_1" xmlns="http://www.w3.org/2000/svg" xmlns:xlink="http://www.w3.org/1999/xlink" x="0px" y="0px"
	 viewBox="0 0 123.2 143.7" style="enable-background:new 0 0 123.2 143.7;" xml:space="preserve">
<title>urgent-care-diamond</title>
<g id="Layer_2_1_">
	<g id="Layer_3">
		
			<text transform="matrix(1 0 0 1 3.73 141.43)" style="fill:#FFFFFF; font-family:'Raleway-Bold'; font-size:10px; letter-spacing:1;">IN</text>
		<text transform="matrix(1 0 0 1 16.12 141.43)" style="fill:#FFFFFF; font-family:'Raleway-Bold'; font-size:10px;"> </text>
		
			<text transform="matrix(1 0 0 1 19.31 141.43)" style="fill:#FFFFFF; font-family:'Raleway-Bold'; font-size:10px; letter-spacing:1;">THE </text>
		
			<text transform="matrix(1 0 0 1 45.4 141.43)" style="fill:#3982F7; font-family:'Raleway-Bold'; font-size:10px; letter-spacing:1;">SOUTHW</text>
		<text transform="matrix(1 0 0 1 96.65 141.43)" style="fill:#3982F7; font-family:'Raleway-Bold'; font-size:10px;">E</text>
		
			<text transform="matrix(1 0 0 1 103.53 141.43)" style="fill:#3982F7; font-family:'Raleway-Bold'; font-size:10px; letter-spacing:1;">S</text>
		<text transform="matrix(1 0 0 1 110.59 141.43)" style="fill:#3982F7; font-family:'Raleway-Bold'; font-size:10px;">T</text>
		<g>
			<defs>
				<rect id="SVGID_1_" x="-2.1" y="-3.9" width="127.5" height="130.5"/>
			</defs>
			<clipPath id="SVGID_2_">
				<use xlink:href="#SVGID_1_"  style="overflow:visible;"/>
			</clipPath>
			<g style="clip-path:url(#SVGID_2_);">
				<path style="fill:#1E242D;" d="M61.7,112.5l-51-51l50.8-50.8l51,51L61.7,112.5z"/>
				<path style="fill:#CBD2D8;" d="M61.7,123.2L0,61.5L61.5,0l61.7,61.7L61.7,123.2z M1.1,61.4l60.7,60.7l60.3-60.3L61.4,1.1
					L1.1,61.4z"/>
				<path style="fill:#D93D03;" d="M61.9,118.7L4.5,61.3L61.3,4.5l57.5,57.5L61.9,118.7z M5.6,61.2L62,117.6L117.6,62L61.2,5.6
					L5.6,61.2z"/>
			</g>
		</g>
		<text transform="matrix(1 0 0 1 35.81 56.98)" style="fill:#FFFFFF; font-family:'Montserrat-Regular'; font-size:12.03px;">URGENT</text>
		<text transform="matrix(1 0 0 1 44.8 69.95)" style="fill:#FFFFFF; font-family:'Montserrat-Regular'; font-size:12.03px;">C</text>
		<text transform="matrix(1 0 0 1 52.99 69.95)" style="fill:#FFFFFF; font-family:'Montserrat-Regular'; font-size:12.03px;">ARE</text>
		<rect x="24.6" y="64.5" style="fill:#FFFFFF;" width="16.6" height="0.4"/>
		<rect x="82" y="64.5" style="fill:#FFFFFF;" width="16.6" height="0.4"/>
	</g>
</g>
</svg>
