<svg xmlns="http://www.w3.org/2000/svg" viewBox="0 0 186.22 41.08"><title>Asset 2</title><g id="f36ba627-1b00-4a8d-8973-8758e5312223" data-name="Layer 2"><g id="b6be6030-ffa2-4d29-a38d-0ebcb8490921" data-name="Layer 8"><path d="M31,41,18.82,40.8c-3.94-.08-7.9.08-11.76-.73C1.17,38.87.76,33,.32,28A84.23,84.23,0,0,1,1.09,7.12,7.14,7.14,0,0,1,8.14.7,386,386,0,0,1,47.66.32,28.86,28.86,0,0,1,51.8.81C58.55,2,58.72,8.67,59.15,14.29a76.41,76.41,0,0,1-.58,17c-.67,4.67-2,8.59-7.35,9-6.76.49-13.37.89-20.16.76C31.06,41,31,41,31,41ZM23.84,29.2c5.1-2.93,10.1-5.81,15.17-8.71L23.84,11.77Z" fill="#8a939b"/><path d="M157.18,35.71c-.23.95-.43,1.7-.64,2.49h-4.76V1.42h5.56V15c.29-.37.44-.52.56-.69a6,6,0,0,1,3.77-2.49,4.46,4.46,0,0,1,5.46,3.06,16.86,16.86,0,0,1,.85,4.71c.08,4.06,0,8.11-.13,12.17a11,11,0,0,1-.91,3.67,5.3,5.3,0,0,1-9.18,1.1c-.16-.21-.3-.43-.58-.81Zm.28-10.12v6.73a1.92,1.92,0,0,0,1.67,2,1.94,1.94,0,0,0,2.39-1.17,3.53,3.53,0,0,0,.37-1.29c.11-4.11.21-8.21.24-12.33a8,8,0,0,0-.42-2.31,1.73,1.73,0,0,0-2.82-1,3,3,0,0,0-1.43,2.59ZM142.34,12.34h5.82V38.22h-4.54c-.17-1-.33-2-.53-3.17-.31.46-.49.75-.69,1a5.88,5.88,0,0,1-6.18,2.53c-2.16-.35-3.46-2-3.75-4.75a22.34,22.34,0,0,1-.13-2.45c0-6.06,0-12.14,0-18.19v-.91h5.9v1c0,5.86,0,11.7,0,17.55a14.34,14.34,0,0,0,.23,2.53,1.34,1.34,0,0,0,1.62,1.11,2.38,2.38,0,0,0,2.27-2.44V13.48a10.58,10.58,0,0,1,0-1.14Zm-40.11,0h5.86v1.09c0,5.83,0,11.64,0,17.45a11.82,11.82,0,0,0,.26,2.51,1.34,1.34,0,0,0,1.74,1.14,2.33,2.33,0,0,0,2.14-2.45V12.36h5.83V38.22h-4.53c-.16-1-.33-1.95-.54-3.2-.29.44-.46.69-.62.95a5.91,5.91,0,0,1-6.22,2.64c-2.08-.31-3.35-1.84-3.73-4.35a16.92,16.92,0,0,1-.19-2.35c0-6.29,0-12.61,0-18.9Zm-3,13.82c0,.87-.08,1.74-.13,2.61-.22,2.62-.33,6.33-2.44,8.24a7.4,7.4,0,0,1-4.82,1.7,14.34,14.34,0,0,1-2.36-.09C85.76,38,84,36.4,83.42,32.32a43.44,43.44,0,0,1,.08-14.21c.87-4.87,3.87-6.6,8.55-6.28,4.36.31,6.3,3.17,6.82,7.24a50.51,50.51,0,0,1,.36,7.07Zm-5.93-.89c0-1.66,0-3.33,0-5a17.34,17.34,0,0,0-.37-2.87,1.76,1.76,0,0,0-1.8-1.6,1.87,1.87,0,0,0-1.77,1.56,4.11,4.11,0,0,0-.22,1.14c0,2.6,0,5.2,0,7.8,0,2.42-.33,5,.44,7.28a1.58,1.58,0,0,0,1.61,1.1,1.56,1.56,0,0,0,1.55-1.06A4.24,4.24,0,0,0,93.1,32C93.17,29.72,93.3,27.48,93.3,25.25ZM74.87,20.37c.51-2.51,1-5,1.53-7.42.67-3.13,1.42-6.26,2.08-9.4.16-.77.47-.95,1.2-.94,1.56.06,3.15,0,4.82,0-.55,2-1.08,3.9-1.6,5.77-1.66,5.87-3.32,11.77-5,17.66a5.66,5.66,0,0,0-.18,1.43c0,3.22,0,6.43,0,9.65v1H72.07c0-.29-.06-.58-.06-.87,0-1.82-.14-3.65,0-5.46.42-4.33-1-8.31-2.07-12.34-1.48-5.33-3-10.68-4.44-16-.08-.26-.11-.53-.19-.84h5.81c1.22,5.89,2.45,11.77,3.73,17.71Zm111.31,6.76h-9.81c.11,2,.15,3.83.35,5.68a1.83,1.83,0,0,0,2,1.86,2,2,0,0,0,2.11-1.85,10.33,10.33,0,0,0,.19-1.26c0-.37.06-.78.08-1.32,1.66.08,3.28.18,4.88.25a6.25,6.25,0,0,1-3.57,7.4,10.12,10.12,0,0,1-6.76.21,5,5,0,0,1-3.49-3.2A19.07,19.07,0,0,1,171,30.17a53.05,53.05,0,0,1,.21-11.88,13,13,0,0,1,.49-1.93A5.92,5.92,0,0,1,177,11.83a17,17,0,0,1,4.51.17c2.38.41,3.65,2.13,4.21,4.38a16.69,16.69,0,0,1,.47,3.21c0,2.48,0,4.93,0,7.54Zm-5.57-3.41c0-1.94,0-3.78,0-5.62a3.89,3.89,0,0,0-.33-1.31,1.74,1.74,0,0,0-1.84-1,1.46,1.46,0,0,0-1.55,1.16,24.36,24.36,0,0,0-.4,6.82c1.48,0,2.83,0,4.14,0Z" fill="#8a939b"/><path d="M122.56,7.38H116.8V2.71H134V7.35h-5.73V38.18h-5.71Z" fill="#8a939b"/></g></g></svg>